  0
SECTION
  2
HEADER
  9
$ANGBASE
  50
0.0
  9
$ANGDIR
  70
  1
  9
$MEASUREMENT
  70
0
  0
ENDSEC
  0
SECTION
  2
TABLES
  0
TABLE
  2
LTYPE
  70
1
  0
LTYPE
  2
CONTINUOUS
  70
0
  3
Solid line
  72
65
  73
0
  40
0.0
  0
ENDTAB
  0
TABLE
  2
STYLE
  70
4
  0
STYLE
  2
KICAD
  70
0
  40
0
  41
1
  42
1
  50
0
  71
0
  3
isocp.shx
  0
STYLE
  2
KICADB
  70
0
  40
0
  41
1
  42
1
  50
0
  71
0
  3
isocp.shx
  0
STYLE
  2
KICADI
  70
0
  40
0
  41
1
  42
1
  50
15
  71
0
  3
isocp.shx
  0
STYLE
  2
KICADBI
  70
0
  40
0
  41
1
  42
1
  50
15
  71
0
  3
isocp.shx
  0
ENDTAB
  0
TABLE
  2
LAYER
  70
30
  0
LAYER
  2
BLACK
  70
0
  62
7
  6
CONTINUOUS
  0
LAYER
  2
GRAY1
  70
0
  62
251
  6
CONTINUOUS
  0
LAYER
  2
GRAY2
  70
0
  62
8
  6
CONTINUOUS
  0
LAYER
  2
GRAY3
  70
0
  62
9
  6
CONTINUOUS
  0
LAYER
  2
WHITE
  70
0
  62
7
  6
CONTINUOUS
  0
LAYER
  2
LYELLOW
  70
0
  62
51
  6
CONTINUOUS
  0
LAYER
  2
BLUE1
  70
0
  62
178
  6
CONTINUOUS
  0
LAYER
  2
GREEN1
  70
0
  62
98
  6
CONTINUOUS
  0
LAYER
  2
CYAN1
  70
0
  62
138
  6
CONTINUOUS
  0
LAYER
  2
RED1
  70
0
  62
18
  6
CONTINUOUS
  0
LAYER
  2
MAGENTA1
  70
0
  62
228
  6
CONTINUOUS
  0
LAYER
  2
BROWN1
  70
0
  62
58
  6
CONTINUOUS
  0
LAYER
  2
BLUE2
  70
0
  62
5
  6
CONTINUOUS
  0
LAYER
  2
GREEN2
  70
0
  62
3
  6
CONTINUOUS
  0
LAYER
  2
CYAN2
  70
0
  62
4
  6
CONTINUOUS
  0
LAYER
  2
RED2
  70
0
  62
1
  6
CONTINUOUS
  0
LAYER
  2
MAGENTA2
  70
0
  62
6
  6
CONTINUOUS
  0
LAYER
  2
BROWN2
  70
0
  62
54
  6
CONTINUOUS
  0
LAYER
  2
BLUE3
  70
0
  62
171
  6
CONTINUOUS
  0
LAYER
  2
GREEN3
  70
0
  62
91
  6
CONTINUOUS
  0
LAYER
  2
CYAN3
  70
0
  62
131
  6
CONTINUOUS
  0
LAYER
  2
RED3
  70
0
  62
11
  6
CONTINUOUS
  0
LAYER
  2
MAGENTA3
  70
0
  62
221
  6
CONTINUOUS
  0
LAYER
  2
YELLOW3
  70
0
  62
2
  6
CONTINUOUS
  0
LAYER
  2
BLUE4
  70
0
  62
5
  6
CONTINUOUS
  0
LAYER
  2
GREEN4
  70
0
  62
3
  6
CONTINUOUS
  0
LAYER
  2
CYAN4
  70
0
  62
4
  6
CONTINUOUS
  0
LAYER
  2
RED4
  70
0
  62
1
  6
CONTINUOUS
  0
LAYER
  2
MAGENTA4
  70
0
  62
6
  6
CONTINUOUS
  0
LAYER
  2
YELLOW4
  70
0
  62
2
  6
CONTINUOUS
  0
ENDTAB
  0
ENDSEC
  0
SECTION
  2
ENTITIES
0
LINE
8
Black
10
367.196
20
-363.279
11
367.747
21
-363.597
0
LINE
8
Black
10
367.747
20
-363.597
11
368.156
21
-364.084
0
LINE
8
Black
10
368.156
20
-364.084
11
368.373
21
-364.682
0
LINE
8
Black
10
368.373
20
-364.682
11
368.373
21
-365.318
0
LINE
8
Black
10
368.373
20
-365.318
11
368.156
21
-365.916
0
LINE
8
Black
10
368.156
20
-365.916
11
367.747
21
-366.403
0
LINE
8
Black
10
367.747
20
-366.403
11
367.196
21
-366.721
0
LINE
8
Black
10
367.196
20
-366.721
11
366.569
21
-366.832
0
LINE
8
Black
10
366.569
20
-366.832
11
365.943
21
-366.721
0
LINE
8
Black
10
365.943
20
-366.721
11
365.392
21
-366.403
0
LINE
8
Black
10
365.392
20
-366.403
11
364.983
21
-365.916
0
LINE
8
Black
10
364.983
20
-365.916
11
364.765
21
-365.318
0
LINE
8
Black
10
364.765
20
-365.318
11
364.765
21
-364.682
0
LINE
8
Black
10
364.765
20
-364.682
11
364.983
21
-364.084
0
LINE
8
Black
10
364.983
20
-364.084
11
365.392
21
-363.597
0
LINE
8
Black
10
365.392
20
-363.597
11
365.943
21
-363.279
0
LINE
8
Black
10
365.943
20
-363.279
11
366.569
21
-363.168
0
LINE
8
Black
10
366.569
20
-363.168
11
367.196
21
-363.279
0
LINE
8
Black
10
379.065
20
-363.279
11
379.616
21
-363.597
0
LINE
8
Black
10
379.616
20
-363.597
11
380.025
21
-364.084
0
LINE
8
Black
10
380.025
20
-364.084
11
380.243
21
-364.682
0
LINE
8
Black
10
380.243
20
-364.682
11
380.243
21
-365.318
0
LINE
8
Black
10
380.243
20
-365.318
11
380.025
21
-365.916
0
LINE
8
Black
10
380.025
20
-365.916
11
379.616
21
-366.403
0
LINE
8
Black
10
379.616
20
-366.403
11
379.065
21
-366.721
0
LINE
8
Black
10
379.065
20
-366.721
11
378.439
21
-366.832
0
LINE
8
Black
10
378.439
20
-366.832
11
377.812
21
-366.721
0
LINE
8
Black
10
377.812
20
-366.721
11
377.261
21
-366.403
0
LINE
8
Black
10
377.261
20
-366.403
11
376.852
21
-365.916
0
LINE
8
Black
10
376.852
20
-365.916
11
376.634
21
-365.318
0
LINE
8
Black
10
376.634
20
-365.318
11
376.634
21
-364.682
0
LINE
8
Black
10
376.634
20
-364.682
11
376.852
21
-364.084
0
LINE
8
Black
10
376.852
20
-364.084
11
377.261
21
-363.597
0
LINE
8
Black
10
377.261
20
-363.597
11
377.812
21
-363.279
0
LINE
8
Black
10
377.812
20
-363.279
11
378.439
21
-363.168
0
LINE
8
Black
10
378.439
20
-363.168
11
379.065
21
-363.279
0
LINE
8
Black
10
387.196
20
-363.279
11
387.747
21
-363.597
0
LINE
8
Black
10
387.747
20
-363.597
11
388.156
21
-364.084
0
LINE
8
Black
10
388.156
20
-364.084
11
388.373
21
-364.682
0
LINE
8
Black
10
388.373
20
-364.682
11
388.373
21
-365.318
0
LINE
8
Black
10
388.373
20
-365.318
11
388.156
21
-365.916
0
LINE
8
Black
10
388.156
20
-365.916
11
387.747
21
-366.403
0
LINE
8
Black
10
387.747
20
-366.403
11
387.196
21
-366.721
0
LINE
8
Black
10
387.196
20
-366.721
11
386.569
21
-366.832
0
LINE
8
Black
10
386.569
20
-366.832
11
385.943
21
-366.721
0
LINE
8
Black
10
385.943
20
-366.721
11
385.392
21
-366.403
0
LINE
8
Black
10
385.392
20
-366.403
11
384.983
21
-365.916
0
LINE
8
Black
10
384.983
20
-365.916
11
384.765
21
-365.318
0
LINE
8
Black
10
384.765
20
-365.318
11
384.765
21
-364.682
0
LINE
8
Black
10
384.765
20
-364.682
11
384.983
21
-364.084
0
LINE
8
Black
10
384.983
20
-364.084
11
385.392
21
-363.597
0
LINE
8
Black
10
385.392
20
-363.597
11
385.943
21
-363.279
0
LINE
8
Black
10
385.943
20
-363.279
11
386.569
21
-363.168
0
LINE
8
Black
10
386.569
20
-363.168
11
387.196
21
-363.279
0
LINE
8
Black
10
399.065
20
-363.279
11
399.616
21
-363.597
0
LINE
8
Black
10
399.616
20
-363.597
11
400.025
21
-364.084
0
LINE
8
Black
10
400.025
20
-364.084
11
400.243
21
-364.682
0
LINE
8
Black
10
400.243
20
-364.682
11
400.243
21
-365.318
0
LINE
8
Black
10
400.243
20
-365.318
11
400.025
21
-365.916
0
LINE
8
Black
10
400.025
20
-365.916
11
399.616
21
-366.403
0
LINE
8
Black
10
399.616
20
-366.403
11
399.065
21
-366.721
0
LINE
8
Black
10
399.065
20
-366.721
11
398.439
21
-366.832
0
LINE
8
Black
10
398.439
20
-366.832
11
397.812
21
-366.721
0
LINE
8
Black
10
397.812
20
-366.721
11
397.261
21
-366.403
0
LINE
8
Black
10
397.261
20
-366.403
11
396.852
21
-365.916
0
LINE
8
Black
10
396.852
20
-365.916
11
396.634
21
-365.318
0
LINE
8
Black
10
396.634
20
-365.318
11
396.634
21
-364.682
0
LINE
8
Black
10
396.634
20
-364.682
11
396.852
21
-364.084
0
LINE
8
Black
10
396.852
20
-364.084
11
397.261
21
-363.597
0
LINE
8
Black
10
397.261
20
-363.597
11
397.812
21
-363.279
0
LINE
8
Black
10
397.812
20
-363.279
11
398.439
21
-363.168
0
LINE
8
Black
10
398.439
20
-363.168
11
399.065
21
-363.279
0
LINE
8
Black
10
407.196
20
-363.279
11
407.747
21
-363.597
0
LINE
8
Black
10
407.747
20
-363.597
11
408.156
21
-364.084
0
LINE
8
Black
10
408.156
20
-364.084
11
408.373
21
-364.682
0
LINE
8
Black
10
408.373
20
-364.682
11
408.373
21
-365.318
0
LINE
8
Black
10
408.373
20
-365.318
11
408.156
21
-365.916
0
LINE
8
Black
10
408.156
20
-365.916
11
407.747
21
-366.403
0
LINE
8
Black
10
407.747
20
-366.403
11
407.196
21
-366.721
0
LINE
8
Black
10
407.196
20
-366.721
11
406.569
21
-366.832
0
LINE
8
Black
10
406.569
20
-366.832
11
405.943
21
-366.721
0
LINE
8
Black
10
405.943
20
-366.721
11
405.392
21
-366.403
0
LINE
8
Black
10
405.392
20
-366.403
11
404.983
21
-365.916
0
LINE
8
Black
10
404.983
20
-365.916
11
404.765
21
-365.318
0
LINE
8
Black
10
404.765
20
-365.318
11
404.765
21
-364.682
0
LINE
8
Black
10
404.765
20
-364.682
11
404.983
21
-364.084
0
LINE
8
Black
10
404.983
20
-364.084
11
405.392
21
-363.597
0
LINE
8
Black
10
405.392
20
-363.597
11
405.943
21
-363.279
0
LINE
8
Black
10
405.943
20
-363.279
11
406.569
21
-363.168
0
LINE
8
Black
10
406.569
20
-363.168
11
407.196
21
-363.279
0
LINE
8
Black
10
419.065
20
-363.279
11
419.616
21
-363.597
0
LINE
8
Black
10
419.616
20
-363.597
11
420.025
21
-364.084
0
LINE
8
Black
10
420.025
20
-364.084
11
420.243
21
-364.682
0
LINE
8
Black
10
420.243
20
-364.682
11
420.243
21
-365.318
0
LINE
8
Black
10
420.243
20
-365.318
11
420.025
21
-365.916
0
LINE
8
Black
10
420.025
20
-365.916
11
419.616
21
-366.403
0
LINE
8
Black
10
419.616
20
-366.403
11
419.065
21
-366.721
0
LINE
8
Black
10
419.065
20
-366.721
11
418.439
21
-366.832
0
LINE
8
Black
10
418.439
20
-366.832
11
417.812
21
-366.721
0
LINE
8
Black
10
417.812
20
-366.721
11
417.261
21
-366.403
0
LINE
8
Black
10
417.261
20
-366.403
11
416.852
21
-365.916
0
LINE
8
Black
10
416.852
20
-365.916
11
416.634
21
-365.318
0
LINE
8
Black
10
416.634
20
-365.318
11
416.634
21
-364.682
0
LINE
8
Black
10
416.634
20
-364.682
11
416.852
21
-364.084
0
LINE
8
Black
10
416.852
20
-364.084
11
417.261
21
-363.597
0
LINE
8
Black
10
417.261
20
-363.597
11
417.812
21
-363.279
0
LINE
8
Black
10
417.812
20
-363.279
11
418.439
21
-363.168
0
LINE
8
Black
10
418.439
20
-363.168
11
419.065
21
-363.279
0
LINE
8
Black
10
419.843
20
-68.9772
11
420.145
21
-69.1514
0
LINE
8
Black
10
420.145
20
-69.1514
11
420.369
21
-69.4183
0
LINE
8
Black
10
420.369
20
-69.4183
11
420.488
21
-69.7458
0
LINE
8
Black
10
420.488
20
-69.7458
11
420.488
21
-70.0942
0
LINE
8
Black
10
420.488
20
-70.0942
11
420.369
21
-70.4217
0
LINE
8
Black
10
420.369
20
-70.4217
11
420.145
21
-70.6886
0
LINE
8
Black
10
420.145
20
-70.6886
11
419.843
21
-70.8628
0
LINE
8
Black
10
419.843
20
-70.8628
11
419.5
21
-70.9233
0
LINE
8
Black
10
419.5
20
-70.9233
11
419.157
21
-70.8628
0
LINE
8
Black
10
419.157
20
-70.8628
11
418.855
21
-70.6886
0
LINE
8
Black
10
418.855
20
-70.6886
11
418.631
21
-70.4217
0
LINE
8
Black
10
418.631
20
-70.4217
11
418.512
21
-70.0942
0
LINE
8
Black
10
418.512
20
-70.0942
11
418.512
21
-69.7458
0
LINE
8
Black
10
418.512
20
-69.7458
11
418.631
21
-69.4183
0
LINE
8
Black
10
418.631
20
-69.4183
11
418.855
21
-69.1514
0
LINE
8
Black
10
418.855
20
-69.1514
11
419.157
21
-68.9772
0
LINE
8
Black
10
419.157
20
-68.9772
11
419.5
21
-68.9167
0
LINE
8
Black
10
419.5
20
-68.9167
11
419.843
21
-68.9772
0
LINE
8
Black
10
419.843
20
-79.1372
11
420.145
21
-79.3114
0
LINE
8
Black
10
420.145
20
-79.3114
11
420.369
21
-79.5783
0
LINE
8
Black
10
420.369
20
-79.5783
11
420.488
21
-79.9058
0
LINE
8
Black
10
420.488
20
-79.9058
11
420.488
21
-80.2542
0
LINE
8
Black
10
420.488
20
-80.2542
11
420.369
21
-80.5817
0
LINE
8
Black
10
420.369
20
-80.5817
11
420.145
21
-80.8486
0
LINE
8
Black
10
420.145
20
-80.8486
11
419.843
21
-81.0228
0
LINE
8
Black
10
419.843
20
-81.0228
11
419.5
21
-81.0833
0
LINE
8
Black
10
419.5
20
-81.0833
11
419.157
21
-81.0228
0
LINE
8
Black
10
419.157
20
-81.0228
11
418.855
21
-80.8486
0
LINE
8
Black
10
418.855
20
-80.8486
11
418.631
21
-80.5817
0
LINE
8
Black
10
418.631
20
-80.5817
11
418.512
21
-80.2542
0
LINE
8
Black
10
418.512
20
-80.2542
11
418.512
21
-79.9058
0
LINE
8
Black
10
418.512
20
-79.9058
11
418.631
21
-79.5783
0
LINE
8
Black
10
418.631
20
-79.5783
11
418.855
21
-79.3114
0
LINE
8
Black
10
418.855
20
-79.3114
11
419.157
21
-79.1372
0
LINE
8
Black
10
419.157
20
-79.1372
11
419.5
21
-79.0767
0
LINE
8
Black
10
419.5
20
-79.0767
11
419.843
21
-79.1372
0
LINE
8
Black
10
419.843
20
-103.977
11
420.145
21
-104.151
0
LINE
8
Black
10
420.145
20
-104.151
11
420.369
21
-104.418
0
LINE
8
Black
10
420.369
20
-104.418
11
420.488
21
-104.746
0
LINE
8
Black
10
420.488
20
-104.746
11
420.488
21
-105.094
0
LINE
8
Black
10
420.488
20
-105.094
11
420.369
21
-105.422
0
LINE
8
Black
10
420.369
20
-105.422
11
420.145
21
-105.689
0
LINE
8
Black
10
420.145
20
-105.689
11
419.843
21
-105.863
0
LINE
8
Black
10
419.843
20
-105.863
11
419.5
21
-105.923
0
LINE
8
Black
10
419.5
20
-105.923
11
419.157
21
-105.863
0
LINE
8
Black
10
419.157
20
-105.863
11
418.855
21
-105.689
0
LINE
8
Black
10
418.855
20
-105.689
11
418.631
21
-105.422
0
LINE
8
Black
10
418.631
20
-105.422
11
418.512
21
-105.094
0
LINE
8
Black
10
418.512
20
-105.094
11
418.512
21
-104.746
0
LINE
8
Black
10
418.512
20
-104.746
11
418.631
21
-104.418
0
LINE
8
Black
10
418.631
20
-104.418
11
418.855
21
-104.151
0
LINE
8
Black
10
418.855
20
-104.151
11
419.157
21
-103.977
0
LINE
8
Black
10
419.157
20
-103.977
11
419.5
21
-103.917
0
LINE
8
Black
10
419.5
20
-103.917
11
419.843
21
-103.977
0
LINE
8
Black
10
419.843
20
-114.137
11
420.145
21
-114.311
0
LINE
8
Black
10
420.145
20
-114.311
11
420.369
21
-114.578
0
LINE
8
Black
10
420.369
20
-114.578
11
420.488
21
-114.906
0
LINE
8
Black
10
420.488
20
-114.906
11
420.488
21
-115.254
0
LINE
8
Black
10
420.488
20
-115.254
11
420.369
21
-115.582
0
LINE
8
Black
10
420.369
20
-115.582
11
420.145
21
-115.849
0
LINE
8
Black
10
420.145
20
-115.849
11
419.843
21
-116.023
0
LINE
8
Black
10
419.843
20
-116.023
11
419.5
21
-116.083
0
LINE
8
Black
10
419.5
20
-116.083
11
419.157
21
-116.023
0
LINE
8
Black
10
419.157
20
-116.023
11
418.855
21
-115.849
0
LINE
8
Black
10
418.855
20
-115.849
11
418.631
21
-115.582
0
LINE
8
Black
10
418.631
20
-115.582
11
418.512
21
-115.254
0
LINE
8
Black
10
418.512
20
-115.254
11
418.512
21
-114.906
0
LINE
8
Black
10
418.512
20
-114.906
11
418.631
21
-114.578
0
LINE
8
Black
10
418.631
20
-114.578
11
418.855
21
-114.311
0
LINE
8
Black
10
418.855
20
-114.311
11
419.157
21
-114.137
0
LINE
8
Black
10
419.157
20
-114.137
11
419.5
21
-114.077
0
LINE
8
Black
10
419.5
20
-114.077
11
419.843
21
-114.137
0
LINE
8
Black
10
419.843
20
-138.977
11
420.145
21
-139.151
0
LINE
8
Black
10
420.145
20
-139.151
11
420.369
21
-139.418
0
LINE
8
Black
10
420.369
20
-139.418
11
420.488
21
-139.746
0
LINE
8
Black
10
420.488
20
-139.746
11
420.488
21
-140.094
0
LINE
8
Black
10
420.488
20
-140.094
11
420.369
21
-140.422
0
LINE
8
Black
10
420.369
20
-140.422
11
420.145
21
-140.689
0
LINE
8
Black
10
420.145
20
-140.689
11
419.843
21
-140.863
0
LINE
8
Black
10
419.843
20
-140.863
11
419.5
21
-140.923
0
LINE
8
Black
10
419.5
20
-140.923
11
419.157
21
-140.863
0
LINE
8
Black
10
419.157
20
-140.863
11
418.855
21
-140.689
0
LINE
8
Black
10
418.855
20
-140.689
11
418.631
21
-140.422
0
LINE
8
Black
10
418.631
20
-140.422
11
418.512
21
-140.094
0
LINE
8
Black
10
418.512
20
-140.094
11
418.512
21
-139.746
0
LINE
8
Black
10
418.512
20
-139.746
11
418.631
21
-139.418
0
LINE
8
Black
10
418.631
20
-139.418
11
418.855
21
-139.151
0
LINE
8
Black
10
418.855
20
-139.151
11
419.157
21
-138.977
0
LINE
8
Black
10
419.157
20
-138.977
11
419.5
21
-138.917
0
LINE
8
Black
10
419.5
20
-138.917
11
419.843
21
-138.977
0
LINE
8
Black
10
419.843
20
-149.137
11
420.145
21
-149.311
0
LINE
8
Black
10
420.145
20
-149.311
11
420.369
21
-149.578
0
LINE
8
Black
10
420.369
20
-149.578
11
420.488
21
-149.906
0
LINE
8
Black
10
420.488
20
-149.906
11
420.488
21
-150.254
0
LINE
8
Black
10
420.488
20
-150.254
11
420.369
21
-150.582
0
LINE
8
Black
10
420.369
20
-150.582
11
420.145
21
-150.849
0
LINE
8
Black
10
420.145
20
-150.849
11
419.843
21
-151.023
0
LINE
8
Black
10
419.843
20
-151.023
11
419.5
21
-151.083
0
LINE
8
Black
10
419.5
20
-151.083
11
419.157
21
-151.023
0
LINE
8
Black
10
419.157
20
-151.023
11
418.855
21
-150.849
0
LINE
8
Black
10
418.855
20
-150.849
11
418.631
21
-150.582
0
LINE
8
Black
10
418.631
20
-150.582
11
418.512
21
-150.254
0
LINE
8
Black
10
418.512
20
-150.254
11
418.512
21
-149.906
0
LINE
8
Black
10
418.512
20
-149.906
11
418.631
21
-149.578
0
LINE
8
Black
10
418.631
20
-149.578
11
418.855
21
-149.311
0
LINE
8
Black
10
418.855
20
-149.311
11
419.157
21
-149.137
0
LINE
8
Black
10
419.157
20
-149.137
11
419.5
21
-149.077
0
LINE
8
Black
10
419.5
20
-149.077
11
419.843
21
-149.137
0
LINE
8
Black
10
419.843
20
-173.977
11
420.145
21
-174.151
0
LINE
8
Black
10
420.145
20
-174.151
11
420.369
21
-174.418
0
LINE
8
Black
10
420.369
20
-174.418
11
420.488
21
-174.746
0
LINE
8
Black
10
420.488
20
-174.746
11
420.488
21
-175.094
0
LINE
8
Black
10
420.488
20
-175.094
11
420.369
21
-175.422
0
LINE
8
Black
10
420.369
20
-175.422
11
420.145
21
-175.689
0
LINE
8
Black
10
420.145
20
-175.689
11
419.843
21
-175.863
0
LINE
8
Black
10
419.843
20
-175.863
11
419.5
21
-175.923
0
LINE
8
Black
10
419.5
20
-175.923
11
419.157
21
-175.863
0
LINE
8
Black
10
419.157
20
-175.863
11
418.855
21
-175.689
0
LINE
8
Black
10
418.855
20
-175.689
11
418.631
21
-175.422
0
LINE
8
Black
10
418.631
20
-175.422
11
418.512
21
-175.094
0
LINE
8
Black
10
418.512
20
-175.094
11
418.512
21
-174.746
0
LINE
8
Black
10
418.512
20
-174.746
11
418.631
21
-174.418
0
LINE
8
Black
10
418.631
20
-174.418
11
418.855
21
-174.151
0
LINE
8
Black
10
418.855
20
-174.151
11
419.157
21
-173.977
0
LINE
8
Black
10
419.157
20
-173.977
11
419.5
21
-173.917
0
LINE
8
Black
10
419.5
20
-173.917
11
419.843
21
-173.977
0
LINE
8
Black
10
419.843
20
-184.137
11
420.145
21
-184.311
0
LINE
8
Black
10
420.145
20
-184.311
11
420.369
21
-184.578
0
LINE
8
Black
10
420.369
20
-184.578
11
420.488
21
-184.906
0
LINE
8
Black
10
420.488
20
-184.906
11
420.488
21
-185.254
0
LINE
8
Black
10
420.488
20
-185.254
11
420.369
21
-185.582
0
LINE
8
Black
10
420.369
20
-185.582
11
420.145
21
-185.849
0
LINE
8
Black
10
420.145
20
-185.849
11
419.843
21
-186.023
0
LINE
8
Black
10
419.843
20
-186.023
11
419.5
21
-186.083
0
LINE
8
Black
10
419.5
20
-186.083
11
419.157
21
-186.023
0
LINE
8
Black
10
419.157
20
-186.023
11
418.855
21
-185.849
0
LINE
8
Black
10
418.855
20
-185.849
11
418.631
21
-185.582
0
LINE
8
Black
10
418.631
20
-185.582
11
418.512
21
-185.254
0
LINE
8
Black
10
418.512
20
-185.254
11
418.512
21
-184.906
0
LINE
8
Black
10
418.512
20
-184.906
11
418.631
21
-184.578
0
LINE
8
Black
10
418.631
20
-184.578
11
418.855
21
-184.311
0
LINE
8
Black
10
418.855
20
-184.311
11
419.157
21
-184.137
0
LINE
8
Black
10
419.157
20
-184.137
11
419.5
21
-184.077
0
LINE
8
Black
10
419.5
20
-184.077
11
419.843
21
-184.137
0
LINE
8
Black
10
419.843
20
-208.977
11
420.145
21
-209.151
0
LINE
8
Black
10
420.145
20
-209.151
11
420.369
21
-209.418
0
LINE
8
Black
10
420.369
20
-209.418
11
420.488
21
-209.746
0
LINE
8
Black
10
420.488
20
-209.746
11
420.488
21
-210.094
0
LINE
8
Black
10
420.488
20
-210.094
11
420.369
21
-210.422
0
LINE
8
Black
10
420.369
20
-210.422
11
420.145
21
-210.689
0
LINE
8
Black
10
420.145
20
-210.689
11
419.843
21
-210.863
0
LINE
8
Black
10
419.843
20
-210.863
11
419.5
21
-210.923
0
LINE
8
Black
10
419.5
20
-210.923
11
419.157
21
-210.863
0
LINE
8
Black
10
419.157
20
-210.863
11
418.855
21
-210.689
0
LINE
8
Black
10
418.855
20
-210.689
11
418.631
21
-210.422
0
LINE
8
Black
10
418.631
20
-210.422
11
418.512
21
-210.094
0
LINE
8
Black
10
418.512
20
-210.094
11
418.512
21
-209.746
0
LINE
8
Black
10
418.512
20
-209.746
11
418.631
21
-209.418
0
LINE
8
Black
10
418.631
20
-209.418
11
418.855
21
-209.151
0
LINE
8
Black
10
418.855
20
-209.151
11
419.157
21
-208.977
0
LINE
8
Black
10
419.157
20
-208.977
11
419.5
21
-208.917
0
LINE
8
Black
10
419.5
20
-208.917
11
419.843
21
-208.977
0
LINE
8
Black
10
419.843
20
-219.137
11
420.145
21
-219.311
0
LINE
8
Black
10
420.145
20
-219.311
11
420.369
21
-219.578
0
LINE
8
Black
10
420.369
20
-219.578
11
420.488
21
-219.906
0
LINE
8
Black
10
420.488
20
-219.906
11
420.488
21
-220.254
0
LINE
8
Black
10
420.488
20
-220.254
11
420.369
21
-220.582
0
LINE
8
Black
10
420.369
20
-220.582
11
420.145
21
-220.849
0
LINE
8
Black
10
420.145
20
-220.849
11
419.843
21
-221.023
0
LINE
8
Black
10
419.843
20
-221.023
11
419.5
21
-221.083
0
LINE
8
Black
10
419.5
20
-221.083
11
419.157
21
-221.023
0
LINE
8
Black
10
419.157
20
-221.023
11
418.855
21
-220.849
0
LINE
8
Black
10
418.855
20
-220.849
11
418.631
21
-220.582
0
LINE
8
Black
10
418.631
20
-220.582
11
418.512
21
-220.254
0
LINE
8
Black
10
418.512
20
-220.254
11
418.512
21
-219.906
0
LINE
8
Black
10
418.512
20
-219.906
11
418.631
21
-219.578
0
LINE
8
Black
10
418.631
20
-219.578
11
418.855
21
-219.311
0
LINE
8
Black
10
418.855
20
-219.311
11
419.157
21
-219.137
0
LINE
8
Black
10
419.157
20
-219.137
11
419.5
21
-219.077
0
LINE
8
Black
10
419.5
20
-219.077
11
419.843
21
-219.137
0
LINE
8
Black
10
419.843
20
-243.977
11
420.145
21
-244.151
0
LINE
8
Black
10
420.145
20
-244.151
11
420.369
21
-244.418
0
LINE
8
Black
10
420.369
20
-244.418
11
420.488
21
-244.746
0
LINE
8
Black
10
420.488
20
-244.746
11
420.488
21
-245.094
0
LINE
8
Black
10
420.488
20
-245.094
11
420.369
21
-245.422
0
LINE
8
Black
10
420.369
20
-245.422
11
420.145
21
-245.689
0
LINE
8
Black
10
420.145
20
-245.689
11
419.843
21
-245.863
0
LINE
8
Black
10
419.843
20
-245.863
11
419.5
21
-245.923
0
LINE
8
Black
10
419.5
20
-245.923
11
419.157
21
-245.863
0
LINE
8
Black
10
419.157
20
-245.863
11
418.855
21
-245.689
0
LINE
8
Black
10
418.855
20
-245.689
11
418.631
21
-245.422
0
LINE
8
Black
10
418.631
20
-245.422
11
418.512
21
-245.094
0
LINE
8
Black
10
418.512
20
-245.094
11
418.512
21
-244.746
0
LINE
8
Black
10
418.512
20
-244.746
11
418.631
21
-244.418
0
LINE
8
Black
10
418.631
20
-244.418
11
418.855
21
-244.151
0
LINE
8
Black
10
418.855
20
-244.151
11
419.157
21
-243.977
0
LINE
8
Black
10
419.157
20
-243.977
11
419.5
21
-243.917
0
LINE
8
Black
10
419.5
20
-243.917
11
419.843
21
-243.977
0
LINE
8
Black
10
419.843
20
-254.137
11
420.145
21
-254.311
0
LINE
8
Black
10
420.145
20
-254.311
11
420.369
21
-254.578
0
LINE
8
Black
10
420.369
20
-254.578
11
420.488
21
-254.906
0
LINE
8
Black
10
420.488
20
-254.906
11
420.488
21
-255.254
0
LINE
8
Black
10
420.488
20
-255.254
11
420.369
21
-255.582
0
LINE
8
Black
10
420.369
20
-255.582
11
420.145
21
-255.849
0
LINE
8
Black
10
420.145
20
-255.849
11
419.843
21
-256.023
0
LINE
8
Black
10
419.843
20
-256.023
11
419.5
21
-256.083
0
LINE
8
Black
10
419.5
20
-256.083
11
419.157
21
-256.023
0
LINE
8
Black
10
419.157
20
-256.023
11
418.855
21
-255.849
0
LINE
8
Black
10
418.855
20
-255.849
11
418.631
21
-255.582
0
LINE
8
Black
10
418.631
20
-255.582
11
418.512
21
-255.254
0
LINE
8
Black
10
418.512
20
-255.254
11
418.512
21
-254.906
0
LINE
8
Black
10
418.512
20
-254.906
11
418.631
21
-254.578
0
LINE
8
Black
10
418.631
20
-254.578
11
418.855
21
-254.311
0
LINE
8
Black
10
418.855
20
-254.311
11
419.157
21
-254.137
0
LINE
8
Black
10
419.157
20
-254.137
11
419.5
21
-254.077
0
LINE
8
Black
10
419.5
20
-254.077
11
419.843
21
-254.137
0
LINE
8
Black
10
419.843
20
-278.977
11
420.145
21
-279.151
0
LINE
8
Black
10
420.145
20
-279.151
11
420.369
21
-279.418
0
LINE
8
Black
10
420.369
20
-279.418
11
420.488
21
-279.746
0
LINE
8
Black
10
420.488
20
-279.746
11
420.488
21
-280.094
0
LINE
8
Black
10
420.488
20
-280.094
11
420.369
21
-280.422
0
LINE
8
Black
10
420.369
20
-280.422
11
420.145
21
-280.689
0
LINE
8
Black
10
420.145
20
-280.689
11
419.843
21
-280.863
0
LINE
8
Black
10
419.843
20
-280.863
11
419.5
21
-280.923
0
LINE
8
Black
10
419.5
20
-280.923
11
419.157
21
-280.863
0
LINE
8
Black
10
419.157
20
-280.863
11
418.855
21
-280.689
0
LINE
8
Black
10
418.855
20
-280.689
11
418.631
21
-280.422
0
LINE
8
Black
10
418.631
20
-280.422
11
418.512
21
-280.094
0
LINE
8
Black
10
418.512
20
-280.094
11
418.512
21
-279.746
0
LINE
8
Black
10
418.512
20
-279.746
11
418.631
21
-279.418
0
LINE
8
Black
10
418.631
20
-279.418
11
418.855
21
-279.151
0
LINE
8
Black
10
418.855
20
-279.151
11
419.157
21
-278.977
0
LINE
8
Black
10
419.157
20
-278.977
11
419.5
21
-278.917
0
LINE
8
Black
10
419.5
20
-278.917
11
419.843
21
-278.977
0
LINE
8
Black
10
419.843
20
-289.137
11
420.145
21
-289.311
0
LINE
8
Black
10
420.145
20
-289.311
11
420.369
21
-289.578
0
LINE
8
Black
10
420.369
20
-289.578
11
420.488
21
-289.906
0
LINE
8
Black
10
420.488
20
-289.906
11
420.488
21
-290.254
0
LINE
8
Black
10
420.488
20
-290.254
11
420.369
21
-290.582
0
LINE
8
Black
10
420.369
20
-290.582
11
420.145
21
-290.849
0
LINE
8
Black
10
420.145
20
-290.849
11
419.843
21
-291.023
0
LINE
8
Black
10
419.843
20
-291.023
11
419.5
21
-291.083
0
LINE
8
Black
10
419.5
20
-291.083
11
419.157
21
-291.023
0
LINE
8
Black
10
419.157
20
-291.023
11
418.855
21
-290.849
0
LINE
8
Black
10
418.855
20
-290.849
11
418.631
21
-290.582
0
LINE
8
Black
10
418.631
20
-290.582
11
418.512
21
-290.254
0
LINE
8
Black
10
418.512
20
-290.254
11
418.512
21
-289.906
0
LINE
8
Black
10
418.512
20
-289.906
11
418.631
21
-289.578
0
LINE
8
Black
10
418.631
20
-289.578
11
418.855
21
-289.311
0
LINE
8
Black
10
418.855
20
-289.311
11
419.157
21
-289.137
0
LINE
8
Black
10
419.157
20
-289.137
11
419.5
21
-289.077
0
LINE
8
Black
10
419.5
20
-289.077
11
419.843
21
-289.137
0
LINE
8
Black
10
419.843
20
-313.977
11
420.145
21
-314.151
0
LINE
8
Black
10
420.145
20
-314.151
11
420.369
21
-314.418
0
LINE
8
Black
10
420.369
20
-314.418
11
420.488
21
-314.746
0
LINE
8
Black
10
420.488
20
-314.746
11
420.488
21
-315.094
0
LINE
8
Black
10
420.488
20
-315.094
11
420.369
21
-315.422
0
LINE
8
Black
10
420.369
20
-315.422
11
420.145
21
-315.689
0
LINE
8
Black
10
420.145
20
-315.689
11
419.843
21
-315.863
0
LINE
8
Black
10
419.843
20
-315.863
11
419.5
21
-315.923
0
LINE
8
Black
10
419.5
20
-315.923
11
419.157
21
-315.863
0
LINE
8
Black
10
419.157
20
-315.863
11
418.855
21
-315.689
0
LINE
8
Black
10
418.855
20
-315.689
11
418.631
21
-315.422
0
LINE
8
Black
10
418.631
20
-315.422
11
418.512
21
-315.094
0
LINE
8
Black
10
418.512
20
-315.094
11
418.512
21
-314.746
0
LINE
8
Black
10
418.512
20
-314.746
11
418.631
21
-314.418
0
LINE
8
Black
10
418.631
20
-314.418
11
418.855
21
-314.151
0
LINE
8
Black
10
418.855
20
-314.151
11
419.157
21
-313.977
0
LINE
8
Black
10
419.157
20
-313.977
11
419.5
21
-313.917
0
LINE
8
Black
10
419.5
20
-313.917
11
419.843
21
-313.977
0
LINE
8
Black
10
419.843
20
-324.137
11
420.145
21
-324.311
0
LINE
8
Black
10
420.145
20
-324.311
11
420.369
21
-324.578
0
LINE
8
Black
10
420.369
20
-324.578
11
420.488
21
-324.906
0
LINE
8
Black
10
420.488
20
-324.906
11
420.488
21
-325.254
0
LINE
8
Black
10
420.488
20
-325.254
11
420.369
21
-325.582
0
LINE
8
Black
10
420.369
20
-325.582
11
420.145
21
-325.849
0
LINE
8
Black
10
420.145
20
-325.849
11
419.843
21
-326.023
0
LINE
8
Black
10
419.843
20
-326.023
11
419.5
21
-326.083
0
LINE
8
Black
10
419.5
20
-326.083
11
419.157
21
-326.023
0
LINE
8
Black
10
419.157
20
-326.023
11
418.855
21
-325.849
0
LINE
8
Black
10
418.855
20
-325.849
11
418.631
21
-325.582
0
LINE
8
Black
10
418.631
20
-325.582
11
418.512
21
-325.254
0
LINE
8
Black
10
418.512
20
-325.254
11
418.512
21
-324.906
0
LINE
8
Black
10
418.512
20
-324.906
11
418.631
21
-324.578
0
LINE
8
Black
10
418.631
20
-324.578
11
418.855
21
-324.311
0
LINE
8
Black
10
418.855
20
-324.311
11
419.157
21
-324.137
0
LINE
8
Black
10
419.157
20
-324.137
11
419.5
21
-324.077
0
LINE
8
Black
10
419.5
20
-324.077
11
419.843
21
-324.137
0
CIRCLE
8
Black
10
419.5
20
-279.92
40
0.50038
0
CIRCLE
8
Black
10
419.5
20
-290.08
40
0.50038
0
CIRCLE
8
Black
10
418.439
20
-365
40
1.6256
0
CIRCLE
8
Black
10
406.569
20
-365
40
1.6256
0
CIRCLE
8
Black
10
408.055
20
-358.65
40
0.44958
0
CIRCLE
8
Black
10
409.325
20
-356.11
40
0.44958
0
CIRCLE
8
Black
10
410.595
20
-358.65
40
0.44958
0
CIRCLE
8
Black
10
411.865
20
-356.11
40
0.44958
0
CIRCLE
8
Black
10
413.135
20
-358.65
40
0.44958
0
CIRCLE
8
Black
10
414.405
20
-356.11
40
0.44958
0
CIRCLE
8
Black
10
415.675
20
-358.65
40
0.44958
0
CIRCLE
8
Black
10
416.945
20
-356.11
40
0.44958
0
CIRCLE
8
Black
10
398.439
20
-365
40
1.6256
0
CIRCLE
8
Black
10
386.569
20
-365
40
1.6256
0
CIRCLE
8
Black
10
388.055
20
-358.65
40
0.44958
0
CIRCLE
8
Black
10
389.325
20
-356.11
40
0.44958
0
CIRCLE
8
Black
10
390.595
20
-358.65
40
0.44958
0
CIRCLE
8
Black
10
391.865
20
-356.11
40
0.44958
0
CIRCLE
8
Black
10
393.135
20
-358.65
40
0.44958
0
CIRCLE
8
Black
10
394.405
20
-356.11
40
0.44958
0
CIRCLE
8
Black
10
395.675
20
-358.65
40
0.44958
0
CIRCLE
8
Black
10
396.945
20
-356.11
40
0.44958
0
CIRCLE
8
Black
10
189.5
20
-325.08
40
0.635
0
CIRCLE
8
Black
10
189.5
20
-314.92
40
0.50038
0
CIRCLE
8
Black
10
189.5
20
-290.08
40
0.635
0
CIRCLE
8
Black
10
189.5
20
-279.92
40
0.50038
0
CIRCLE
8
Black
10
189.5
20
-255.08
40
0.635
0
CIRCLE
8
Black
10
189.5
20
-244.92
40
0.50038
0
CIRCLE
8
Black
10
189.5
20
-220.08
40
0.635
0
CIRCLE
8
Black
10
189.5
20
-209.92
40
0.50038
0
CIRCLE
8
Black
10
189.5
20
-185.08
40
0.635
0
CIRCLE
8
Black
10
189.5
20
-174.92
40
0.50038
0
CIRCLE
8
Black
10
189.5
20
-150.08
40
0.635
0
CIRCLE
8
Black
10
189.5
20
-139.92
40
0.50038
0
CIRCLE
8
Black
10
189.5
20
-115.08
40
0.635
0
CIRCLE
8
Black
10
189.5
20
-104.92
40
0.50038
0
CIRCLE
8
Black
10
189.5
20
-80.08
40
0.635
0
CIRCLE
8
Black
10
189.5
20
-69.92
40
0.50038
0
CIRCLE
8
Black
10
209.5
20
-325.08
40
0.635
0
CIRCLE
8
Black
10
209.5
20
-314.92
40
0.50038
0
CIRCLE
8
Black
10
209.5
20
-290.08
40
0.635
0
CIRCLE
8
Black
10
209.5
20
-279.92
40
0.50038
0
CIRCLE
8
Black
10
209.5
20
-255.08
40
0.635
0
CIRCLE
8
Black
10
209.5
20
-244.92
40
0.50038
0
CIRCLE
8
Black
10
209.5
20
-220.08
40
0.635
0
CIRCLE
8
Black
10
209.5
20
-209.92
40
0.50038
0
CIRCLE
8
Black
10
209.5
20
-185.08
40
0.635
0
CIRCLE
8
Black
10
209.5
20
-174.92
40
0.50038
0
CIRCLE
8
Black
10
209.5
20
-150.08
40
0.635
0
CIRCLE
8
Black
10
209.5
20
-139.92
40
0.50038
0
CIRCLE
8
Black
10
209.5
20
-115.08
40
0.635
0
CIRCLE
8
Black
10
209.5
20
-104.92
40
0.50038
0
CIRCLE
8
Black
10
209.5
20
-80.08
40
0.635
0
CIRCLE
8
Black
10
209.5
20
-69.92
40
0.50038
0
CIRCLE
8
Black
10
229.5
20
-325.08
40
0.635
0
CIRCLE
8
Black
10
229.5
20
-314.92
40
0.50038
0
CIRCLE
8
Black
10
229.5
20
-290.08
40
0.635
0
CIRCLE
8
Black
10
229.5
20
-279.92
40
0.50038
0
CIRCLE
8
Black
10
229.5
20
-255.08
40
0.635
0
CIRCLE
8
Black
10
229.5
20
-244.92
40
0.50038
0
CIRCLE
8
Black
10
229.5
20
-220.08
40
0.635
0
CIRCLE
8
Black
10
229.5
20
-209.92
40
0.50038
0
CIRCLE
8
Black
10
229.5
20
-185.08
40
0.635
0
CIRCLE
8
Black
10
229.5
20
-174.92
40
0.50038
0
CIRCLE
8
Black
10
229.5
20
-150.08
40
0.635
0
CIRCLE
8
Black
10
229.5
20
-139.92
40
0.50038
0
CIRCLE
8
Black
10
229.5
20
-115.08
40
0.635
0
CIRCLE
8
Black
10
229.5
20
-104.92
40
0.50038
0
CIRCLE
8
Black
10
229.5
20
-80.08
40
0.635
0
CIRCLE
8
Black
10
229.5
20
-69.92
40
0.50038
0
CIRCLE
8
Black
10
249.5
20
-325.08
40
0.635
0
CIRCLE
8
Black
10
249.5
20
-314.92
40
0.50038
0
CIRCLE
8
Black
10
249.5
20
-290.08
40
0.635
0
CIRCLE
8
Black
10
249.5
20
-279.92
40
0.50038
0
CIRCLE
8
Black
10
249.5
20
-255.08
40
0.635
0
CIRCLE
8
Black
10
249.5
20
-244.92
40
0.50038
0
CIRCLE
8
Black
10
249.5
20
-220.08
40
0.635
0
CIRCLE
8
Black
10
249.5
20
-209.92
40
0.50038
0
CIRCLE
8
Black
10
249.5
20
-185.08
40
0.635
0
CIRCLE
8
Black
10
249.5
20
-174.92
40
0.50038
0
CIRCLE
8
Black
10
249.5
20
-150.08
40
0.635
0
CIRCLE
8
Black
10
249.5
20
-139.92
40
0.50038
0
CIRCLE
8
Black
10
249.5
20
-115.08
40
0.635
0
CIRCLE
8
Black
10
249.5
20
-104.92
40
0.50038
0
CIRCLE
8
Black
10
249.5
20
-80.08
40
0.635
0
CIRCLE
8
Black
10
249.5
20
-69.92
40
0.50038
0
CIRCLE
8
Black
10
269.5
20
-325.08
40
0.635
0
CIRCLE
8
Black
10
269.5
20
-314.92
40
0.50038
0
CIRCLE
8
Black
10
269.5
20
-290.08
40
0.635
0
CIRCLE
8
Black
10
269.5
20
-279.92
40
0.50038
0
CIRCLE
8
Black
10
269.5
20
-255.08
40
0.635
0
CIRCLE
8
Black
10
269.5
20
-244.92
40
0.50038
0
CIRCLE
8
Black
10
269.5
20
-220.08
40
0.635
0
CIRCLE
8
Black
10
269.5
20
-209.92
40
0.50038
0
CIRCLE
8
Black
10
269.5
20
-185.08
40
0.635
0
CIRCLE
8
Black
10
269.5
20
-174.92
40
0.50038
0
CIRCLE
8
Black
10
269.5
20
-150.08
40
0.635
0
CIRCLE
8
Black
10
269.5
20
-139.92
40
0.50038
0
CIRCLE
8
Black
10
269.5
20
-115.08
40
0.635
0
CIRCLE
8
Black
10
269.5
20
-104.92
40
0.50038
0
CIRCLE
8
Black
10
269.5
20
-80.08
40
0.635
0
CIRCLE
8
Black
10
269.5
20
-69.92
40
0.50038
0
CIRCLE
8
Black
10
289.5
20
-325.08
40
0.635
0
CIRCLE
8
Black
10
289.5
20
-314.92
40
0.50038
0
CIRCLE
8
Black
10
289.5
20
-290.08
40
0.635
0
CIRCLE
8
Black
10
289.5
20
-279.92
40
0.50038
0
CIRCLE
8
Black
10
289.5
20
-255.08
40
0.635
0
CIRCLE
8
Black
10
289.5
20
-244.92
40
0.50038
0
CIRCLE
8
Black
10
289.5
20
-220.08
40
0.635
0
CIRCLE
8
Black
10
289.5
20
-209.92
40
0.50038
0
CIRCLE
8
Black
10
289.5
20
-185.08
40
0.635
0
CIRCLE
8
Black
10
289.5
20
-174.92
40
0.50038
0
CIRCLE
8
Black
10
289.5
20
-150.08
40
0.635
0
CIRCLE
8
Black
10
289.5
20
-139.92
40
0.50038
0
CIRCLE
8
Black
10
289.5
20
-115.08
40
0.635
0
CIRCLE
8
Black
10
289.5
20
-104.92
40
0.50038
0
CIRCLE
8
Black
10
289.5
20
-80.08
40
0.635
0
CIRCLE
8
Black
10
289.5
20
-69.92
40
0.50038
0
CIRCLE
8
Black
10
309.5
20
-325.08
40
0.635
0
CIRCLE
8
Black
10
309.5
20
-314.92
40
0.50038
0
CIRCLE
8
Black
10
309.5
20
-290.08
40
0.635
0
CIRCLE
8
Black
10
309.5
20
-279.92
40
0.50038
0
CIRCLE
8
Black
10
309.5
20
-255.08
40
0.635
0
CIRCLE
8
Black
10
309.5
20
-244.92
40
0.50038
0
CIRCLE
8
Black
10
309.5
20
-220.08
40
0.635
0
CIRCLE
8
Black
10
309.5
20
-209.92
40
0.50038
0
CIRCLE
8
Black
10
309.5
20
-185.08
40
0.635
0
CIRCLE
8
Black
10
309.5
20
-174.92
40
0.50038
0
CIRCLE
8
Black
10
309.5
20
-150.08
40
0.635
0
CIRCLE
8
Black
10
309.5
20
-139.92
40
0.50038
0
CIRCLE
8
Black
10
309.5
20
-115.08
40
0.635
0
CIRCLE
8
Black
10
309.5
20
-104.92
40
0.50038
0
CIRCLE
8
Black
10
309.5
20
-80.08
40
0.635
0
CIRCLE
8
Black
10
309.5
20
-69.92
40
0.50038
0
CIRCLE
8
Black
10
329.5
20
-325.08
40
0.635
0
CIRCLE
8
Black
10
329.5
20
-314.92
40
0.50038
0
CIRCLE
8
Black
10
329.5
20
-290.08
40
0.635
0
CIRCLE
8
Black
10
329.5
20
-279.92
40
0.50038
0
CIRCLE
8
Black
10
329.5
20
-255.08
40
0.635
0
CIRCLE
8
Black
10
329.5
20
-244.92
40
0.50038
0
CIRCLE
8
Black
10
329.5
20
-220.08
40
0.635
0
CIRCLE
8
Black
10
329.5
20
-209.92
40
0.50038
0
CIRCLE
8
Black
10
329.5
20
-185.08
40
0.635
0
CIRCLE
8
Black
10
329.5
20
-174.92
40
0.50038
0
CIRCLE
8
Black
10
329.5
20
-150.08
40
0.635
0
CIRCLE
8
Black
10
329.5
20
-139.92
40
0.50038
0
CIRCLE
8
Black
10
329.5
20
-115.08
40
0.635
0
CIRCLE
8
Black
10
329.5
20
-104.92
40
0.50038
0
CIRCLE
8
Black
10
329.5
20
-80.08
40
0.635
0
CIRCLE
8
Black
10
329.5
20
-69.92
40
0.50038
0
CIRCLE
8
Black
10
349.5
20
-325.08
40
0.635
0
CIRCLE
8
Black
10
349.5
20
-314.92
40
0.50038
0
CIRCLE
8
Black
10
349.5
20
-290.08
40
0.635
0
CIRCLE
8
Black
10
349.5
20
-279.92
40
0.50038
0
CIRCLE
8
Black
10
349.5
20
-255.08
40
0.635
0
CIRCLE
8
Black
10
349.5
20
-244.92
40
0.50038
0
CIRCLE
8
Black
10
349.5
20
-220.08
40
0.635
0
CIRCLE
8
Black
10
349.5
20
-209.92
40
0.50038
0
CIRCLE
8
Black
10
349.5
20
-185.08
40
0.635
0
CIRCLE
8
Black
10
349.5
20
-174.92
40
0.50038
0
CIRCLE
8
Black
10
349.5
20
-150.08
40
0.635
0
CIRCLE
8
Black
10
349.5
20
-139.92
40
0.50038
0
CIRCLE
8
Black
10
349.5
20
-115.08
40
0.635
0
CIRCLE
8
Black
10
349.5
20
-104.92
40
0.50038
0
CIRCLE
8
Black
10
349.5
20
-80.08
40
0.635
0
CIRCLE
8
Black
10
349.5
20
-69.92
40
0.50038
0
CIRCLE
8
Black
10
369.5
20
-325.08
40
0.635
0
CIRCLE
8
Black
10
369.5
20
-314.92
40
0.50038
0
CIRCLE
8
Black
10
369.5
20
-290.08
40
0.635
0
CIRCLE
8
Black
10
369.5
20
-279.92
40
0.50038
0
CIRCLE
8
Black
10
369.5
20
-255.08
40
0.635
0
CIRCLE
8
Black
10
369.5
20
-244.92
40
0.50038
0
CIRCLE
8
Black
10
369.5
20
-220.08
40
0.635
0
CIRCLE
8
Black
10
369.5
20
-209.92
40
0.50038
0
CIRCLE
8
Black
10
369.5
20
-185.08
40
0.635
0
CIRCLE
8
Black
10
369.5
20
-174.92
40
0.50038
0
CIRCLE
8
Black
10
369.5
20
-150.08
40
0.635
0
CIRCLE
8
Black
10
369.5
20
-139.92
40
0.50038
0
CIRCLE
8
Black
10
369.5
20
-115.08
40
0.635
0
CIRCLE
8
Black
10
369.5
20
-104.92
40
0.50038
0
CIRCLE
8
Black
10
369.5
20
-80.08
40
0.635
0
CIRCLE
8
Black
10
369.5
20
-69.92
40
0.50038
0
CIRCLE
8
Black
10
389.5
20
-325.08
40
0.635
0
CIRCLE
8
Black
10
389.5
20
-314.92
40
0.50038
0
CIRCLE
8
Black
10
389.5
20
-290.08
40
0.635
0
CIRCLE
8
Black
10
389.5
20
-279.92
40
0.50038
0
CIRCLE
8
Black
10
389.5
20
-255.08
40
0.635
0
CIRCLE
8
Black
10
389.5
20
-244.92
40
0.50038
0
CIRCLE
8
Black
10
389.5
20
-220.08
40
0.635
0
CIRCLE
8
Black
10
389.5
20
-209.92
40
0.50038
0
CIRCLE
8
Black
10
389.5
20
-185.08
40
0.635
0
CIRCLE
8
Black
10
389.5
20
-174.92
40
0.50038
0
CIRCLE
8
Black
10
389.5
20
-150.08
40
0.635
0
CIRCLE
8
Black
10
389.5
20
-139.92
40
0.50038
0
CIRCLE
8
Black
10
389.5
20
-115.08
40
0.635
0
CIRCLE
8
Black
10
389.5
20
-104.92
40
0.50038
0
CIRCLE
8
Black
10
389.5
20
-80.08
40
0.635
0
CIRCLE
8
Black
10
389.5
20
-69.92
40
0.50038
0
CIRCLE
8
Black
10
409.5
20
-325.08
40
0.635
0
CIRCLE
8
Black
10
409.5
20
-314.92
40
0.50038
0
CIRCLE
8
Black
10
409.5
20
-290.08
40
0.635
0
CIRCLE
8
Black
10
409.5
20
-279.92
40
0.50038
0
CIRCLE
8
Black
10
409.5
20
-255.08
40
0.635
0
CIRCLE
8
Black
10
409.5
20
-244.92
40
0.50038
0
CIRCLE
8
Black
10
409.5
20
-220.08
40
0.635
0
CIRCLE
8
Black
10
409.5
20
-209.92
40
0.50038
0
CIRCLE
8
Black
10
409.5
20
-185.08
40
0.635
0
CIRCLE
8
Black
10
409.5
20
-174.92
40
0.50038
0
CIRCLE
8
Black
10
409.5
20
-150.08
40
0.635
0
CIRCLE
8
Black
10
409.5
20
-139.92
40
0.50038
0
CIRCLE
8
Black
10
409.5
20
-115.08
40
0.635
0
CIRCLE
8
Black
10
409.5
20
-104.92
40
0.50038
0
CIRCLE
8
Black
10
409.5
20
-80.08
40
0.635
0
CIRCLE
8
Black
10
409.5
20
-69.92
40
0.50038
0
CIRCLE
8
Black
10
378.439
20
-365
40
1.6256
0
CIRCLE
8
Black
10
366.569
20
-365
40
1.6256
0
CIRCLE
8
Black
10
368.055
20
-358.65
40
0.44958
0
CIRCLE
8
Black
10
369.325
20
-356.11
40
0.44958
0
CIRCLE
8
Black
10
370.595
20
-358.65
40
0.44958
0
CIRCLE
8
Black
10
371.865
20
-356.11
40
0.44958
0
CIRCLE
8
Black
10
373.135
20
-358.65
40
0.44958
0
CIRCLE
8
Black
10
374.405
20
-356.11
40
0.44958
0
CIRCLE
8
Black
10
375.675
20
-358.65
40
0.44958
0
CIRCLE
8
Black
10
376.945
20
-356.11
40
0.44958
0
CIRCLE
8
Black
10
419.5
20
-314.92
40
0.50038
0
CIRCLE
8
Black
10
419.5
20
-325.08
40
0.50038
0
CIRCLE
8
Black
10
419.5
20
-244.92
40
0.50038
0
CIRCLE
8
Black
10
419.5
20
-255.08
40
0.50038
0
CIRCLE
8
Black
10
419.5
20
-209.92
40
0.50038
0
CIRCLE
8
Black
10
419.5
20
-220.08
40
0.50038
0
CIRCLE
8
Black
10
419.5
20
-174.92
40
0.50038
0
CIRCLE
8
Black
10
419.5
20
-185.08
40
0.50038
0
CIRCLE
8
Black
10
419.5
20
-139.92
40
0.50038
0
CIRCLE
8
Black
10
419.5
20
-150.08
40
0.50038
0
CIRCLE
8
Black
10
419.5
20
-104.92
40
0.50038
0
CIRCLE
8
Black
10
419.5
20
-115.08
40
0.50038
0
CIRCLE
8
Black
10
419.5
20
-69.92
40
0.50038
0
CIRCLE
8
Black
10
419.5
20
-80.08
40
0.50038
0
CIRCLE
8
Black
10
189.5
20
-331
40
0.3
0
CIRCLE
8
Black
10
194.58
20
-331
40
0.3
0
CIRCLE
8
Black
10
184.42
20
-331
40
0.3
0
CIRCLE
8
Black
10
189.5
20
-296
40
0.3
0
CIRCLE
8
Black
10
194.58
20
-296
40
0.3
0
CIRCLE
8
Black
10
184.42
20
-296
40
0.3
0
CIRCLE
8
Black
10
189.5
20
-261
40
0.3
0
CIRCLE
8
Black
10
194.58
20
-261
40
0.3
0
CIRCLE
8
Black
10
184.42
20
-261
40
0.3
0
CIRCLE
8
Black
10
189.5
20
-226
40
0.3
0
CIRCLE
8
Black
10
194.58
20
-226
40
0.3
0
CIRCLE
8
Black
10
184.42
20
-226
40
0.3
0
CIRCLE
8
Black
10
189.5
20
-191
40
0.3
0
CIRCLE
8
Black
10
194.58
20
-191
40
0.3
0
CIRCLE
8
Black
10
184.42
20
-191
40
0.3
0
CIRCLE
8
Black
10
189.5
20
-156
40
0.3
0
CIRCLE
8
Black
10
194.58
20
-156
40
0.3
0
CIRCLE
8
Black
10
184.42
20
-156
40
0.3
0
CIRCLE
8
Black
10
189.5
20
-121
40
0.3
0
CIRCLE
8
Black
10
194.58
20
-121
40
0.3
0
CIRCLE
8
Black
10
184.42
20
-121
40
0.3
0
CIRCLE
8
Black
10
189.5
20
-86
40
0.3
0
CIRCLE
8
Black
10
194.58
20
-86
40
0.3
0
CIRCLE
8
Black
10
184.42
20
-86
40
0.3
0
CIRCLE
8
Black
10
209.5
20
-331
40
0.3
0
CIRCLE
8
Black
10
214.58
20
-331
40
0.3
0
CIRCLE
8
Black
10
204.42
20
-331
40
0.3
0
CIRCLE
8
Black
10
209.5
20
-296
40
0.3
0
CIRCLE
8
Black
10
214.58
20
-296
40
0.3
0
CIRCLE
8
Black
10
204.42
20
-296
40
0.3
0
CIRCLE
8
Black
10
209.5
20
-261
40
0.3
0
CIRCLE
8
Black
10
214.58
20
-261
40
0.3
0
CIRCLE
8
Black
10
204.42
20
-261
40
0.3
0
CIRCLE
8
Black
10
209.5
20
-226
40
0.3
0
CIRCLE
8
Black
10
214.58
20
-226
40
0.3
0
CIRCLE
8
Black
10
204.42
20
-226
40
0.3
0
CIRCLE
8
Black
10
209.5
20
-191
40
0.3
0
CIRCLE
8
Black
10
214.58
20
-191
40
0.3
0
CIRCLE
8
Black
10
204.42
20
-191
40
0.3
0
CIRCLE
8
Black
10
209.5
20
-156
40
0.3
0
CIRCLE
8
Black
10
214.58
20
-156
40
0.3
0
CIRCLE
8
Black
10
204.42
20
-156
40
0.3
0
CIRCLE
8
Black
10
209.5
20
-121
40
0.3
0
CIRCLE
8
Black
10
214.58
20
-121
40
0.3
0
CIRCLE
8
Black
10
204.42
20
-121
40
0.3
0
CIRCLE
8
Black
10
209.5
20
-86
40
0.3
0
CIRCLE
8
Black
10
214.58
20
-86
40
0.3
0
CIRCLE
8
Black
10
204.42
20
-86
40
0.3
0
CIRCLE
8
Black
10
229.5
20
-331
40
0.3
0
CIRCLE
8
Black
10
234.58
20
-331
40
0.3
0
CIRCLE
8
Black
10
224.42
20
-331
40
0.3
0
CIRCLE
8
Black
10
229.5
20
-296
40
0.3
0
CIRCLE
8
Black
10
234.58
20
-296
40
0.3
0
CIRCLE
8
Black
10
224.42
20
-296
40
0.3
0
CIRCLE
8
Black
10
229.5
20
-261
40
0.3
0
CIRCLE
8
Black
10
234.58
20
-261
40
0.3
0
CIRCLE
8
Black
10
224.42
20
-261
40
0.3
0
CIRCLE
8
Black
10
229.5
20
-226
40
0.3
0
CIRCLE
8
Black
10
234.58
20
-226
40
0.3
0
CIRCLE
8
Black
10
224.42
20
-226
40
0.3
0
CIRCLE
8
Black
10
229.5
20
-191
40
0.3
0
CIRCLE
8
Black
10
234.58
20
-191
40
0.3
0
CIRCLE
8
Black
10
224.42
20
-191
40
0.3
0
CIRCLE
8
Black
10
229.5
20
-156
40
0.3
0
CIRCLE
8
Black
10
234.58
20
-156
40
0.3
0
CIRCLE
8
Black
10
224.42
20
-156
40
0.3
0
CIRCLE
8
Black
10
229.5
20
-121
40
0.3
0
CIRCLE
8
Black
10
234.58
20
-121
40
0.3
0
CIRCLE
8
Black
10
224.42
20
-121
40
0.3
0
CIRCLE
8
Black
10
229.5
20
-86
40
0.3
0
CIRCLE
8
Black
10
234.58
20
-86
40
0.3
0
CIRCLE
8
Black
10
224.42
20
-86
40
0.3
0
CIRCLE
8
Black
10
249.5
20
-331
40
0.3
0
CIRCLE
8
Black
10
254.58
20
-331
40
0.3
0
CIRCLE
8
Black
10
244.42
20
-331
40
0.3
0
CIRCLE
8
Black
10
249.5
20
-296
40
0.3
0
CIRCLE
8
Black
10
254.58
20
-296
40
0.3
0
CIRCLE
8
Black
10
244.42
20
-296
40
0.3
0
CIRCLE
8
Black
10
249.5
20
-261
40
0.3
0
CIRCLE
8
Black
10
254.58
20
-261
40
0.3
0
CIRCLE
8
Black
10
244.42
20
-261
40
0.3
0
CIRCLE
8
Black
10
249.5
20
-226
40
0.3
0
CIRCLE
8
Black
10
254.58
20
-226
40
0.3
0
CIRCLE
8
Black
10
244.42
20
-226
40
0.3
0
CIRCLE
8
Black
10
249.5
20
-191
40
0.3
0
CIRCLE
8
Black
10
254.58
20
-191
40
0.3
0
CIRCLE
8
Black
10
244.42
20
-191
40
0.3
0
CIRCLE
8
Black
10
249.5
20
-156
40
0.3
0
CIRCLE
8
Black
10
254.58
20
-156
40
0.3
0
CIRCLE
8
Black
10
244.42
20
-156
40
0.3
0
CIRCLE
8
Black
10
249.5
20
-121
40
0.3
0
CIRCLE
8
Black
10
254.58
20
-121
40
0.3
0
CIRCLE
8
Black
10
244.42
20
-121
40
0.3
0
CIRCLE
8
Black
10
249.5
20
-86
40
0.3
0
CIRCLE
8
Black
10
254.58
20
-86
40
0.3
0
CIRCLE
8
Black
10
244.42
20
-86
40
0.3
0
CIRCLE
8
Black
10
269.5
20
-331
40
0.3
0
CIRCLE
8
Black
10
274.58
20
-331
40
0.3
0
CIRCLE
8
Black
10
264.42
20
-331
40
0.3
0
CIRCLE
8
Black
10
269.5
20
-296
40
0.3
0
CIRCLE
8
Black
10
274.58
20
-296
40
0.3
0
CIRCLE
8
Black
10
264.42
20
-296
40
0.3
0
CIRCLE
8
Black
10
269.5
20
-261
40
0.3
0
CIRCLE
8
Black
10
274.58
20
-261
40
0.3
0
CIRCLE
8
Black
10
264.42
20
-261
40
0.3
0
CIRCLE
8
Black
10
269.5
20
-226
40
0.3
0
CIRCLE
8
Black
10
274.58
20
-226
40
0.3
0
CIRCLE
8
Black
10
264.42
20
-226
40
0.3
0
CIRCLE
8
Black
10
269.5
20
-191
40
0.3
0
CIRCLE
8
Black
10
274.58
20
-191
40
0.3
0
CIRCLE
8
Black
10
264.42
20
-191
40
0.3
0
CIRCLE
8
Black
10
269.5
20
-156
40
0.3
0
CIRCLE
8
Black
10
274.58
20
-156
40
0.3
0
CIRCLE
8
Black
10
264.42
20
-156
40
0.3
0
CIRCLE
8
Black
10
269.5
20
-121
40
0.3
0
CIRCLE
8
Black
10
274.58
20
-121
40
0.3
0
CIRCLE
8
Black
10
264.42
20
-121
40
0.3
0
CIRCLE
8
Black
10
269.5
20
-86
40
0.3
0
CIRCLE
8
Black
10
274.58
20
-86
40
0.3
0
CIRCLE
8
Black
10
264.42
20
-86
40
0.3
0
CIRCLE
8
Black
10
289.5
20
-331
40
0.3
0
CIRCLE
8
Black
10
294.58
20
-331
40
0.3
0
CIRCLE
8
Black
10
284.42
20
-331
40
0.3
0
CIRCLE
8
Black
10
289.5
20
-296
40
0.3
0
CIRCLE
8
Black
10
294.58
20
-296
40
0.3
0
CIRCLE
8
Black
10
284.42
20
-296
40
0.3
0
CIRCLE
8
Black
10
289.5
20
-261
40
0.3
0
CIRCLE
8
Black
10
294.58
20
-261
40
0.3
0
CIRCLE
8
Black
10
284.42
20
-261
40
0.3
0
CIRCLE
8
Black
10
289.5
20
-226
40
0.3
0
CIRCLE
8
Black
10
294.58
20
-226
40
0.3
0
CIRCLE
8
Black
10
284.42
20
-226
40
0.3
0
CIRCLE
8
Black
10
289.5
20
-191
40
0.3
0
CIRCLE
8
Black
10
294.58
20
-191
40
0.3
0
CIRCLE
8
Black
10
284.42
20
-191
40
0.3
0
CIRCLE
8
Black
10
289.5
20
-156
40
0.3
0
CIRCLE
8
Black
10
294.58
20
-156
40
0.3
0
CIRCLE
8
Black
10
284.42
20
-156
40
0.3
0
CIRCLE
8
Black
10
289.5
20
-121
40
0.3
0
CIRCLE
8
Black
10
294.58
20
-121
40
0.3
0
CIRCLE
8
Black
10
284.42
20
-121
40
0.3
0
CIRCLE
8
Black
10
289.5
20
-86
40
0.3
0
CIRCLE
8
Black
10
294.58
20
-86
40
0.3
0
CIRCLE
8
Black
10
284.42
20
-86
40
0.3
0
CIRCLE
8
Black
10
309.5
20
-331
40
0.3
0
CIRCLE
8
Black
10
314.58
20
-331
40
0.3
0
CIRCLE
8
Black
10
304.42
20
-331
40
0.3
0
CIRCLE
8
Black
10
309.5
20
-296
40
0.3
0
CIRCLE
8
Black
10
314.58
20
-296
40
0.3
0
CIRCLE
8
Black
10
304.42
20
-296
40
0.3
0
CIRCLE
8
Black
10
309.5
20
-261
40
0.3
0
CIRCLE
8
Black
10
314.58
20
-261
40
0.3
0
CIRCLE
8
Black
10
304.42
20
-261
40
0.3
0
CIRCLE
8
Black
10
309.5
20
-226
40
0.3
0
CIRCLE
8
Black
10
314.58
20
-226
40
0.3
0
CIRCLE
8
Black
10
304.42
20
-226
40
0.3
0
CIRCLE
8
Black
10
309.5
20
-191
40
0.3
0
CIRCLE
8
Black
10
314.58
20
-191
40
0.3
0
CIRCLE
8
Black
10
304.42
20
-191
40
0.3
0
CIRCLE
8
Black
10
309.5
20
-156
40
0.3
0
CIRCLE
8
Black
10
314.58
20
-156
40
0.3
0
CIRCLE
8
Black
10
304.42
20
-156
40
0.3
0
CIRCLE
8
Black
10
309.5
20
-121
40
0.3
0
CIRCLE
8
Black
10
314.58
20
-121
40
0.3
0
CIRCLE
8
Black
10
304.42
20
-121
40
0.3
0
CIRCLE
8
Black
10
309.5
20
-86
40
0.3
0
CIRCLE
8
Black
10
314.58
20
-86
40
0.3
0
CIRCLE
8
Black
10
304.42
20
-86
40
0.3
0
CIRCLE
8
Black
10
329.5
20
-331
40
0.3
0
CIRCLE
8
Black
10
334.58
20
-331
40
0.3
0
CIRCLE
8
Black
10
324.42
20
-331
40
0.3
0
CIRCLE
8
Black
10
329.5
20
-296
40
0.3
0
CIRCLE
8
Black
10
334.58
20
-296
40
0.3
0
CIRCLE
8
Black
10
324.42
20
-296
40
0.3
0
CIRCLE
8
Black
10
329.5
20
-261
40
0.3
0
CIRCLE
8
Black
10
334.58
20
-261
40
0.3
0
CIRCLE
8
Black
10
324.42
20
-261
40
0.3
0
CIRCLE
8
Black
10
329.5
20
-226
40
0.3
0
CIRCLE
8
Black
10
334.58
20
-226
40
0.3
0
CIRCLE
8
Black
10
324.42
20
-226
40
0.3
0
CIRCLE
8
Black
10
329.5
20
-191
40
0.3
0
CIRCLE
8
Black
10
334.58
20
-191
40
0.3
0
CIRCLE
8
Black
10
324.42
20
-191
40
0.3
0
CIRCLE
8
Black
10
329.5
20
-156
40
0.3
0
CIRCLE
8
Black
10
334.58
20
-156
40
0.3
0
CIRCLE
8
Black
10
324.42
20
-156
40
0.3
0
CIRCLE
8
Black
10
329.5
20
-121
40
0.3
0
CIRCLE
8
Black
10
334.58
20
-121
40
0.3
0
CIRCLE
8
Black
10
324.42
20
-121
40
0.3
0
CIRCLE
8
Black
10
329.5
20
-86
40
0.3
0
CIRCLE
8
Black
10
334.58
20
-86
40
0.3
0
CIRCLE
8
Black
10
324.42
20
-86
40
0.3
0
CIRCLE
8
Black
10
349.5
20
-331
40
0.3
0
CIRCLE
8
Black
10
354.58
20
-331
40
0.3
0
CIRCLE
8
Black
10
344.42
20
-331
40
0.3
0
CIRCLE
8
Black
10
349.5
20
-296
40
0.3
0
CIRCLE
8
Black
10
354.58
20
-296
40
0.3
0
CIRCLE
8
Black
10
344.42
20
-296
40
0.3
0
CIRCLE
8
Black
10
349.5
20
-261
40
0.3
0
CIRCLE
8
Black
10
354.58
20
-261
40
0.3
0
CIRCLE
8
Black
10
344.42
20
-261
40
0.3
0
CIRCLE
8
Black
10
349.5
20
-226
40
0.3
0
CIRCLE
8
Black
10
354.58
20
-226
40
0.3
0
CIRCLE
8
Black
10
344.42
20
-226
40
0.3
0
CIRCLE
8
Black
10
349.5
20
-191
40
0.3
0
CIRCLE
8
Black
10
354.58
20
-191
40
0.3
0
CIRCLE
8
Black
10
344.42
20
-191
40
0.3
0
CIRCLE
8
Black
10
349.5
20
-156
40
0.3
0
CIRCLE
8
Black
10
354.58
20
-156
40
0.3
0
CIRCLE
8
Black
10
344.42
20
-156
40
0.3
0
CIRCLE
8
Black
10
349.5
20
-121
40
0.3
0
CIRCLE
8
Black
10
354.58
20
-121
40
0.3
0
CIRCLE
8
Black
10
344.42
20
-121
40
0.3
0
CIRCLE
8
Black
10
349.5
20
-86
40
0.3
0
CIRCLE
8
Black
10
354.58
20
-86
40
0.3
0
CIRCLE
8
Black
10
344.42
20
-86
40
0.3
0
CIRCLE
8
Black
10
369.5
20
-331
40
0.3
0
CIRCLE
8
Black
10
374.58
20
-331
40
0.3
0
CIRCLE
8
Black
10
364.42
20
-331
40
0.3
0
CIRCLE
8
Black
10
369.5
20
-296
40
0.3
0
CIRCLE
8
Black
10
374.58
20
-296
40
0.3
0
CIRCLE
8
Black
10
364.42
20
-296
40
0.3
0
CIRCLE
8
Black
10
369.5
20
-261
40
0.3
0
CIRCLE
8
Black
10
374.58
20
-261
40
0.3
0
CIRCLE
8
Black
10
364.42
20
-261
40
0.3
0
CIRCLE
8
Black
10
369.5
20
-226
40
0.3
0
CIRCLE
8
Black
10
374.58
20
-226
40
0.3
0
CIRCLE
8
Black
10
364.42
20
-226
40
0.3
0
CIRCLE
8
Black
10
369.5
20
-191
40
0.3
0
CIRCLE
8
Black
10
374.58
20
-191
40
0.3
0
CIRCLE
8
Black
10
364.42
20
-191
40
0.3
0
CIRCLE
8
Black
10
369.5
20
-156
40
0.3
0
CIRCLE
8
Black
10
374.58
20
-156
40
0.3
0
CIRCLE
8
Black
10
364.42
20
-156
40
0.3
0
CIRCLE
8
Black
10
369.5
20
-121
40
0.3
0
CIRCLE
8
Black
10
374.58
20
-121
40
0.3
0
CIRCLE
8
Black
10
364.42
20
-121
40
0.3
0
CIRCLE
8
Black
10
369.5
20
-86
40
0.3
0
CIRCLE
8
Black
10
374.58
20
-86
40
0.3
0
CIRCLE
8
Black
10
364.42
20
-86
40
0.3
0
CIRCLE
8
Black
10
389.5
20
-331
40
0.3
0
CIRCLE
8
Black
10
394.58
20
-331
40
0.3
0
CIRCLE
8
Black
10
384.42
20
-331
40
0.3
0
CIRCLE
8
Black
10
389.5
20
-296
40
0.3
0
CIRCLE
8
Black
10
394.58
20
-296
40
0.3
0
CIRCLE
8
Black
10
384.42
20
-296
40
0.3
0
CIRCLE
8
Black
10
389.5
20
-261
40
0.3
0
CIRCLE
8
Black
10
394.58
20
-261
40
0.3
0
CIRCLE
8
Black
10
384.42
20
-261
40
0.3
0
CIRCLE
8
Black
10
389.5
20
-226
40
0.3
0
CIRCLE
8
Black
10
394.58
20
-226
40
0.3
0
CIRCLE
8
Black
10
384.42
20
-226
40
0.3
0
CIRCLE
8
Black
10
389.5
20
-191
40
0.3
0
CIRCLE
8
Black
10
394.58
20
-191
40
0.3
0
CIRCLE
8
Black
10
384.42
20
-191
40
0.3
0
CIRCLE
8
Black
10
389.5
20
-156
40
0.3
0
CIRCLE
8
Black
10
394.58
20
-156
40
0.3
0
CIRCLE
8
Black
10
384.42
20
-156
40
0.3
0
CIRCLE
8
Black
10
389.5
20
-121
40
0.3
0
CIRCLE
8
Black
10
394.58
20
-121
40
0.3
0
CIRCLE
8
Black
10
384.42
20
-121
40
0.3
0
CIRCLE
8
Black
10
389.5
20
-86
40
0.3
0
CIRCLE
8
Black
10
394.58
20
-86
40
0.3
0
CIRCLE
8
Black
10
384.42
20
-86
40
0.3
0
CIRCLE
8
Black
10
409.5
20
-331
40
0.3
0
CIRCLE
8
Black
10
414.58
20
-331
40
0.3
0
CIRCLE
8
Black
10
404.42
20
-331
40
0.3
0
CIRCLE
8
Black
10
409.5
20
-296
40
0.3
0
CIRCLE
8
Black
10
414.58
20
-296
40
0.3
0
CIRCLE
8
Black
10
404.42
20
-296
40
0.3
0
CIRCLE
8
Black
10
409.5
20
-261
40
0.3
0
CIRCLE
8
Black
10
414.58
20
-261
40
0.3
0
CIRCLE
8
Black
10
404.42
20
-261
40
0.3
0
CIRCLE
8
Black
10
409.5
20
-226
40
0.3
0
CIRCLE
8
Black
10
414.58
20
-226
40
0.3
0
CIRCLE
8
Black
10
404.42
20
-226
40
0.3
0
CIRCLE
8
Black
10
409.5
20
-191
40
0.3
0
CIRCLE
8
Black
10
414.58
20
-191
40
0.3
0
CIRCLE
8
Black
10
404.42
20
-191
40
0.3
0
CIRCLE
8
Black
10
409.5
20
-156
40
0.3
0
CIRCLE
8
Black
10
414.58
20
-156
40
0.3
0
CIRCLE
8
Black
10
404.42
20
-156
40
0.3
0
CIRCLE
8
Black
10
409.5
20
-121
40
0.3
0
CIRCLE
8
Black
10
414.58
20
-121
40
0.3
0
CIRCLE
8
Black
10
404.42
20
-121
40
0.3
0
CIRCLE
8
Black
10
409.5
20
-86
40
0.3
0
CIRCLE
8
Black
10
414.58
20
-86
40
0.3
0
CIRCLE
8
Black
10
404.42
20
-86
40
0.3
  0
ENDSEC
  0
EOF
