<?xml version="1.0" standalone="no"?>
 <!DOCTYPE svg PUBLIC "-//W3C//DTD SVG 1.1//EN" 
 "http://www.w3.org/Graphics/SVG/1.1/DTD/svg11.dtd"> 
<svg xmlns="http://www.w3.org/2000/svg" version="1.1" 
    width="59.4004cm" height="41.9989cm" viewBox="0 0 233860 165350 ">
<title>SVG Picture created as isometric-instrument-NPTH-drl_map.svg date 2014/11/03 14:36:11 </title>
  <desc>Picture generated by PCBNEW </desc>
<g style="fill:#000000; fill-opacity:1;stroke:#000000; stroke-opacity:1;
stroke-linecap:round; stroke-linejoin:round; "
 transform="translate(0 0) scale(1 1)">
</g>
<g style="fill:#000000; fill-opacity:0.0; 
stroke:#000000; stroke-width:39.3701; stroke-opacity:1; 
stroke-linecap:round; stroke-linejoin:round;">
<path d="M70866 146850
L70866 25590
" />
<path d="M172834 146850
L70866 146850
" />
<path d="M172834 146850
L172834 25590
" />
<path d="M70866 25590
L172834 25590
" />
</g>
<g style="fill:#000000; fill-opacity:0.0; 
stroke:#000000; stroke-width:78.7402; stroke-opacity:1; 
stroke-linecap:round; stroke-linejoin:round;">
<path d="M143678 143060
L144958 144340
" />
<path d="M144958 143060
L143678 144340
" />
<path d="M148351 143060
L149631 144340
" />
<path d="M149631 143060
L148351 144340
" />
<path d="M151552 143060
L152832 144340
" />
<path d="M152832 143060
L151552 144340
" />
<path d="M156225 143060
L157505 144340
" />
<path d="M157505 143060
L156225 144340
" />
<path d="M159426 143060
L160706 144340
" />
<path d="M160706 143060
L159426 144340
" />
<path d="M164099 143060
L165379 144340
" />
<path d="M165379 143060
L164099 144340
" />
</g>
<g style="fill:#000000; fill-opacity:0.0; 
stroke:#000000; stroke-width:118.11; stroke-opacity:1; 
stroke-linecap:round; stroke-linejoin:round;">
<path d="M71915 148703
L71915 147522
L72196 147522
L72365 147578
L72477 147691
L72533 147803
L72589 148028
L72589 148197
L72533 148422
L72477 148534
L72365 148647
L72196 148703
L71915 148703
" />
<path d="M73096 148703
L73096 147916
" />
<path d="M73096 148141
L73152 148028
L73208 147972
L73321 147916
L73433 147916
" />
<path d="M73827 148703
L73827 147916
" />
<path d="M73827 147522
L73771 147578
L73827 147634
L73883 147578
L73827 147522
L73827 147634
" />
<path d="M74558 148703
L74446 148647
L74389 148534
L74389 147522
" />
<path d="M75177 148703
L75064 148647
L75008 148534
L75008 147522
" />
<path d="M76526 148703
L76526 147522
L76920 148366
L77314 147522
L77314 148703
" />
<path d="M78383 148703
L78383 148084
L78326 147972
L78214 147916
L77989 147916
L77876 147972
" />
<path d="M78383 148647
L78270 148703
L77989 148703
L77876 148647
L77820 148534
L77820 148422
L77876 148309
L77989 148253
L78270 148253
L78383 148197
" />
<path d="M78945 147916
L78945 149097
" />
<path d="M78945 147972
L79057 147916
L79282 147916
L79395 147972
L79451 148028
L79507 148141
L79507 148478
L79451 148591
L79395 148647
L79282 148703
L79057 148703
L78945 148647
" />
<path d="M80014 148591
L80070 148647
L80014 148703
L79957 148647
L80014 148591
L80014 148703
" />
<path d="M80014 147972
L80070 148028
L80014 148084
L79957 148028
L80014 147972
L80014 148084
" />
<path d="M69566 150009
L70846 151289
" />
<path d="M70846 150009
L69566 151289
" />
<path d="M71802 150002
L72533 150002
L72140 150452
L72308 150452
L72421 150508
L72477 150565
L72533 150677
L72533 150958
L72477 151071
L72421 151127
L72308 151183
L71971 151183
L71858 151127
L71802 151071
" />
<path d="M73039 151071
L73096 151127
L73039 151183
L72983 151127
L73039 151071
L73039 151183
" />
<path d="M73546 150115
L73602 150059
L73714 150002
L73996 150002
L74108 150059
L74164 150115
L74221 150227
L74221 150340
L74164 150508
L73489 151183
L74221 151183
" />
<path d="M75289 150002
L74727 150002
L74670 150565
L74727 150508
L74839 150452
L75120 150452
L75233 150508
L75289 150565
L75345 150677
L75345 150958
L75289 151071
L75233 151127
L75120 151183
L74839 151183
L74727 151127
L74670 151071
" />
<path d="M75852 151183
L75852 150396
" />
<path d="M75852 150508
L75908 150452
L76020 150396
L76189 150396
L76302 150452
L76358 150565
L76358 151183
" />
<path d="M76358 150565
L76414 150452
L76526 150396
L76695 150396
L76808 150452
L76864 150565
L76864 151183
" />
<path d="M77426 151183
L77426 150396
" />
<path d="M77426 150508
L77483 150452
L77595 150396
L77764 150396
L77876 150452
L77933 150565
L77933 151183
" />
<path d="M77933 150565
L77989 150452
L78101 150396
L78270 150396
L78383 150452
L78439 150565
L78439 151183
" />
<path d="M80745 149946
L79732 151465
" />
<path d="M82263 150002
L82376 150002
L82488 150059
L82544 150115
L82601 150227
L82657 150452
L82657 150733
L82601 150958
L82544 151071
L82488 151127
L82376 151183
L82263 151183
L82151 151127
L82095 151071
L82038 150958
L81982 150733
L81982 150452
L82038 150227
L82095 150115
L82151 150059
L82263 150002
" />
<path d="M83163 151071
L83219 151127
L83163 151183
L83107 151127
L83163 151071
L83163 151183
" />
<path d="M84344 151183
L83669 151183
" />
<path d="M84007 151183
L84007 150002
L83894 150171
L83782 150284
L83669 150340
" />
<path d="M84794 150115
L84850 150059
L84963 150002
L85244 150002
L85357 150059
L85413 150115
L85469 150227
L85469 150340
L85413 150508
L84738 151183
L85469 151183
" />
<path d="M86144 150508
L86032 150452
L85975 150396
L85919 150284
L85919 150227
L85975 150115
L86032 150059
L86144 150002
L86369 150002
L86482 150059
L86538 150115
L86594 150227
L86594 150284
L86538 150396
L86482 150452
L86369 150508
L86144 150508
L86032 150565
L85975 150621
L85919 150733
L85919 150958
L85975 151071
L86032 151127
L86144 151183
L86369 151183
L86482 151127
L86538 151071
L86594 150958
L86594 150733
L86538 150621
L86482 150565
L86369 150508
" />
<path d="M87044 150002
L87044 150227
" />
<path d="M87494 150002
L87494 150227
" />
<path d="M89237 151633
L89181 151577
L89069 151408
L89012 151296
L88956 151127
L88900 150846
L88900 150621
L88956 150340
L89012 150171
L89069 150059
L89181 149890
L89237 149834
" />
<path d="M90194 150002
L89969 150002
L89856 150059
L89800 150115
L89687 150284
L89631 150508
L89631 150958
L89687 151071
L89744 151127
L89856 151183
L90081 151183
L90194 151127
L90250 151071
L90306 150958
L90306 150677
L90250 150565
L90194 150508
L90081 150452
L89856 150452
L89744 150508
L89687 150565
L89631 150677
" />
<path d="M91712 151183
L91712 150002
" />
<path d="M92218 151183
L92218 150565
L92162 150452
L92050 150396
L91881 150396
L91768 150452
L91712 150508
" />
<path d="M92949 151183
L92837 151127
L92781 151071
L92724 150958
L92724 150621
L92781 150508
L92837 150452
L92949 150396
L93118 150396
L93231 150452
L93287 150508
L93343 150621
L93343 150958
L93287 151071
L93231 151127
L93118 151183
L92949 151183
" />
<path d="M94018 151183
L93906 151127
L93849 151015
L93849 150002
" />
<path d="M94918 151127
L94805 151183
L94580 151183
L94468 151127
L94412 151015
L94412 150565
L94468 150452
L94580 150396
L94805 150396
L94918 150452
L94974 150565
L94974 150677
L94412 150790
" />
<path d="M95424 151127
L95537 151183
L95762 151183
L95874 151127
L95930 151015
L95930 150958
L95874 150846
L95762 150790
L95593 150790
L95480 150733
L95424 150621
L95424 150565
L95480 150452
L95593 150396
L95762 150396
L95874 150452
" />
<path d="M96324 151633
L96380 151577
L96493 151408
L96549 151296
L96605 151127
L96661 150846
L96661 150621
L96605 150340
L96549 150171
L96493 150059
L96380 149890
L96324 149834
" />
</g> 
</svg>
