  0
SECTION
  2
HEADER
  9
$ANGBASE
  50
0.0
  9
$ANGDIR
  70
  1
  9
$MEASUREMENT
  70
0
  0
ENDSEC
  0
SECTION
  2
TABLES
  0
TABLE
  2
LTYPE
  70
1
  0
LTYPE
  2
CONTINUOUS
  70
0
  3
Solid line
  72
65
  73
0
  40
0.0
  0
ENDTAB
  0
TABLE
  2
STYLE
  70
4
  0
STYLE
  2
KICAD
  70
0
  40
0
  41
1
  42
1
  50
0
  71
0
  3
isocp.shx
  0
STYLE
  2
KICADB
  70
0
  40
0
  41
1
  42
1
  50
0
  71
0
  3
isocp.shx
  0
STYLE
  2
KICADI
  70
0
  40
0
  41
1
  42
1
  50
15
  71
0
  3
isocp.shx
  0
STYLE
  2
KICADBI
  70
0
  40
0
  41
1
  42
1
  50
15
  71
0
  3
isocp.shx
  0
ENDTAB
  0
TABLE
  2
LAYER
  70
30
  0
LAYER
  2
BLACK
  70
0
  62
7
  6
CONTINUOUS
  0
LAYER
  2
GRAY1
  70
0
  62
251
  6
CONTINUOUS
  0
LAYER
  2
GRAY2
  70
0
  62
8
  6
CONTINUOUS
  0
LAYER
  2
GRAY3
  70
0
  62
9
  6
CONTINUOUS
  0
LAYER
  2
WHITE
  70
0
  62
7
  6
CONTINUOUS
  0
LAYER
  2
LYELLOW
  70
0
  62
51
  6
CONTINUOUS
  0
LAYER
  2
BLUE1
  70
0
  62
178
  6
CONTINUOUS
  0
LAYER
  2
GREEN1
  70
0
  62
98
  6
CONTINUOUS
  0
LAYER
  2
CYAN1
  70
0
  62
138
  6
CONTINUOUS
  0
LAYER
  2
RED1
  70
0
  62
18
  6
CONTINUOUS
  0
LAYER
  2
MAGENTA1
  70
0
  62
228
  6
CONTINUOUS
  0
LAYER
  2
BROWN1
  70
0
  62
58
  6
CONTINUOUS
  0
LAYER
  2
BLUE2
  70
0
  62
5
  6
CONTINUOUS
  0
LAYER
  2
GREEN2
  70
0
  62
3
  6
CONTINUOUS
  0
LAYER
  2
CYAN2
  70
0
  62
4
  6
CONTINUOUS
  0
LAYER
  2
RED2
  70
0
  62
1
  6
CONTINUOUS
  0
LAYER
  2
MAGENTA2
  70
0
  62
6
  6
CONTINUOUS
  0
LAYER
  2
BROWN2
  70
0
  62
54
  6
CONTINUOUS
  0
LAYER
  2
BLUE3
  70
0
  62
171
  6
CONTINUOUS
  0
LAYER
  2
GREEN3
  70
0
  62
91
  6
CONTINUOUS
  0
LAYER
  2
CYAN3
  70
0
  62
131
  6
CONTINUOUS
  0
LAYER
  2
RED3
  70
0
  62
11
  6
CONTINUOUS
  0
LAYER
  2
MAGENTA3
  70
0
  62
221
  6
CONTINUOUS
  0
LAYER
  2
YELLOW3
  70
0
  62
2
  6
CONTINUOUS
  0
LAYER
  2
BLUE4
  70
0
  62
5
  6
CONTINUOUS
  0
LAYER
  2
GREEN4
  70
0
  62
3
  6
CONTINUOUS
  0
LAYER
  2
CYAN4
  70
0
  62
4
  6
CONTINUOUS
  0
LAYER
  2
RED4
  70
0
  62
1
  6
CONTINUOUS
  0
LAYER
  2
MAGENTA4
  70
0
  62
6
  6
CONTINUOUS
  0
LAYER
  2
YELLOW4
  70
0
  62
2
  6
CONTINUOUS
  0
ENDTAB
  0
ENDSEC
  0
SECTION
  2
ENTITIES
0
LINE
8
Black
10
184.12
20
-85.7
11
184.72
21
-86.3
0
LINE
8
Black
10
184.72
20
-85.7
11
184.12
21
-86.3
0
LINE
8
Black
10
184.12
20
-120.7
11
184.72
21
-121.3
0
LINE
8
Black
10
184.72
20
-120.7
11
184.12
21
-121.3
0
LINE
8
Black
10
184.12
20
-155.7
11
184.72
21
-156.3
0
LINE
8
Black
10
184.72
20
-155.7
11
184.12
21
-156.3
0
LINE
8
Black
10
184.12
20
-190.7
11
184.72
21
-191.3
0
LINE
8
Black
10
184.72
20
-190.7
11
184.12
21
-191.3
0
LINE
8
Black
10
184.12
20
-225.7
11
184.72
21
-226.3
0
LINE
8
Black
10
184.72
20
-225.7
11
184.12
21
-226.3
0
LINE
8
Black
10
184.12
20
-260.7
11
184.72
21
-261.3
0
LINE
8
Black
10
184.72
20
-260.7
11
184.12
21
-261.3
0
LINE
8
Black
10
184.12
20
-295.7
11
184.72
21
-296.3
0
LINE
8
Black
10
184.72
20
-295.7
11
184.12
21
-296.3
0
LINE
8
Black
10
184.12
20
-330.7
11
184.72
21
-331.3
0
LINE
8
Black
10
184.72
20
-330.7
11
184.12
21
-331.3
0
LINE
8
Black
10
189.2
20
-85.7
11
189.8
21
-86.3
0
LINE
8
Black
10
189.8
20
-85.7
11
189.2
21
-86.3
0
LINE
8
Black
10
189.2
20
-120.7
11
189.8
21
-121.3
0
LINE
8
Black
10
189.8
20
-120.7
11
189.2
21
-121.3
0
LINE
8
Black
10
189.2
20
-155.7
11
189.8
21
-156.3
0
LINE
8
Black
10
189.8
20
-155.7
11
189.2
21
-156.3
0
LINE
8
Black
10
189.2
20
-190.7
11
189.8
21
-191.3
0
LINE
8
Black
10
189.8
20
-190.7
11
189.2
21
-191.3
0
LINE
8
Black
10
189.2
20
-225.7
11
189.8
21
-226.3
0
LINE
8
Black
10
189.8
20
-225.7
11
189.2
21
-226.3
0
LINE
8
Black
10
189.2
20
-260.7
11
189.8
21
-261.3
0
LINE
8
Black
10
189.8
20
-260.7
11
189.2
21
-261.3
0
LINE
8
Black
10
189.2
20
-295.7
11
189.8
21
-296.3
0
LINE
8
Black
10
189.8
20
-295.7
11
189.2
21
-296.3
0
LINE
8
Black
10
189.2
20
-330.7
11
189.8
21
-331.3
0
LINE
8
Black
10
189.8
20
-330.7
11
189.2
21
-331.3
0
LINE
8
Black
10
194.28
20
-85.7
11
194.88
21
-86.3
0
LINE
8
Black
10
194.88
20
-85.7
11
194.28
21
-86.3
0
LINE
8
Black
10
194.28
20
-120.7
11
194.88
21
-121.3
0
LINE
8
Black
10
194.88
20
-120.7
11
194.28
21
-121.3
0
LINE
8
Black
10
194.28
20
-155.7
11
194.88
21
-156.3
0
LINE
8
Black
10
194.88
20
-155.7
11
194.28
21
-156.3
0
LINE
8
Black
10
194.28
20
-190.7
11
194.88
21
-191.3
0
LINE
8
Black
10
194.88
20
-190.7
11
194.28
21
-191.3
0
LINE
8
Black
10
194.28
20
-225.7
11
194.88
21
-226.3
0
LINE
8
Black
10
194.88
20
-225.7
11
194.28
21
-226.3
0
LINE
8
Black
10
194.28
20
-260.7
11
194.88
21
-261.3
0
LINE
8
Black
10
194.88
20
-260.7
11
194.28
21
-261.3
0
LINE
8
Black
10
194.28
20
-295.7
11
194.88
21
-296.3
0
LINE
8
Black
10
194.88
20
-295.7
11
194.28
21
-296.3
0
LINE
8
Black
10
194.28
20
-330.7
11
194.88
21
-331.3
0
LINE
8
Black
10
194.88
20
-330.7
11
194.28
21
-331.3
0
LINE
8
Black
10
204.12
20
-85.7
11
204.72
21
-86.3
0
LINE
8
Black
10
204.72
20
-85.7
11
204.12
21
-86.3
0
LINE
8
Black
10
204.12
20
-120.7
11
204.72
21
-121.3
0
LINE
8
Black
10
204.72
20
-120.7
11
204.12
21
-121.3
0
LINE
8
Black
10
204.12
20
-155.7
11
204.72
21
-156.3
0
LINE
8
Black
10
204.72
20
-155.7
11
204.12
21
-156.3
0
LINE
8
Black
10
204.12
20
-190.7
11
204.72
21
-191.3
0
LINE
8
Black
10
204.72
20
-190.7
11
204.12
21
-191.3
0
LINE
8
Black
10
204.12
20
-225.7
11
204.72
21
-226.3
0
LINE
8
Black
10
204.72
20
-225.7
11
204.12
21
-226.3
0
LINE
8
Black
10
204.12
20
-260.7
11
204.72
21
-261.3
0
LINE
8
Black
10
204.72
20
-260.7
11
204.12
21
-261.3
0
LINE
8
Black
10
204.12
20
-295.7
11
204.72
21
-296.3
0
LINE
8
Black
10
204.72
20
-295.7
11
204.12
21
-296.3
0
LINE
8
Black
10
204.12
20
-330.7
11
204.72
21
-331.3
0
LINE
8
Black
10
204.72
20
-330.7
11
204.12
21
-331.3
0
LINE
8
Black
10
209.2
20
-85.7
11
209.8
21
-86.3
0
LINE
8
Black
10
209.8
20
-85.7
11
209.2
21
-86.3
0
LINE
8
Black
10
209.2
20
-120.7
11
209.8
21
-121.3
0
LINE
8
Black
10
209.8
20
-120.7
11
209.2
21
-121.3
0
LINE
8
Black
10
209.2
20
-155.7
11
209.8
21
-156.3
0
LINE
8
Black
10
209.8
20
-155.7
11
209.2
21
-156.3
0
LINE
8
Black
10
209.2
20
-190.7
11
209.8
21
-191.3
0
LINE
8
Black
10
209.8
20
-190.7
11
209.2
21
-191.3
0
LINE
8
Black
10
209.2
20
-225.7
11
209.8
21
-226.3
0
LINE
8
Black
10
209.8
20
-225.7
11
209.2
21
-226.3
0
LINE
8
Black
10
209.2
20
-260.7
11
209.8
21
-261.3
0
LINE
8
Black
10
209.8
20
-260.7
11
209.2
21
-261.3
0
LINE
8
Black
10
209.2
20
-295.7
11
209.8
21
-296.3
0
LINE
8
Black
10
209.8
20
-295.7
11
209.2
21
-296.3
0
LINE
8
Black
10
209.2
20
-330.7
11
209.8
21
-331.3
0
LINE
8
Black
10
209.8
20
-330.7
11
209.2
21
-331.3
0
LINE
8
Black
10
214.28
20
-85.7
11
214.88
21
-86.3
0
LINE
8
Black
10
214.88
20
-85.7
11
214.28
21
-86.3
0
LINE
8
Black
10
214.28
20
-120.7
11
214.88
21
-121.3
0
LINE
8
Black
10
214.88
20
-120.7
11
214.28
21
-121.3
0
LINE
8
Black
10
214.28
20
-155.7
11
214.88
21
-156.3
0
LINE
8
Black
10
214.88
20
-155.7
11
214.28
21
-156.3
0
LINE
8
Black
10
214.28
20
-190.7
11
214.88
21
-191.3
0
LINE
8
Black
10
214.88
20
-190.7
11
214.28
21
-191.3
0
LINE
8
Black
10
214.28
20
-225.7
11
214.88
21
-226.3
0
LINE
8
Black
10
214.88
20
-225.7
11
214.28
21
-226.3
0
LINE
8
Black
10
214.28
20
-260.7
11
214.88
21
-261.3
0
LINE
8
Black
10
214.88
20
-260.7
11
214.28
21
-261.3
0
LINE
8
Black
10
214.28
20
-295.7
11
214.88
21
-296.3
0
LINE
8
Black
10
214.88
20
-295.7
11
214.28
21
-296.3
0
LINE
8
Black
10
214.28
20
-330.7
11
214.88
21
-331.3
0
LINE
8
Black
10
214.88
20
-330.7
11
214.28
21
-331.3
0
LINE
8
Black
10
224.12
20
-85.7
11
224.72
21
-86.3
0
LINE
8
Black
10
224.72
20
-85.7
11
224.12
21
-86.3
0
LINE
8
Black
10
224.12
20
-120.7
11
224.72
21
-121.3
0
LINE
8
Black
10
224.72
20
-120.7
11
224.12
21
-121.3
0
LINE
8
Black
10
224.12
20
-155.7
11
224.72
21
-156.3
0
LINE
8
Black
10
224.72
20
-155.7
11
224.12
21
-156.3
0
LINE
8
Black
10
224.12
20
-190.7
11
224.72
21
-191.3
0
LINE
8
Black
10
224.72
20
-190.7
11
224.12
21
-191.3
0
LINE
8
Black
10
224.12
20
-225.7
11
224.72
21
-226.3
0
LINE
8
Black
10
224.72
20
-225.7
11
224.12
21
-226.3
0
LINE
8
Black
10
224.12
20
-260.7
11
224.72
21
-261.3
0
LINE
8
Black
10
224.72
20
-260.7
11
224.12
21
-261.3
0
LINE
8
Black
10
224.12
20
-295.7
11
224.72
21
-296.3
0
LINE
8
Black
10
224.72
20
-295.7
11
224.12
21
-296.3
0
LINE
8
Black
10
224.12
20
-330.7
11
224.72
21
-331.3
0
LINE
8
Black
10
224.72
20
-330.7
11
224.12
21
-331.3
0
LINE
8
Black
10
229.2
20
-85.7
11
229.8
21
-86.3
0
LINE
8
Black
10
229.8
20
-85.7
11
229.2
21
-86.3
0
LINE
8
Black
10
229.2
20
-120.7
11
229.8
21
-121.3
0
LINE
8
Black
10
229.8
20
-120.7
11
229.2
21
-121.3
0
LINE
8
Black
10
229.2
20
-155.7
11
229.8
21
-156.3
0
LINE
8
Black
10
229.8
20
-155.7
11
229.2
21
-156.3
0
LINE
8
Black
10
229.2
20
-190.7
11
229.8
21
-191.3
0
LINE
8
Black
10
229.8
20
-190.7
11
229.2
21
-191.3
0
LINE
8
Black
10
229.2
20
-225.7
11
229.8
21
-226.3
0
LINE
8
Black
10
229.8
20
-225.7
11
229.2
21
-226.3
0
LINE
8
Black
10
229.2
20
-260.7
11
229.8
21
-261.3
0
LINE
8
Black
10
229.8
20
-260.7
11
229.2
21
-261.3
0
LINE
8
Black
10
229.2
20
-295.7
11
229.8
21
-296.3
0
LINE
8
Black
10
229.8
20
-295.7
11
229.2
21
-296.3
0
LINE
8
Black
10
229.2
20
-330.7
11
229.8
21
-331.3
0
LINE
8
Black
10
229.8
20
-330.7
11
229.2
21
-331.3
0
LINE
8
Black
10
234.28
20
-85.7
11
234.88
21
-86.3
0
LINE
8
Black
10
234.88
20
-85.7
11
234.28
21
-86.3
0
LINE
8
Black
10
234.28
20
-120.7
11
234.88
21
-121.3
0
LINE
8
Black
10
234.88
20
-120.7
11
234.28
21
-121.3
0
LINE
8
Black
10
234.28
20
-155.7
11
234.88
21
-156.3
0
LINE
8
Black
10
234.88
20
-155.7
11
234.28
21
-156.3
0
LINE
8
Black
10
234.28
20
-190.7
11
234.88
21
-191.3
0
LINE
8
Black
10
234.88
20
-190.7
11
234.28
21
-191.3
0
LINE
8
Black
10
234.28
20
-225.7
11
234.88
21
-226.3
0
LINE
8
Black
10
234.88
20
-225.7
11
234.28
21
-226.3
0
LINE
8
Black
10
234.28
20
-260.7
11
234.88
21
-261.3
0
LINE
8
Black
10
234.88
20
-260.7
11
234.28
21
-261.3
0
LINE
8
Black
10
234.28
20
-295.7
11
234.88
21
-296.3
0
LINE
8
Black
10
234.88
20
-295.7
11
234.28
21
-296.3
0
LINE
8
Black
10
234.28
20
-330.7
11
234.88
21
-331.3
0
LINE
8
Black
10
234.88
20
-330.7
11
234.28
21
-331.3
0
LINE
8
Black
10
244.12
20
-85.7
11
244.72
21
-86.3
0
LINE
8
Black
10
244.72
20
-85.7
11
244.12
21
-86.3
0
LINE
8
Black
10
244.12
20
-120.7
11
244.72
21
-121.3
0
LINE
8
Black
10
244.72
20
-120.7
11
244.12
21
-121.3
0
LINE
8
Black
10
244.12
20
-155.7
11
244.72
21
-156.3
0
LINE
8
Black
10
244.72
20
-155.7
11
244.12
21
-156.3
0
LINE
8
Black
10
244.12
20
-190.7
11
244.72
21
-191.3
0
LINE
8
Black
10
244.72
20
-190.7
11
244.12
21
-191.3
0
LINE
8
Black
10
244.12
20
-225.7
11
244.72
21
-226.3
0
LINE
8
Black
10
244.72
20
-225.7
11
244.12
21
-226.3
0
LINE
8
Black
10
244.12
20
-260.7
11
244.72
21
-261.3
0
LINE
8
Black
10
244.72
20
-260.7
11
244.12
21
-261.3
0
LINE
8
Black
10
244.12
20
-295.7
11
244.72
21
-296.3
0
LINE
8
Black
10
244.72
20
-295.7
11
244.12
21
-296.3
0
LINE
8
Black
10
244.12
20
-330.7
11
244.72
21
-331.3
0
LINE
8
Black
10
244.72
20
-330.7
11
244.12
21
-331.3
0
LINE
8
Black
10
249.2
20
-85.7
11
249.8
21
-86.3
0
LINE
8
Black
10
249.8
20
-85.7
11
249.2
21
-86.3
0
LINE
8
Black
10
249.2
20
-120.7
11
249.8
21
-121.3
0
LINE
8
Black
10
249.8
20
-120.7
11
249.2
21
-121.3
0
LINE
8
Black
10
249.2
20
-155.7
11
249.8
21
-156.3
0
LINE
8
Black
10
249.8
20
-155.7
11
249.2
21
-156.3
0
LINE
8
Black
10
249.2
20
-190.7
11
249.8
21
-191.3
0
LINE
8
Black
10
249.8
20
-190.7
11
249.2
21
-191.3
0
LINE
8
Black
10
249.2
20
-225.7
11
249.8
21
-226.3
0
LINE
8
Black
10
249.8
20
-225.7
11
249.2
21
-226.3
0
LINE
8
Black
10
249.2
20
-260.7
11
249.8
21
-261.3
0
LINE
8
Black
10
249.8
20
-260.7
11
249.2
21
-261.3
0
LINE
8
Black
10
249.2
20
-295.7
11
249.8
21
-296.3
0
LINE
8
Black
10
249.8
20
-295.7
11
249.2
21
-296.3
0
LINE
8
Black
10
249.2
20
-330.7
11
249.8
21
-331.3
0
LINE
8
Black
10
249.8
20
-330.7
11
249.2
21
-331.3
0
LINE
8
Black
10
254.28
20
-85.7
11
254.88
21
-86.3
0
LINE
8
Black
10
254.88
20
-85.7
11
254.28
21
-86.3
0
LINE
8
Black
10
254.28
20
-120.7
11
254.88
21
-121.3
0
LINE
8
Black
10
254.88
20
-120.7
11
254.28
21
-121.3
0
LINE
8
Black
10
254.28
20
-155.7
11
254.88
21
-156.3
0
LINE
8
Black
10
254.88
20
-155.7
11
254.28
21
-156.3
0
LINE
8
Black
10
254.28
20
-190.7
11
254.88
21
-191.3
0
LINE
8
Black
10
254.88
20
-190.7
11
254.28
21
-191.3
0
LINE
8
Black
10
254.28
20
-225.7
11
254.88
21
-226.3
0
LINE
8
Black
10
254.88
20
-225.7
11
254.28
21
-226.3
0
LINE
8
Black
10
254.28
20
-260.7
11
254.88
21
-261.3
0
LINE
8
Black
10
254.88
20
-260.7
11
254.28
21
-261.3
0
LINE
8
Black
10
254.28
20
-295.7
11
254.88
21
-296.3
0
LINE
8
Black
10
254.88
20
-295.7
11
254.28
21
-296.3
0
LINE
8
Black
10
254.28
20
-330.7
11
254.88
21
-331.3
0
LINE
8
Black
10
254.88
20
-330.7
11
254.28
21
-331.3
0
LINE
8
Black
10
264.12
20
-85.7
11
264.72
21
-86.3
0
LINE
8
Black
10
264.72
20
-85.7
11
264.12
21
-86.3
0
LINE
8
Black
10
264.12
20
-120.7
11
264.72
21
-121.3
0
LINE
8
Black
10
264.72
20
-120.7
11
264.12
21
-121.3
0
LINE
8
Black
10
264.12
20
-155.7
11
264.72
21
-156.3
0
LINE
8
Black
10
264.72
20
-155.7
11
264.12
21
-156.3
0
LINE
8
Black
10
264.12
20
-190.7
11
264.72
21
-191.3
0
LINE
8
Black
10
264.72
20
-190.7
11
264.12
21
-191.3
0
LINE
8
Black
10
264.12
20
-225.7
11
264.72
21
-226.3
0
LINE
8
Black
10
264.72
20
-225.7
11
264.12
21
-226.3
0
LINE
8
Black
10
264.12
20
-260.7
11
264.72
21
-261.3
0
LINE
8
Black
10
264.72
20
-260.7
11
264.12
21
-261.3
0
LINE
8
Black
10
264.12
20
-295.7
11
264.72
21
-296.3
0
LINE
8
Black
10
264.72
20
-295.7
11
264.12
21
-296.3
0
LINE
8
Black
10
264.12
20
-330.7
11
264.72
21
-331.3
0
LINE
8
Black
10
264.72
20
-330.7
11
264.12
21
-331.3
0
LINE
8
Black
10
269.2
20
-85.7
11
269.8
21
-86.3
0
LINE
8
Black
10
269.8
20
-85.7
11
269.2
21
-86.3
0
LINE
8
Black
10
269.2
20
-120.7
11
269.8
21
-121.3
0
LINE
8
Black
10
269.8
20
-120.7
11
269.2
21
-121.3
0
LINE
8
Black
10
269.2
20
-155.7
11
269.8
21
-156.3
0
LINE
8
Black
10
269.8
20
-155.7
11
269.2
21
-156.3
0
LINE
8
Black
10
269.2
20
-190.7
11
269.8
21
-191.3
0
LINE
8
Black
10
269.8
20
-190.7
11
269.2
21
-191.3
0
LINE
8
Black
10
269.2
20
-225.7
11
269.8
21
-226.3
0
LINE
8
Black
10
269.8
20
-225.7
11
269.2
21
-226.3
0
LINE
8
Black
10
269.2
20
-260.7
11
269.8
21
-261.3
0
LINE
8
Black
10
269.8
20
-260.7
11
269.2
21
-261.3
0
LINE
8
Black
10
269.2
20
-295.7
11
269.8
21
-296.3
0
LINE
8
Black
10
269.8
20
-295.7
11
269.2
21
-296.3
0
LINE
8
Black
10
269.2
20
-330.7
11
269.8
21
-331.3
0
LINE
8
Black
10
269.8
20
-330.7
11
269.2
21
-331.3
0
LINE
8
Black
10
274.28
20
-85.7
11
274.88
21
-86.3
0
LINE
8
Black
10
274.88
20
-85.7
11
274.28
21
-86.3
0
LINE
8
Black
10
274.28
20
-120.7
11
274.88
21
-121.3
0
LINE
8
Black
10
274.88
20
-120.7
11
274.28
21
-121.3
0
LINE
8
Black
10
274.28
20
-155.7
11
274.88
21
-156.3
0
LINE
8
Black
10
274.88
20
-155.7
11
274.28
21
-156.3
0
LINE
8
Black
10
274.28
20
-190.7
11
274.88
21
-191.3
0
LINE
8
Black
10
274.88
20
-190.7
11
274.28
21
-191.3
0
LINE
8
Black
10
274.28
20
-225.7
11
274.88
21
-226.3
0
LINE
8
Black
10
274.88
20
-225.7
11
274.28
21
-226.3
0
LINE
8
Black
10
274.28
20
-260.7
11
274.88
21
-261.3
0
LINE
8
Black
10
274.88
20
-260.7
11
274.28
21
-261.3
0
LINE
8
Black
10
274.28
20
-295.7
11
274.88
21
-296.3
0
LINE
8
Black
10
274.88
20
-295.7
11
274.28
21
-296.3
0
LINE
8
Black
10
274.28
20
-330.7
11
274.88
21
-331.3
0
LINE
8
Black
10
274.88
20
-330.7
11
274.28
21
-331.3
0
LINE
8
Black
10
284.12
20
-85.7
11
284.72
21
-86.3
0
LINE
8
Black
10
284.72
20
-85.7
11
284.12
21
-86.3
0
LINE
8
Black
10
284.12
20
-120.7
11
284.72
21
-121.3
0
LINE
8
Black
10
284.72
20
-120.7
11
284.12
21
-121.3
0
LINE
8
Black
10
284.12
20
-155.7
11
284.72
21
-156.3
0
LINE
8
Black
10
284.72
20
-155.7
11
284.12
21
-156.3
0
LINE
8
Black
10
284.12
20
-190.7
11
284.72
21
-191.3
0
LINE
8
Black
10
284.72
20
-190.7
11
284.12
21
-191.3
0
LINE
8
Black
10
284.12
20
-225.7
11
284.72
21
-226.3
0
LINE
8
Black
10
284.72
20
-225.7
11
284.12
21
-226.3
0
LINE
8
Black
10
284.12
20
-260.7
11
284.72
21
-261.3
0
LINE
8
Black
10
284.72
20
-260.7
11
284.12
21
-261.3
0
LINE
8
Black
10
284.12
20
-295.7
11
284.72
21
-296.3
0
LINE
8
Black
10
284.72
20
-295.7
11
284.12
21
-296.3
0
LINE
8
Black
10
284.12
20
-330.7
11
284.72
21
-331.3
0
LINE
8
Black
10
284.72
20
-330.7
11
284.12
21
-331.3
0
LINE
8
Black
10
289.2
20
-85.7
11
289.8
21
-86.3
0
LINE
8
Black
10
289.8
20
-85.7
11
289.2
21
-86.3
0
LINE
8
Black
10
289.2
20
-120.7
11
289.8
21
-121.3
0
LINE
8
Black
10
289.8
20
-120.7
11
289.2
21
-121.3
0
LINE
8
Black
10
289.2
20
-155.7
11
289.8
21
-156.3
0
LINE
8
Black
10
289.8
20
-155.7
11
289.2
21
-156.3
0
LINE
8
Black
10
289.2
20
-190.7
11
289.8
21
-191.3
0
LINE
8
Black
10
289.8
20
-190.7
11
289.2
21
-191.3
0
LINE
8
Black
10
289.2
20
-225.7
11
289.8
21
-226.3
0
LINE
8
Black
10
289.8
20
-225.7
11
289.2
21
-226.3
0
LINE
8
Black
10
289.2
20
-260.7
11
289.8
21
-261.3
0
LINE
8
Black
10
289.8
20
-260.7
11
289.2
21
-261.3
0
LINE
8
Black
10
289.2
20
-295.7
11
289.8
21
-296.3
0
LINE
8
Black
10
289.8
20
-295.7
11
289.2
21
-296.3
0
LINE
8
Black
10
289.2
20
-330.7
11
289.8
21
-331.3
0
LINE
8
Black
10
289.8
20
-330.7
11
289.2
21
-331.3
0
LINE
8
Black
10
294.28
20
-85.7
11
294.88
21
-86.3
0
LINE
8
Black
10
294.88
20
-85.7
11
294.28
21
-86.3
0
LINE
8
Black
10
294.28
20
-120.7
11
294.88
21
-121.3
0
LINE
8
Black
10
294.88
20
-120.7
11
294.28
21
-121.3
0
LINE
8
Black
10
294.28
20
-155.7
11
294.88
21
-156.3
0
LINE
8
Black
10
294.88
20
-155.7
11
294.28
21
-156.3
0
LINE
8
Black
10
294.28
20
-190.7
11
294.88
21
-191.3
0
LINE
8
Black
10
294.88
20
-190.7
11
294.28
21
-191.3
0
LINE
8
Black
10
294.28
20
-225.7
11
294.88
21
-226.3
0
LINE
8
Black
10
294.88
20
-225.7
11
294.28
21
-226.3
0
LINE
8
Black
10
294.28
20
-260.7
11
294.88
21
-261.3
0
LINE
8
Black
10
294.88
20
-260.7
11
294.28
21
-261.3
0
LINE
8
Black
10
294.28
20
-295.7
11
294.88
21
-296.3
0
LINE
8
Black
10
294.88
20
-295.7
11
294.28
21
-296.3
0
LINE
8
Black
10
294.28
20
-330.7
11
294.88
21
-331.3
0
LINE
8
Black
10
294.88
20
-330.7
11
294.28
21
-331.3
0
LINE
8
Black
10
304.12
20
-85.7
11
304.72
21
-86.3
0
LINE
8
Black
10
304.72
20
-85.7
11
304.12
21
-86.3
0
LINE
8
Black
10
304.12
20
-120.7
11
304.72
21
-121.3
0
LINE
8
Black
10
304.72
20
-120.7
11
304.12
21
-121.3
0
LINE
8
Black
10
304.12
20
-155.7
11
304.72
21
-156.3
0
LINE
8
Black
10
304.72
20
-155.7
11
304.12
21
-156.3
0
LINE
8
Black
10
304.12
20
-190.7
11
304.72
21
-191.3
0
LINE
8
Black
10
304.72
20
-190.7
11
304.12
21
-191.3
0
LINE
8
Black
10
304.12
20
-225.7
11
304.72
21
-226.3
0
LINE
8
Black
10
304.72
20
-225.7
11
304.12
21
-226.3
0
LINE
8
Black
10
304.12
20
-260.7
11
304.72
21
-261.3
0
LINE
8
Black
10
304.72
20
-260.7
11
304.12
21
-261.3
0
LINE
8
Black
10
304.12
20
-295.7
11
304.72
21
-296.3
0
LINE
8
Black
10
304.72
20
-295.7
11
304.12
21
-296.3
0
LINE
8
Black
10
304.12
20
-330.7
11
304.72
21
-331.3
0
LINE
8
Black
10
304.72
20
-330.7
11
304.12
21
-331.3
0
LINE
8
Black
10
309.2
20
-85.7
11
309.8
21
-86.3
0
LINE
8
Black
10
309.8
20
-85.7
11
309.2
21
-86.3
0
LINE
8
Black
10
309.2
20
-120.7
11
309.8
21
-121.3
0
LINE
8
Black
10
309.8
20
-120.7
11
309.2
21
-121.3
0
LINE
8
Black
10
309.2
20
-155.7
11
309.8
21
-156.3
0
LINE
8
Black
10
309.8
20
-155.7
11
309.2
21
-156.3
0
LINE
8
Black
10
309.2
20
-190.7
11
309.8
21
-191.3
0
LINE
8
Black
10
309.8
20
-190.7
11
309.2
21
-191.3
0
LINE
8
Black
10
309.2
20
-225.7
11
309.8
21
-226.3
0
LINE
8
Black
10
309.8
20
-225.7
11
309.2
21
-226.3
0
LINE
8
Black
10
309.2
20
-260.7
11
309.8
21
-261.3
0
LINE
8
Black
10
309.8
20
-260.7
11
309.2
21
-261.3
0
LINE
8
Black
10
309.2
20
-295.7
11
309.8
21
-296.3
0
LINE
8
Black
10
309.8
20
-295.7
11
309.2
21
-296.3
0
LINE
8
Black
10
309.2
20
-330.7
11
309.8
21
-331.3
0
LINE
8
Black
10
309.8
20
-330.7
11
309.2
21
-331.3
0
LINE
8
Black
10
314.28
20
-85.7
11
314.88
21
-86.3
0
LINE
8
Black
10
314.88
20
-85.7
11
314.28
21
-86.3
0
LINE
8
Black
10
314.28
20
-120.7
11
314.88
21
-121.3
0
LINE
8
Black
10
314.88
20
-120.7
11
314.28
21
-121.3
0
LINE
8
Black
10
314.28
20
-155.7
11
314.88
21
-156.3
0
LINE
8
Black
10
314.88
20
-155.7
11
314.28
21
-156.3
0
LINE
8
Black
10
314.28
20
-190.7
11
314.88
21
-191.3
0
LINE
8
Black
10
314.88
20
-190.7
11
314.28
21
-191.3
0
LINE
8
Black
10
314.28
20
-225.7
11
314.88
21
-226.3
0
LINE
8
Black
10
314.88
20
-225.7
11
314.28
21
-226.3
0
LINE
8
Black
10
314.28
20
-260.7
11
314.88
21
-261.3
0
LINE
8
Black
10
314.88
20
-260.7
11
314.28
21
-261.3
0
LINE
8
Black
10
314.28
20
-295.7
11
314.88
21
-296.3
0
LINE
8
Black
10
314.88
20
-295.7
11
314.28
21
-296.3
0
LINE
8
Black
10
314.28
20
-330.7
11
314.88
21
-331.3
0
LINE
8
Black
10
314.88
20
-330.7
11
314.28
21
-331.3
0
LINE
8
Black
10
324.12
20
-85.7
11
324.72
21
-86.3
0
LINE
8
Black
10
324.72
20
-85.7
11
324.12
21
-86.3
0
LINE
8
Black
10
324.12
20
-120.7
11
324.72
21
-121.3
0
LINE
8
Black
10
324.72
20
-120.7
11
324.12
21
-121.3
0
LINE
8
Black
10
324.12
20
-155.7
11
324.72
21
-156.3
0
LINE
8
Black
10
324.72
20
-155.7
11
324.12
21
-156.3
0
LINE
8
Black
10
324.12
20
-190.7
11
324.72
21
-191.3
0
LINE
8
Black
10
324.72
20
-190.7
11
324.12
21
-191.3
0
LINE
8
Black
10
324.12
20
-225.7
11
324.72
21
-226.3
0
LINE
8
Black
10
324.72
20
-225.7
11
324.12
21
-226.3
0
LINE
8
Black
10
324.12
20
-260.7
11
324.72
21
-261.3
0
LINE
8
Black
10
324.72
20
-260.7
11
324.12
21
-261.3
0
LINE
8
Black
10
324.12
20
-295.7
11
324.72
21
-296.3
0
LINE
8
Black
10
324.72
20
-295.7
11
324.12
21
-296.3
0
LINE
8
Black
10
324.12
20
-330.7
11
324.72
21
-331.3
0
LINE
8
Black
10
324.72
20
-330.7
11
324.12
21
-331.3
0
LINE
8
Black
10
329.2
20
-85.7
11
329.8
21
-86.3
0
LINE
8
Black
10
329.8
20
-85.7
11
329.2
21
-86.3
0
LINE
8
Black
10
329.2
20
-120.7
11
329.8
21
-121.3
0
LINE
8
Black
10
329.8
20
-120.7
11
329.2
21
-121.3
0
LINE
8
Black
10
329.2
20
-155.7
11
329.8
21
-156.3
0
LINE
8
Black
10
329.8
20
-155.7
11
329.2
21
-156.3
0
LINE
8
Black
10
329.2
20
-190.7
11
329.8
21
-191.3
0
LINE
8
Black
10
329.8
20
-190.7
11
329.2
21
-191.3
0
LINE
8
Black
10
329.2
20
-225.7
11
329.8
21
-226.3
0
LINE
8
Black
10
329.8
20
-225.7
11
329.2
21
-226.3
0
LINE
8
Black
10
329.2
20
-260.7
11
329.8
21
-261.3
0
LINE
8
Black
10
329.8
20
-260.7
11
329.2
21
-261.3
0
LINE
8
Black
10
329.2
20
-295.7
11
329.8
21
-296.3
0
LINE
8
Black
10
329.8
20
-295.7
11
329.2
21
-296.3
0
LINE
8
Black
10
329.2
20
-330.7
11
329.8
21
-331.3
0
LINE
8
Black
10
329.8
20
-330.7
11
329.2
21
-331.3
0
LINE
8
Black
10
334.28
20
-85.7
11
334.88
21
-86.3
0
LINE
8
Black
10
334.88
20
-85.7
11
334.28
21
-86.3
0
LINE
8
Black
10
334.28
20
-120.7
11
334.88
21
-121.3
0
LINE
8
Black
10
334.88
20
-120.7
11
334.28
21
-121.3
0
LINE
8
Black
10
334.28
20
-155.7
11
334.88
21
-156.3
0
LINE
8
Black
10
334.88
20
-155.7
11
334.28
21
-156.3
0
LINE
8
Black
10
334.28
20
-190.7
11
334.88
21
-191.3
0
LINE
8
Black
10
334.88
20
-190.7
11
334.28
21
-191.3
0
LINE
8
Black
10
334.28
20
-225.7
11
334.88
21
-226.3
0
LINE
8
Black
10
334.88
20
-225.7
11
334.28
21
-226.3
0
LINE
8
Black
10
334.28
20
-260.7
11
334.88
21
-261.3
0
LINE
8
Black
10
334.88
20
-260.7
11
334.28
21
-261.3
0
LINE
8
Black
10
334.28
20
-295.7
11
334.88
21
-296.3
0
LINE
8
Black
10
334.88
20
-295.7
11
334.28
21
-296.3
0
LINE
8
Black
10
334.28
20
-330.7
11
334.88
21
-331.3
0
LINE
8
Black
10
334.88
20
-330.7
11
334.28
21
-331.3
0
LINE
8
Black
10
344.12
20
-85.7
11
344.72
21
-86.3
0
LINE
8
Black
10
344.72
20
-85.7
11
344.12
21
-86.3
0
LINE
8
Black
10
344.12
20
-120.7
11
344.72
21
-121.3
0
LINE
8
Black
10
344.72
20
-120.7
11
344.12
21
-121.3
0
LINE
8
Black
10
344.12
20
-155.7
11
344.72
21
-156.3
0
LINE
8
Black
10
344.72
20
-155.7
11
344.12
21
-156.3
0
LINE
8
Black
10
344.12
20
-190.7
11
344.72
21
-191.3
0
LINE
8
Black
10
344.72
20
-190.7
11
344.12
21
-191.3
0
LINE
8
Black
10
344.12
20
-225.7
11
344.72
21
-226.3
0
LINE
8
Black
10
344.72
20
-225.7
11
344.12
21
-226.3
0
LINE
8
Black
10
344.12
20
-260.7
11
344.72
21
-261.3
0
LINE
8
Black
10
344.72
20
-260.7
11
344.12
21
-261.3
0
LINE
8
Black
10
344.12
20
-295.7
11
344.72
21
-296.3
0
LINE
8
Black
10
344.72
20
-295.7
11
344.12
21
-296.3
0
LINE
8
Black
10
344.12
20
-330.7
11
344.72
21
-331.3
0
LINE
8
Black
10
344.72
20
-330.7
11
344.12
21
-331.3
0
LINE
8
Black
10
349.2
20
-85.7
11
349.8
21
-86.3
0
LINE
8
Black
10
349.8
20
-85.7
11
349.2
21
-86.3
0
LINE
8
Black
10
349.2
20
-120.7
11
349.8
21
-121.3
0
LINE
8
Black
10
349.8
20
-120.7
11
349.2
21
-121.3
0
LINE
8
Black
10
349.2
20
-155.7
11
349.8
21
-156.3
0
LINE
8
Black
10
349.8
20
-155.7
11
349.2
21
-156.3
0
LINE
8
Black
10
349.2
20
-190.7
11
349.8
21
-191.3
0
LINE
8
Black
10
349.8
20
-190.7
11
349.2
21
-191.3
0
LINE
8
Black
10
349.2
20
-225.7
11
349.8
21
-226.3
0
LINE
8
Black
10
349.8
20
-225.7
11
349.2
21
-226.3
0
LINE
8
Black
10
349.2
20
-260.7
11
349.8
21
-261.3
0
LINE
8
Black
10
349.8
20
-260.7
11
349.2
21
-261.3
0
LINE
8
Black
10
349.2
20
-295.7
11
349.8
21
-296.3
0
LINE
8
Black
10
349.8
20
-295.7
11
349.2
21
-296.3
0
LINE
8
Black
10
349.2
20
-330.7
11
349.8
21
-331.3
0
LINE
8
Black
10
349.8
20
-330.7
11
349.2
21
-331.3
0
LINE
8
Black
10
354.28
20
-85.7
11
354.88
21
-86.3
0
LINE
8
Black
10
354.88
20
-85.7
11
354.28
21
-86.3
0
LINE
8
Black
10
354.28
20
-120.7
11
354.88
21
-121.3
0
LINE
8
Black
10
354.88
20
-120.7
11
354.28
21
-121.3
0
LINE
8
Black
10
354.28
20
-155.7
11
354.88
21
-156.3
0
LINE
8
Black
10
354.88
20
-155.7
11
354.28
21
-156.3
0
LINE
8
Black
10
354.28
20
-190.7
11
354.88
21
-191.3
0
LINE
8
Black
10
354.88
20
-190.7
11
354.28
21
-191.3
0
LINE
8
Black
10
354.28
20
-225.7
11
354.88
21
-226.3
0
LINE
8
Black
10
354.88
20
-225.7
11
354.28
21
-226.3
0
LINE
8
Black
10
354.28
20
-260.7
11
354.88
21
-261.3
0
LINE
8
Black
10
354.88
20
-260.7
11
354.28
21
-261.3
0
LINE
8
Black
10
354.28
20
-295.7
11
354.88
21
-296.3
0
LINE
8
Black
10
354.88
20
-295.7
11
354.28
21
-296.3
0
LINE
8
Black
10
354.28
20
-330.7
11
354.88
21
-331.3
0
LINE
8
Black
10
354.88
20
-330.7
11
354.28
21
-331.3
0
LINE
8
Black
10
364.12
20
-85.7
11
364.72
21
-86.3
0
LINE
8
Black
10
364.72
20
-85.7
11
364.12
21
-86.3
0
LINE
8
Black
10
364.12
20
-120.7
11
364.72
21
-121.3
0
LINE
8
Black
10
364.72
20
-120.7
11
364.12
21
-121.3
0
LINE
8
Black
10
364.12
20
-155.7
11
364.72
21
-156.3
0
LINE
8
Black
10
364.72
20
-155.7
11
364.12
21
-156.3
0
LINE
8
Black
10
364.12
20
-190.7
11
364.72
21
-191.3
0
LINE
8
Black
10
364.72
20
-190.7
11
364.12
21
-191.3
0
LINE
8
Black
10
364.12
20
-225.7
11
364.72
21
-226.3
0
LINE
8
Black
10
364.72
20
-225.7
11
364.12
21
-226.3
0
LINE
8
Black
10
364.12
20
-260.7
11
364.72
21
-261.3
0
LINE
8
Black
10
364.72
20
-260.7
11
364.12
21
-261.3
0
LINE
8
Black
10
364.12
20
-295.7
11
364.72
21
-296.3
0
LINE
8
Black
10
364.72
20
-295.7
11
364.12
21
-296.3
0
LINE
8
Black
10
364.12
20
-330.7
11
364.72
21
-331.3
0
LINE
8
Black
10
364.72
20
-330.7
11
364.12
21
-331.3
0
LINE
8
Black
10
369.2
20
-85.7
11
369.8
21
-86.3
0
LINE
8
Black
10
369.8
20
-85.7
11
369.2
21
-86.3
0
LINE
8
Black
10
369.2
20
-120.7
11
369.8
21
-121.3
0
LINE
8
Black
10
369.8
20
-120.7
11
369.2
21
-121.3
0
LINE
8
Black
10
369.2
20
-155.7
11
369.8
21
-156.3
0
LINE
8
Black
10
369.8
20
-155.7
11
369.2
21
-156.3
0
LINE
8
Black
10
369.2
20
-190.7
11
369.8
21
-191.3
0
LINE
8
Black
10
369.8
20
-190.7
11
369.2
21
-191.3
0
LINE
8
Black
10
369.2
20
-225.7
11
369.8
21
-226.3
0
LINE
8
Black
10
369.8
20
-225.7
11
369.2
21
-226.3
0
LINE
8
Black
10
369.2
20
-260.7
11
369.8
21
-261.3
0
LINE
8
Black
10
369.8
20
-260.7
11
369.2
21
-261.3
0
LINE
8
Black
10
369.2
20
-295.7
11
369.8
21
-296.3
0
LINE
8
Black
10
369.8
20
-295.7
11
369.2
21
-296.3
0
LINE
8
Black
10
369.2
20
-330.7
11
369.8
21
-331.3
0
LINE
8
Black
10
369.8
20
-330.7
11
369.2
21
-331.3
0
LINE
8
Black
10
374.28
20
-85.7
11
374.88
21
-86.3
0
LINE
8
Black
10
374.88
20
-85.7
11
374.28
21
-86.3
0
LINE
8
Black
10
374.28
20
-120.7
11
374.88
21
-121.3
0
LINE
8
Black
10
374.88
20
-120.7
11
374.28
21
-121.3
0
LINE
8
Black
10
374.28
20
-155.7
11
374.88
21
-156.3
0
LINE
8
Black
10
374.88
20
-155.7
11
374.28
21
-156.3
0
LINE
8
Black
10
374.28
20
-190.7
11
374.88
21
-191.3
0
LINE
8
Black
10
374.88
20
-190.7
11
374.28
21
-191.3
0
LINE
8
Black
10
374.28
20
-225.7
11
374.88
21
-226.3
0
LINE
8
Black
10
374.88
20
-225.7
11
374.28
21
-226.3
0
LINE
8
Black
10
374.28
20
-260.7
11
374.88
21
-261.3
0
LINE
8
Black
10
374.88
20
-260.7
11
374.28
21
-261.3
0
LINE
8
Black
10
374.28
20
-295.7
11
374.88
21
-296.3
0
LINE
8
Black
10
374.88
20
-295.7
11
374.28
21
-296.3
0
LINE
8
Black
10
374.28
20
-330.7
11
374.88
21
-331.3
0
LINE
8
Black
10
374.88
20
-330.7
11
374.28
21
-331.3
0
LINE
8
Black
10
384.12
20
-85.7
11
384.72
21
-86.3
0
LINE
8
Black
10
384.72
20
-85.7
11
384.12
21
-86.3
0
LINE
8
Black
10
384.12
20
-120.7
11
384.72
21
-121.3
0
LINE
8
Black
10
384.72
20
-120.7
11
384.12
21
-121.3
0
LINE
8
Black
10
384.12
20
-155.7
11
384.72
21
-156.3
0
LINE
8
Black
10
384.72
20
-155.7
11
384.12
21
-156.3
0
LINE
8
Black
10
384.12
20
-190.7
11
384.72
21
-191.3
0
LINE
8
Black
10
384.72
20
-190.7
11
384.12
21
-191.3
0
LINE
8
Black
10
384.12
20
-225.7
11
384.72
21
-226.3
0
LINE
8
Black
10
384.72
20
-225.7
11
384.12
21
-226.3
0
LINE
8
Black
10
384.12
20
-260.7
11
384.72
21
-261.3
0
LINE
8
Black
10
384.72
20
-260.7
11
384.12
21
-261.3
0
LINE
8
Black
10
384.12
20
-295.7
11
384.72
21
-296.3
0
LINE
8
Black
10
384.72
20
-295.7
11
384.12
21
-296.3
0
LINE
8
Black
10
384.12
20
-330.7
11
384.72
21
-331.3
0
LINE
8
Black
10
384.72
20
-330.7
11
384.12
21
-331.3
0
LINE
8
Black
10
389.2
20
-85.7
11
389.8
21
-86.3
0
LINE
8
Black
10
389.8
20
-85.7
11
389.2
21
-86.3
0
LINE
8
Black
10
389.2
20
-120.7
11
389.8
21
-121.3
0
LINE
8
Black
10
389.8
20
-120.7
11
389.2
21
-121.3
0
LINE
8
Black
10
389.2
20
-155.7
11
389.8
21
-156.3
0
LINE
8
Black
10
389.8
20
-155.7
11
389.2
21
-156.3
0
LINE
8
Black
10
389.2
20
-190.7
11
389.8
21
-191.3
0
LINE
8
Black
10
389.8
20
-190.7
11
389.2
21
-191.3
0
LINE
8
Black
10
389.2
20
-225.7
11
389.8
21
-226.3
0
LINE
8
Black
10
389.8
20
-225.7
11
389.2
21
-226.3
0
LINE
8
Black
10
389.2
20
-260.7
11
389.8
21
-261.3
0
LINE
8
Black
10
389.8
20
-260.7
11
389.2
21
-261.3
0
LINE
8
Black
10
389.2
20
-295.7
11
389.8
21
-296.3
0
LINE
8
Black
10
389.8
20
-295.7
11
389.2
21
-296.3
0
LINE
8
Black
10
389.2
20
-330.7
11
389.8
21
-331.3
0
LINE
8
Black
10
389.8
20
-330.7
11
389.2
21
-331.3
0
LINE
8
Black
10
394.28
20
-85.7
11
394.88
21
-86.3
0
LINE
8
Black
10
394.88
20
-85.7
11
394.28
21
-86.3
0
LINE
8
Black
10
394.28
20
-120.7
11
394.88
21
-121.3
0
LINE
8
Black
10
394.88
20
-120.7
11
394.28
21
-121.3
0
LINE
8
Black
10
394.28
20
-155.7
11
394.88
21
-156.3
0
LINE
8
Black
10
394.88
20
-155.7
11
394.28
21
-156.3
0
LINE
8
Black
10
394.28
20
-190.7
11
394.88
21
-191.3
0
LINE
8
Black
10
394.88
20
-190.7
11
394.28
21
-191.3
0
LINE
8
Black
10
394.28
20
-225.7
11
394.88
21
-226.3
0
LINE
8
Black
10
394.88
20
-225.7
11
394.28
21
-226.3
0
LINE
8
Black
10
394.28
20
-260.7
11
394.88
21
-261.3
0
LINE
8
Black
10
394.88
20
-260.7
11
394.28
21
-261.3
0
LINE
8
Black
10
394.28
20
-295.7
11
394.88
21
-296.3
0
LINE
8
Black
10
394.88
20
-295.7
11
394.28
21
-296.3
0
LINE
8
Black
10
394.28
20
-330.7
11
394.88
21
-331.3
0
LINE
8
Black
10
394.88
20
-330.7
11
394.28
21
-331.3
0
LINE
8
Black
10
404.12
20
-85.7
11
404.72
21
-86.3
0
LINE
8
Black
10
404.72
20
-85.7
11
404.12
21
-86.3
0
LINE
8
Black
10
404.12
20
-120.7
11
404.72
21
-121.3
0
LINE
8
Black
10
404.72
20
-120.7
11
404.12
21
-121.3
0
LINE
8
Black
10
404.12
20
-155.7
11
404.72
21
-156.3
0
LINE
8
Black
10
404.72
20
-155.7
11
404.12
21
-156.3
0
LINE
8
Black
10
404.12
20
-190.7
11
404.72
21
-191.3
0
LINE
8
Black
10
404.72
20
-190.7
11
404.12
21
-191.3
0
LINE
8
Black
10
404.12
20
-225.7
11
404.72
21
-226.3
0
LINE
8
Black
10
404.72
20
-225.7
11
404.12
21
-226.3
0
LINE
8
Black
10
404.12
20
-260.7
11
404.72
21
-261.3
0
LINE
8
Black
10
404.72
20
-260.7
11
404.12
21
-261.3
0
LINE
8
Black
10
404.12
20
-295.7
11
404.72
21
-296.3
0
LINE
8
Black
10
404.72
20
-295.7
11
404.12
21
-296.3
0
LINE
8
Black
10
404.12
20
-330.7
11
404.72
21
-331.3
0
LINE
8
Black
10
404.72
20
-330.7
11
404.12
21
-331.3
0
LINE
8
Black
10
409.2
20
-85.7
11
409.8
21
-86.3
0
LINE
8
Black
10
409.8
20
-85.7
11
409.2
21
-86.3
0
LINE
8
Black
10
409.2
20
-120.7
11
409.8
21
-121.3
0
LINE
8
Black
10
409.8
20
-120.7
11
409.2
21
-121.3
0
LINE
8
Black
10
409.2
20
-155.7
11
409.8
21
-156.3
0
LINE
8
Black
10
409.8
20
-155.7
11
409.2
21
-156.3
0
LINE
8
Black
10
409.2
20
-190.7
11
409.8
21
-191.3
0
LINE
8
Black
10
409.8
20
-190.7
11
409.2
21
-191.3
0
LINE
8
Black
10
409.2
20
-225.7
11
409.8
21
-226.3
0
LINE
8
Black
10
409.8
20
-225.7
11
409.2
21
-226.3
0
LINE
8
Black
10
409.2
20
-260.7
11
409.8
21
-261.3
0
LINE
8
Black
10
409.8
20
-260.7
11
409.2
21
-261.3
0
LINE
8
Black
10
409.2
20
-295.7
11
409.8
21
-296.3
0
LINE
8
Black
10
409.8
20
-295.7
11
409.2
21
-296.3
0
LINE
8
Black
10
409.2
20
-330.7
11
409.8
21
-331.3
0
LINE
8
Black
10
409.8
20
-330.7
11
409.2
21
-331.3
0
LINE
8
Black
10
414.28
20
-85.7
11
414.88
21
-86.3
0
LINE
8
Black
10
414.88
20
-85.7
11
414.28
21
-86.3
0
LINE
8
Black
10
414.28
20
-120.7
11
414.88
21
-121.3
0
LINE
8
Black
10
414.88
20
-120.7
11
414.28
21
-121.3
0
LINE
8
Black
10
414.28
20
-155.7
11
414.88
21
-156.3
0
LINE
8
Black
10
414.88
20
-155.7
11
414.28
21
-156.3
0
LINE
8
Black
10
414.28
20
-190.7
11
414.88
21
-191.3
0
LINE
8
Black
10
414.88
20
-190.7
11
414.28
21
-191.3
0
LINE
8
Black
10
414.28
20
-225.7
11
414.88
21
-226.3
0
LINE
8
Black
10
414.88
20
-225.7
11
414.28
21
-226.3
0
LINE
8
Black
10
414.28
20
-260.7
11
414.88
21
-261.3
0
LINE
8
Black
10
414.88
20
-260.7
11
414.28
21
-261.3
0
LINE
8
Black
10
414.28
20
-295.7
11
414.88
21
-296.3
0
LINE
8
Black
10
414.88
20
-295.7
11
414.28
21
-296.3
0
LINE
8
Black
10
414.28
20
-330.7
11
414.88
21
-331.3
0
LINE
8
Black
10
414.88
20
-330.7
11
414.28
21
-331.3
0
CIRCLE
8
Black
10
224.5
20
-336.5
40
0.3175
0
CIRCLE
8
Black
10
224.5
20
-360.5
40
0.3175
0
CIRCLE
8
Black
10
264.5
20
-336
40
0.3175
0
CIRCLE
8
Black
10
264.5
20
-362.061
40
0.3175
0
CIRCLE
8
Black
10
300
20
-331
40
0.3175
0
CIRCLE
8
Black
10
304.42
20
-363.677
40
0.3175
0
CIRCLE
8
Black
10
389
20
-350
40
0.3175
0
CIRCLE
8
Black
10
394
20
-352.5
40
0.3175
0
CIRCLE
8
Black
10
395
20
-350
40
0.3175
0
CIRCLE
8
Black
10
398.384
20
-335.5
40
0.3175
0
CIRCLE
8
Black
10
400
20
-331
40
0.3175
0
CIRCLE
8
Black
10
400.5
20
-342
40
0.3175
0
CIRCLE
8
Black
10
403
20
-340
40
0.3175
0
CIRCLE
8
Black
10
419.5
20
-320
40
0.3175
0
CIRCLE
8
Black
10
423.16
20
-352.5
40
0.3175
0
CIRCLE
8
Black
10
423.5
20
-320
40
0.3175
0
LINE
8
Black
10
368.055
20
-358.2
11
368.055
21
-359.1
0
LINE
8
Black
10
367.605
20
-358.65
11
368.505
21
-358.65
0
LINE
8
Black
10
369.325
20
-355.66
11
369.325
21
-356.56
0
LINE
8
Black
10
368.875
20
-356.11
11
369.775
21
-356.11
0
LINE
8
Black
10
370.595
20
-358.2
11
370.595
21
-359.1
0
LINE
8
Black
10
370.145
20
-358.65
11
371.045
21
-358.65
0
LINE
8
Black
10
371.865
20
-355.66
11
371.865
21
-356.56
0
LINE
8
Black
10
371.415
20
-356.11
11
372.315
21
-356.11
0
LINE
8
Black
10
373.135
20
-358.2
11
373.135
21
-359.1
0
LINE
8
Black
10
372.685
20
-358.65
11
373.585
21
-358.65
0
LINE
8
Black
10
374.405
20
-355.66
11
374.405
21
-356.56
0
LINE
8
Black
10
373.955
20
-356.11
11
374.855
21
-356.11
0
LINE
8
Black
10
375.675
20
-358.2
11
375.675
21
-359.1
0
LINE
8
Black
10
375.225
20
-358.65
11
376.125
21
-358.65
0
LINE
8
Black
10
376.945
20
-355.66
11
376.945
21
-356.56
0
LINE
8
Black
10
376.495
20
-356.11
11
377.395
21
-356.11
0
LINE
8
Black
10
388.055
20
-358.2
11
388.055
21
-359.1
0
LINE
8
Black
10
387.605
20
-358.65
11
388.505
21
-358.65
0
LINE
8
Black
10
389.325
20
-355.66
11
389.325
21
-356.56
0
LINE
8
Black
10
388.875
20
-356.11
11
389.775
21
-356.11
0
LINE
8
Black
10
390.595
20
-358.2
11
390.595
21
-359.1
0
LINE
8
Black
10
390.145
20
-358.65
11
391.045
21
-358.65
0
LINE
8
Black
10
391.865
20
-355.66
11
391.865
21
-356.56
0
LINE
8
Black
10
391.415
20
-356.11
11
392.315
21
-356.11
0
LINE
8
Black
10
393.135
20
-358.2
11
393.135
21
-359.1
0
LINE
8
Black
10
392.685
20
-358.65
11
393.585
21
-358.65
0
LINE
8
Black
10
394.405
20
-355.66
11
394.405
21
-356.56
0
LINE
8
Black
10
393.955
20
-356.11
11
394.855
21
-356.11
0
LINE
8
Black
10
395.675
20
-358.2
11
395.675
21
-359.1
0
LINE
8
Black
10
395.225
20
-358.65
11
396.125
21
-358.65
0
LINE
8
Black
10
396.945
20
-355.66
11
396.945
21
-356.56
0
LINE
8
Black
10
396.495
20
-356.11
11
397.395
21
-356.11
0
LINE
8
Black
10
408.055
20
-358.2
11
408.055
21
-359.1
0
LINE
8
Black
10
407.605
20
-358.65
11
408.505
21
-358.65
0
LINE
8
Black
10
409.325
20
-355.66
11
409.325
21
-356.56
0
LINE
8
Black
10
408.875
20
-356.11
11
409.775
21
-356.11
0
LINE
8
Black
10
410.595
20
-358.2
11
410.595
21
-359.1
0
LINE
8
Black
10
410.145
20
-358.65
11
411.045
21
-358.65
0
LINE
8
Black
10
411.865
20
-355.66
11
411.865
21
-356.56
0
LINE
8
Black
10
411.415
20
-356.11
11
412.315
21
-356.11
0
LINE
8
Black
10
413.135
20
-358.2
11
413.135
21
-359.1
0
LINE
8
Black
10
412.685
20
-358.65
11
413.585
21
-358.65
0
LINE
8
Black
10
414.405
20
-355.66
11
414.405
21
-356.56
0
LINE
8
Black
10
413.955
20
-356.11
11
414.855
21
-356.11
0
LINE
8
Black
10
415.675
20
-358.2
11
415.675
21
-359.1
0
LINE
8
Black
10
415.225
20
-358.65
11
416.125
21
-358.65
0
LINE
8
Black
10
416.945
20
-355.66
11
416.945
21
-356.56
0
LINE
8
Black
10
416.495
20
-356.11
11
417.395
21
-356.11
0
LINE
8
Black
10
189.854
20
-70.2738
11
189.854
21
-69.5662
0
LINE
8
Black
10
189.854
20
-69.5662
11
189.146
21
-69.5662
0
LINE
8
Black
10
189.146
20
-69.5662
11
189.146
21
-70.2738
0
LINE
8
Black
10
189.146
20
-70.2738
11
189.854
21
-70.2738
0
LINE
8
Black
10
189.854
20
-105.274
11
189.854
21
-104.566
0
LINE
8
Black
10
189.854
20
-104.566
11
189.146
21
-104.566
0
LINE
8
Black
10
189.146
20
-104.566
11
189.146
21
-105.274
0
LINE
8
Black
10
189.146
20
-105.274
11
189.854
21
-105.274
0
LINE
8
Black
10
189.854
20
-140.274
11
189.854
21
-139.566
0
LINE
8
Black
10
189.854
20
-139.566
11
189.146
21
-139.566
0
LINE
8
Black
10
189.146
20
-139.566
11
189.146
21
-140.274
0
LINE
8
Black
10
189.146
20
-140.274
11
189.854
21
-140.274
0
LINE
8
Black
10
189.854
20
-175.274
11
189.854
21
-174.566
0
LINE
8
Black
10
189.854
20
-174.566
11
189.146
21
-174.566
0
LINE
8
Black
10
189.146
20
-174.566
11
189.146
21
-175.274
0
LINE
8
Black
10
189.146
20
-175.274
11
189.854
21
-175.274
0
LINE
8
Black
10
189.854
20
-210.274
11
189.854
21
-209.566
0
LINE
8
Black
10
189.854
20
-209.566
11
189.146
21
-209.566
0
LINE
8
Black
10
189.146
20
-209.566
11
189.146
21
-210.274
0
LINE
8
Black
10
189.146
20
-210.274
11
189.854
21
-210.274
0
LINE
8
Black
10
189.854
20
-245.274
11
189.854
21
-244.566
0
LINE
8
Black
10
189.854
20
-244.566
11
189.146
21
-244.566
0
LINE
8
Black
10
189.146
20
-244.566
11
189.146
21
-245.274
0
LINE
8
Black
10
189.146
20
-245.274
11
189.854
21
-245.274
0
LINE
8
Black
10
189.854
20
-280.274
11
189.854
21
-279.566
0
LINE
8
Black
10
189.854
20
-279.566
11
189.146
21
-279.566
0
LINE
8
Black
10
189.146
20
-279.566
11
189.146
21
-280.274
0
LINE
8
Black
10
189.146
20
-280.274
11
189.854
21
-280.274
0
LINE
8
Black
10
189.854
20
-315.274
11
189.854
21
-314.566
0
LINE
8
Black
10
189.854
20
-314.566
11
189.146
21
-314.566
0
LINE
8
Black
10
189.146
20
-314.566
11
189.146
21
-315.274
0
LINE
8
Black
10
189.146
20
-315.274
11
189.854
21
-315.274
0
LINE
8
Black
10
209.854
20
-70.2738
11
209.854
21
-69.5662
0
LINE
8
Black
10
209.854
20
-69.5662
11
209.146
21
-69.5662
0
LINE
8
Black
10
209.146
20
-69.5662
11
209.146
21
-70.2738
0
LINE
8
Black
10
209.146
20
-70.2738
11
209.854
21
-70.2738
0
LINE
8
Black
10
209.854
20
-105.274
11
209.854
21
-104.566
0
LINE
8
Black
10
209.854
20
-104.566
11
209.146
21
-104.566
0
LINE
8
Black
10
209.146
20
-104.566
11
209.146
21
-105.274
0
LINE
8
Black
10
209.146
20
-105.274
11
209.854
21
-105.274
0
LINE
8
Black
10
209.854
20
-140.274
11
209.854
21
-139.566
0
LINE
8
Black
10
209.854
20
-139.566
11
209.146
21
-139.566
0
LINE
8
Black
10
209.146
20
-139.566
11
209.146
21
-140.274
0
LINE
8
Black
10
209.146
20
-140.274
11
209.854
21
-140.274
0
LINE
8
Black
10
209.854
20
-175.274
11
209.854
21
-174.566
0
LINE
8
Black
10
209.854
20
-174.566
11
209.146
21
-174.566
0
LINE
8
Black
10
209.146
20
-174.566
11
209.146
21
-175.274
0
LINE
8
Black
10
209.146
20
-175.274
11
209.854
21
-175.274
0
LINE
8
Black
10
209.854
20
-210.274
11
209.854
21
-209.566
0
LINE
8
Black
10
209.854
20
-209.566
11
209.146
21
-209.566
0
LINE
8
Black
10
209.146
20
-209.566
11
209.146
21
-210.274
0
LINE
8
Black
10
209.146
20
-210.274
11
209.854
21
-210.274
0
LINE
8
Black
10
209.854
20
-245.274
11
209.854
21
-244.566
0
LINE
8
Black
10
209.854
20
-244.566
11
209.146
21
-244.566
0
LINE
8
Black
10
209.146
20
-244.566
11
209.146
21
-245.274
0
LINE
8
Black
10
209.146
20
-245.274
11
209.854
21
-245.274
0
LINE
8
Black
10
209.854
20
-280.274
11
209.854
21
-279.566
0
LINE
8
Black
10
209.854
20
-279.566
11
209.146
21
-279.566
0
LINE
8
Black
10
209.146
20
-279.566
11
209.146
21
-280.274
0
LINE
8
Black
10
209.146
20
-280.274
11
209.854
21
-280.274
0
LINE
8
Black
10
209.854
20
-315.274
11
209.854
21
-314.566
0
LINE
8
Black
10
209.854
20
-314.566
11
209.146
21
-314.566
0
LINE
8
Black
10
209.146
20
-314.566
11
209.146
21
-315.274
0
LINE
8
Black
10
209.146
20
-315.274
11
209.854
21
-315.274
0
LINE
8
Black
10
229.854
20
-70.2738
11
229.854
21
-69.5662
0
LINE
8
Black
10
229.854
20
-69.5662
11
229.146
21
-69.5662
0
LINE
8
Black
10
229.146
20
-69.5662
11
229.146
21
-70.2738
0
LINE
8
Black
10
229.146
20
-70.2738
11
229.854
21
-70.2738
0
LINE
8
Black
10
229.854
20
-105.274
11
229.854
21
-104.566
0
LINE
8
Black
10
229.854
20
-104.566
11
229.146
21
-104.566
0
LINE
8
Black
10
229.146
20
-104.566
11
229.146
21
-105.274
0
LINE
8
Black
10
229.146
20
-105.274
11
229.854
21
-105.274
0
LINE
8
Black
10
229.854
20
-140.274
11
229.854
21
-139.566
0
LINE
8
Black
10
229.854
20
-139.566
11
229.146
21
-139.566
0
LINE
8
Black
10
229.146
20
-139.566
11
229.146
21
-140.274
0
LINE
8
Black
10
229.146
20
-140.274
11
229.854
21
-140.274
0
LINE
8
Black
10
229.854
20
-175.274
11
229.854
21
-174.566
0
LINE
8
Black
10
229.854
20
-174.566
11
229.146
21
-174.566
0
LINE
8
Black
10
229.146
20
-174.566
11
229.146
21
-175.274
0
LINE
8
Black
10
229.146
20
-175.274
11
229.854
21
-175.274
0
LINE
8
Black
10
229.854
20
-210.274
11
229.854
21
-209.566
0
LINE
8
Black
10
229.854
20
-209.566
11
229.146
21
-209.566
0
LINE
8
Black
10
229.146
20
-209.566
11
229.146
21
-210.274
0
LINE
8
Black
10
229.146
20
-210.274
11
229.854
21
-210.274
0
LINE
8
Black
10
229.854
20
-245.274
11
229.854
21
-244.566
0
LINE
8
Black
10
229.854
20
-244.566
11
229.146
21
-244.566
0
LINE
8
Black
10
229.146
20
-244.566
11
229.146
21
-245.274
0
LINE
8
Black
10
229.146
20
-245.274
11
229.854
21
-245.274
0
LINE
8
Black
10
229.854
20
-280.274
11
229.854
21
-279.566
0
LINE
8
Black
10
229.854
20
-279.566
11
229.146
21
-279.566
0
LINE
8
Black
10
229.146
20
-279.566
11
229.146
21
-280.274
0
LINE
8
Black
10
229.146
20
-280.274
11
229.854
21
-280.274
0
LINE
8
Black
10
229.854
20
-315.274
11
229.854
21
-314.566
0
LINE
8
Black
10
229.854
20
-314.566
11
229.146
21
-314.566
0
LINE
8
Black
10
229.146
20
-314.566
11
229.146
21
-315.274
0
LINE
8
Black
10
229.146
20
-315.274
11
229.854
21
-315.274
0
LINE
8
Black
10
249.854
20
-70.2738
11
249.854
21
-69.5662
0
LINE
8
Black
10
249.854
20
-69.5662
11
249.146
21
-69.5662
0
LINE
8
Black
10
249.146
20
-69.5662
11
249.146
21
-70.2738
0
LINE
8
Black
10
249.146
20
-70.2738
11
249.854
21
-70.2738
0
LINE
8
Black
10
249.854
20
-105.274
11
249.854
21
-104.566
0
LINE
8
Black
10
249.854
20
-104.566
11
249.146
21
-104.566
0
LINE
8
Black
10
249.146
20
-104.566
11
249.146
21
-105.274
0
LINE
8
Black
10
249.146
20
-105.274
11
249.854
21
-105.274
0
LINE
8
Black
10
249.854
20
-140.274
11
249.854
21
-139.566
0
LINE
8
Black
10
249.854
20
-139.566
11
249.146
21
-139.566
0
LINE
8
Black
10
249.146
20
-139.566
11
249.146
21
-140.274
0
LINE
8
Black
10
249.146
20
-140.274
11
249.854
21
-140.274
0
LINE
8
Black
10
249.854
20
-175.274
11
249.854
21
-174.566
0
LINE
8
Black
10
249.854
20
-174.566
11
249.146
21
-174.566
0
LINE
8
Black
10
249.146
20
-174.566
11
249.146
21
-175.274
0
LINE
8
Black
10
249.146
20
-175.274
11
249.854
21
-175.274
0
LINE
8
Black
10
249.854
20
-210.274
11
249.854
21
-209.566
0
LINE
8
Black
10
249.854
20
-209.566
11
249.146
21
-209.566
0
LINE
8
Black
10
249.146
20
-209.566
11
249.146
21
-210.274
0
LINE
8
Black
10
249.146
20
-210.274
11
249.854
21
-210.274
0
LINE
8
Black
10
249.854
20
-245.274
11
249.854
21
-244.566
0
LINE
8
Black
10
249.854
20
-244.566
11
249.146
21
-244.566
0
LINE
8
Black
10
249.146
20
-244.566
11
249.146
21
-245.274
0
LINE
8
Black
10
249.146
20
-245.274
11
249.854
21
-245.274
0
LINE
8
Black
10
249.854
20
-280.274
11
249.854
21
-279.566
0
LINE
8
Black
10
249.854
20
-279.566
11
249.146
21
-279.566
0
LINE
8
Black
10
249.146
20
-279.566
11
249.146
21
-280.274
0
LINE
8
Black
10
249.146
20
-280.274
11
249.854
21
-280.274
0
LINE
8
Black
10
249.854
20
-315.274
11
249.854
21
-314.566
0
LINE
8
Black
10
249.854
20
-314.566
11
249.146
21
-314.566
0
LINE
8
Black
10
249.146
20
-314.566
11
249.146
21
-315.274
0
LINE
8
Black
10
249.146
20
-315.274
11
249.854
21
-315.274
0
LINE
8
Black
10
269.854
20
-70.2738
11
269.854
21
-69.5662
0
LINE
8
Black
10
269.854
20
-69.5662
11
269.146
21
-69.5662
0
LINE
8
Black
10
269.146
20
-69.5662
11
269.146
21
-70.2738
0
LINE
8
Black
10
269.146
20
-70.2738
11
269.854
21
-70.2738
0
LINE
8
Black
10
269.854
20
-105.274
11
269.854
21
-104.566
0
LINE
8
Black
10
269.854
20
-104.566
11
269.146
21
-104.566
0
LINE
8
Black
10
269.146
20
-104.566
11
269.146
21
-105.274
0
LINE
8
Black
10
269.146
20
-105.274
11
269.854
21
-105.274
0
LINE
8
Black
10
269.854
20
-140.274
11
269.854
21
-139.566
0
LINE
8
Black
10
269.854
20
-139.566
11
269.146
21
-139.566
0
LINE
8
Black
10
269.146
20
-139.566
11
269.146
21
-140.274
0
LINE
8
Black
10
269.146
20
-140.274
11
269.854
21
-140.274
0
LINE
8
Black
10
269.854
20
-175.274
11
269.854
21
-174.566
0
LINE
8
Black
10
269.854
20
-174.566
11
269.146
21
-174.566
0
LINE
8
Black
10
269.146
20
-174.566
11
269.146
21
-175.274
0
LINE
8
Black
10
269.146
20
-175.274
11
269.854
21
-175.274
0
LINE
8
Black
10
269.854
20
-210.274
11
269.854
21
-209.566
0
LINE
8
Black
10
269.854
20
-209.566
11
269.146
21
-209.566
0
LINE
8
Black
10
269.146
20
-209.566
11
269.146
21
-210.274
0
LINE
8
Black
10
269.146
20
-210.274
11
269.854
21
-210.274
0
LINE
8
Black
10
269.854
20
-245.274
11
269.854
21
-244.566
0
LINE
8
Black
10
269.854
20
-244.566
11
269.146
21
-244.566
0
LINE
8
Black
10
269.146
20
-244.566
11
269.146
21
-245.274
0
LINE
8
Black
10
269.146
20
-245.274
11
269.854
21
-245.274
0
LINE
8
Black
10
269.854
20
-280.274
11
269.854
21
-279.566
0
LINE
8
Black
10
269.854
20
-279.566
11
269.146
21
-279.566
0
LINE
8
Black
10
269.146
20
-279.566
11
269.146
21
-280.274
0
LINE
8
Black
10
269.146
20
-280.274
11
269.854
21
-280.274
0
LINE
8
Black
10
269.854
20
-315.274
11
269.854
21
-314.566
0
LINE
8
Black
10
269.854
20
-314.566
11
269.146
21
-314.566
0
LINE
8
Black
10
269.146
20
-314.566
11
269.146
21
-315.274
0
LINE
8
Black
10
269.146
20
-315.274
11
269.854
21
-315.274
0
LINE
8
Black
10
289.854
20
-70.2738
11
289.854
21
-69.5662
0
LINE
8
Black
10
289.854
20
-69.5662
11
289.146
21
-69.5662
0
LINE
8
Black
10
289.146
20
-69.5662
11
289.146
21
-70.2738
0
LINE
8
Black
10
289.146
20
-70.2738
11
289.854
21
-70.2738
0
LINE
8
Black
10
289.854
20
-105.274
11
289.854
21
-104.566
0
LINE
8
Black
10
289.854
20
-104.566
11
289.146
21
-104.566
0
LINE
8
Black
10
289.146
20
-104.566
11
289.146
21
-105.274
0
LINE
8
Black
10
289.146
20
-105.274
11
289.854
21
-105.274
0
LINE
8
Black
10
289.854
20
-140.274
11
289.854
21
-139.566
0
LINE
8
Black
10
289.854
20
-139.566
11
289.146
21
-139.566
0
LINE
8
Black
10
289.146
20
-139.566
11
289.146
21
-140.274
0
LINE
8
Black
10
289.146
20
-140.274
11
289.854
21
-140.274
0
LINE
8
Black
10
289.854
20
-175.274
11
289.854
21
-174.566
0
LINE
8
Black
10
289.854
20
-174.566
11
289.146
21
-174.566
0
LINE
8
Black
10
289.146
20
-174.566
11
289.146
21
-175.274
0
LINE
8
Black
10
289.146
20
-175.274
11
289.854
21
-175.274
0
LINE
8
Black
10
289.854
20
-210.274
11
289.854
21
-209.566
0
LINE
8
Black
10
289.854
20
-209.566
11
289.146
21
-209.566
0
LINE
8
Black
10
289.146
20
-209.566
11
289.146
21
-210.274
0
LINE
8
Black
10
289.146
20
-210.274
11
289.854
21
-210.274
0
LINE
8
Black
10
289.854
20
-245.274
11
289.854
21
-244.566
0
LINE
8
Black
10
289.854
20
-244.566
11
289.146
21
-244.566
0
LINE
8
Black
10
289.146
20
-244.566
11
289.146
21
-245.274
0
LINE
8
Black
10
289.146
20
-245.274
11
289.854
21
-245.274
0
LINE
8
Black
10
289.854
20
-280.274
11
289.854
21
-279.566
0
LINE
8
Black
10
289.854
20
-279.566
11
289.146
21
-279.566
0
LINE
8
Black
10
289.146
20
-279.566
11
289.146
21
-280.274
0
LINE
8
Black
10
289.146
20
-280.274
11
289.854
21
-280.274
0
LINE
8
Black
10
289.854
20
-315.274
11
289.854
21
-314.566
0
LINE
8
Black
10
289.854
20
-314.566
11
289.146
21
-314.566
0
LINE
8
Black
10
289.146
20
-314.566
11
289.146
21
-315.274
0
LINE
8
Black
10
289.146
20
-315.274
11
289.854
21
-315.274
0
LINE
8
Black
10
309.854
20
-70.2738
11
309.854
21
-69.5662
0
LINE
8
Black
10
309.854
20
-69.5662
11
309.146
21
-69.5662
0
LINE
8
Black
10
309.146
20
-69.5662
11
309.146
21
-70.2738
0
LINE
8
Black
10
309.146
20
-70.2738
11
309.854
21
-70.2738
0
LINE
8
Black
10
309.854
20
-105.274
11
309.854
21
-104.566
0
LINE
8
Black
10
309.854
20
-104.566
11
309.146
21
-104.566
0
LINE
8
Black
10
309.146
20
-104.566
11
309.146
21
-105.274
0
LINE
8
Black
10
309.146
20
-105.274
11
309.854
21
-105.274
0
LINE
8
Black
10
309.854
20
-140.274
11
309.854
21
-139.566
0
LINE
8
Black
10
309.854
20
-139.566
11
309.146
21
-139.566
0
LINE
8
Black
10
309.146
20
-139.566
11
309.146
21
-140.274
0
LINE
8
Black
10
309.146
20
-140.274
11
309.854
21
-140.274
0
LINE
8
Black
10
309.854
20
-175.274
11
309.854
21
-174.566
0
LINE
8
Black
10
309.854
20
-174.566
11
309.146
21
-174.566
0
LINE
8
Black
10
309.146
20
-174.566
11
309.146
21
-175.274
0
LINE
8
Black
10
309.146
20
-175.274
11
309.854
21
-175.274
0
LINE
8
Black
10
309.854
20
-210.274
11
309.854
21
-209.566
0
LINE
8
Black
10
309.854
20
-209.566
11
309.146
21
-209.566
0
LINE
8
Black
10
309.146
20
-209.566
11
309.146
21
-210.274
0
LINE
8
Black
10
309.146
20
-210.274
11
309.854
21
-210.274
0
LINE
8
Black
10
309.854
20
-245.274
11
309.854
21
-244.566
0
LINE
8
Black
10
309.854
20
-244.566
11
309.146
21
-244.566
0
LINE
8
Black
10
309.146
20
-244.566
11
309.146
21
-245.274
0
LINE
8
Black
10
309.146
20
-245.274
11
309.854
21
-245.274
0
LINE
8
Black
10
309.854
20
-280.274
11
309.854
21
-279.566
0
LINE
8
Black
10
309.854
20
-279.566
11
309.146
21
-279.566
0
LINE
8
Black
10
309.146
20
-279.566
11
309.146
21
-280.274
0
LINE
8
Black
10
309.146
20
-280.274
11
309.854
21
-280.274
0
LINE
8
Black
10
309.854
20
-315.274
11
309.854
21
-314.566
0
LINE
8
Black
10
309.854
20
-314.566
11
309.146
21
-314.566
0
LINE
8
Black
10
309.146
20
-314.566
11
309.146
21
-315.274
0
LINE
8
Black
10
309.146
20
-315.274
11
309.854
21
-315.274
0
LINE
8
Black
10
329.854
20
-70.2738
11
329.854
21
-69.5662
0
LINE
8
Black
10
329.854
20
-69.5662
11
329.146
21
-69.5662
0
LINE
8
Black
10
329.146
20
-69.5662
11
329.146
21
-70.2738
0
LINE
8
Black
10
329.146
20
-70.2738
11
329.854
21
-70.2738
0
LINE
8
Black
10
329.854
20
-105.274
11
329.854
21
-104.566
0
LINE
8
Black
10
329.854
20
-104.566
11
329.146
21
-104.566
0
LINE
8
Black
10
329.146
20
-104.566
11
329.146
21
-105.274
0
LINE
8
Black
10
329.146
20
-105.274
11
329.854
21
-105.274
0
LINE
8
Black
10
329.854
20
-140.274
11
329.854
21
-139.566
0
LINE
8
Black
10
329.854
20
-139.566
11
329.146
21
-139.566
0
LINE
8
Black
10
329.146
20
-139.566
11
329.146
21
-140.274
0
LINE
8
Black
10
329.146
20
-140.274
11
329.854
21
-140.274
0
LINE
8
Black
10
329.854
20
-175.274
11
329.854
21
-174.566
0
LINE
8
Black
10
329.854
20
-174.566
11
329.146
21
-174.566
0
LINE
8
Black
10
329.146
20
-174.566
11
329.146
21
-175.274
0
LINE
8
Black
10
329.146
20
-175.274
11
329.854
21
-175.274
0
LINE
8
Black
10
329.854
20
-210.274
11
329.854
21
-209.566
0
LINE
8
Black
10
329.854
20
-209.566
11
329.146
21
-209.566
0
LINE
8
Black
10
329.146
20
-209.566
11
329.146
21
-210.274
0
LINE
8
Black
10
329.146
20
-210.274
11
329.854
21
-210.274
0
LINE
8
Black
10
329.854
20
-245.274
11
329.854
21
-244.566
0
LINE
8
Black
10
329.854
20
-244.566
11
329.146
21
-244.566
0
LINE
8
Black
10
329.146
20
-244.566
11
329.146
21
-245.274
0
LINE
8
Black
10
329.146
20
-245.274
11
329.854
21
-245.274
0
LINE
8
Black
10
329.854
20
-280.274
11
329.854
21
-279.566
0
LINE
8
Black
10
329.854
20
-279.566
11
329.146
21
-279.566
0
LINE
8
Black
10
329.146
20
-279.566
11
329.146
21
-280.274
0
LINE
8
Black
10
329.146
20
-280.274
11
329.854
21
-280.274
0
LINE
8
Black
10
329.854
20
-315.274
11
329.854
21
-314.566
0
LINE
8
Black
10
329.854
20
-314.566
11
329.146
21
-314.566
0
LINE
8
Black
10
329.146
20
-314.566
11
329.146
21
-315.274
0
LINE
8
Black
10
329.146
20
-315.274
11
329.854
21
-315.274
0
LINE
8
Black
10
349.854
20
-70.2738
11
349.854
21
-69.5662
0
LINE
8
Black
10
349.854
20
-69.5662
11
349.146
21
-69.5662
0
LINE
8
Black
10
349.146
20
-69.5662
11
349.146
21
-70.2738
0
LINE
8
Black
10
349.146
20
-70.2738
11
349.854
21
-70.2738
0
LINE
8
Black
10
349.854
20
-105.274
11
349.854
21
-104.566
0
LINE
8
Black
10
349.854
20
-104.566
11
349.146
21
-104.566
0
LINE
8
Black
10
349.146
20
-104.566
11
349.146
21
-105.274
0
LINE
8
Black
10
349.146
20
-105.274
11
349.854
21
-105.274
0
LINE
8
Black
10
349.854
20
-140.274
11
349.854
21
-139.566
0
LINE
8
Black
10
349.854
20
-139.566
11
349.146
21
-139.566
0
LINE
8
Black
10
349.146
20
-139.566
11
349.146
21
-140.274
0
LINE
8
Black
10
349.146
20
-140.274
11
349.854
21
-140.274
0
LINE
8
Black
10
349.854
20
-175.274
11
349.854
21
-174.566
0
LINE
8
Black
10
349.854
20
-174.566
11
349.146
21
-174.566
0
LINE
8
Black
10
349.146
20
-174.566
11
349.146
21
-175.274
0
LINE
8
Black
10
349.146
20
-175.274
11
349.854
21
-175.274
0
LINE
8
Black
10
349.854
20
-210.274
11
349.854
21
-209.566
0
LINE
8
Black
10
349.854
20
-209.566
11
349.146
21
-209.566
0
LINE
8
Black
10
349.146
20
-209.566
11
349.146
21
-210.274
0
LINE
8
Black
10
349.146
20
-210.274
11
349.854
21
-210.274
0
LINE
8
Black
10
349.854
20
-245.274
11
349.854
21
-244.566
0
LINE
8
Black
10
349.854
20
-244.566
11
349.146
21
-244.566
0
LINE
8
Black
10
349.146
20
-244.566
11
349.146
21
-245.274
0
LINE
8
Black
10
349.146
20
-245.274
11
349.854
21
-245.274
0
LINE
8
Black
10
349.854
20
-280.274
11
349.854
21
-279.566
0
LINE
8
Black
10
349.854
20
-279.566
11
349.146
21
-279.566
0
LINE
8
Black
10
349.146
20
-279.566
11
349.146
21
-280.274
0
LINE
8
Black
10
349.146
20
-280.274
11
349.854
21
-280.274
0
LINE
8
Black
10
349.854
20
-315.274
11
349.854
21
-314.566
0
LINE
8
Black
10
349.854
20
-314.566
11
349.146
21
-314.566
0
LINE
8
Black
10
349.146
20
-314.566
11
349.146
21
-315.274
0
LINE
8
Black
10
349.146
20
-315.274
11
349.854
21
-315.274
0
LINE
8
Black
10
369.854
20
-70.2738
11
369.854
21
-69.5662
0
LINE
8
Black
10
369.854
20
-69.5662
11
369.146
21
-69.5662
0
LINE
8
Black
10
369.146
20
-69.5662
11
369.146
21
-70.2738
0
LINE
8
Black
10
369.146
20
-70.2738
11
369.854
21
-70.2738
0
LINE
8
Black
10
369.854
20
-105.274
11
369.854
21
-104.566
0
LINE
8
Black
10
369.854
20
-104.566
11
369.146
21
-104.566
0
LINE
8
Black
10
369.146
20
-104.566
11
369.146
21
-105.274
0
LINE
8
Black
10
369.146
20
-105.274
11
369.854
21
-105.274
0
LINE
8
Black
10
369.854
20
-140.274
11
369.854
21
-139.566
0
LINE
8
Black
10
369.854
20
-139.566
11
369.146
21
-139.566
0
LINE
8
Black
10
369.146
20
-139.566
11
369.146
21
-140.274
0
LINE
8
Black
10
369.146
20
-140.274
11
369.854
21
-140.274
0
LINE
8
Black
10
369.854
20
-175.274
11
369.854
21
-174.566
0
LINE
8
Black
10
369.854
20
-174.566
11
369.146
21
-174.566
0
LINE
8
Black
10
369.146
20
-174.566
11
369.146
21
-175.274
0
LINE
8
Black
10
369.146
20
-175.274
11
369.854
21
-175.274
0
LINE
8
Black
10
369.854
20
-210.274
11
369.854
21
-209.566
0
LINE
8
Black
10
369.854
20
-209.566
11
369.146
21
-209.566
0
LINE
8
Black
10
369.146
20
-209.566
11
369.146
21
-210.274
0
LINE
8
Black
10
369.146
20
-210.274
11
369.854
21
-210.274
0
LINE
8
Black
10
369.854
20
-245.274
11
369.854
21
-244.566
0
LINE
8
Black
10
369.854
20
-244.566
11
369.146
21
-244.566
0
LINE
8
Black
10
369.146
20
-244.566
11
369.146
21
-245.274
0
LINE
8
Black
10
369.146
20
-245.274
11
369.854
21
-245.274
0
LINE
8
Black
10
369.854
20
-280.274
11
369.854
21
-279.566
0
LINE
8
Black
10
369.854
20
-279.566
11
369.146
21
-279.566
0
LINE
8
Black
10
369.146
20
-279.566
11
369.146
21
-280.274
0
LINE
8
Black
10
369.146
20
-280.274
11
369.854
21
-280.274
0
LINE
8
Black
10
369.854
20
-315.274
11
369.854
21
-314.566
0
LINE
8
Black
10
369.854
20
-314.566
11
369.146
21
-314.566
0
LINE
8
Black
10
369.146
20
-314.566
11
369.146
21
-315.274
0
LINE
8
Black
10
369.146
20
-315.274
11
369.854
21
-315.274
0
LINE
8
Black
10
389.854
20
-70.2738
11
389.854
21
-69.5662
0
LINE
8
Black
10
389.854
20
-69.5662
11
389.146
21
-69.5662
0
LINE
8
Black
10
389.146
20
-69.5662
11
389.146
21
-70.2738
0
LINE
8
Black
10
389.146
20
-70.2738
11
389.854
21
-70.2738
0
LINE
8
Black
10
389.854
20
-105.274
11
389.854
21
-104.566
0
LINE
8
Black
10
389.854
20
-104.566
11
389.146
21
-104.566
0
LINE
8
Black
10
389.146
20
-104.566
11
389.146
21
-105.274
0
LINE
8
Black
10
389.146
20
-105.274
11
389.854
21
-105.274
0
LINE
8
Black
10
389.854
20
-140.274
11
389.854
21
-139.566
0
LINE
8
Black
10
389.854
20
-139.566
11
389.146
21
-139.566
0
LINE
8
Black
10
389.146
20
-139.566
11
389.146
21
-140.274
0
LINE
8
Black
10
389.146
20
-140.274
11
389.854
21
-140.274
0
LINE
8
Black
10
389.854
20
-175.274
11
389.854
21
-174.566
0
LINE
8
Black
10
389.854
20
-174.566
11
389.146
21
-174.566
0
LINE
8
Black
10
389.146
20
-174.566
11
389.146
21
-175.274
0
LINE
8
Black
10
389.146
20
-175.274
11
389.854
21
-175.274
0
LINE
8
Black
10
389.854
20
-210.274
11
389.854
21
-209.566
0
LINE
8
Black
10
389.854
20
-209.566
11
389.146
21
-209.566
0
LINE
8
Black
10
389.146
20
-209.566
11
389.146
21
-210.274
0
LINE
8
Black
10
389.146
20
-210.274
11
389.854
21
-210.274
0
LINE
8
Black
10
389.854
20
-245.274
11
389.854
21
-244.566
0
LINE
8
Black
10
389.854
20
-244.566
11
389.146
21
-244.566
0
LINE
8
Black
10
389.146
20
-244.566
11
389.146
21
-245.274
0
LINE
8
Black
10
389.146
20
-245.274
11
389.854
21
-245.274
0
LINE
8
Black
10
389.854
20
-280.274
11
389.854
21
-279.566
0
LINE
8
Black
10
389.854
20
-279.566
11
389.146
21
-279.566
0
LINE
8
Black
10
389.146
20
-279.566
11
389.146
21
-280.274
0
LINE
8
Black
10
389.146
20
-280.274
11
389.854
21
-280.274
0
LINE
8
Black
10
389.854
20
-315.274
11
389.854
21
-314.566
0
LINE
8
Black
10
389.854
20
-314.566
11
389.146
21
-314.566
0
LINE
8
Black
10
389.146
20
-314.566
11
389.146
21
-315.274
0
LINE
8
Black
10
389.146
20
-315.274
11
389.854
21
-315.274
0
LINE
8
Black
10
409.854
20
-70.2738
11
409.854
21
-69.5662
0
LINE
8
Black
10
409.854
20
-69.5662
11
409.146
21
-69.5662
0
LINE
8
Black
10
409.146
20
-69.5662
11
409.146
21
-70.2738
0
LINE
8
Black
10
409.146
20
-70.2738
11
409.854
21
-70.2738
0
LINE
8
Black
10
409.854
20
-105.274
11
409.854
21
-104.566
0
LINE
8
Black
10
409.854
20
-104.566
11
409.146
21
-104.566
0
LINE
8
Black
10
409.146
20
-104.566
11
409.146
21
-105.274
0
LINE
8
Black
10
409.146
20
-105.274
11
409.854
21
-105.274
0
LINE
8
Black
10
409.854
20
-140.274
11
409.854
21
-139.566
0
LINE
8
Black
10
409.854
20
-139.566
11
409.146
21
-139.566
0
LINE
8
Black
10
409.146
20
-139.566
11
409.146
21
-140.274
0
LINE
8
Black
10
409.146
20
-140.274
11
409.854
21
-140.274
0
LINE
8
Black
10
409.854
20
-175.274
11
409.854
21
-174.566
0
LINE
8
Black
10
409.854
20
-174.566
11
409.146
21
-174.566
0
LINE
8
Black
10
409.146
20
-174.566
11
409.146
21
-175.274
0
LINE
8
Black
10
409.146
20
-175.274
11
409.854
21
-175.274
0
LINE
8
Black
10
409.854
20
-210.274
11
409.854
21
-209.566
0
LINE
8
Black
10
409.854
20
-209.566
11
409.146
21
-209.566
0
LINE
8
Black
10
409.146
20
-209.566
11
409.146
21
-210.274
0
LINE
8
Black
10
409.146
20
-210.274
11
409.854
21
-210.274
0
LINE
8
Black
10
409.854
20
-245.274
11
409.854
21
-244.566
0
LINE
8
Black
10
409.854
20
-244.566
11
409.146
21
-244.566
0
LINE
8
Black
10
409.146
20
-244.566
11
409.146
21
-245.274
0
LINE
8
Black
10
409.146
20
-245.274
11
409.854
21
-245.274
0
LINE
8
Black
10
409.854
20
-280.274
11
409.854
21
-279.566
0
LINE
8
Black
10
409.854
20
-279.566
11
409.146
21
-279.566
0
LINE
8
Black
10
409.146
20
-279.566
11
409.146
21
-280.274
0
LINE
8
Black
10
409.146
20
-280.274
11
409.854
21
-280.274
0
LINE
8
Black
10
409.854
20
-315.274
11
409.854
21
-314.566
0
LINE
8
Black
10
409.854
20
-314.566
11
409.146
21
-314.566
0
LINE
8
Black
10
409.146
20
-314.566
11
409.146
21
-315.274
0
LINE
8
Black
10
409.146
20
-315.274
11
409.854
21
-315.274
0
LINE
8
Black
10
419.854
20
-70.2738
11
419.854
21
-69.5662
0
LINE
8
Black
10
419.854
20
-69.5662
11
419.146
21
-69.5662
0
LINE
8
Black
10
419.146
20
-69.5662
11
419.146
21
-70.2738
0
LINE
8
Black
10
419.146
20
-70.2738
11
419.854
21
-70.2738
0
LINE
8
Black
10
419.854
20
-80.4338
11
419.854
21
-79.7262
0
LINE
8
Black
10
419.854
20
-79.7262
11
419.146
21
-79.7262
0
LINE
8
Black
10
419.146
20
-79.7262
11
419.146
21
-80.4338
0
LINE
8
Black
10
419.146
20
-80.4338
11
419.854
21
-80.4338
0
LINE
8
Black
10
419.854
20
-105.274
11
419.854
21
-104.566
0
LINE
8
Black
10
419.854
20
-104.566
11
419.146
21
-104.566
0
LINE
8
Black
10
419.146
20
-104.566
11
419.146
21
-105.274
0
LINE
8
Black
10
419.146
20
-105.274
11
419.854
21
-105.274
0
LINE
8
Black
10
419.854
20
-115.434
11
419.854
21
-114.726
0
LINE
8
Black
10
419.854
20
-114.726
11
419.146
21
-114.726
0
LINE
8
Black
10
419.146
20
-114.726
11
419.146
21
-115.434
0
LINE
8
Black
10
419.146
20
-115.434
11
419.854
21
-115.434
0
LINE
8
Black
10
419.854
20
-140.274
11
419.854
21
-139.566
0
LINE
8
Black
10
419.854
20
-139.566
11
419.146
21
-139.566
0
LINE
8
Black
10
419.146
20
-139.566
11
419.146
21
-140.274
0
LINE
8
Black
10
419.146
20
-140.274
11
419.854
21
-140.274
0
LINE
8
Black
10
419.854
20
-150.434
11
419.854
21
-149.726
0
LINE
8
Black
10
419.854
20
-149.726
11
419.146
21
-149.726
0
LINE
8
Black
10
419.146
20
-149.726
11
419.146
21
-150.434
0
LINE
8
Black
10
419.146
20
-150.434
11
419.854
21
-150.434
0
LINE
8
Black
10
419.854
20
-175.274
11
419.854
21
-174.566
0
LINE
8
Black
10
419.854
20
-174.566
11
419.146
21
-174.566
0
LINE
8
Black
10
419.146
20
-174.566
11
419.146
21
-175.274
0
LINE
8
Black
10
419.146
20
-175.274
11
419.854
21
-175.274
0
LINE
8
Black
10
419.854
20
-185.434
11
419.854
21
-184.726
0
LINE
8
Black
10
419.854
20
-184.726
11
419.146
21
-184.726
0
LINE
8
Black
10
419.146
20
-184.726
11
419.146
21
-185.434
0
LINE
8
Black
10
419.146
20
-185.434
11
419.854
21
-185.434
0
LINE
8
Black
10
419.854
20
-210.274
11
419.854
21
-209.566
0
LINE
8
Black
10
419.854
20
-209.566
11
419.146
21
-209.566
0
LINE
8
Black
10
419.146
20
-209.566
11
419.146
21
-210.274
0
LINE
8
Black
10
419.146
20
-210.274
11
419.854
21
-210.274
0
LINE
8
Black
10
419.854
20
-220.434
11
419.854
21
-219.726
0
LINE
8
Black
10
419.854
20
-219.726
11
419.146
21
-219.726
0
LINE
8
Black
10
419.146
20
-219.726
11
419.146
21
-220.434
0
LINE
8
Black
10
419.146
20
-220.434
11
419.854
21
-220.434
0
LINE
8
Black
10
419.854
20
-245.274
11
419.854
21
-244.566
0
LINE
8
Black
10
419.854
20
-244.566
11
419.146
21
-244.566
0
LINE
8
Black
10
419.146
20
-244.566
11
419.146
21
-245.274
0
LINE
8
Black
10
419.146
20
-245.274
11
419.854
21
-245.274
0
LINE
8
Black
10
419.854
20
-255.434
11
419.854
21
-254.726
0
LINE
8
Black
10
419.854
20
-254.726
11
419.146
21
-254.726
0
LINE
8
Black
10
419.146
20
-254.726
11
419.146
21
-255.434
0
LINE
8
Black
10
419.146
20
-255.434
11
419.854
21
-255.434
0
LINE
8
Black
10
419.854
20
-280.274
11
419.854
21
-279.566
0
LINE
8
Black
10
419.854
20
-279.566
11
419.146
21
-279.566
0
LINE
8
Black
10
419.146
20
-279.566
11
419.146
21
-280.274
0
LINE
8
Black
10
419.146
20
-280.274
11
419.854
21
-280.274
0
LINE
8
Black
10
419.854
20
-290.434
11
419.854
21
-289.726
0
LINE
8
Black
10
419.854
20
-289.726
11
419.146
21
-289.726
0
LINE
8
Black
10
419.146
20
-289.726
11
419.146
21
-290.434
0
LINE
8
Black
10
419.146
20
-290.434
11
419.854
21
-290.434
0
LINE
8
Black
10
419.854
20
-315.274
11
419.854
21
-314.566
0
LINE
8
Black
10
419.854
20
-314.566
11
419.146
21
-314.566
0
LINE
8
Black
10
419.146
20
-314.566
11
419.146
21
-315.274
0
LINE
8
Black
10
419.146
20
-315.274
11
419.854
21
-315.274
0
LINE
8
Black
10
419.854
20
-325.434
11
419.854
21
-324.726
0
LINE
8
Black
10
419.854
20
-324.726
11
419.146
21
-324.726
0
LINE
8
Black
10
419.146
20
-324.726
11
419.146
21
-325.434
0
LINE
8
Black
10
419.146
20
-325.434
11
419.854
21
-325.434
0
LINE
8
Black
10
189.5
20
-80.715
11
190.135
21
-80.08
0
LINE
8
Black
10
190.135
20
-80.08
11
189.5
21
-79.445
0
LINE
8
Black
10
189.5
20
-79.445
11
188.865
21
-80.08
0
LINE
8
Black
10
188.865
20
-80.08
11
189.5
21
-80.715
0
LINE
8
Black
10
189.5
20
-115.715
11
190.135
21
-115.08
0
LINE
8
Black
10
190.135
20
-115.08
11
189.5
21
-114.445
0
LINE
8
Black
10
189.5
20
-114.445
11
188.865
21
-115.08
0
LINE
8
Black
10
188.865
20
-115.08
11
189.5
21
-115.715
0
LINE
8
Black
10
189.5
20
-150.715
11
190.135
21
-150.08
0
LINE
8
Black
10
190.135
20
-150.08
11
189.5
21
-149.445
0
LINE
8
Black
10
189.5
20
-149.445
11
188.865
21
-150.08
0
LINE
8
Black
10
188.865
20
-150.08
11
189.5
21
-150.715
0
LINE
8
Black
10
189.5
20
-185.715
11
190.135
21
-185.08
0
LINE
8
Black
10
190.135
20
-185.08
11
189.5
21
-184.445
0
LINE
8
Black
10
189.5
20
-184.445
11
188.865
21
-185.08
0
LINE
8
Black
10
188.865
20
-185.08
11
189.5
21
-185.715
0
LINE
8
Black
10
189.5
20
-220.715
11
190.135
21
-220.08
0
LINE
8
Black
10
190.135
20
-220.08
11
189.5
21
-219.445
0
LINE
8
Black
10
189.5
20
-219.445
11
188.865
21
-220.08
0
LINE
8
Black
10
188.865
20
-220.08
11
189.5
21
-220.715
0
LINE
8
Black
10
189.5
20
-255.715
11
190.135
21
-255.08
0
LINE
8
Black
10
190.135
20
-255.08
11
189.5
21
-254.445
0
LINE
8
Black
10
189.5
20
-254.445
11
188.865
21
-255.08
0
LINE
8
Black
10
188.865
20
-255.08
11
189.5
21
-255.715
0
LINE
8
Black
10
189.5
20
-290.715
11
190.135
21
-290.08
0
LINE
8
Black
10
190.135
20
-290.08
11
189.5
21
-289.445
0
LINE
8
Black
10
189.5
20
-289.445
11
188.865
21
-290.08
0
LINE
8
Black
10
188.865
20
-290.08
11
189.5
21
-290.715
0
LINE
8
Black
10
189.5
20
-325.715
11
190.135
21
-325.08
0
LINE
8
Black
10
190.135
20
-325.08
11
189.5
21
-324.445
0
LINE
8
Black
10
189.5
20
-324.445
11
188.865
21
-325.08
0
LINE
8
Black
10
188.865
20
-325.08
11
189.5
21
-325.715
0
LINE
8
Black
10
209.5
20
-80.715
11
210.135
21
-80.08
0
LINE
8
Black
10
210.135
20
-80.08
11
209.5
21
-79.445
0
LINE
8
Black
10
209.5
20
-79.445
11
208.865
21
-80.08
0
LINE
8
Black
10
208.865
20
-80.08
11
209.5
21
-80.715
0
LINE
8
Black
10
209.5
20
-115.715
11
210.135
21
-115.08
0
LINE
8
Black
10
210.135
20
-115.08
11
209.5
21
-114.445
0
LINE
8
Black
10
209.5
20
-114.445
11
208.865
21
-115.08
0
LINE
8
Black
10
208.865
20
-115.08
11
209.5
21
-115.715
0
LINE
8
Black
10
209.5
20
-150.715
11
210.135
21
-150.08
0
LINE
8
Black
10
210.135
20
-150.08
11
209.5
21
-149.445
0
LINE
8
Black
10
209.5
20
-149.445
11
208.865
21
-150.08
0
LINE
8
Black
10
208.865
20
-150.08
11
209.5
21
-150.715
0
LINE
8
Black
10
209.5
20
-185.715
11
210.135
21
-185.08
0
LINE
8
Black
10
210.135
20
-185.08
11
209.5
21
-184.445
0
LINE
8
Black
10
209.5
20
-184.445
11
208.865
21
-185.08
0
LINE
8
Black
10
208.865
20
-185.08
11
209.5
21
-185.715
0
LINE
8
Black
10
209.5
20
-220.715
11
210.135
21
-220.08
0
LINE
8
Black
10
210.135
20
-220.08
11
209.5
21
-219.445
0
LINE
8
Black
10
209.5
20
-219.445
11
208.865
21
-220.08
0
LINE
8
Black
10
208.865
20
-220.08
11
209.5
21
-220.715
0
LINE
8
Black
10
209.5
20
-255.715
11
210.135
21
-255.08
0
LINE
8
Black
10
210.135
20
-255.08
11
209.5
21
-254.445
0
LINE
8
Black
10
209.5
20
-254.445
11
208.865
21
-255.08
0
LINE
8
Black
10
208.865
20
-255.08
11
209.5
21
-255.715
0
LINE
8
Black
10
209.5
20
-290.715
11
210.135
21
-290.08
0
LINE
8
Black
10
210.135
20
-290.08
11
209.5
21
-289.445
0
LINE
8
Black
10
209.5
20
-289.445
11
208.865
21
-290.08
0
LINE
8
Black
10
208.865
20
-290.08
11
209.5
21
-290.715
0
LINE
8
Black
10
209.5
20
-325.715
11
210.135
21
-325.08
0
LINE
8
Black
10
210.135
20
-325.08
11
209.5
21
-324.445
0
LINE
8
Black
10
209.5
20
-324.445
11
208.865
21
-325.08
0
LINE
8
Black
10
208.865
20
-325.08
11
209.5
21
-325.715
0
LINE
8
Black
10
229.5
20
-80.715
11
230.135
21
-80.08
0
LINE
8
Black
10
230.135
20
-80.08
11
229.5
21
-79.445
0
LINE
8
Black
10
229.5
20
-79.445
11
228.865
21
-80.08
0
LINE
8
Black
10
228.865
20
-80.08
11
229.5
21
-80.715
0
LINE
8
Black
10
229.5
20
-115.715
11
230.135
21
-115.08
0
LINE
8
Black
10
230.135
20
-115.08
11
229.5
21
-114.445
0
LINE
8
Black
10
229.5
20
-114.445
11
228.865
21
-115.08
0
LINE
8
Black
10
228.865
20
-115.08
11
229.5
21
-115.715
0
LINE
8
Black
10
229.5
20
-150.715
11
230.135
21
-150.08
0
LINE
8
Black
10
230.135
20
-150.08
11
229.5
21
-149.445
0
LINE
8
Black
10
229.5
20
-149.445
11
228.865
21
-150.08
0
LINE
8
Black
10
228.865
20
-150.08
11
229.5
21
-150.715
0
LINE
8
Black
10
229.5
20
-185.715
11
230.135
21
-185.08
0
LINE
8
Black
10
230.135
20
-185.08
11
229.5
21
-184.445
0
LINE
8
Black
10
229.5
20
-184.445
11
228.865
21
-185.08
0
LINE
8
Black
10
228.865
20
-185.08
11
229.5
21
-185.715
0
LINE
8
Black
10
229.5
20
-220.715
11
230.135
21
-220.08
0
LINE
8
Black
10
230.135
20
-220.08
11
229.5
21
-219.445
0
LINE
8
Black
10
229.5
20
-219.445
11
228.865
21
-220.08
0
LINE
8
Black
10
228.865
20
-220.08
11
229.5
21
-220.715
0
LINE
8
Black
10
229.5
20
-255.715
11
230.135
21
-255.08
0
LINE
8
Black
10
230.135
20
-255.08
11
229.5
21
-254.445
0
LINE
8
Black
10
229.5
20
-254.445
11
228.865
21
-255.08
0
LINE
8
Black
10
228.865
20
-255.08
11
229.5
21
-255.715
0
LINE
8
Black
10
229.5
20
-290.715
11
230.135
21
-290.08
0
LINE
8
Black
10
230.135
20
-290.08
11
229.5
21
-289.445
0
LINE
8
Black
10
229.5
20
-289.445
11
228.865
21
-290.08
0
LINE
8
Black
10
228.865
20
-290.08
11
229.5
21
-290.715
0
LINE
8
Black
10
229.5
20
-325.715
11
230.135
21
-325.08
0
LINE
8
Black
10
230.135
20
-325.08
11
229.5
21
-324.445
0
LINE
8
Black
10
229.5
20
-324.445
11
228.865
21
-325.08
0
LINE
8
Black
10
228.865
20
-325.08
11
229.5
21
-325.715
0
LINE
8
Black
10
249.5
20
-80.715
11
250.135
21
-80.08
0
LINE
8
Black
10
250.135
20
-80.08
11
249.5
21
-79.445
0
LINE
8
Black
10
249.5
20
-79.445
11
248.865
21
-80.08
0
LINE
8
Black
10
248.865
20
-80.08
11
249.5
21
-80.715
0
LINE
8
Black
10
249.5
20
-115.715
11
250.135
21
-115.08
0
LINE
8
Black
10
250.135
20
-115.08
11
249.5
21
-114.445
0
LINE
8
Black
10
249.5
20
-114.445
11
248.865
21
-115.08
0
LINE
8
Black
10
248.865
20
-115.08
11
249.5
21
-115.715
0
LINE
8
Black
10
249.5
20
-150.715
11
250.135
21
-150.08
0
LINE
8
Black
10
250.135
20
-150.08
11
249.5
21
-149.445
0
LINE
8
Black
10
249.5
20
-149.445
11
248.865
21
-150.08
0
LINE
8
Black
10
248.865
20
-150.08
11
249.5
21
-150.715
0
LINE
8
Black
10
249.5
20
-185.715
11
250.135
21
-185.08
0
LINE
8
Black
10
250.135
20
-185.08
11
249.5
21
-184.445
0
LINE
8
Black
10
249.5
20
-184.445
11
248.865
21
-185.08
0
LINE
8
Black
10
248.865
20
-185.08
11
249.5
21
-185.715
0
LINE
8
Black
10
249.5
20
-220.715
11
250.135
21
-220.08
0
LINE
8
Black
10
250.135
20
-220.08
11
249.5
21
-219.445
0
LINE
8
Black
10
249.5
20
-219.445
11
248.865
21
-220.08
0
LINE
8
Black
10
248.865
20
-220.08
11
249.5
21
-220.715
0
LINE
8
Black
10
249.5
20
-255.715
11
250.135
21
-255.08
0
LINE
8
Black
10
250.135
20
-255.08
11
249.5
21
-254.445
0
LINE
8
Black
10
249.5
20
-254.445
11
248.865
21
-255.08
0
LINE
8
Black
10
248.865
20
-255.08
11
249.5
21
-255.715
0
LINE
8
Black
10
249.5
20
-290.715
11
250.135
21
-290.08
0
LINE
8
Black
10
250.135
20
-290.08
11
249.5
21
-289.445
0
LINE
8
Black
10
249.5
20
-289.445
11
248.865
21
-290.08
0
LINE
8
Black
10
248.865
20
-290.08
11
249.5
21
-290.715
0
LINE
8
Black
10
249.5
20
-325.715
11
250.135
21
-325.08
0
LINE
8
Black
10
250.135
20
-325.08
11
249.5
21
-324.445
0
LINE
8
Black
10
249.5
20
-324.445
11
248.865
21
-325.08
0
LINE
8
Black
10
248.865
20
-325.08
11
249.5
21
-325.715
0
LINE
8
Black
10
269.5
20
-80.715
11
270.135
21
-80.08
0
LINE
8
Black
10
270.135
20
-80.08
11
269.5
21
-79.445
0
LINE
8
Black
10
269.5
20
-79.445
11
268.865
21
-80.08
0
LINE
8
Black
10
268.865
20
-80.08
11
269.5
21
-80.715
0
LINE
8
Black
10
269.5
20
-115.715
11
270.135
21
-115.08
0
LINE
8
Black
10
270.135
20
-115.08
11
269.5
21
-114.445
0
LINE
8
Black
10
269.5
20
-114.445
11
268.865
21
-115.08
0
LINE
8
Black
10
268.865
20
-115.08
11
269.5
21
-115.715
0
LINE
8
Black
10
269.5
20
-150.715
11
270.135
21
-150.08
0
LINE
8
Black
10
270.135
20
-150.08
11
269.5
21
-149.445
0
LINE
8
Black
10
269.5
20
-149.445
11
268.865
21
-150.08
0
LINE
8
Black
10
268.865
20
-150.08
11
269.5
21
-150.715
0
LINE
8
Black
10
269.5
20
-185.715
11
270.135
21
-185.08
0
LINE
8
Black
10
270.135
20
-185.08
11
269.5
21
-184.445
0
LINE
8
Black
10
269.5
20
-184.445
11
268.865
21
-185.08
0
LINE
8
Black
10
268.865
20
-185.08
11
269.5
21
-185.715
0
LINE
8
Black
10
269.5
20
-220.715
11
270.135
21
-220.08
0
LINE
8
Black
10
270.135
20
-220.08
11
269.5
21
-219.445
0
LINE
8
Black
10
269.5
20
-219.445
11
268.865
21
-220.08
0
LINE
8
Black
10
268.865
20
-220.08
11
269.5
21
-220.715
0
LINE
8
Black
10
269.5
20
-255.715
11
270.135
21
-255.08
0
LINE
8
Black
10
270.135
20
-255.08
11
269.5
21
-254.445
0
LINE
8
Black
10
269.5
20
-254.445
11
268.865
21
-255.08
0
LINE
8
Black
10
268.865
20
-255.08
11
269.5
21
-255.715
0
LINE
8
Black
10
269.5
20
-290.715
11
270.135
21
-290.08
0
LINE
8
Black
10
270.135
20
-290.08
11
269.5
21
-289.445
0
LINE
8
Black
10
269.5
20
-289.445
11
268.865
21
-290.08
0
LINE
8
Black
10
268.865
20
-290.08
11
269.5
21
-290.715
0
LINE
8
Black
10
269.5
20
-325.715
11
270.135
21
-325.08
0
LINE
8
Black
10
270.135
20
-325.08
11
269.5
21
-324.445
0
LINE
8
Black
10
269.5
20
-324.445
11
268.865
21
-325.08
0
LINE
8
Black
10
268.865
20
-325.08
11
269.5
21
-325.715
0
LINE
8
Black
10
289.5
20
-80.715
11
290.135
21
-80.08
0
LINE
8
Black
10
290.135
20
-80.08
11
289.5
21
-79.445
0
LINE
8
Black
10
289.5
20
-79.445
11
288.865
21
-80.08
0
LINE
8
Black
10
288.865
20
-80.08
11
289.5
21
-80.715
0
LINE
8
Black
10
289.5
20
-115.715
11
290.135
21
-115.08
0
LINE
8
Black
10
290.135
20
-115.08
11
289.5
21
-114.445
0
LINE
8
Black
10
289.5
20
-114.445
11
288.865
21
-115.08
0
LINE
8
Black
10
288.865
20
-115.08
11
289.5
21
-115.715
0
LINE
8
Black
10
289.5
20
-150.715
11
290.135
21
-150.08
0
LINE
8
Black
10
290.135
20
-150.08
11
289.5
21
-149.445
0
LINE
8
Black
10
289.5
20
-149.445
11
288.865
21
-150.08
0
LINE
8
Black
10
288.865
20
-150.08
11
289.5
21
-150.715
0
LINE
8
Black
10
289.5
20
-185.715
11
290.135
21
-185.08
0
LINE
8
Black
10
290.135
20
-185.08
11
289.5
21
-184.445
0
LINE
8
Black
10
289.5
20
-184.445
11
288.865
21
-185.08
0
LINE
8
Black
10
288.865
20
-185.08
11
289.5
21
-185.715
0
LINE
8
Black
10
289.5
20
-220.715
11
290.135
21
-220.08
0
LINE
8
Black
10
290.135
20
-220.08
11
289.5
21
-219.445
0
LINE
8
Black
10
289.5
20
-219.445
11
288.865
21
-220.08
0
LINE
8
Black
10
288.865
20
-220.08
11
289.5
21
-220.715
0
LINE
8
Black
10
289.5
20
-255.715
11
290.135
21
-255.08
0
LINE
8
Black
10
290.135
20
-255.08
11
289.5
21
-254.445
0
LINE
8
Black
10
289.5
20
-254.445
11
288.865
21
-255.08
0
LINE
8
Black
10
288.865
20
-255.08
11
289.5
21
-255.715
0
LINE
8
Black
10
289.5
20
-290.715
11
290.135
21
-290.08
0
LINE
8
Black
10
290.135
20
-290.08
11
289.5
21
-289.445
0
LINE
8
Black
10
289.5
20
-289.445
11
288.865
21
-290.08
0
LINE
8
Black
10
288.865
20
-290.08
11
289.5
21
-290.715
0
LINE
8
Black
10
289.5
20
-325.715
11
290.135
21
-325.08
0
LINE
8
Black
10
290.135
20
-325.08
11
289.5
21
-324.445
0
LINE
8
Black
10
289.5
20
-324.445
11
288.865
21
-325.08
0
LINE
8
Black
10
288.865
20
-325.08
11
289.5
21
-325.715
0
LINE
8
Black
10
309.5
20
-80.715
11
310.135
21
-80.08
0
LINE
8
Black
10
310.135
20
-80.08
11
309.5
21
-79.445
0
LINE
8
Black
10
309.5
20
-79.445
11
308.865
21
-80.08
0
LINE
8
Black
10
308.865
20
-80.08
11
309.5
21
-80.715
0
LINE
8
Black
10
309.5
20
-115.715
11
310.135
21
-115.08
0
LINE
8
Black
10
310.135
20
-115.08
11
309.5
21
-114.445
0
LINE
8
Black
10
309.5
20
-114.445
11
308.865
21
-115.08
0
LINE
8
Black
10
308.865
20
-115.08
11
309.5
21
-115.715
0
LINE
8
Black
10
309.5
20
-150.715
11
310.135
21
-150.08
0
LINE
8
Black
10
310.135
20
-150.08
11
309.5
21
-149.445
0
LINE
8
Black
10
309.5
20
-149.445
11
308.865
21
-150.08
0
LINE
8
Black
10
308.865
20
-150.08
11
309.5
21
-150.715
0
LINE
8
Black
10
309.5
20
-185.715
11
310.135
21
-185.08
0
LINE
8
Black
10
310.135
20
-185.08
11
309.5
21
-184.445
0
LINE
8
Black
10
309.5
20
-184.445
11
308.865
21
-185.08
0
LINE
8
Black
10
308.865
20
-185.08
11
309.5
21
-185.715
0
LINE
8
Black
10
309.5
20
-220.715
11
310.135
21
-220.08
0
LINE
8
Black
10
310.135
20
-220.08
11
309.5
21
-219.445
0
LINE
8
Black
10
309.5
20
-219.445
11
308.865
21
-220.08
0
LINE
8
Black
10
308.865
20
-220.08
11
309.5
21
-220.715
0
LINE
8
Black
10
309.5
20
-255.715
11
310.135
21
-255.08
0
LINE
8
Black
10
310.135
20
-255.08
11
309.5
21
-254.445
0
LINE
8
Black
10
309.5
20
-254.445
11
308.865
21
-255.08
0
LINE
8
Black
10
308.865
20
-255.08
11
309.5
21
-255.715
0
LINE
8
Black
10
309.5
20
-290.715
11
310.135
21
-290.08
0
LINE
8
Black
10
310.135
20
-290.08
11
309.5
21
-289.445
0
LINE
8
Black
10
309.5
20
-289.445
11
308.865
21
-290.08
0
LINE
8
Black
10
308.865
20
-290.08
11
309.5
21
-290.715
0
LINE
8
Black
10
309.5
20
-325.715
11
310.135
21
-325.08
0
LINE
8
Black
10
310.135
20
-325.08
11
309.5
21
-324.445
0
LINE
8
Black
10
309.5
20
-324.445
11
308.865
21
-325.08
0
LINE
8
Black
10
308.865
20
-325.08
11
309.5
21
-325.715
0
LINE
8
Black
10
329.5
20
-80.715
11
330.135
21
-80.08
0
LINE
8
Black
10
330.135
20
-80.08
11
329.5
21
-79.445
0
LINE
8
Black
10
329.5
20
-79.445
11
328.865
21
-80.08
0
LINE
8
Black
10
328.865
20
-80.08
11
329.5
21
-80.715
0
LINE
8
Black
10
329.5
20
-115.715
11
330.135
21
-115.08
0
LINE
8
Black
10
330.135
20
-115.08
11
329.5
21
-114.445
0
LINE
8
Black
10
329.5
20
-114.445
11
328.865
21
-115.08
0
LINE
8
Black
10
328.865
20
-115.08
11
329.5
21
-115.715
0
LINE
8
Black
10
329.5
20
-150.715
11
330.135
21
-150.08
0
LINE
8
Black
10
330.135
20
-150.08
11
329.5
21
-149.445
0
LINE
8
Black
10
329.5
20
-149.445
11
328.865
21
-150.08
0
LINE
8
Black
10
328.865
20
-150.08
11
329.5
21
-150.715
0
LINE
8
Black
10
329.5
20
-185.715
11
330.135
21
-185.08
0
LINE
8
Black
10
330.135
20
-185.08
11
329.5
21
-184.445
0
LINE
8
Black
10
329.5
20
-184.445
11
328.865
21
-185.08
0
LINE
8
Black
10
328.865
20
-185.08
11
329.5
21
-185.715
0
LINE
8
Black
10
329.5
20
-220.715
11
330.135
21
-220.08
0
LINE
8
Black
10
330.135
20
-220.08
11
329.5
21
-219.445
0
LINE
8
Black
10
329.5
20
-219.445
11
328.865
21
-220.08
0
LINE
8
Black
10
328.865
20
-220.08
11
329.5
21
-220.715
0
LINE
8
Black
10
329.5
20
-255.715
11
330.135
21
-255.08
0
LINE
8
Black
10
330.135
20
-255.08
11
329.5
21
-254.445
0
LINE
8
Black
10
329.5
20
-254.445
11
328.865
21
-255.08
0
LINE
8
Black
10
328.865
20
-255.08
11
329.5
21
-255.715
0
LINE
8
Black
10
329.5
20
-290.715
11
330.135
21
-290.08
0
LINE
8
Black
10
330.135
20
-290.08
11
329.5
21
-289.445
0
LINE
8
Black
10
329.5
20
-289.445
11
328.865
21
-290.08
0
LINE
8
Black
10
328.865
20
-290.08
11
329.5
21
-290.715
0
LINE
8
Black
10
329.5
20
-325.715
11
330.135
21
-325.08
0
LINE
8
Black
10
330.135
20
-325.08
11
329.5
21
-324.445
0
LINE
8
Black
10
329.5
20
-324.445
11
328.865
21
-325.08
0
LINE
8
Black
10
328.865
20
-325.08
11
329.5
21
-325.715
0
LINE
8
Black
10
349.5
20
-80.715
11
350.135
21
-80.08
0
LINE
8
Black
10
350.135
20
-80.08
11
349.5
21
-79.445
0
LINE
8
Black
10
349.5
20
-79.445
11
348.865
21
-80.08
0
LINE
8
Black
10
348.865
20
-80.08
11
349.5
21
-80.715
0
LINE
8
Black
10
349.5
20
-115.715
11
350.135
21
-115.08
0
LINE
8
Black
10
350.135
20
-115.08
11
349.5
21
-114.445
0
LINE
8
Black
10
349.5
20
-114.445
11
348.865
21
-115.08
0
LINE
8
Black
10
348.865
20
-115.08
11
349.5
21
-115.715
0
LINE
8
Black
10
349.5
20
-150.715
11
350.135
21
-150.08
0
LINE
8
Black
10
350.135
20
-150.08
11
349.5
21
-149.445
0
LINE
8
Black
10
349.5
20
-149.445
11
348.865
21
-150.08
0
LINE
8
Black
10
348.865
20
-150.08
11
349.5
21
-150.715
0
LINE
8
Black
10
349.5
20
-185.715
11
350.135
21
-185.08
0
LINE
8
Black
10
350.135
20
-185.08
11
349.5
21
-184.445
0
LINE
8
Black
10
349.5
20
-184.445
11
348.865
21
-185.08
0
LINE
8
Black
10
348.865
20
-185.08
11
349.5
21
-185.715
0
LINE
8
Black
10
349.5
20
-220.715
11
350.135
21
-220.08
0
LINE
8
Black
10
350.135
20
-220.08
11
349.5
21
-219.445
0
LINE
8
Black
10
349.5
20
-219.445
11
348.865
21
-220.08
0
LINE
8
Black
10
348.865
20
-220.08
11
349.5
21
-220.715
0
LINE
8
Black
10
349.5
20
-255.715
11
350.135
21
-255.08
0
LINE
8
Black
10
350.135
20
-255.08
11
349.5
21
-254.445
0
LINE
8
Black
10
349.5
20
-254.445
11
348.865
21
-255.08
0
LINE
8
Black
10
348.865
20
-255.08
11
349.5
21
-255.715
0
LINE
8
Black
10
349.5
20
-290.715
11
350.135
21
-290.08
0
LINE
8
Black
10
350.135
20
-290.08
11
349.5
21
-289.445
0
LINE
8
Black
10
349.5
20
-289.445
11
348.865
21
-290.08
0
LINE
8
Black
10
348.865
20
-290.08
11
349.5
21
-290.715
0
LINE
8
Black
10
349.5
20
-325.715
11
350.135
21
-325.08
0
LINE
8
Black
10
350.135
20
-325.08
11
349.5
21
-324.445
0
LINE
8
Black
10
349.5
20
-324.445
11
348.865
21
-325.08
0
LINE
8
Black
10
348.865
20
-325.08
11
349.5
21
-325.715
0
LINE
8
Black
10
369.5
20
-80.715
11
370.135
21
-80.08
0
LINE
8
Black
10
370.135
20
-80.08
11
369.5
21
-79.445
0
LINE
8
Black
10
369.5
20
-79.445
11
368.865
21
-80.08
0
LINE
8
Black
10
368.865
20
-80.08
11
369.5
21
-80.715
0
LINE
8
Black
10
369.5
20
-115.715
11
370.135
21
-115.08
0
LINE
8
Black
10
370.135
20
-115.08
11
369.5
21
-114.445
0
LINE
8
Black
10
369.5
20
-114.445
11
368.865
21
-115.08
0
LINE
8
Black
10
368.865
20
-115.08
11
369.5
21
-115.715
0
LINE
8
Black
10
369.5
20
-150.715
11
370.135
21
-150.08
0
LINE
8
Black
10
370.135
20
-150.08
11
369.5
21
-149.445
0
LINE
8
Black
10
369.5
20
-149.445
11
368.865
21
-150.08
0
LINE
8
Black
10
368.865
20
-150.08
11
369.5
21
-150.715
0
LINE
8
Black
10
369.5
20
-185.715
11
370.135
21
-185.08
0
LINE
8
Black
10
370.135
20
-185.08
11
369.5
21
-184.445
0
LINE
8
Black
10
369.5
20
-184.445
11
368.865
21
-185.08
0
LINE
8
Black
10
368.865
20
-185.08
11
369.5
21
-185.715
0
LINE
8
Black
10
369.5
20
-220.715
11
370.135
21
-220.08
0
LINE
8
Black
10
370.135
20
-220.08
11
369.5
21
-219.445
0
LINE
8
Black
10
369.5
20
-219.445
11
368.865
21
-220.08
0
LINE
8
Black
10
368.865
20
-220.08
11
369.5
21
-220.715
0
LINE
8
Black
10
369.5
20
-255.715
11
370.135
21
-255.08
0
LINE
8
Black
10
370.135
20
-255.08
11
369.5
21
-254.445
0
LINE
8
Black
10
369.5
20
-254.445
11
368.865
21
-255.08
0
LINE
8
Black
10
368.865
20
-255.08
11
369.5
21
-255.715
0
LINE
8
Black
10
369.5
20
-290.715
11
370.135
21
-290.08
0
LINE
8
Black
10
370.135
20
-290.08
11
369.5
21
-289.445
0
LINE
8
Black
10
369.5
20
-289.445
11
368.865
21
-290.08
0
LINE
8
Black
10
368.865
20
-290.08
11
369.5
21
-290.715
0
LINE
8
Black
10
369.5
20
-325.715
11
370.135
21
-325.08
0
LINE
8
Black
10
370.135
20
-325.08
11
369.5
21
-324.445
0
LINE
8
Black
10
369.5
20
-324.445
11
368.865
21
-325.08
0
LINE
8
Black
10
368.865
20
-325.08
11
369.5
21
-325.715
0
LINE
8
Black
10
389.5
20
-80.715
11
390.135
21
-80.08
0
LINE
8
Black
10
390.135
20
-80.08
11
389.5
21
-79.445
0
LINE
8
Black
10
389.5
20
-79.445
11
388.865
21
-80.08
0
LINE
8
Black
10
388.865
20
-80.08
11
389.5
21
-80.715
0
LINE
8
Black
10
389.5
20
-115.715
11
390.135
21
-115.08
0
LINE
8
Black
10
390.135
20
-115.08
11
389.5
21
-114.445
0
LINE
8
Black
10
389.5
20
-114.445
11
388.865
21
-115.08
0
LINE
8
Black
10
388.865
20
-115.08
11
389.5
21
-115.715
0
LINE
8
Black
10
389.5
20
-150.715
11
390.135
21
-150.08
0
LINE
8
Black
10
390.135
20
-150.08
11
389.5
21
-149.445
0
LINE
8
Black
10
389.5
20
-149.445
11
388.865
21
-150.08
0
LINE
8
Black
10
388.865
20
-150.08
11
389.5
21
-150.715
0
LINE
8
Black
10
389.5
20
-185.715
11
390.135
21
-185.08
0
LINE
8
Black
10
390.135
20
-185.08
11
389.5
21
-184.445
0
LINE
8
Black
10
389.5
20
-184.445
11
388.865
21
-185.08
0
LINE
8
Black
10
388.865
20
-185.08
11
389.5
21
-185.715
0
LINE
8
Black
10
389.5
20
-220.715
11
390.135
21
-220.08
0
LINE
8
Black
10
390.135
20
-220.08
11
389.5
21
-219.445
0
LINE
8
Black
10
389.5
20
-219.445
11
388.865
21
-220.08
0
LINE
8
Black
10
388.865
20
-220.08
11
389.5
21
-220.715
0
LINE
8
Black
10
389.5
20
-255.715
11
390.135
21
-255.08
0
LINE
8
Black
10
390.135
20
-255.08
11
389.5
21
-254.445
0
LINE
8
Black
10
389.5
20
-254.445
11
388.865
21
-255.08
0
LINE
8
Black
10
388.865
20
-255.08
11
389.5
21
-255.715
0
LINE
8
Black
10
389.5
20
-290.715
11
390.135
21
-290.08
0
LINE
8
Black
10
390.135
20
-290.08
11
389.5
21
-289.445
0
LINE
8
Black
10
389.5
20
-289.445
11
388.865
21
-290.08
0
LINE
8
Black
10
388.865
20
-290.08
11
389.5
21
-290.715
0
LINE
8
Black
10
389.5
20
-325.715
11
390.135
21
-325.08
0
LINE
8
Black
10
390.135
20
-325.08
11
389.5
21
-324.445
0
LINE
8
Black
10
389.5
20
-324.445
11
388.865
21
-325.08
0
LINE
8
Black
10
388.865
20
-325.08
11
389.5
21
-325.715
0
LINE
8
Black
10
409.5
20
-80.715
11
410.135
21
-80.08
0
LINE
8
Black
10
410.135
20
-80.08
11
409.5
21
-79.445
0
LINE
8
Black
10
409.5
20
-79.445
11
408.865
21
-80.08
0
LINE
8
Black
10
408.865
20
-80.08
11
409.5
21
-80.715
0
LINE
8
Black
10
409.5
20
-115.715
11
410.135
21
-115.08
0
LINE
8
Black
10
410.135
20
-115.08
11
409.5
21
-114.445
0
LINE
8
Black
10
409.5
20
-114.445
11
408.865
21
-115.08
0
LINE
8
Black
10
408.865
20
-115.08
11
409.5
21
-115.715
0
LINE
8
Black
10
409.5
20
-150.715
11
410.135
21
-150.08
0
LINE
8
Black
10
410.135
20
-150.08
11
409.5
21
-149.445
0
LINE
8
Black
10
409.5
20
-149.445
11
408.865
21
-150.08
0
LINE
8
Black
10
408.865
20
-150.08
11
409.5
21
-150.715
0
LINE
8
Black
10
409.5
20
-185.715
11
410.135
21
-185.08
0
LINE
8
Black
10
410.135
20
-185.08
11
409.5
21
-184.445
0
LINE
8
Black
10
409.5
20
-184.445
11
408.865
21
-185.08
0
LINE
8
Black
10
408.865
20
-185.08
11
409.5
21
-185.715
0
LINE
8
Black
10
409.5
20
-220.715
11
410.135
21
-220.08
0
LINE
8
Black
10
410.135
20
-220.08
11
409.5
21
-219.445
0
LINE
8
Black
10
409.5
20
-219.445
11
408.865
21
-220.08
0
LINE
8
Black
10
408.865
20
-220.08
11
409.5
21
-220.715
0
LINE
8
Black
10
409.5
20
-255.715
11
410.135
21
-255.08
0
LINE
8
Black
10
410.135
20
-255.08
11
409.5
21
-254.445
0
LINE
8
Black
10
409.5
20
-254.445
11
408.865
21
-255.08
0
LINE
8
Black
10
408.865
20
-255.08
11
409.5
21
-255.715
0
LINE
8
Black
10
409.5
20
-290.715
11
410.135
21
-290.08
0
LINE
8
Black
10
410.135
20
-290.08
11
409.5
21
-289.445
0
LINE
8
Black
10
409.5
20
-289.445
11
408.865
21
-290.08
0
LINE
8
Black
10
408.865
20
-290.08
11
409.5
21
-290.715
0
LINE
8
Black
10
409.5
20
-325.715
11
410.135
21
-325.08
0
LINE
8
Black
10
410.135
20
-325.08
11
409.5
21
-324.445
0
LINE
8
Black
10
409.5
20
-324.445
11
408.865
21
-325.08
0
LINE
8
Black
10
408.865
20
-325.08
11
409.5
21
-325.715
0
LINE
8
Black
10
364.943
20
-363.374
11
368.195
21
-366.626
0
LINE
8
Black
10
368.195
20
-363.374
11
364.943
21
-366.626
0
CIRCLE
8
Black
10
366.569
20
-365
40
1.6256
0
LINE
8
Black
10
376.813
20
-363.374
11
380.064
21
-366.626
0
LINE
8
Black
10
380.064
20
-363.374
11
376.813
21
-366.626
0
CIRCLE
8
Black
10
378.439
20
-365
40
1.6256
0
LINE
8
Black
10
384.943
20
-363.374
11
388.195
21
-366.626
0
LINE
8
Black
10
388.195
20
-363.374
11
384.943
21
-366.626
0
CIRCLE
8
Black
10
386.569
20
-365
40
1.6256
0
LINE
8
Black
10
396.813
20
-363.374
11
400.064
21
-366.626
0
LINE
8
Black
10
400.064
20
-363.374
11
396.813
21
-366.626
0
CIRCLE
8
Black
10
398.439
20
-365
40
1.6256
0
LINE
8
Black
10
404.943
20
-363.374
11
408.195
21
-366.626
0
LINE
8
Black
10
408.195
20
-363.374
11
404.943
21
-366.626
0
CIRCLE
8
Black
10
406.569
20
-365
40
1.6256
0
LINE
8
Black
10
416.813
20
-363.374
11
420.064
21
-366.626
0
LINE
8
Black
10
420.064
20
-363.374
11
416.813
21
-366.626
0
CIRCLE
8
Black
10
418.439
20
-365
40
1.6256
  0
TEXT
  7
KICAD
  8
Black
  10
2
  11
2
  20
-3.3
  21
-3.3
  40
3
  41
1
  50
0
  51
0
  71
0
  72
0
  73
2
  1
Drill Map:
0
LINE
8
Black
10
-0.6
20
-9.3
11
0
21
-9.9
0
LINE
8
Black
10
0
20
-9.3
11
-0.6
21
-9.9
  0
TEXT
  7
KICAD
  8
Black
  10
2
  11
2
  20
-9.6
  21
-9.6
  40
3
  41
1
  50
0
  51
0
  71
0
  72
0
  73
2
  1
0.60mm / 0.024" (288 holes)
0
CIRCLE
8
Black
10
-0.3175
20
-13.56
40
0.3175
  0
TEXT
  7
KICAD
  8
Black
  10
2
  11
2
  20
-13.56
  21
-13.56
  40
3
  41
1
  50
0
  51
0
  71
0
  72
0
  73
2
  1
0.64mm / 0.025" (16 holes)
0
LINE
8
Black
10
-0.44958
20
-17.0704
11
-0.44958
21
-17.9696
0
LINE
8
Black
10
-0.89916
20
-17.52
11
0
21
-17.52
  0
TEXT
  7
KICAD
  8
Black
  10
2
  11
2
  20
-17.52
  21
-17.52
  40
3
  41
1
  50
0
  51
0
  71
0
  72
0
  73
2
  1
0.90mm / 0.035" (24 holes)
0
LINE
8
Black
10
-0.146555
20
-21.8338
11
-0.146555
21
-21.1262
0
LINE
8
Black
10
-0.146555
20
-21.1262
11
-0.854205
21
-21.1262
0
LINE
8
Black
10
-0.854205
20
-21.1262
11
-0.854205
21
-21.8338
0
LINE
8
Black
10
-0.854205
20
-21.8338
11
-0.146555
21
-21.8338
  0
TEXT
  7
KICAD
  8
Black
  10
2
  11
2
  20
-21.48
  21
-21.48
  40
3
  41
1
  50
0
  51
0
  71
0
  72
0
  73
2
  1
1.00mm / 0.039" (112 holes)
0
LINE
8
Black
10
-0.635
20
-26.075
11
0
21
-25.44
0
LINE
8
Black
10
0
20
-25.44
11
-0.635
21
-24.805
0
LINE
8
Black
10
-0.635
20
-24.805
11
-1.27
21
-25.44
0
LINE
8
Black
10
-1.27
20
-25.44
11
-0.635
21
-26.075
  0
TEXT
  7
KICAD
  8
Black
  10
2
  11
2
  20
-25.44
  21
-25.44
  40
3
  41
1
  50
0
  51
0
  71
0
  72
0
  73
2
  1
1.27mm / 0.050" (96 holes)
0
LINE
8
Black
10
-3.2512
20
-27.7744
11
0
21
-31.0256
0
LINE
8
Black
10
0
20
-27.7744
11
-3.2512
21
-31.0256
0
CIRCLE
8
Black
10
-1.6256
20
-29.4
40
1.6256
  0
TEXT
  7
KICAD
  8
Black
  10
2
  11
2
  20
-29.4
  21
-29.4
  40
3
  41
1
  50
0
  51
0
  71
0
  72
0
  73
2
  1
3.25mm / 0.128" (6 holes)
  0
ENDSEC
  0
EOF
