%FSLAX46Y46*%
G04 Gerber Fmt 4.6, Leading zero omitted, Abs format (unit mm)*
G04 Created by KiCad (PCBNEW (2014-10-05 BZR 5164)-product) date Mon 03 Nov 2014 10:46:33 AM CET*
%MOMM*%
G01*
G04 APERTURE LIST*
%ADD10C,0.100000*%
G04 APERTURE END LIST*
D10*
X400000000Y-70989000D02*
X415000000Y-100989000D01*
X400000000Y-100989000D02*
X415000000Y-70989000D01*
X400000000Y-105989000D02*
X415000000Y-135989000D01*
X400000000Y-135989000D02*
X415000000Y-105989000D01*
X400000000Y-140989000D02*
X415000000Y-170989000D01*
X400000000Y-170989000D02*
X415000000Y-140989000D01*
X400000000Y-175989000D02*
X415000000Y-205989000D01*
X400000000Y-205989000D02*
X415000000Y-175989000D01*
X400000000Y-210989000D02*
X415000000Y-240989000D01*
X400000000Y-240989000D02*
X415000000Y-210989000D01*
X400000000Y-245989000D02*
X415000000Y-275989000D01*
X400000000Y-275989000D02*
X415000000Y-245989000D01*
X400000000Y-280989000D02*
X415000000Y-310989000D01*
X400000000Y-310989000D02*
X415000000Y-280989000D01*
X400000000Y-315989000D02*
X415000000Y-345989000D01*
X400000000Y-345989000D02*
X415000000Y-315989000D01*
X380000000Y-70989000D02*
X395000000Y-100989000D01*
X380000000Y-100989000D02*
X395000000Y-70989000D01*
X380000000Y-105989000D02*
X395000000Y-135989000D01*
X380000000Y-135989000D02*
X395000000Y-105989000D01*
X380000000Y-140989000D02*
X395000000Y-170989000D01*
X380000000Y-170989000D02*
X395000000Y-140989000D01*
X380000000Y-175989000D02*
X395000000Y-205989000D01*
X380000000Y-205989000D02*
X395000000Y-175989000D01*
X380000000Y-210989000D02*
X395000000Y-240989000D01*
X380000000Y-240989000D02*
X395000000Y-210989000D01*
X380000000Y-245989000D02*
X395000000Y-275989000D01*
X380000000Y-275989000D02*
X395000000Y-245989000D01*
X380000000Y-280989000D02*
X395000000Y-310989000D01*
X380000000Y-310989000D02*
X395000000Y-280989000D01*
X380000000Y-315989000D02*
X395000000Y-345989000D01*
X380000000Y-345989000D02*
X395000000Y-315989000D01*
X360000000Y-70989000D02*
X375000000Y-100989000D01*
X360000000Y-100989000D02*
X375000000Y-70989000D01*
X360000000Y-105989000D02*
X375000000Y-135989000D01*
X360000000Y-135989000D02*
X375000000Y-105989000D01*
X360000000Y-140989000D02*
X375000000Y-170989000D01*
X360000000Y-170989000D02*
X375000000Y-140989000D01*
X360000000Y-175989000D02*
X375000000Y-205989000D01*
X360000000Y-205989000D02*
X375000000Y-175989000D01*
X360000000Y-210989000D02*
X375000000Y-240989000D01*
X360000000Y-240989000D02*
X375000000Y-210989000D01*
X360000000Y-245989000D02*
X375000000Y-275989000D01*
X360000000Y-275989000D02*
X375000000Y-245989000D01*
X360000000Y-280989000D02*
X375000000Y-310989000D01*
X360000000Y-310989000D02*
X375000000Y-280989000D01*
X360000000Y-315989000D02*
X375000000Y-345989000D01*
X360000000Y-345989000D02*
X375000000Y-315989000D01*
X340000000Y-70989000D02*
X355000000Y-100989000D01*
X340000000Y-100989000D02*
X355000000Y-70989000D01*
X340000000Y-105989000D02*
X355000000Y-135989000D01*
X340000000Y-135989000D02*
X355000000Y-105989000D01*
X340000000Y-140989000D02*
X355000000Y-170989000D01*
X340000000Y-170989000D02*
X355000000Y-140989000D01*
X340000000Y-175989000D02*
X355000000Y-205989000D01*
X340000000Y-205989000D02*
X355000000Y-175989000D01*
X340000000Y-210989000D02*
X355000000Y-240989000D01*
X340000000Y-240989000D02*
X355000000Y-210989000D01*
X340000000Y-245989000D02*
X355000000Y-275989000D01*
X340000000Y-275989000D02*
X355000000Y-245989000D01*
X340000000Y-280989000D02*
X355000000Y-310989000D01*
X340000000Y-310989000D02*
X355000000Y-280989000D01*
X340000000Y-315989000D02*
X355000000Y-345989000D01*
X340000000Y-345989000D02*
X355000000Y-315989000D01*
X320000000Y-70989000D02*
X335000000Y-100989000D01*
X320000000Y-100989000D02*
X335000000Y-70989000D01*
X320000000Y-105989000D02*
X335000000Y-135989000D01*
X320000000Y-135989000D02*
X335000000Y-105989000D01*
X320000000Y-140989000D02*
X335000000Y-170989000D01*
X320000000Y-170989000D02*
X335000000Y-140989000D01*
X320000000Y-175989000D02*
X335000000Y-205989000D01*
X320000000Y-205989000D02*
X335000000Y-175989000D01*
X320000000Y-210989000D02*
X335000000Y-240989000D01*
X320000000Y-240989000D02*
X335000000Y-210989000D01*
X320000000Y-245989000D02*
X335000000Y-275989000D01*
X320000000Y-275989000D02*
X335000000Y-245989000D01*
X320000000Y-280989000D02*
X335000000Y-310989000D01*
X320000000Y-310989000D02*
X335000000Y-280989000D01*
X320000000Y-315989000D02*
X335000000Y-345989000D01*
X320000000Y-345989000D02*
X335000000Y-315989000D01*
X300000000Y-70989000D02*
X315000000Y-100989000D01*
X300000000Y-100989000D02*
X315000000Y-70989000D01*
X300000000Y-105989000D02*
X315000000Y-135989000D01*
X300000000Y-135989000D02*
X315000000Y-105989000D01*
X300000000Y-140989000D02*
X315000000Y-170989000D01*
X300000000Y-170989000D02*
X315000000Y-140989000D01*
X300000000Y-175989000D02*
X315000000Y-205989000D01*
X300000000Y-205989000D02*
X315000000Y-175989000D01*
X300000000Y-210989000D02*
X315000000Y-240989000D01*
X300000000Y-240989000D02*
X315000000Y-210989000D01*
X300000000Y-245989000D02*
X315000000Y-275989000D01*
X300000000Y-275989000D02*
X315000000Y-245989000D01*
X300000000Y-280989000D02*
X315000000Y-310989000D01*
X300000000Y-310989000D02*
X315000000Y-280989000D01*
X300000000Y-315989000D02*
X315000000Y-345989000D01*
X300000000Y-345989000D02*
X315000000Y-315989000D01*
X280000000Y-70989000D02*
X295000000Y-100989000D01*
X280000000Y-100989000D02*
X295000000Y-70989000D01*
X280000000Y-105989000D02*
X295000000Y-135989000D01*
X280000000Y-135989000D02*
X295000000Y-105989000D01*
X280000000Y-140989000D02*
X295000000Y-170989000D01*
X280000000Y-170989000D02*
X295000000Y-140989000D01*
X280000000Y-175989000D02*
X295000000Y-205989000D01*
X280000000Y-205989000D02*
X295000000Y-175989000D01*
X280000000Y-210989000D02*
X295000000Y-240989000D01*
X280000000Y-240989000D02*
X295000000Y-210989000D01*
X280000000Y-245989000D02*
X295000000Y-275989000D01*
X280000000Y-275989000D02*
X295000000Y-245989000D01*
X280000000Y-280989000D02*
X295000000Y-310989000D01*
X280000000Y-310989000D02*
X295000000Y-280989000D01*
X280000000Y-315989000D02*
X295000000Y-345989000D01*
X280000000Y-345989000D02*
X295000000Y-315989000D01*
X260000000Y-70989000D02*
X275000000Y-100989000D01*
X260000000Y-100989000D02*
X275000000Y-70989000D01*
X260000000Y-105989000D02*
X275000000Y-135989000D01*
X260000000Y-135989000D02*
X275000000Y-105989000D01*
X260000000Y-140989000D02*
X275000000Y-170989000D01*
X260000000Y-170989000D02*
X275000000Y-140989000D01*
X260000000Y-175989000D02*
X275000000Y-205989000D01*
X260000000Y-205989000D02*
X275000000Y-175989000D01*
X260000000Y-210989000D02*
X275000000Y-240989000D01*
X260000000Y-240989000D02*
X275000000Y-210989000D01*
X260000000Y-245989000D02*
X275000000Y-275989000D01*
X260000000Y-275989000D02*
X275000000Y-245989000D01*
X260000000Y-280989000D02*
X275000000Y-310989000D01*
X260000000Y-310989000D02*
X275000000Y-280989000D01*
X260000000Y-315989000D02*
X275000000Y-345989000D01*
X260000000Y-345989000D02*
X275000000Y-315989000D01*
X240000000Y-70989000D02*
X255000000Y-100989000D01*
X240000000Y-100989000D02*
X255000000Y-70989000D01*
X240000000Y-105989000D02*
X255000000Y-135989000D01*
X240000000Y-135989000D02*
X255000000Y-105989000D01*
X240000000Y-140989000D02*
X255000000Y-170989000D01*
X240000000Y-170989000D02*
X255000000Y-140989000D01*
X240000000Y-175989000D02*
X255000000Y-205989000D01*
X240000000Y-205989000D02*
X255000000Y-175989000D01*
X240000000Y-210989000D02*
X255000000Y-240989000D01*
X240000000Y-240989000D02*
X255000000Y-210989000D01*
X240000000Y-245989000D02*
X255000000Y-275989000D01*
X240000000Y-275989000D02*
X255000000Y-245989000D01*
X240000000Y-280989000D02*
X255000000Y-310989000D01*
X240000000Y-310989000D02*
X255000000Y-280989000D01*
X240000000Y-315989000D02*
X255000000Y-345989000D01*
X240000000Y-345989000D02*
X255000000Y-315989000D01*
X220000000Y-70989000D02*
X235000000Y-100989000D01*
X220000000Y-100989000D02*
X235000000Y-70989000D01*
X220000000Y-105989000D02*
X235000000Y-135989000D01*
X220000000Y-135989000D02*
X235000000Y-105989000D01*
X220000000Y-140989000D02*
X235000000Y-170989000D01*
X220000000Y-170989000D02*
X235000000Y-140989000D01*
X220000000Y-175989000D02*
X235000000Y-205989000D01*
X220000000Y-205989000D02*
X235000000Y-175989000D01*
X220000000Y-210989000D02*
X235000000Y-240989000D01*
X220000000Y-240989000D02*
X235000000Y-210989000D01*
X220000000Y-245989000D02*
X235000000Y-275989000D01*
X220000000Y-275989000D02*
X235000000Y-245989000D01*
X220000000Y-280989000D02*
X235000000Y-310989000D01*
X220000000Y-310989000D02*
X235000000Y-280989000D01*
X220000000Y-315989000D02*
X235000000Y-345989000D01*
X220000000Y-345989000D02*
X235000000Y-315989000D01*
X200000000Y-70989000D02*
X215000000Y-100989000D01*
X200000000Y-100989000D02*
X215000000Y-70989000D01*
X200000000Y-105989000D02*
X215000000Y-135989000D01*
X200000000Y-135989000D02*
X215000000Y-105989000D01*
X200000000Y-140989000D02*
X215000000Y-170989000D01*
X200000000Y-170989000D02*
X215000000Y-140989000D01*
X200000000Y-175989000D02*
X215000000Y-205989000D01*
X200000000Y-205989000D02*
X215000000Y-175989000D01*
X200000000Y-210989000D02*
X215000000Y-240989000D01*
X200000000Y-240989000D02*
X215000000Y-210989000D01*
X200000000Y-245989000D02*
X215000000Y-275989000D01*
X200000000Y-275989000D02*
X215000000Y-245989000D01*
X200000000Y-280989000D02*
X215000000Y-310989000D01*
X200000000Y-310989000D02*
X215000000Y-280989000D01*
X200000000Y-315989000D02*
X215000000Y-345989000D01*
X200000000Y-345989000D02*
X215000000Y-315989000D01*
X180000000Y-70989000D02*
X195000000Y-100989000D01*
X180000000Y-100989000D02*
X195000000Y-70989000D01*
X180000000Y-105989000D02*
X195000000Y-135989000D01*
X180000000Y-135989000D02*
X195000000Y-105989000D01*
X180000000Y-140989000D02*
X195000000Y-170989000D01*
X180000000Y-170989000D02*
X195000000Y-140989000D01*
X180000000Y-175989000D02*
X195000000Y-205989000D01*
X180000000Y-205989000D02*
X195000000Y-175989000D01*
X180000000Y-210989000D02*
X195000000Y-240989000D01*
X180000000Y-240989000D02*
X195000000Y-210989000D01*
X180000000Y-245989000D02*
X195000000Y-275989000D01*
X180000000Y-275989000D02*
X195000000Y-245989000D01*
X180000000Y-280989000D02*
X195000000Y-310989000D01*
X180000000Y-310989000D02*
X195000000Y-280989000D01*
X180000000Y-315989000D02*
X195000000Y-345989000D01*
X180000000Y-345989000D02*
X195000000Y-315989000D01*
X180000000Y-280989000D02*
X195000000Y-310989000D01*
X180000000Y-310989000D02*
X195000000Y-280989000D01*
X200000000Y-315989000D02*
X215000000Y-345989000D01*
X200000000Y-345989000D02*
X215000000Y-315989000D01*
X180000000Y-315989000D02*
X195000000Y-345989000D01*
X180000000Y-345989000D02*
X195000000Y-315989000D01*
X415000000Y-100989000D02*
X400000000Y-100989000D01*
X415000000Y-70989000D02*
X415000000Y-100989000D01*
X400000000Y-70989000D02*
X415000000Y-70989000D01*
X400000000Y-100989000D02*
X400000000Y-70989000D01*
X395000000Y-100989000D02*
X380000000Y-100989000D01*
X395000000Y-70989000D02*
X395000000Y-100989000D01*
X380000000Y-70989000D02*
X395000000Y-70989000D01*
X380000000Y-100989000D02*
X380000000Y-70989000D01*
X375000000Y-100989000D02*
X360000000Y-100989000D01*
X375000000Y-70989000D02*
X375000000Y-100989000D01*
X360000000Y-70989000D02*
X375000000Y-70989000D01*
X360000000Y-100989000D02*
X360000000Y-70989000D01*
X355000000Y-100989000D02*
X340000000Y-100989000D01*
X355000000Y-70989000D02*
X355000000Y-100989000D01*
X340000000Y-70989000D02*
X355000000Y-70989000D01*
X340000000Y-100989000D02*
X340000000Y-70989000D01*
X335000000Y-100989000D02*
X320000000Y-100989000D01*
X335000000Y-70989000D02*
X335000000Y-100989000D01*
X320000000Y-70989000D02*
X335000000Y-70989000D01*
X320000000Y-100989000D02*
X320000000Y-70989000D01*
X315000000Y-100989000D02*
X300000000Y-100989000D01*
X315000000Y-70989000D02*
X315000000Y-100989000D01*
X300000000Y-70989000D02*
X315000000Y-70989000D01*
X300000000Y-100989000D02*
X300000000Y-70989000D01*
X295000000Y-100989000D02*
X280000000Y-100989000D01*
X295000000Y-70989000D02*
X295000000Y-100989000D01*
X280000000Y-70989000D02*
X295000000Y-70989000D01*
X280000000Y-100989000D02*
X280000000Y-70989000D01*
X275000000Y-100989000D02*
X260000000Y-100989000D01*
X275000000Y-70989000D02*
X275000000Y-100989000D01*
X260000000Y-70989000D02*
X275000000Y-70989000D01*
X260000000Y-100989000D02*
X260000000Y-70989000D01*
X255000000Y-100989000D02*
X240000000Y-100989000D01*
X255000000Y-70989000D02*
X255000000Y-100989000D01*
X240000000Y-70989000D02*
X255000000Y-70989000D01*
X240000000Y-100989000D02*
X240000000Y-70989000D01*
X235000000Y-100989000D02*
X220000000Y-100989000D01*
X235000000Y-70989000D02*
X235000000Y-100989000D01*
X220000000Y-70989000D02*
X235000000Y-70989000D01*
X220000000Y-100989000D02*
X220000000Y-70989000D01*
X215000000Y-100989000D02*
X200000000Y-100989000D01*
X215000000Y-70989000D02*
X215000000Y-100989000D01*
X200000000Y-70989000D02*
X215000000Y-70989000D01*
X200000000Y-100989000D02*
X200000000Y-70989000D01*
X195000000Y-100989000D02*
X180000000Y-100989000D01*
X195000000Y-70989000D02*
X195000000Y-100989000D01*
X180000000Y-70989000D02*
X195000000Y-70989000D01*
X180000000Y-100989000D02*
X180000000Y-70989000D01*
X415000000Y-135989000D02*
X400000000Y-135989000D01*
X415000000Y-105989000D02*
X415000000Y-135989000D01*
X400000000Y-105989000D02*
X415000000Y-105989000D01*
X400000000Y-135989000D02*
X400000000Y-105989000D01*
X395000000Y-135989000D02*
X380000000Y-135989000D01*
X395000000Y-105989000D02*
X395000000Y-135989000D01*
X380000000Y-105989000D02*
X395000000Y-105989000D01*
X380000000Y-135989000D02*
X380000000Y-105989000D01*
X375000000Y-135989000D02*
X360000000Y-135989000D01*
X375000000Y-105989000D02*
X375000000Y-135989000D01*
X360000000Y-105989000D02*
X375000000Y-105989000D01*
X360000000Y-135989000D02*
X360000000Y-105989000D01*
X355000000Y-135989000D02*
X340000000Y-135989000D01*
X355000000Y-105989000D02*
X355000000Y-135989000D01*
X340000000Y-105989000D02*
X355000000Y-105989000D01*
X340000000Y-135989000D02*
X340000000Y-105989000D01*
X335000000Y-135989000D02*
X320000000Y-135989000D01*
X335000000Y-105989000D02*
X335000000Y-135989000D01*
X320000000Y-105989000D02*
X335000000Y-105989000D01*
X320000000Y-135989000D02*
X320000000Y-105989000D01*
X315000000Y-135989000D02*
X300000000Y-135989000D01*
X315000000Y-105989000D02*
X315000000Y-135989000D01*
X300000000Y-105989000D02*
X315000000Y-105989000D01*
X300000000Y-135989000D02*
X300000000Y-105989000D01*
X295000000Y-135989000D02*
X280000000Y-135989000D01*
X295000000Y-105989000D02*
X295000000Y-135989000D01*
X280000000Y-105989000D02*
X295000000Y-105989000D01*
X280000000Y-135989000D02*
X280000000Y-105989000D01*
X275000000Y-135989000D02*
X260000000Y-135989000D01*
X275000000Y-105989000D02*
X275000000Y-135989000D01*
X260000000Y-105989000D02*
X275000000Y-105989000D01*
X260000000Y-135989000D02*
X260000000Y-105989000D01*
X255000000Y-135989000D02*
X240000000Y-135989000D01*
X255000000Y-105989000D02*
X255000000Y-135989000D01*
X240000000Y-105989000D02*
X255000000Y-105989000D01*
X240000000Y-135989000D02*
X240000000Y-105989000D01*
X235000000Y-135989000D02*
X220000000Y-135989000D01*
X235000000Y-105989000D02*
X235000000Y-135989000D01*
X220000000Y-105989000D02*
X235000000Y-105989000D01*
X220000000Y-135989000D02*
X220000000Y-105989000D01*
X215000000Y-135989000D02*
X200000000Y-135989000D01*
X215000000Y-105989000D02*
X215000000Y-135989000D01*
X200000000Y-105989000D02*
X215000000Y-105989000D01*
X200000000Y-135989000D02*
X200000000Y-105989000D01*
X195000000Y-135989000D02*
X180000000Y-135989000D01*
X195000000Y-105989000D02*
X195000000Y-135989000D01*
X180000000Y-105989000D02*
X195000000Y-105989000D01*
X180000000Y-135989000D02*
X180000000Y-105989000D01*
X415000000Y-170989000D02*
X400000000Y-170989000D01*
X415000000Y-140989000D02*
X415000000Y-170989000D01*
X400000000Y-140989000D02*
X415000000Y-140989000D01*
X400000000Y-170989000D02*
X400000000Y-140989000D01*
X395000000Y-170989000D02*
X380000000Y-170989000D01*
X395000000Y-140989000D02*
X395000000Y-170989000D01*
X380000000Y-140989000D02*
X395000000Y-140989000D01*
X380000000Y-170989000D02*
X380000000Y-140989000D01*
X375000000Y-170989000D02*
X360000000Y-170989000D01*
X375000000Y-140989000D02*
X375000000Y-170989000D01*
X360000000Y-140989000D02*
X375000000Y-140989000D01*
X360000000Y-170989000D02*
X360000000Y-140989000D01*
X355000000Y-170989000D02*
X340000000Y-170989000D01*
X355000000Y-140989000D02*
X355000000Y-170989000D01*
X340000000Y-140989000D02*
X355000000Y-140989000D01*
X340000000Y-170989000D02*
X340000000Y-140989000D01*
X335000000Y-170989000D02*
X320000000Y-170989000D01*
X335000000Y-140989000D02*
X335000000Y-170989000D01*
X320000000Y-140989000D02*
X335000000Y-140989000D01*
X320000000Y-170989000D02*
X320000000Y-140989000D01*
X315000000Y-170989000D02*
X300000000Y-170989000D01*
X315000000Y-140989000D02*
X315000000Y-170989000D01*
X300000000Y-140989000D02*
X315000000Y-140989000D01*
X300000000Y-170989000D02*
X300000000Y-140989000D01*
X295000000Y-170989000D02*
X280000000Y-170989000D01*
X295000000Y-140989000D02*
X295000000Y-170989000D01*
X280000000Y-140989000D02*
X295000000Y-140989000D01*
X280000000Y-170989000D02*
X280000000Y-140989000D01*
X275000000Y-170989000D02*
X260000000Y-170989000D01*
X275000000Y-140989000D02*
X275000000Y-170989000D01*
X260000000Y-140989000D02*
X275000000Y-140989000D01*
X260000000Y-170989000D02*
X260000000Y-140989000D01*
X255000000Y-170989000D02*
X240000000Y-170989000D01*
X255000000Y-140989000D02*
X255000000Y-170989000D01*
X240000000Y-140989000D02*
X255000000Y-140989000D01*
X240000000Y-170989000D02*
X240000000Y-140989000D01*
X235000000Y-170989000D02*
X220000000Y-170989000D01*
X235000000Y-140989000D02*
X235000000Y-170989000D01*
X220000000Y-140989000D02*
X235000000Y-140989000D01*
X220000000Y-170989000D02*
X220000000Y-140989000D01*
X215000000Y-170989000D02*
X200000000Y-170989000D01*
X215000000Y-140989000D02*
X215000000Y-170989000D01*
X200000000Y-140989000D02*
X215000000Y-140989000D01*
X200000000Y-170989000D02*
X200000000Y-140989000D01*
X195000000Y-170989000D02*
X180000000Y-170989000D01*
X195000000Y-140989000D02*
X195000000Y-170989000D01*
X180000000Y-140989000D02*
X195000000Y-140989000D01*
X180000000Y-170989000D02*
X180000000Y-140989000D01*
X415000000Y-205989000D02*
X400000000Y-205989000D01*
X415000000Y-175989000D02*
X415000000Y-205989000D01*
X400000000Y-175989000D02*
X415000000Y-175989000D01*
X400000000Y-205989000D02*
X400000000Y-175989000D01*
X395000000Y-205989000D02*
X380000000Y-205989000D01*
X395000000Y-175989000D02*
X395000000Y-205989000D01*
X380000000Y-175989000D02*
X395000000Y-175989000D01*
X380000000Y-205989000D02*
X380000000Y-175989000D01*
X375000000Y-205989000D02*
X360000000Y-205989000D01*
X375000000Y-175989000D02*
X375000000Y-205989000D01*
X360000000Y-175989000D02*
X375000000Y-175989000D01*
X360000000Y-205989000D02*
X360000000Y-175989000D01*
X355000000Y-205989000D02*
X340000000Y-205989000D01*
X355000000Y-175989000D02*
X355000000Y-205989000D01*
X340000000Y-175989000D02*
X355000000Y-175989000D01*
X340000000Y-205989000D02*
X340000000Y-175989000D01*
X335000000Y-205989000D02*
X320000000Y-205989000D01*
X335000000Y-175989000D02*
X335000000Y-205989000D01*
X320000000Y-175989000D02*
X335000000Y-175989000D01*
X320000000Y-205989000D02*
X320000000Y-175989000D01*
X315000000Y-205989000D02*
X300000000Y-205989000D01*
X315000000Y-175989000D02*
X315000000Y-205989000D01*
X300000000Y-175989000D02*
X315000000Y-175989000D01*
X300000000Y-205989000D02*
X300000000Y-175989000D01*
X295000000Y-205989000D02*
X280000000Y-205989000D01*
X295000000Y-175989000D02*
X295000000Y-205989000D01*
X280000000Y-175989000D02*
X295000000Y-175989000D01*
X280000000Y-205989000D02*
X280000000Y-175989000D01*
X275000000Y-205989000D02*
X260000000Y-205989000D01*
X275000000Y-175989000D02*
X275000000Y-205989000D01*
X260000000Y-175989000D02*
X275000000Y-175989000D01*
X260000000Y-205989000D02*
X260000000Y-175989000D01*
X255000000Y-205989000D02*
X240000000Y-205989000D01*
X255000000Y-175989000D02*
X255000000Y-205989000D01*
X240000000Y-175989000D02*
X255000000Y-175989000D01*
X240000000Y-205989000D02*
X240000000Y-175989000D01*
X235000000Y-205989000D02*
X220000000Y-205989000D01*
X235000000Y-175989000D02*
X235000000Y-205989000D01*
X220000000Y-175989000D02*
X235000000Y-175989000D01*
X220000000Y-205989000D02*
X220000000Y-175989000D01*
X215000000Y-205989000D02*
X200000000Y-205989000D01*
X215000000Y-175989000D02*
X215000000Y-205989000D01*
X200000000Y-175989000D02*
X215000000Y-175989000D01*
X200000000Y-205989000D02*
X200000000Y-175989000D01*
X195000000Y-205989000D02*
X180000000Y-205989000D01*
X195000000Y-175989000D02*
X195000000Y-205989000D01*
X180000000Y-175989000D02*
X195000000Y-175989000D01*
X180000000Y-205989000D02*
X180000000Y-175989000D01*
X415000000Y-240989000D02*
X400000000Y-240989000D01*
X415000000Y-210989000D02*
X415000000Y-240989000D01*
X400000000Y-210989000D02*
X415000000Y-210989000D01*
X400000000Y-240989000D02*
X400000000Y-210989000D01*
X395000000Y-240989000D02*
X380000000Y-240989000D01*
X395000000Y-210989000D02*
X395000000Y-240989000D01*
X380000000Y-210989000D02*
X395000000Y-210989000D01*
X380000000Y-240989000D02*
X380000000Y-210989000D01*
X375000000Y-240989000D02*
X360000000Y-240989000D01*
X375000000Y-210989000D02*
X375000000Y-240989000D01*
X360000000Y-210989000D02*
X375000000Y-210989000D01*
X360000000Y-240989000D02*
X360000000Y-210989000D01*
X355000000Y-240989000D02*
X340000000Y-240989000D01*
X355000000Y-210989000D02*
X355000000Y-240989000D01*
X340000000Y-210989000D02*
X355000000Y-210989000D01*
X340000000Y-240989000D02*
X340000000Y-210989000D01*
X335000000Y-240989000D02*
X320000000Y-240989000D01*
X335000000Y-210989000D02*
X335000000Y-240989000D01*
X320000000Y-210989000D02*
X335000000Y-210989000D01*
X320000000Y-240989000D02*
X320000000Y-210989000D01*
X315000000Y-240989000D02*
X300000000Y-240989000D01*
X315000000Y-210989000D02*
X315000000Y-240989000D01*
X300000000Y-210989000D02*
X315000000Y-210989000D01*
X300000000Y-240989000D02*
X300000000Y-210989000D01*
X295000000Y-240989000D02*
X280000000Y-240989000D01*
X295000000Y-210989000D02*
X295000000Y-240989000D01*
X280000000Y-210989000D02*
X295000000Y-210989000D01*
X280000000Y-240989000D02*
X280000000Y-210989000D01*
X275000000Y-240989000D02*
X260000000Y-240989000D01*
X275000000Y-210989000D02*
X275000000Y-240989000D01*
X260000000Y-210989000D02*
X275000000Y-210989000D01*
X260000000Y-240989000D02*
X260000000Y-210989000D01*
X255000000Y-240989000D02*
X240000000Y-240989000D01*
X255000000Y-210989000D02*
X255000000Y-240989000D01*
X240000000Y-210989000D02*
X255000000Y-210989000D01*
X240000000Y-240989000D02*
X240000000Y-210989000D01*
X235000000Y-240989000D02*
X220000000Y-240989000D01*
X235000000Y-210989000D02*
X235000000Y-240989000D01*
X220000000Y-210989000D02*
X235000000Y-210989000D01*
X220000000Y-240989000D02*
X220000000Y-210989000D01*
X215000000Y-240989000D02*
X200000000Y-240989000D01*
X215000000Y-210989000D02*
X215000000Y-240989000D01*
X200000000Y-210989000D02*
X215000000Y-210989000D01*
X200000000Y-240989000D02*
X200000000Y-210989000D01*
X195000000Y-240989000D02*
X180000000Y-240989000D01*
X195000000Y-210989000D02*
X195000000Y-240989000D01*
X180000000Y-210989000D02*
X195000000Y-210989000D01*
X180000000Y-240989000D02*
X180000000Y-210989000D01*
X415000000Y-275989000D02*
X400000000Y-275989000D01*
X415000000Y-245989000D02*
X415000000Y-275989000D01*
X400000000Y-245989000D02*
X415000000Y-245989000D01*
X400000000Y-275989000D02*
X400000000Y-245989000D01*
X395000000Y-275989000D02*
X380000000Y-275989000D01*
X395000000Y-245989000D02*
X395000000Y-275989000D01*
X380000000Y-245989000D02*
X395000000Y-245989000D01*
X380000000Y-275989000D02*
X380000000Y-245989000D01*
X375000000Y-275989000D02*
X360000000Y-275989000D01*
X375000000Y-245989000D02*
X375000000Y-275989000D01*
X360000000Y-245989000D02*
X375000000Y-245989000D01*
X360000000Y-275989000D02*
X360000000Y-245989000D01*
X355000000Y-275989000D02*
X340000000Y-275989000D01*
X355000000Y-245989000D02*
X355000000Y-275989000D01*
X340000000Y-245989000D02*
X355000000Y-245989000D01*
X340000000Y-275989000D02*
X340000000Y-245989000D01*
X335000000Y-275989000D02*
X320000000Y-275989000D01*
X335000000Y-245989000D02*
X335000000Y-275989000D01*
X320000000Y-245989000D02*
X335000000Y-245989000D01*
X320000000Y-275989000D02*
X320000000Y-245989000D01*
X315000000Y-275989000D02*
X300000000Y-275989000D01*
X315000000Y-245989000D02*
X315000000Y-275989000D01*
X300000000Y-245989000D02*
X315000000Y-245989000D01*
X300000000Y-275989000D02*
X300000000Y-245989000D01*
X295000000Y-275989000D02*
X280000000Y-275989000D01*
X295000000Y-245989000D02*
X295000000Y-275989000D01*
X280000000Y-245989000D02*
X295000000Y-245989000D01*
X280000000Y-275989000D02*
X280000000Y-245989000D01*
X275000000Y-275989000D02*
X260000000Y-275989000D01*
X275000000Y-245989000D02*
X275000000Y-275989000D01*
X260000000Y-245989000D02*
X275000000Y-245989000D01*
X260000000Y-275989000D02*
X260000000Y-245989000D01*
X255000000Y-275989000D02*
X240000000Y-275989000D01*
X255000000Y-245989000D02*
X255000000Y-275989000D01*
X240000000Y-245989000D02*
X255000000Y-245989000D01*
X240000000Y-275989000D02*
X240000000Y-245989000D01*
X235000000Y-275989000D02*
X220000000Y-275989000D01*
X235000000Y-245989000D02*
X235000000Y-275989000D01*
X220000000Y-245989000D02*
X235000000Y-245989000D01*
X220000000Y-275989000D02*
X220000000Y-245989000D01*
X215000000Y-275989000D02*
X200000000Y-275989000D01*
X215000000Y-245989000D02*
X215000000Y-275989000D01*
X200000000Y-245989000D02*
X215000000Y-245989000D01*
X200000000Y-275989000D02*
X200000000Y-245989000D01*
X195000000Y-275989000D02*
X180000000Y-275989000D01*
X195000000Y-245989000D02*
X195000000Y-275989000D01*
X180000000Y-245989000D02*
X195000000Y-245989000D01*
X180000000Y-275989000D02*
X180000000Y-245989000D01*
X415000000Y-310989000D02*
X400000000Y-310989000D01*
X415000000Y-280989000D02*
X415000000Y-310989000D01*
X400000000Y-280989000D02*
X415000000Y-280989000D01*
X400000000Y-310989000D02*
X400000000Y-280989000D01*
X395000000Y-310989000D02*
X380000000Y-310989000D01*
X395000000Y-280989000D02*
X395000000Y-310989000D01*
X380000000Y-280989000D02*
X395000000Y-280989000D01*
X380000000Y-310989000D02*
X380000000Y-280989000D01*
X375000000Y-310989000D02*
X360000000Y-310989000D01*
X375000000Y-280989000D02*
X375000000Y-310989000D01*
X360000000Y-280989000D02*
X375000000Y-280989000D01*
X360000000Y-310989000D02*
X360000000Y-280989000D01*
X355000000Y-310989000D02*
X340000000Y-310989000D01*
X355000000Y-280989000D02*
X355000000Y-310989000D01*
X340000000Y-280989000D02*
X355000000Y-280989000D01*
X340000000Y-310989000D02*
X340000000Y-280989000D01*
X335000000Y-310989000D02*
X320000000Y-310989000D01*
X335000000Y-280989000D02*
X335000000Y-310989000D01*
X320000000Y-280989000D02*
X335000000Y-280989000D01*
X320000000Y-310989000D02*
X320000000Y-280989000D01*
X315000000Y-310989000D02*
X300000000Y-310989000D01*
X315000000Y-280989000D02*
X315000000Y-310989000D01*
X300000000Y-280989000D02*
X315000000Y-280989000D01*
X300000000Y-310989000D02*
X300000000Y-280989000D01*
X295000000Y-310989000D02*
X280000000Y-310989000D01*
X295000000Y-280989000D02*
X295000000Y-310989000D01*
X280000000Y-280989000D02*
X295000000Y-280989000D01*
X280000000Y-310989000D02*
X280000000Y-280989000D01*
X275000000Y-310989000D02*
X260000000Y-310989000D01*
X275000000Y-280989000D02*
X275000000Y-310989000D01*
X260000000Y-280989000D02*
X275000000Y-280989000D01*
X260000000Y-310989000D02*
X260000000Y-280989000D01*
X255000000Y-310989000D02*
X240000000Y-310989000D01*
X255000000Y-280989000D02*
X255000000Y-310989000D01*
X240000000Y-280989000D02*
X255000000Y-280989000D01*
X240000000Y-310989000D02*
X240000000Y-280989000D01*
X235000000Y-310989000D02*
X220000000Y-310989000D01*
X235000000Y-280989000D02*
X235000000Y-310989000D01*
X220000000Y-280989000D02*
X235000000Y-280989000D01*
X220000000Y-310989000D02*
X220000000Y-280989000D01*
X215000000Y-310989000D02*
X200000000Y-310989000D01*
X215000000Y-280989000D02*
X215000000Y-310989000D01*
X200000000Y-280989000D02*
X215000000Y-280989000D01*
X200000000Y-310989000D02*
X200000000Y-280989000D01*
X195000000Y-310989000D02*
X180000000Y-310989000D01*
X195000000Y-280989000D02*
X195000000Y-310989000D01*
X180000000Y-280989000D02*
X195000000Y-280989000D01*
X180000000Y-310989000D02*
X180000000Y-280989000D01*
X415000000Y-345989000D02*
X400000000Y-345989000D01*
X415000000Y-315989000D02*
X415000000Y-345989000D01*
X400000000Y-315989000D02*
X415000000Y-315989000D01*
X400000000Y-345989000D02*
X400000000Y-315989000D01*
X395000000Y-345989000D02*
X380000000Y-345989000D01*
X395000000Y-315989000D02*
X395000000Y-345989000D01*
X380000000Y-315989000D02*
X395000000Y-315989000D01*
X380000000Y-345989000D02*
X380000000Y-315989000D01*
X375000000Y-345989000D02*
X360000000Y-345989000D01*
X375000000Y-315989000D02*
X375000000Y-345989000D01*
X360000000Y-315989000D02*
X375000000Y-315989000D01*
X360000000Y-345989000D02*
X360000000Y-315989000D01*
X355000000Y-345989000D02*
X340000000Y-345989000D01*
X355000000Y-315989000D02*
X355000000Y-345989000D01*
X340000000Y-315989000D02*
X355000000Y-315989000D01*
X340000000Y-345989000D02*
X340000000Y-315989000D01*
X335000000Y-345989000D02*
X320000000Y-345989000D01*
X335000000Y-315989000D02*
X335000000Y-345989000D01*
X320000000Y-315989000D02*
X335000000Y-315989000D01*
X320000000Y-345989000D02*
X320000000Y-315989000D01*
X315000000Y-345989000D02*
X300000000Y-345989000D01*
X315000000Y-315989000D02*
X315000000Y-345989000D01*
X300000000Y-315989000D02*
X315000000Y-315989000D01*
X300000000Y-345989000D02*
X300000000Y-315989000D01*
X295000000Y-345989000D02*
X280000000Y-345989000D01*
X295000000Y-315989000D02*
X295000000Y-345989000D01*
X280000000Y-315989000D02*
X295000000Y-315989000D01*
X280000000Y-345989000D02*
X280000000Y-315989000D01*
X275000000Y-345989000D02*
X260000000Y-345989000D01*
X275000000Y-315989000D02*
X275000000Y-345989000D01*
X260000000Y-315989000D02*
X275000000Y-315989000D01*
X260000000Y-345989000D02*
X260000000Y-315989000D01*
X255000000Y-345989000D02*
X240000000Y-345989000D01*
X255000000Y-315989000D02*
X255000000Y-345989000D01*
X240000000Y-315989000D02*
X255000000Y-315989000D01*
X240000000Y-345989000D02*
X240000000Y-315989000D01*
X235000000Y-345989000D02*
X220000000Y-345989000D01*
X235000000Y-315989000D02*
X235000000Y-345989000D01*
X220000000Y-315989000D02*
X235000000Y-315989000D01*
X220000000Y-345989000D02*
X220000000Y-315989000D01*
X215000000Y-345989000D02*
X200000000Y-345989000D01*
X215000000Y-315989000D02*
X215000000Y-345989000D01*
X200000000Y-315989000D02*
X215000000Y-315989000D01*
X200000000Y-345989000D02*
X200000000Y-315989000D01*
X195000000Y-345989000D02*
X180000000Y-345989000D01*
X195000000Y-315989000D02*
X195000000Y-345989000D01*
X180000000Y-315989000D02*
X195000000Y-315989000D01*
X180000000Y-345989000D02*
X180000000Y-315989000D01*
M02*
