M48
;DRILL file {kicad (2014-10-05 BZR 5164)-product} date Mon 03 Nov 2014 02:32:40 PM CET
;FORMAT={3:3/ absolute / metric / suppress leading zeros}
FMAT,2
METRIC,TZ
T1C0.600
T2C0.635
T3C0.899
T4C1.001
T5C1.270
%
G90
G05
M71
T1
X184420Y-86000
X184420Y-121000
X184420Y-156000
X184420Y-191000
X184420Y-226000
X184420Y-261000
X184420Y-296000
X184420Y-331000
X189500Y-86000
X189500Y-121000
X189500Y-156000
X189500Y-191000
X189500Y-226000
X189500Y-261000
X189500Y-296000
X189500Y-331000
X194580Y-86000
X194580Y-121000
X194580Y-156000
X194580Y-191000
X194580Y-226000
X194580Y-261000
X194580Y-296000
X194580Y-331000
X204420Y-86000
X204420Y-121000
X204420Y-156000
X204420Y-191000
X204420Y-226000
X204420Y-261000
X204420Y-296000
X204420Y-331000
X209500Y-86000
X209500Y-121000
X209500Y-156000
X209500Y-191000
X209500Y-226000
X209500Y-261000
X209500Y-296000
X209500Y-331000
X214580Y-86000
X214580Y-121000
X214580Y-156000
X214580Y-191000
X214580Y-226000
X214580Y-261000
X214580Y-296000
X214580Y-331000
X224420Y-86000
X224420Y-121000
X224420Y-156000
X224420Y-191000
X224420Y-226000
X224420Y-261000
X224420Y-296000
X224420Y-331000
X229500Y-86000
X229500Y-121000
X229500Y-156000
X229500Y-191000
X229500Y-226000
X229500Y-261000
X229500Y-296000
X229500Y-331000
X234580Y-86000
X234580Y-121000
X234580Y-156000
X234580Y-191000
X234580Y-226000
X234580Y-261000
X234580Y-296000
X234580Y-331000
X244420Y-86000
X244420Y-121000
X244420Y-156000
X244420Y-191000
X244420Y-226000
X244420Y-261000
X244420Y-296000
X244420Y-331000
X249500Y-86000
X249500Y-121000
X249500Y-156000
X249500Y-191000
X249500Y-226000
X249500Y-261000
X249500Y-296000
X249500Y-331000
X254580Y-86000
X254580Y-121000
X254580Y-156000
X254580Y-191000
X254580Y-226000
X254580Y-261000
X254580Y-296000
X254580Y-331000
X264420Y-86000
X264420Y-121000
X264420Y-156000
X264420Y-191000
X264420Y-226000
X264420Y-261000
X264420Y-296000
X264420Y-331000
X269500Y-86000
X269500Y-121000
X269500Y-156000
X269500Y-191000
X269500Y-226000
X269500Y-261000
X269500Y-296000
X269500Y-331000
X274580Y-86000
X274580Y-121000
X274580Y-156000
X274580Y-191000
X274580Y-226000
X274580Y-261000
X274580Y-296000
X274580Y-331000
X284420Y-86000
X284420Y-121000
X284420Y-156000
X284420Y-191000
X284420Y-226000
X284420Y-261000
X284420Y-296000
X284420Y-331000
X289500Y-86000
X289500Y-121000
X289500Y-156000
X289500Y-191000
X289500Y-226000
X289500Y-261000
X289500Y-296000
X289500Y-331000
X294580Y-86000
X294580Y-121000
X294580Y-156000
X294580Y-191000
X294580Y-226000
X294580Y-261000
X294580Y-296000
X294580Y-331000
X304420Y-86000
X304420Y-121000
X304420Y-156000
X304420Y-191000
X304420Y-226000
X304420Y-261000
X304420Y-296000
X304420Y-331000
X309500Y-86000
X309500Y-121000
X309500Y-156000
X309500Y-191000
X309500Y-226000
X309500Y-261000
X309500Y-296000
X309500Y-331000
X314580Y-86000
X314580Y-121000
X314580Y-156000
X314580Y-191000
X314580Y-226000
X314580Y-261000
X314580Y-296000
X314580Y-331000
X324420Y-86000
X324420Y-121000
X324420Y-156000
X324420Y-191000
X324420Y-226000
X324420Y-261000
X324420Y-296000
X324420Y-331000
X329500Y-86000
X329500Y-121000
X329500Y-156000
X329500Y-191000
X329500Y-226000
X329500Y-261000
X329500Y-296000
X329500Y-331000
X334580Y-86000
X334580Y-121000
X334580Y-156000
X334580Y-191000
X334580Y-226000
X334580Y-261000
X334580Y-296000
X334580Y-331000
X344420Y-86000
X344420Y-121000
X344420Y-156000
X344420Y-191000
X344420Y-226000
X344420Y-261000
X344420Y-296000
X344420Y-331000
X349500Y-86000
X349500Y-121000
X349500Y-156000
X349500Y-191000
X349500Y-226000
X349500Y-261000
X349500Y-296000
X349500Y-331000
X354580Y-86000
X354580Y-121000
X354580Y-156000
X354580Y-191000
X354580Y-226000
X354580Y-261000
X354580Y-296000
X354580Y-331000
X364420Y-86000
X364420Y-121000
X364420Y-156000
X364420Y-191000
X364420Y-226000
X364420Y-261000
X364420Y-296000
X364420Y-331000
X369500Y-86000
X369500Y-121000
X369500Y-156000
X369500Y-191000
X369500Y-226000
X369500Y-261000
X369500Y-296000
X369500Y-331000
X374580Y-86000
X374580Y-121000
X374580Y-156000
X374580Y-191000
X374580Y-226000
X374580Y-261000
X374580Y-296000
X374580Y-331000
X384420Y-86000
X384420Y-121000
X384420Y-156000
X384420Y-191000
X384420Y-226000
X384420Y-261000
X384420Y-296000
X384420Y-331000
X389500Y-86000
X389500Y-121000
X389500Y-156000
X389500Y-191000
X389500Y-226000
X389500Y-261000
X389500Y-296000
X389500Y-331000
X394580Y-86000
X394580Y-121000
X394580Y-156000
X394580Y-191000
X394580Y-226000
X394580Y-261000
X394580Y-296000
X394580Y-331000
X404420Y-86000
X404420Y-121000
X404420Y-156000
X404420Y-191000
X404420Y-226000
X404420Y-261000
X404420Y-296000
X404420Y-331000
X409500Y-86000
X409500Y-121000
X409500Y-156000
X409500Y-191000
X409500Y-226000
X409500Y-261000
X409500Y-296000
X409500Y-331000
X414580Y-86000
X414580Y-121000
X414580Y-156000
X414580Y-191000
X414580Y-226000
X414580Y-261000
X414580Y-296000
X414580Y-331000
T2
X224500Y-336500
X224500Y-360500
X264500Y-336000
X264500Y-362061
X300000Y-331000
X304420Y-363677
X389000Y-350000
X394000Y-352500
X395000Y-350000
X398384Y-335500
X400000Y-331000
X400500Y-342000
X403000Y-340000
X419500Y-320000
X423160Y-352500
X423500Y-320000
T3
X368055Y-358650
X369325Y-356110
X370595Y-358650
X371865Y-356110
X373135Y-358650
X374405Y-356110
X375675Y-358650
X376945Y-356110
X388055Y-358650
X389325Y-356110
X390595Y-358650
X391865Y-356110
X393135Y-358650
X394405Y-356110
X395675Y-358650
X396945Y-356110
X408055Y-358650
X409325Y-356110
X410595Y-358650
X411865Y-356110
X413135Y-358650
X414405Y-356110
X415675Y-358650
X416945Y-356110
T4
X189500Y-69920
X189500Y-104920
X189500Y-139920
X189500Y-174920
X189500Y-209920
X189500Y-244920
X189500Y-279920
X189500Y-314920
X209500Y-69920
X209500Y-104920
X209500Y-139920
X209500Y-174920
X209500Y-209920
X209500Y-244920
X209500Y-279920
X209500Y-314920
X229500Y-69920
X229500Y-104920
X229500Y-139920
X229500Y-174920
X229500Y-209920
X229500Y-244920
X229500Y-279920
X229500Y-314920
X249500Y-69920
X249500Y-104920
X249500Y-139920
X249500Y-174920
X249500Y-209920
X249500Y-244920
X249500Y-279920
X249500Y-314920
X269500Y-69920
X269500Y-104920
X269500Y-139920
X269500Y-174920
X269500Y-209920
X269500Y-244920
X269500Y-279920
X269500Y-314920
X289500Y-69920
X289500Y-104920
X289500Y-139920
X289500Y-174920
X289500Y-209920
X289500Y-244920
X289500Y-279920
X289500Y-314920
X309500Y-69920
X309500Y-104920
X309500Y-139920
X309500Y-174920
X309500Y-209920
X309500Y-244920
X309500Y-279920
X309500Y-314920
X329500Y-69920
X329500Y-104920
X329500Y-139920
X329500Y-174920
X329500Y-209920
X329500Y-244920
X329500Y-279920
X329500Y-314920
X349500Y-69920
X349500Y-104920
X349500Y-139920
X349500Y-174920
X349500Y-209920
X349500Y-244920
X349500Y-279920
X349500Y-314920
X369500Y-69920
X369500Y-104920
X369500Y-139920
X369500Y-174920
X369500Y-209920
X369500Y-244920
X369500Y-279920
X369500Y-314920
X389500Y-69920
X389500Y-104920
X389500Y-139920
X389500Y-174920
X389500Y-209920
X389500Y-244920
X389500Y-279920
X389500Y-314920
X409500Y-69920
X409500Y-104920
X409500Y-139920
X409500Y-174920
X409500Y-209920
X409500Y-244920
X409500Y-279920
X409500Y-314920
X419500Y-69920
X419500Y-80080
X419500Y-104920
X419500Y-115080
X419500Y-139920
X419500Y-150080
X419500Y-174920
X419500Y-185080
X419500Y-209920
X419500Y-220080
X419500Y-244920
X419500Y-255080
X419500Y-279920
X419500Y-290080
X419500Y-314920
X419500Y-325080
T5
X189500Y-80080
X189500Y-115080
X189500Y-150080
X189500Y-185080
X189500Y-220080
X189500Y-255080
X189500Y-290080
X189500Y-325080
X209500Y-80080
X209500Y-115080
X209500Y-150080
X209500Y-185080
X209500Y-220080
X209500Y-255080
X209500Y-290080
X209500Y-325080
X229500Y-80080
X229500Y-115080
X229500Y-150080
X229500Y-185080
X229500Y-220080
X229500Y-255080
X229500Y-290080
X229500Y-325080
X249500Y-80080
X249500Y-115080
X249500Y-150080
X249500Y-185080
X249500Y-220080
X249500Y-255080
X249500Y-290080
X249500Y-325080
X269500Y-80080
X269500Y-115080
X269500Y-150080
X269500Y-185080
X269500Y-220080
X269500Y-255080
X269500Y-290080
X269500Y-325080
X289500Y-80080
X289500Y-115080
X289500Y-150080
X289500Y-185080
X289500Y-220080
X289500Y-255080
X289500Y-290080
X289500Y-325080
X309500Y-80080
X309500Y-115080
X309500Y-150080
X309500Y-185080
X309500Y-220080
X309500Y-255080
X309500Y-290080
X309500Y-325080
X329500Y-80080
X329500Y-115080
X329500Y-150080
X329500Y-185080
X329500Y-220080
X329500Y-255080
X329500Y-290080
X329500Y-325080
X349500Y-80080
X349500Y-115080
X349500Y-150080
X349500Y-185080
X349500Y-220080
X349500Y-255080
X349500Y-290080
X349500Y-325080
X369500Y-80080
X369500Y-115080
X369500Y-150080
X369500Y-185080
X369500Y-220080
X369500Y-255080
X369500Y-290080
X369500Y-325080
X389500Y-80080
X389500Y-115080
X389500Y-150080
X389500Y-185080
X389500Y-220080
X389500Y-255080
X389500Y-290080
X389500Y-325080
X409500Y-80080
X409500Y-115080
X409500Y-150080
X409500Y-185080
X409500Y-220080
X409500Y-255080
X409500Y-290080
X409500Y-325080
T0
M30
