  0
SECTION
  2
HEADER
  9
$ANGBASE
  50
0.0
  9
$ANGDIR
  70
  1
  9
$MEASUREMENT
  70
0
  0
ENDSEC
  0
SECTION
  2
TABLES
  0
TABLE
  2
LTYPE
  70
1
  0
LTYPE
  2
CONTINUOUS
  70
0
  3
Solid line
  72
65
  73
0
  40
0.0
  0
ENDTAB
  0
TABLE
  2
STYLE
  70
4
  0
STYLE
  2
KICAD
  70
0
  40
0
  41
1
  42
1
  50
0
  71
0
  3
isocp.shx
  0
STYLE
  2
KICADB
  70
0
  40
0
  41
1
  42
1
  50
0
  71
0
  3
isocp.shx
  0
STYLE
  2
KICADI
  70
0
  40
0
  41
1
  42
1
  50
15
  71
0
  3
isocp.shx
  0
STYLE
  2
KICADBI
  70
0
  40
0
  41
1
  42
1
  50
15
  71
0
  3
isocp.shx
  0
ENDTAB
  0
TABLE
  2
LAYER
  70
30
  0
LAYER
  2
BLACK
  70
0
  62
7
  6
CONTINUOUS
  0
LAYER
  2
GRAY1
  70
0
  62
251
  6
CONTINUOUS
  0
LAYER
  2
GRAY2
  70
0
  62
8
  6
CONTINUOUS
  0
LAYER
  2
GRAY3
  70
0
  62
9
  6
CONTINUOUS
  0
LAYER
  2
WHITE
  70
0
  62
7
  6
CONTINUOUS
  0
LAYER
  2
LYELLOW
  70
0
  62
51
  6
CONTINUOUS
  0
LAYER
  2
BLUE1
  70
0
  62
178
  6
CONTINUOUS
  0
LAYER
  2
GREEN1
  70
0
  62
98
  6
CONTINUOUS
  0
LAYER
  2
CYAN1
  70
0
  62
138
  6
CONTINUOUS
  0
LAYER
  2
RED1
  70
0
  62
18
  6
CONTINUOUS
  0
LAYER
  2
MAGENTA1
  70
0
  62
228
  6
CONTINUOUS
  0
LAYER
  2
BROWN1
  70
0
  62
58
  6
CONTINUOUS
  0
LAYER
  2
BLUE2
  70
0
  62
5
  6
CONTINUOUS
  0
LAYER
  2
GREEN2
  70
0
  62
3
  6
CONTINUOUS
  0
LAYER
  2
CYAN2
  70
0
  62
4
  6
CONTINUOUS
  0
LAYER
  2
RED2
  70
0
  62
1
  6
CONTINUOUS
  0
LAYER
  2
MAGENTA2
  70
0
  62
6
  6
CONTINUOUS
  0
LAYER
  2
BROWN2
  70
0
  62
54
  6
CONTINUOUS
  0
LAYER
  2
BLUE3
  70
0
  62
171
  6
CONTINUOUS
  0
LAYER
  2
GREEN3
  70
0
  62
91
  6
CONTINUOUS
  0
LAYER
  2
CYAN3
  70
0
  62
131
  6
CONTINUOUS
  0
LAYER
  2
RED3
  70
0
  62
11
  6
CONTINUOUS
  0
LAYER
  2
MAGENTA3
  70
0
  62
221
  6
CONTINUOUS
  0
LAYER
  2
YELLOW3
  70
0
  62
2
  6
CONTINUOUS
  0
LAYER
  2
BLUE4
  70
0
  62
5
  6
CONTINUOUS
  0
LAYER
  2
GREEN4
  70
0
  62
3
  6
CONTINUOUS
  0
LAYER
  2
CYAN4
  70
0
  62
4
  6
CONTINUOUS
  0
LAYER
  2
RED4
  70
0
  62
1
  6
CONTINUOUS
  0
LAYER
  2
MAGENTA4
  70
0
  62
6
  6
CONTINUOUS
  0
LAYER
  2
YELLOW4
  70
0
  62
2
  6
CONTINUOUS
  0
ENDTAB
  0
ENDSEC
  0
SECTION
  2
ENTITIES
0
LINE
8
Black
10
399.955
20
-71.0114
11
414.955
21
-101.011
0
LINE
8
Black
10
400.045
20
-70.9666
11
415.045
21
-100.967
0
ARC
8
Black
10
415
20
-100.989
40
0.05
50
206.565
51
386.565
0
ARC
8
Black
10
400
20
-70.989
40
0.05
50
26.5651
51
206.565
0
LINE
8
Black
10
400.045
20
-101.011
11
415.045
21
-71.0114
0
LINE
8
Black
10
399.955
20
-100.967
11
414.955
21
-70.9666
0
ARC
8
Black
10
415
20
-70.989
40
0.05
50
333.435
51
513.435
0
ARC
8
Black
10
400
20
-100.989
40
0.05
50
153.435
51
333.435
0
LINE
8
Black
10
399.955
20
-106.011
11
414.955
21
-136.011
0
LINE
8
Black
10
400.045
20
-105.967
11
415.045
21
-135.967
0
ARC
8
Black
10
415
20
-135.989
40
0.05
50
206.565
51
386.565
0
ARC
8
Black
10
400
20
-105.989
40
0.05
50
26.5651
51
206.565
0
LINE
8
Black
10
400.045
20
-136.011
11
415.045
21
-106.011
0
LINE
8
Black
10
399.955
20
-135.967
11
414.955
21
-105.967
0
ARC
8
Black
10
415
20
-105.989
40
0.05
50
333.435
51
513.435
0
ARC
8
Black
10
400
20
-135.989
40
0.05
50
153.435
51
333.435
0
LINE
8
Black
10
399.955
20
-141.011
11
414.955
21
-171.011
0
LINE
8
Black
10
400.045
20
-140.967
11
415.045
21
-170.967
0
ARC
8
Black
10
415
20
-170.989
40
0.05
50
206.565
51
386.565
0
ARC
8
Black
10
400
20
-140.989
40
0.05
50
26.5651
51
206.565
0
LINE
8
Black
10
400.045
20
-171.011
11
415.045
21
-141.011
0
LINE
8
Black
10
399.955
20
-170.967
11
414.955
21
-140.967
0
ARC
8
Black
10
415
20
-140.989
40
0.05
50
333.435
51
513.435
0
ARC
8
Black
10
400
20
-170.989
40
0.05
50
153.435
51
333.435
0
LINE
8
Black
10
399.955
20
-176.011
11
414.955
21
-206.011
0
LINE
8
Black
10
400.045
20
-175.967
11
415.045
21
-205.967
0
ARC
8
Black
10
415
20
-205.989
40
0.05
50
206.565
51
386.565
0
ARC
8
Black
10
400
20
-175.989
40
0.05
50
26.5651
51
206.565
0
LINE
8
Black
10
400.045
20
-206.011
11
415.045
21
-176.011
0
LINE
8
Black
10
399.955
20
-205.967
11
414.955
21
-175.967
0
ARC
8
Black
10
415
20
-175.989
40
0.05
50
333.435
51
513.435
0
ARC
8
Black
10
400
20
-205.989
40
0.05
50
153.435
51
333.435
0
LINE
8
Black
10
399.955
20
-211.011
11
414.955
21
-241.011
0
LINE
8
Black
10
400.045
20
-210.967
11
415.045
21
-240.967
0
ARC
8
Black
10
415
20
-240.989
40
0.05
50
206.565
51
386.565
0
ARC
8
Black
10
400
20
-210.989
40
0.05
50
26.5651
51
206.565
0
LINE
8
Black
10
400.045
20
-241.011
11
415.045
21
-211.011
0
LINE
8
Black
10
399.955
20
-240.967
11
414.955
21
-210.967
0
ARC
8
Black
10
415
20
-210.989
40
0.05
50
333.435
51
513.435
0
ARC
8
Black
10
400
20
-240.989
40
0.05
50
153.435
51
333.435
0
LINE
8
Black
10
399.955
20
-246.011
11
414.955
21
-276.011
0
LINE
8
Black
10
400.045
20
-245.967
11
415.045
21
-275.967
0
ARC
8
Black
10
415
20
-275.989
40
0.05
50
206.565
51
386.565
0
ARC
8
Black
10
400
20
-245.989
40
0.05
50
26.5651
51
206.565
0
LINE
8
Black
10
400.045
20
-276.011
11
415.045
21
-246.011
0
LINE
8
Black
10
399.955
20
-275.967
11
414.955
21
-245.967
0
ARC
8
Black
10
415
20
-245.989
40
0.05
50
333.435
51
513.435
0
ARC
8
Black
10
400
20
-275.989
40
0.05
50
153.435
51
333.435
0
LINE
8
Black
10
399.955
20
-281.011
11
414.955
21
-311.011
0
LINE
8
Black
10
400.045
20
-280.967
11
415.045
21
-310.967
0
ARC
8
Black
10
415
20
-310.989
40
0.05
50
206.565
51
386.565
0
ARC
8
Black
10
400
20
-280.989
40
0.05
50
26.5651
51
206.565
0
LINE
8
Black
10
400.045
20
-311.011
11
415.045
21
-281.011
0
LINE
8
Black
10
399.955
20
-310.967
11
414.955
21
-280.967
0
ARC
8
Black
10
415
20
-280.989
40
0.05
50
333.435
51
513.435
0
ARC
8
Black
10
400
20
-310.989
40
0.05
50
153.435
51
333.435
0
LINE
8
Black
10
399.955
20
-316.011
11
414.955
21
-346.011
0
LINE
8
Black
10
400.045
20
-315.967
11
415.045
21
-345.967
0
ARC
8
Black
10
415
20
-345.989
40
0.05
50
206.565
51
386.565
0
ARC
8
Black
10
400
20
-315.989
40
0.05
50
26.5651
51
206.565
0
LINE
8
Black
10
400.045
20
-346.011
11
415.045
21
-316.011
0
LINE
8
Black
10
399.955
20
-345.967
11
414.955
21
-315.967
0
ARC
8
Black
10
415
20
-315.989
40
0.05
50
333.435
51
513.435
0
ARC
8
Black
10
400
20
-345.989
40
0.05
50
153.435
51
333.435
0
LINE
8
Black
10
379.955
20
-71.0114
11
394.955
21
-101.011
0
LINE
8
Black
10
380.045
20
-70.9666
11
395.045
21
-100.967
0
ARC
8
Black
10
395
20
-100.989
40
0.05
50
206.565
51
386.565
0
ARC
8
Black
10
380
20
-70.989
40
0.05
50
26.5651
51
206.565
0
LINE
8
Black
10
380.045
20
-101.011
11
395.045
21
-71.0114
0
LINE
8
Black
10
379.955
20
-100.967
11
394.955
21
-70.9666
0
ARC
8
Black
10
395
20
-70.989
40
0.05
50
333.435
51
513.435
0
ARC
8
Black
10
380
20
-100.989
40
0.05
50
153.435
51
333.435
0
LINE
8
Black
10
379.955
20
-106.011
11
394.955
21
-136.011
0
LINE
8
Black
10
380.045
20
-105.967
11
395.045
21
-135.967
0
ARC
8
Black
10
395
20
-135.989
40
0.05
50
206.565
51
386.565
0
ARC
8
Black
10
380
20
-105.989
40
0.05
50
26.5651
51
206.565
0
LINE
8
Black
10
380.045
20
-136.011
11
395.045
21
-106.011
0
LINE
8
Black
10
379.955
20
-135.967
11
394.955
21
-105.967
0
ARC
8
Black
10
395
20
-105.989
40
0.05
50
333.435
51
513.435
0
ARC
8
Black
10
380
20
-135.989
40
0.05
50
153.435
51
333.435
0
LINE
8
Black
10
379.955
20
-141.011
11
394.955
21
-171.011
0
LINE
8
Black
10
380.045
20
-140.967
11
395.045
21
-170.967
0
ARC
8
Black
10
395
20
-170.989
40
0.05
50
206.565
51
386.565
0
ARC
8
Black
10
380
20
-140.989
40
0.05
50
26.5651
51
206.565
0
LINE
8
Black
10
380.045
20
-171.011
11
395.045
21
-141.011
0
LINE
8
Black
10
379.955
20
-170.967
11
394.955
21
-140.967
0
ARC
8
Black
10
395
20
-140.989
40
0.05
50
333.435
51
513.435
0
ARC
8
Black
10
380
20
-170.989
40
0.05
50
153.435
51
333.435
0
LINE
8
Black
10
379.955
20
-176.011
11
394.955
21
-206.011
0
LINE
8
Black
10
380.045
20
-175.967
11
395.045
21
-205.967
0
ARC
8
Black
10
395
20
-205.989
40
0.05
50
206.565
51
386.565
0
ARC
8
Black
10
380
20
-175.989
40
0.05
50
26.5651
51
206.565
0
LINE
8
Black
10
380.045
20
-206.011
11
395.045
21
-176.011
0
LINE
8
Black
10
379.955
20
-205.967
11
394.955
21
-175.967
0
ARC
8
Black
10
395
20
-175.989
40
0.05
50
333.435
51
513.435
0
ARC
8
Black
10
380
20
-205.989
40
0.05
50
153.435
51
333.435
0
LINE
8
Black
10
379.955
20
-211.011
11
394.955
21
-241.011
0
LINE
8
Black
10
380.045
20
-210.967
11
395.045
21
-240.967
0
ARC
8
Black
10
395
20
-240.989
40
0.05
50
206.565
51
386.565
0
ARC
8
Black
10
380
20
-210.989
40
0.05
50
26.5651
51
206.565
0
LINE
8
Black
10
380.045
20
-241.011
11
395.045
21
-211.011
0
LINE
8
Black
10
379.955
20
-240.967
11
394.955
21
-210.967
0
ARC
8
Black
10
395
20
-210.989
40
0.05
50
333.435
51
513.435
0
ARC
8
Black
10
380
20
-240.989
40
0.05
50
153.435
51
333.435
0
LINE
8
Black
10
379.955
20
-246.011
11
394.955
21
-276.011
0
LINE
8
Black
10
380.045
20
-245.967
11
395.045
21
-275.967
0
ARC
8
Black
10
395
20
-275.989
40
0.05
50
206.565
51
386.565
0
ARC
8
Black
10
380
20
-245.989
40
0.05
50
26.5651
51
206.565
0
LINE
8
Black
10
380.045
20
-276.011
11
395.045
21
-246.011
0
LINE
8
Black
10
379.955
20
-275.967
11
394.955
21
-245.967
0
ARC
8
Black
10
395
20
-245.989
40
0.05
50
333.435
51
513.435
0
ARC
8
Black
10
380
20
-275.989
40
0.05
50
153.435
51
333.435
0
LINE
8
Black
10
379.955
20
-281.011
11
394.955
21
-311.011
0
LINE
8
Black
10
380.045
20
-280.967
11
395.045
21
-310.967
0
ARC
8
Black
10
395
20
-310.989
40
0.05
50
206.565
51
386.565
0
ARC
8
Black
10
380
20
-280.989
40
0.05
50
26.5651
51
206.565
0
LINE
8
Black
10
380.045
20
-311.011
11
395.045
21
-281.011
0
LINE
8
Black
10
379.955
20
-310.967
11
394.955
21
-280.967
0
ARC
8
Black
10
395
20
-280.989
40
0.05
50
333.435
51
513.435
0
ARC
8
Black
10
380
20
-310.989
40
0.05
50
153.435
51
333.435
0
LINE
8
Black
10
379.955
20
-316.011
11
394.955
21
-346.011
0
LINE
8
Black
10
380.045
20
-315.967
11
395.045
21
-345.967
0
ARC
8
Black
10
395
20
-345.989
40
0.05
50
206.565
51
386.565
0
ARC
8
Black
10
380
20
-315.989
40
0.05
50
26.5651
51
206.565
0
LINE
8
Black
10
380.045
20
-346.011
11
395.045
21
-316.011
0
LINE
8
Black
10
379.955
20
-345.967
11
394.955
21
-315.967
0
ARC
8
Black
10
395
20
-315.989
40
0.05
50
333.435
51
513.435
0
ARC
8
Black
10
380
20
-345.989
40
0.05
50
153.435
51
333.435
0
LINE
8
Black
10
359.955
20
-71.0114
11
374.955
21
-101.011
0
LINE
8
Black
10
360.045
20
-70.9666
11
375.045
21
-100.967
0
ARC
8
Black
10
375
20
-100.989
40
0.05
50
206.565
51
386.565
0
ARC
8
Black
10
360
20
-70.989
40
0.05
50
26.5651
51
206.565
0
LINE
8
Black
10
360.045
20
-101.011
11
375.045
21
-71.0114
0
LINE
8
Black
10
359.955
20
-100.967
11
374.955
21
-70.9666
0
ARC
8
Black
10
375
20
-70.989
40
0.05
50
333.435
51
513.435
0
ARC
8
Black
10
360
20
-100.989
40
0.05
50
153.435
51
333.435
0
LINE
8
Black
10
359.955
20
-106.011
11
374.955
21
-136.011
0
LINE
8
Black
10
360.045
20
-105.967
11
375.045
21
-135.967
0
ARC
8
Black
10
375
20
-135.989
40
0.05
50
206.565
51
386.565
0
ARC
8
Black
10
360
20
-105.989
40
0.05
50
26.5651
51
206.565
0
LINE
8
Black
10
360.045
20
-136.011
11
375.045
21
-106.011
0
LINE
8
Black
10
359.955
20
-135.967
11
374.955
21
-105.967
0
ARC
8
Black
10
375
20
-105.989
40
0.05
50
333.435
51
513.435
0
ARC
8
Black
10
360
20
-135.989
40
0.05
50
153.435
51
333.435
0
LINE
8
Black
10
359.955
20
-141.011
11
374.955
21
-171.011
0
LINE
8
Black
10
360.045
20
-140.967
11
375.045
21
-170.967
0
ARC
8
Black
10
375
20
-170.989
40
0.05
50
206.565
51
386.565
0
ARC
8
Black
10
360
20
-140.989
40
0.05
50
26.5651
51
206.565
0
LINE
8
Black
10
360.045
20
-171.011
11
375.045
21
-141.011
0
LINE
8
Black
10
359.955
20
-170.967
11
374.955
21
-140.967
0
ARC
8
Black
10
375
20
-140.989
40
0.05
50
333.435
51
513.435
0
ARC
8
Black
10
360
20
-170.989
40
0.05
50
153.435
51
333.435
0
LINE
8
Black
10
359.955
20
-176.011
11
374.955
21
-206.011
0
LINE
8
Black
10
360.045
20
-175.967
11
375.045
21
-205.967
0
ARC
8
Black
10
375
20
-205.989
40
0.05
50
206.565
51
386.565
0
ARC
8
Black
10
360
20
-175.989
40
0.05
50
26.5651
51
206.565
0
LINE
8
Black
10
360.045
20
-206.011
11
375.045
21
-176.011
0
LINE
8
Black
10
359.955
20
-205.967
11
374.955
21
-175.967
0
ARC
8
Black
10
375
20
-175.989
40
0.05
50
333.435
51
513.435
0
ARC
8
Black
10
360
20
-205.989
40
0.05
50
153.435
51
333.435
0
LINE
8
Black
10
359.955
20
-211.011
11
374.955
21
-241.011
0
LINE
8
Black
10
360.045
20
-210.967
11
375.045
21
-240.967
0
ARC
8
Black
10
375
20
-240.989
40
0.05
50
206.565
51
386.565
0
ARC
8
Black
10
360
20
-210.989
40
0.05
50
26.5651
51
206.565
0
LINE
8
Black
10
360.045
20
-241.011
11
375.045
21
-211.011
0
LINE
8
Black
10
359.955
20
-240.967
11
374.955
21
-210.967
0
ARC
8
Black
10
375
20
-210.989
40
0.05
50
333.435
51
513.435
0
ARC
8
Black
10
360
20
-240.989
40
0.05
50
153.435
51
333.435
0
LINE
8
Black
10
359.955
20
-246.011
11
374.955
21
-276.011
0
LINE
8
Black
10
360.045
20
-245.967
11
375.045
21
-275.967
0
ARC
8
Black
10
375
20
-275.989
40
0.05
50
206.565
51
386.565
0
ARC
8
Black
10
360
20
-245.989
40
0.05
50
26.5651
51
206.565
0
LINE
8
Black
10
360.045
20
-276.011
11
375.045
21
-246.011
0
LINE
8
Black
10
359.955
20
-275.967
11
374.955
21
-245.967
0
ARC
8
Black
10
375
20
-245.989
40
0.05
50
333.435
51
513.435
0
ARC
8
Black
10
360
20
-275.989
40
0.05
50
153.435
51
333.435
0
LINE
8
Black
10
359.955
20
-281.011
11
374.955
21
-311.011
0
LINE
8
Black
10
360.045
20
-280.967
11
375.045
21
-310.967
0
ARC
8
Black
10
375
20
-310.989
40
0.05
50
206.565
51
386.565
0
ARC
8
Black
10
360
20
-280.989
40
0.05
50
26.5651
51
206.565
0
LINE
8
Black
10
360.045
20
-311.011
11
375.045
21
-281.011
0
LINE
8
Black
10
359.955
20
-310.967
11
374.955
21
-280.967
0
ARC
8
Black
10
375
20
-280.989
40
0.05
50
333.435
51
513.435
0
ARC
8
Black
10
360
20
-310.989
40
0.05
50
153.435
51
333.435
0
LINE
8
Black
10
359.955
20
-316.011
11
374.955
21
-346.011
0
LINE
8
Black
10
360.045
20
-315.967
11
375.045
21
-345.967
0
ARC
8
Black
10
375
20
-345.989
40
0.05
50
206.565
51
386.565
0
ARC
8
Black
10
360
20
-315.989
40
0.05
50
26.5651
51
206.565
0
LINE
8
Black
10
360.045
20
-346.011
11
375.045
21
-316.011
0
LINE
8
Black
10
359.955
20
-345.967
11
374.955
21
-315.967
0
ARC
8
Black
10
375
20
-315.989
40
0.05
50
333.435
51
513.435
0
ARC
8
Black
10
360
20
-345.989
40
0.05
50
153.435
51
333.435
0
LINE
8
Black
10
339.955
20
-71.0114
11
354.955
21
-101.011
0
LINE
8
Black
10
340.045
20
-70.9666
11
355.045
21
-100.967
0
ARC
8
Black
10
355
20
-100.989
40
0.05
50
206.565
51
386.565
0
ARC
8
Black
10
340
20
-70.989
40
0.05
50
26.5651
51
206.565
0
LINE
8
Black
10
340.045
20
-101.011
11
355.045
21
-71.0114
0
LINE
8
Black
10
339.955
20
-100.967
11
354.955
21
-70.9666
0
ARC
8
Black
10
355
20
-70.989
40
0.05
50
333.435
51
513.435
0
ARC
8
Black
10
340
20
-100.989
40
0.05
50
153.435
51
333.435
0
LINE
8
Black
10
339.955
20
-106.011
11
354.955
21
-136.011
0
LINE
8
Black
10
340.045
20
-105.967
11
355.045
21
-135.967
0
ARC
8
Black
10
355
20
-135.989
40
0.05
50
206.565
51
386.565
0
ARC
8
Black
10
340
20
-105.989
40
0.05
50
26.5651
51
206.565
0
LINE
8
Black
10
340.045
20
-136.011
11
355.045
21
-106.011
0
LINE
8
Black
10
339.955
20
-135.967
11
354.955
21
-105.967
0
ARC
8
Black
10
355
20
-105.989
40
0.05
50
333.435
51
513.435
0
ARC
8
Black
10
340
20
-135.989
40
0.05
50
153.435
51
333.435
0
LINE
8
Black
10
339.955
20
-141.011
11
354.955
21
-171.011
0
LINE
8
Black
10
340.045
20
-140.967
11
355.045
21
-170.967
0
ARC
8
Black
10
355
20
-170.989
40
0.05
50
206.565
51
386.565
0
ARC
8
Black
10
340
20
-140.989
40
0.05
50
26.5651
51
206.565
0
LINE
8
Black
10
340.045
20
-171.011
11
355.045
21
-141.011
0
LINE
8
Black
10
339.955
20
-170.967
11
354.955
21
-140.967
0
ARC
8
Black
10
355
20
-140.989
40
0.05
50
333.435
51
513.435
0
ARC
8
Black
10
340
20
-170.989
40
0.05
50
153.435
51
333.435
0
LINE
8
Black
10
339.955
20
-176.011
11
354.955
21
-206.011
0
LINE
8
Black
10
340.045
20
-175.967
11
355.045
21
-205.967
0
ARC
8
Black
10
355
20
-205.989
40
0.05
50
206.565
51
386.565
0
ARC
8
Black
10
340
20
-175.989
40
0.05
50
26.5651
51
206.565
0
LINE
8
Black
10
340.045
20
-206.011
11
355.045
21
-176.011
0
LINE
8
Black
10
339.955
20
-205.967
11
354.955
21
-175.967
0
ARC
8
Black
10
355
20
-175.989
40
0.05
50
333.435
51
513.435
0
ARC
8
Black
10
340
20
-205.989
40
0.05
50
153.435
51
333.435
0
LINE
8
Black
10
339.955
20
-211.011
11
354.955
21
-241.011
0
LINE
8
Black
10
340.045
20
-210.967
11
355.045
21
-240.967
0
ARC
8
Black
10
355
20
-240.989
40
0.05
50
206.565
51
386.565
0
ARC
8
Black
10
340
20
-210.989
40
0.05
50
26.5651
51
206.565
0
LINE
8
Black
10
340.045
20
-241.011
11
355.045
21
-211.011
0
LINE
8
Black
10
339.955
20
-240.967
11
354.955
21
-210.967
0
ARC
8
Black
10
355
20
-210.989
40
0.05
50
333.435
51
513.435
0
ARC
8
Black
10
340
20
-240.989
40
0.05
50
153.435
51
333.435
0
LINE
8
Black
10
339.955
20
-246.011
11
354.955
21
-276.011
0
LINE
8
Black
10
340.045
20
-245.967
11
355.045
21
-275.967
0
ARC
8
Black
10
355
20
-275.989
40
0.05
50
206.565
51
386.565
0
ARC
8
Black
10
340
20
-245.989
40
0.05
50
26.5651
51
206.565
0
LINE
8
Black
10
340.045
20
-276.011
11
355.045
21
-246.011
0
LINE
8
Black
10
339.955
20
-275.967
11
354.955
21
-245.967
0
ARC
8
Black
10
355
20
-245.989
40
0.05
50
333.435
51
513.435
0
ARC
8
Black
10
340
20
-275.989
40
0.05
50
153.435
51
333.435
0
LINE
8
Black
10
339.955
20
-281.011
11
354.955
21
-311.011
0
LINE
8
Black
10
340.045
20
-280.967
11
355.045
21
-310.967
0
ARC
8
Black
10
355
20
-310.989
40
0.05
50
206.565
51
386.565
0
ARC
8
Black
10
340
20
-280.989
40
0.05
50
26.5651
51
206.565
0
LINE
8
Black
10
340.045
20
-311.011
11
355.045
21
-281.011
0
LINE
8
Black
10
339.955
20
-310.967
11
354.955
21
-280.967
0
ARC
8
Black
10
355
20
-280.989
40
0.05
50
333.435
51
513.435
0
ARC
8
Black
10
340
20
-310.989
40
0.05
50
153.435
51
333.435
0
LINE
8
Black
10
339.955
20
-316.011
11
354.955
21
-346.011
0
LINE
8
Black
10
340.045
20
-315.967
11
355.045
21
-345.967
0
ARC
8
Black
10
355
20
-345.989
40
0.05
50
206.565
51
386.565
0
ARC
8
Black
10
340
20
-315.989
40
0.05
50
26.5651
51
206.565
0
LINE
8
Black
10
340.045
20
-346.011
11
355.045
21
-316.011
0
LINE
8
Black
10
339.955
20
-345.967
11
354.955
21
-315.967
0
ARC
8
Black
10
355
20
-315.989
40
0.05
50
333.435
51
513.435
0
ARC
8
Black
10
340
20
-345.989
40
0.05
50
153.435
51
333.435
0
LINE
8
Black
10
319.955
20
-71.0114
11
334.955
21
-101.011
0
LINE
8
Black
10
320.045
20
-70.9666
11
335.045
21
-100.967
0
ARC
8
Black
10
335
20
-100.989
40
0.05
50
206.565
51
386.565
0
ARC
8
Black
10
320
20
-70.989
40
0.05
50
26.5651
51
206.565
0
LINE
8
Black
10
320.045
20
-101.011
11
335.045
21
-71.0114
0
LINE
8
Black
10
319.955
20
-100.967
11
334.955
21
-70.9666
0
ARC
8
Black
10
335
20
-70.989
40
0.05
50
333.435
51
513.435
0
ARC
8
Black
10
320
20
-100.989
40
0.05
50
153.435
51
333.435
0
LINE
8
Black
10
319.955
20
-106.011
11
334.955
21
-136.011
0
LINE
8
Black
10
320.045
20
-105.967
11
335.045
21
-135.967
0
ARC
8
Black
10
335
20
-135.989
40
0.05
50
206.565
51
386.565
0
ARC
8
Black
10
320
20
-105.989
40
0.05
50
26.5651
51
206.565
0
LINE
8
Black
10
320.045
20
-136.011
11
335.045
21
-106.011
0
LINE
8
Black
10
319.955
20
-135.967
11
334.955
21
-105.967
0
ARC
8
Black
10
335
20
-105.989
40
0.05
50
333.435
51
513.435
0
ARC
8
Black
10
320
20
-135.989
40
0.05
50
153.435
51
333.435
0
LINE
8
Black
10
319.955
20
-141.011
11
334.955
21
-171.011
0
LINE
8
Black
10
320.045
20
-140.967
11
335.045
21
-170.967
0
ARC
8
Black
10
335
20
-170.989
40
0.05
50
206.565
51
386.565
0
ARC
8
Black
10
320
20
-140.989
40
0.05
50
26.5651
51
206.565
0
LINE
8
Black
10
320.045
20
-171.011
11
335.045
21
-141.011
0
LINE
8
Black
10
319.955
20
-170.967
11
334.955
21
-140.967
0
ARC
8
Black
10
335
20
-140.989
40
0.05
50
333.435
51
513.435
0
ARC
8
Black
10
320
20
-170.989
40
0.05
50
153.435
51
333.435
0
LINE
8
Black
10
319.955
20
-176.011
11
334.955
21
-206.011
0
LINE
8
Black
10
320.045
20
-175.967
11
335.045
21
-205.967
0
ARC
8
Black
10
335
20
-205.989
40
0.05
50
206.565
51
386.565
0
ARC
8
Black
10
320
20
-175.989
40
0.05
50
26.5651
51
206.565
0
LINE
8
Black
10
320.045
20
-206.011
11
335.045
21
-176.011
0
LINE
8
Black
10
319.955
20
-205.967
11
334.955
21
-175.967
0
ARC
8
Black
10
335
20
-175.989
40
0.05
50
333.435
51
513.435
0
ARC
8
Black
10
320
20
-205.989
40
0.05
50
153.435
51
333.435
0
LINE
8
Black
10
319.955
20
-211.011
11
334.955
21
-241.011
0
LINE
8
Black
10
320.045
20
-210.967
11
335.045
21
-240.967
0
ARC
8
Black
10
335
20
-240.989
40
0.05
50
206.565
51
386.565
0
ARC
8
Black
10
320
20
-210.989
40
0.05
50
26.5651
51
206.565
0
LINE
8
Black
10
320.045
20
-241.011
11
335.045
21
-211.011
0
LINE
8
Black
10
319.955
20
-240.967
11
334.955
21
-210.967
0
ARC
8
Black
10
335
20
-210.989
40
0.05
50
333.435
51
513.435
0
ARC
8
Black
10
320
20
-240.989
40
0.05
50
153.435
51
333.435
0
LINE
8
Black
10
319.955
20
-246.011
11
334.955
21
-276.011
0
LINE
8
Black
10
320.045
20
-245.967
11
335.045
21
-275.967
0
ARC
8
Black
10
335
20
-275.989
40
0.05
50
206.565
51
386.565
0
ARC
8
Black
10
320
20
-245.989
40
0.05
50
26.5651
51
206.565
0
LINE
8
Black
10
320.045
20
-276.011
11
335.045
21
-246.011
0
LINE
8
Black
10
319.955
20
-275.967
11
334.955
21
-245.967
0
ARC
8
Black
10
335
20
-245.989
40
0.05
50
333.435
51
513.435
0
ARC
8
Black
10
320
20
-275.989
40
0.05
50
153.435
51
333.435
0
LINE
8
Black
10
319.955
20
-281.011
11
334.955
21
-311.011
0
LINE
8
Black
10
320.045
20
-280.967
11
335.045
21
-310.967
0
ARC
8
Black
10
335
20
-310.989
40
0.05
50
206.565
51
386.565
0
ARC
8
Black
10
320
20
-280.989
40
0.05
50
26.5651
51
206.565
0
LINE
8
Black
10
320.045
20
-311.011
11
335.045
21
-281.011
0
LINE
8
Black
10
319.955
20
-310.967
11
334.955
21
-280.967
0
ARC
8
Black
10
335
20
-280.989
40
0.05
50
333.435
51
513.435
0
ARC
8
Black
10
320
20
-310.989
40
0.05
50
153.435
51
333.435
0
LINE
8
Black
10
319.955
20
-316.011
11
334.955
21
-346.011
0
LINE
8
Black
10
320.045
20
-315.967
11
335.045
21
-345.967
0
ARC
8
Black
10
335
20
-345.989
40
0.05
50
206.565
51
386.565
0
ARC
8
Black
10
320
20
-315.989
40
0.05
50
26.5651
51
206.565
0
LINE
8
Black
10
320.045
20
-346.011
11
335.045
21
-316.011
0
LINE
8
Black
10
319.955
20
-345.967
11
334.955
21
-315.967
0
ARC
8
Black
10
335
20
-315.989
40
0.05
50
333.435
51
513.435
0
ARC
8
Black
10
320
20
-345.989
40
0.05
50
153.435
51
333.435
0
LINE
8
Black
10
299.955
20
-71.0114
11
314.955
21
-101.011
0
LINE
8
Black
10
300.045
20
-70.9666
11
315.045
21
-100.967
0
ARC
8
Black
10
315
20
-100.989
40
0.05
50
206.565
51
386.565
0
ARC
8
Black
10
300
20
-70.989
40
0.05
50
26.5651
51
206.565
0
LINE
8
Black
10
300.045
20
-101.011
11
315.045
21
-71.0114
0
LINE
8
Black
10
299.955
20
-100.967
11
314.955
21
-70.9666
0
ARC
8
Black
10
315
20
-70.989
40
0.05
50
333.435
51
513.435
0
ARC
8
Black
10
300
20
-100.989
40
0.05
50
153.435
51
333.435
0
LINE
8
Black
10
299.955
20
-106.011
11
314.955
21
-136.011
0
LINE
8
Black
10
300.045
20
-105.967
11
315.045
21
-135.967
0
ARC
8
Black
10
315
20
-135.989
40
0.05
50
206.565
51
386.565
0
ARC
8
Black
10
300
20
-105.989
40
0.05
50
26.5651
51
206.565
0
LINE
8
Black
10
300.045
20
-136.011
11
315.045
21
-106.011
0
LINE
8
Black
10
299.955
20
-135.967
11
314.955
21
-105.967
0
ARC
8
Black
10
315
20
-105.989
40
0.05
50
333.435
51
513.435
0
ARC
8
Black
10
300
20
-135.989
40
0.05
50
153.435
51
333.435
0
LINE
8
Black
10
299.955
20
-141.011
11
314.955
21
-171.011
0
LINE
8
Black
10
300.045
20
-140.967
11
315.045
21
-170.967
0
ARC
8
Black
10
315
20
-170.989
40
0.05
50
206.565
51
386.565
0
ARC
8
Black
10
300
20
-140.989
40
0.05
50
26.5651
51
206.565
0
LINE
8
Black
10
300.045
20
-171.011
11
315.045
21
-141.011
0
LINE
8
Black
10
299.955
20
-170.967
11
314.955
21
-140.967
0
ARC
8
Black
10
315
20
-140.989
40
0.05
50
333.435
51
513.435
0
ARC
8
Black
10
300
20
-170.989
40
0.05
50
153.435
51
333.435
0
LINE
8
Black
10
299.955
20
-176.011
11
314.955
21
-206.011
0
LINE
8
Black
10
300.045
20
-175.967
11
315.045
21
-205.967
0
ARC
8
Black
10
315
20
-205.989
40
0.05
50
206.565
51
386.565
0
ARC
8
Black
10
300
20
-175.989
40
0.05
50
26.5651
51
206.565
0
LINE
8
Black
10
300.045
20
-206.011
11
315.045
21
-176.011
0
LINE
8
Black
10
299.955
20
-205.967
11
314.955
21
-175.967
0
ARC
8
Black
10
315
20
-175.989
40
0.05
50
333.435
51
513.435
0
ARC
8
Black
10
300
20
-205.989
40
0.05
50
153.435
51
333.435
0
LINE
8
Black
10
299.955
20
-211.011
11
314.955
21
-241.011
0
LINE
8
Black
10
300.045
20
-210.967
11
315.045
21
-240.967
0
ARC
8
Black
10
315
20
-240.989
40
0.05
50
206.565
51
386.565
0
ARC
8
Black
10
300
20
-210.989
40
0.05
50
26.5651
51
206.565
0
LINE
8
Black
10
300.045
20
-241.011
11
315.045
21
-211.011
0
LINE
8
Black
10
299.955
20
-240.967
11
314.955
21
-210.967
0
ARC
8
Black
10
315
20
-210.989
40
0.05
50
333.435
51
513.435
0
ARC
8
Black
10
300
20
-240.989
40
0.05
50
153.435
51
333.435
0
LINE
8
Black
10
299.955
20
-246.011
11
314.955
21
-276.011
0
LINE
8
Black
10
300.045
20
-245.967
11
315.045
21
-275.967
0
ARC
8
Black
10
315
20
-275.989
40
0.05
50
206.565
51
386.565
0
ARC
8
Black
10
300
20
-245.989
40
0.05
50
26.5651
51
206.565
0
LINE
8
Black
10
300.045
20
-276.011
11
315.045
21
-246.011
0
LINE
8
Black
10
299.955
20
-275.967
11
314.955
21
-245.967
0
ARC
8
Black
10
315
20
-245.989
40
0.05
50
333.435
51
513.435
0
ARC
8
Black
10
300
20
-275.989
40
0.05
50
153.435
51
333.435
0
LINE
8
Black
10
299.955
20
-281.011
11
314.955
21
-311.011
0
LINE
8
Black
10
300.045
20
-280.967
11
315.045
21
-310.967
0
ARC
8
Black
10
315
20
-310.989
40
0.05
50
206.565
51
386.565
0
ARC
8
Black
10
300
20
-280.989
40
0.05
50
26.5651
51
206.565
0
LINE
8
Black
10
300.045
20
-311.011
11
315.045
21
-281.011
0
LINE
8
Black
10
299.955
20
-310.967
11
314.955
21
-280.967
0
ARC
8
Black
10
315
20
-280.989
40
0.05
50
333.435
51
513.435
0
ARC
8
Black
10
300
20
-310.989
40
0.05
50
153.435
51
333.435
0
LINE
8
Black
10
299.955
20
-316.011
11
314.955
21
-346.011
0
LINE
8
Black
10
300.045
20
-315.967
11
315.045
21
-345.967
0
ARC
8
Black
10
315
20
-345.989
40
0.05
50
206.565
51
386.565
0
ARC
8
Black
10
300
20
-315.989
40
0.05
50
26.5651
51
206.565
0
LINE
8
Black
10
300.045
20
-346.011
11
315.045
21
-316.011
0
LINE
8
Black
10
299.955
20
-345.967
11
314.955
21
-315.967
0
ARC
8
Black
10
315
20
-315.989
40
0.05
50
333.435
51
513.435
0
ARC
8
Black
10
300
20
-345.989
40
0.05
50
153.435
51
333.435
0
LINE
8
Black
10
279.955
20
-71.0114
11
294.955
21
-101.011
0
LINE
8
Black
10
280.045
20
-70.9666
11
295.045
21
-100.967
0
ARC
8
Black
10
295
20
-100.989
40
0.05
50
206.565
51
386.565
0
ARC
8
Black
10
280
20
-70.989
40
0.05
50
26.5651
51
206.565
0
LINE
8
Black
10
280.045
20
-101.011
11
295.045
21
-71.0114
0
LINE
8
Black
10
279.955
20
-100.967
11
294.955
21
-70.9666
0
ARC
8
Black
10
295
20
-70.989
40
0.05
50
333.435
51
513.435
0
ARC
8
Black
10
280
20
-100.989
40
0.05
50
153.435
51
333.435
0
LINE
8
Black
10
279.955
20
-106.011
11
294.955
21
-136.011
0
LINE
8
Black
10
280.045
20
-105.967
11
295.045
21
-135.967
0
ARC
8
Black
10
295
20
-135.989
40
0.05
50
206.565
51
386.565
0
ARC
8
Black
10
280
20
-105.989
40
0.05
50
26.5651
51
206.565
0
LINE
8
Black
10
280.045
20
-136.011
11
295.045
21
-106.011
0
LINE
8
Black
10
279.955
20
-135.967
11
294.955
21
-105.967
0
ARC
8
Black
10
295
20
-105.989
40
0.05
50
333.435
51
513.435
0
ARC
8
Black
10
280
20
-135.989
40
0.05
50
153.435
51
333.435
0
LINE
8
Black
10
279.955
20
-141.011
11
294.955
21
-171.011
0
LINE
8
Black
10
280.045
20
-140.967
11
295.045
21
-170.967
0
ARC
8
Black
10
295
20
-170.989
40
0.05
50
206.565
51
386.565
0
ARC
8
Black
10
280
20
-140.989
40
0.05
50
26.5651
51
206.565
0
LINE
8
Black
10
280.045
20
-171.011
11
295.045
21
-141.011
0
LINE
8
Black
10
279.955
20
-170.967
11
294.955
21
-140.967
0
ARC
8
Black
10
295
20
-140.989
40
0.05
50
333.435
51
513.435
0
ARC
8
Black
10
280
20
-170.989
40
0.05
50
153.435
51
333.435
0
LINE
8
Black
10
279.955
20
-176.011
11
294.955
21
-206.011
0
LINE
8
Black
10
280.045
20
-175.967
11
295.045
21
-205.967
0
ARC
8
Black
10
295
20
-205.989
40
0.05
50
206.565
51
386.565
0
ARC
8
Black
10
280
20
-175.989
40
0.05
50
26.5651
51
206.565
0
LINE
8
Black
10
280.045
20
-206.011
11
295.045
21
-176.011
0
LINE
8
Black
10
279.955
20
-205.967
11
294.955
21
-175.967
0
ARC
8
Black
10
295
20
-175.989
40
0.05
50
333.435
51
513.435
0
ARC
8
Black
10
280
20
-205.989
40
0.05
50
153.435
51
333.435
0
LINE
8
Black
10
279.955
20
-211.011
11
294.955
21
-241.011
0
LINE
8
Black
10
280.045
20
-210.967
11
295.045
21
-240.967
0
ARC
8
Black
10
295
20
-240.989
40
0.05
50
206.565
51
386.565
0
ARC
8
Black
10
280
20
-210.989
40
0.05
50
26.5651
51
206.565
0
LINE
8
Black
10
280.045
20
-241.011
11
295.045
21
-211.011
0
LINE
8
Black
10
279.955
20
-240.967
11
294.955
21
-210.967
0
ARC
8
Black
10
295
20
-210.989
40
0.05
50
333.435
51
513.435
0
ARC
8
Black
10
280
20
-240.989
40
0.05
50
153.435
51
333.435
0
LINE
8
Black
10
279.955
20
-246.011
11
294.955
21
-276.011
0
LINE
8
Black
10
280.045
20
-245.967
11
295.045
21
-275.967
0
ARC
8
Black
10
295
20
-275.989
40
0.05
50
206.565
51
386.565
0
ARC
8
Black
10
280
20
-245.989
40
0.05
50
26.5651
51
206.565
0
LINE
8
Black
10
280.045
20
-276.011
11
295.045
21
-246.011
0
LINE
8
Black
10
279.955
20
-275.967
11
294.955
21
-245.967
0
ARC
8
Black
10
295
20
-245.989
40
0.05
50
333.435
51
513.435
0
ARC
8
Black
10
280
20
-275.989
40
0.05
50
153.435
51
333.435
0
LINE
8
Black
10
279.955
20
-281.011
11
294.955
21
-311.011
0
LINE
8
Black
10
280.045
20
-280.967
11
295.045
21
-310.967
0
ARC
8
Black
10
295
20
-310.989
40
0.05
50
206.565
51
386.565
0
ARC
8
Black
10
280
20
-280.989
40
0.05
50
26.5651
51
206.565
0
LINE
8
Black
10
280.045
20
-311.011
11
295.045
21
-281.011
0
LINE
8
Black
10
279.955
20
-310.967
11
294.955
21
-280.967
0
ARC
8
Black
10
295
20
-280.989
40
0.05
50
333.435
51
513.435
0
ARC
8
Black
10
280
20
-310.989
40
0.05
50
153.435
51
333.435
0
LINE
8
Black
10
279.955
20
-316.011
11
294.955
21
-346.011
0
LINE
8
Black
10
280.045
20
-315.967
11
295.045
21
-345.967
0
ARC
8
Black
10
295
20
-345.989
40
0.05
50
206.565
51
386.565
0
ARC
8
Black
10
280
20
-315.989
40
0.05
50
26.5651
51
206.565
0
LINE
8
Black
10
280.045
20
-346.011
11
295.045
21
-316.011
0
LINE
8
Black
10
279.955
20
-345.967
11
294.955
21
-315.967
0
ARC
8
Black
10
295
20
-315.989
40
0.05
50
333.435
51
513.435
0
ARC
8
Black
10
280
20
-345.989
40
0.05
50
153.435
51
333.435
0
LINE
8
Black
10
259.955
20
-71.0114
11
274.955
21
-101.011
0
LINE
8
Black
10
260.045
20
-70.9666
11
275.045
21
-100.967
0
ARC
8
Black
10
275
20
-100.989
40
0.05
50
206.565
51
386.565
0
ARC
8
Black
10
260
20
-70.989
40
0.05
50
26.5651
51
206.565
0
LINE
8
Black
10
260.045
20
-101.011
11
275.045
21
-71.0114
0
LINE
8
Black
10
259.955
20
-100.967
11
274.955
21
-70.9666
0
ARC
8
Black
10
275
20
-70.989
40
0.05
50
333.435
51
513.435
0
ARC
8
Black
10
260
20
-100.989
40
0.05
50
153.435
51
333.435
0
LINE
8
Black
10
259.955
20
-106.011
11
274.955
21
-136.011
0
LINE
8
Black
10
260.045
20
-105.967
11
275.045
21
-135.967
0
ARC
8
Black
10
275
20
-135.989
40
0.05
50
206.565
51
386.565
0
ARC
8
Black
10
260
20
-105.989
40
0.05
50
26.5651
51
206.565
0
LINE
8
Black
10
260.045
20
-136.011
11
275.045
21
-106.011
0
LINE
8
Black
10
259.955
20
-135.967
11
274.955
21
-105.967
0
ARC
8
Black
10
275
20
-105.989
40
0.05
50
333.435
51
513.435
0
ARC
8
Black
10
260
20
-135.989
40
0.05
50
153.435
51
333.435
0
LINE
8
Black
10
259.955
20
-141.011
11
274.955
21
-171.011
0
LINE
8
Black
10
260.045
20
-140.967
11
275.045
21
-170.967
0
ARC
8
Black
10
275
20
-170.989
40
0.05
50
206.565
51
386.565
0
ARC
8
Black
10
260
20
-140.989
40
0.05
50
26.5651
51
206.565
0
LINE
8
Black
10
260.045
20
-171.011
11
275.045
21
-141.011
0
LINE
8
Black
10
259.955
20
-170.967
11
274.955
21
-140.967
0
ARC
8
Black
10
275
20
-140.989
40
0.05
50
333.435
51
513.435
0
ARC
8
Black
10
260
20
-170.989
40
0.05
50
153.435
51
333.435
0
LINE
8
Black
10
259.955
20
-176.011
11
274.955
21
-206.011
0
LINE
8
Black
10
260.045
20
-175.967
11
275.045
21
-205.967
0
ARC
8
Black
10
275
20
-205.989
40
0.05
50
206.565
51
386.565
0
ARC
8
Black
10
260
20
-175.989
40
0.05
50
26.5651
51
206.565
0
LINE
8
Black
10
260.045
20
-206.011
11
275.045
21
-176.011
0
LINE
8
Black
10
259.955
20
-205.967
11
274.955
21
-175.967
0
ARC
8
Black
10
275
20
-175.989
40
0.05
50
333.435
51
513.435
0
ARC
8
Black
10
260
20
-205.989
40
0.05
50
153.435
51
333.435
0
LINE
8
Black
10
259.955
20
-211.011
11
274.955
21
-241.011
0
LINE
8
Black
10
260.045
20
-210.967
11
275.045
21
-240.967
0
ARC
8
Black
10
275
20
-240.989
40
0.05
50
206.565
51
386.565
0
ARC
8
Black
10
260
20
-210.989
40
0.05
50
26.5651
51
206.565
0
LINE
8
Black
10
260.045
20
-241.011
11
275.045
21
-211.011
0
LINE
8
Black
10
259.955
20
-240.967
11
274.955
21
-210.967
0
ARC
8
Black
10
275
20
-210.989
40
0.05
50
333.435
51
513.435
0
ARC
8
Black
10
260
20
-240.989
40
0.05
50
153.435
51
333.435
0
LINE
8
Black
10
259.955
20
-246.011
11
274.955
21
-276.011
0
LINE
8
Black
10
260.045
20
-245.967
11
275.045
21
-275.967
0
ARC
8
Black
10
275
20
-275.989
40
0.05
50
206.565
51
386.565
0
ARC
8
Black
10
260
20
-245.989
40
0.05
50
26.5651
51
206.565
0
LINE
8
Black
10
260.045
20
-276.011
11
275.045
21
-246.011
0
LINE
8
Black
10
259.955
20
-275.967
11
274.955
21
-245.967
0
ARC
8
Black
10
275
20
-245.989
40
0.05
50
333.435
51
513.435
0
ARC
8
Black
10
260
20
-275.989
40
0.05
50
153.435
51
333.435
0
LINE
8
Black
10
259.955
20
-281.011
11
274.955
21
-311.011
0
LINE
8
Black
10
260.045
20
-280.967
11
275.045
21
-310.967
0
ARC
8
Black
10
275
20
-310.989
40
0.05
50
206.565
51
386.565
0
ARC
8
Black
10
260
20
-280.989
40
0.05
50
26.5651
51
206.565
0
LINE
8
Black
10
260.045
20
-311.011
11
275.045
21
-281.011
0
LINE
8
Black
10
259.955
20
-310.967
11
274.955
21
-280.967
0
ARC
8
Black
10
275
20
-280.989
40
0.05
50
333.435
51
513.435
0
ARC
8
Black
10
260
20
-310.989
40
0.05
50
153.435
51
333.435
0
LINE
8
Black
10
259.955
20
-316.011
11
274.955
21
-346.011
0
LINE
8
Black
10
260.045
20
-315.967
11
275.045
21
-345.967
0
ARC
8
Black
10
275
20
-345.989
40
0.05
50
206.565
51
386.565
0
ARC
8
Black
10
260
20
-315.989
40
0.05
50
26.5651
51
206.565
0
LINE
8
Black
10
260.045
20
-346.011
11
275.045
21
-316.011
0
LINE
8
Black
10
259.955
20
-345.967
11
274.955
21
-315.967
0
ARC
8
Black
10
275
20
-315.989
40
0.05
50
333.435
51
513.435
0
ARC
8
Black
10
260
20
-345.989
40
0.05
50
153.435
51
333.435
0
LINE
8
Black
10
239.955
20
-71.0114
11
254.955
21
-101.011
0
LINE
8
Black
10
240.045
20
-70.9666
11
255.045
21
-100.967
0
ARC
8
Black
10
255
20
-100.989
40
0.05
50
206.565
51
386.565
0
ARC
8
Black
10
240
20
-70.989
40
0.05
50
26.5651
51
206.565
0
LINE
8
Black
10
240.045
20
-101.011
11
255.045
21
-71.0114
0
LINE
8
Black
10
239.955
20
-100.967
11
254.955
21
-70.9666
0
ARC
8
Black
10
255
20
-70.989
40
0.05
50
333.435
51
513.435
0
ARC
8
Black
10
240
20
-100.989
40
0.05
50
153.435
51
333.435
0
LINE
8
Black
10
239.955
20
-106.011
11
254.955
21
-136.011
0
LINE
8
Black
10
240.045
20
-105.967
11
255.045
21
-135.967
0
ARC
8
Black
10
255
20
-135.989
40
0.05
50
206.565
51
386.565
0
ARC
8
Black
10
240
20
-105.989
40
0.05
50
26.5651
51
206.565
0
LINE
8
Black
10
240.045
20
-136.011
11
255.045
21
-106.011
0
LINE
8
Black
10
239.955
20
-135.967
11
254.955
21
-105.967
0
ARC
8
Black
10
255
20
-105.989
40
0.05
50
333.435
51
513.435
0
ARC
8
Black
10
240
20
-135.989
40
0.05
50
153.435
51
333.435
0
LINE
8
Black
10
239.955
20
-141.011
11
254.955
21
-171.011
0
LINE
8
Black
10
240.045
20
-140.967
11
255.045
21
-170.967
0
ARC
8
Black
10
255
20
-170.989
40
0.05
50
206.565
51
386.565
0
ARC
8
Black
10
240
20
-140.989
40
0.05
50
26.5651
51
206.565
0
LINE
8
Black
10
240.045
20
-171.011
11
255.045
21
-141.011
0
LINE
8
Black
10
239.955
20
-170.967
11
254.955
21
-140.967
0
ARC
8
Black
10
255
20
-140.989
40
0.05
50
333.435
51
513.435
0
ARC
8
Black
10
240
20
-170.989
40
0.05
50
153.435
51
333.435
0
LINE
8
Black
10
239.955
20
-176.011
11
254.955
21
-206.011
0
LINE
8
Black
10
240.045
20
-175.967
11
255.045
21
-205.967
0
ARC
8
Black
10
255
20
-205.989
40
0.05
50
206.565
51
386.565
0
ARC
8
Black
10
240
20
-175.989
40
0.05
50
26.5651
51
206.565
0
LINE
8
Black
10
240.045
20
-206.011
11
255.045
21
-176.011
0
LINE
8
Black
10
239.955
20
-205.967
11
254.955
21
-175.967
0
ARC
8
Black
10
255
20
-175.989
40
0.05
50
333.435
51
513.435
0
ARC
8
Black
10
240
20
-205.989
40
0.05
50
153.435
51
333.435
0
LINE
8
Black
10
239.955
20
-211.011
11
254.955
21
-241.011
0
LINE
8
Black
10
240.045
20
-210.967
11
255.045
21
-240.967
0
ARC
8
Black
10
255
20
-240.989
40
0.05
50
206.565
51
386.565
0
ARC
8
Black
10
240
20
-210.989
40
0.05
50
26.5651
51
206.565
0
LINE
8
Black
10
240.045
20
-241.011
11
255.045
21
-211.011
0
LINE
8
Black
10
239.955
20
-240.967
11
254.955
21
-210.967
0
ARC
8
Black
10
255
20
-210.989
40
0.05
50
333.435
51
513.435
0
ARC
8
Black
10
240
20
-240.989
40
0.05
50
153.435
51
333.435
0
LINE
8
Black
10
239.955
20
-246.011
11
254.955
21
-276.011
0
LINE
8
Black
10
240.045
20
-245.967
11
255.045
21
-275.967
0
ARC
8
Black
10
255
20
-275.989
40
0.05
50
206.565
51
386.565
0
ARC
8
Black
10
240
20
-245.989
40
0.05
50
26.5651
51
206.565
0
LINE
8
Black
10
240.045
20
-276.011
11
255.045
21
-246.011
0
LINE
8
Black
10
239.955
20
-275.967
11
254.955
21
-245.967
0
ARC
8
Black
10
255
20
-245.989
40
0.05
50
333.435
51
513.435
0
ARC
8
Black
10
240
20
-275.989
40
0.05
50
153.435
51
333.435
0
LINE
8
Black
10
239.955
20
-281.011
11
254.955
21
-311.011
0
LINE
8
Black
10
240.045
20
-280.967
11
255.045
21
-310.967
0
ARC
8
Black
10
255
20
-310.989
40
0.05
50
206.565
51
386.565
0
ARC
8
Black
10
240
20
-280.989
40
0.05
50
26.5651
51
206.565
0
LINE
8
Black
10
240.045
20
-311.011
11
255.045
21
-281.011
0
LINE
8
Black
10
239.955
20
-310.967
11
254.955
21
-280.967
0
ARC
8
Black
10
255
20
-280.989
40
0.05
50
333.435
51
513.435
0
ARC
8
Black
10
240
20
-310.989
40
0.05
50
153.435
51
333.435
0
LINE
8
Black
10
239.955
20
-316.011
11
254.955
21
-346.011
0
LINE
8
Black
10
240.045
20
-315.967
11
255.045
21
-345.967
0
ARC
8
Black
10
255
20
-345.989
40
0.05
50
206.565
51
386.565
0
ARC
8
Black
10
240
20
-315.989
40
0.05
50
26.5651
51
206.565
0
LINE
8
Black
10
240.045
20
-346.011
11
255.045
21
-316.011
0
LINE
8
Black
10
239.955
20
-345.967
11
254.955
21
-315.967
0
ARC
8
Black
10
255
20
-315.989
40
0.05
50
333.435
51
513.435
0
ARC
8
Black
10
240
20
-345.989
40
0.05
50
153.435
51
333.435
0
LINE
8
Black
10
219.955
20
-71.0114
11
234.955
21
-101.011
0
LINE
8
Black
10
220.045
20
-70.9666
11
235.045
21
-100.967
0
ARC
8
Black
10
235
20
-100.989
40
0.05
50
206.565
51
386.565
0
ARC
8
Black
10
220
20
-70.989
40
0.05
50
26.5651
51
206.565
0
LINE
8
Black
10
220.045
20
-101.011
11
235.045
21
-71.0114
0
LINE
8
Black
10
219.955
20
-100.967
11
234.955
21
-70.9666
0
ARC
8
Black
10
235
20
-70.989
40
0.05
50
333.435
51
513.435
0
ARC
8
Black
10
220
20
-100.989
40
0.05
50
153.435
51
333.435
0
LINE
8
Black
10
219.955
20
-106.011
11
234.955
21
-136.011
0
LINE
8
Black
10
220.045
20
-105.967
11
235.045
21
-135.967
0
ARC
8
Black
10
235
20
-135.989
40
0.05
50
206.565
51
386.565
0
ARC
8
Black
10
220
20
-105.989
40
0.05
50
26.5651
51
206.565
0
LINE
8
Black
10
220.045
20
-136.011
11
235.045
21
-106.011
0
LINE
8
Black
10
219.955
20
-135.967
11
234.955
21
-105.967
0
ARC
8
Black
10
235
20
-105.989
40
0.05
50
333.435
51
513.435
0
ARC
8
Black
10
220
20
-135.989
40
0.05
50
153.435
51
333.435
0
LINE
8
Black
10
219.955
20
-141.011
11
234.955
21
-171.011
0
LINE
8
Black
10
220.045
20
-140.967
11
235.045
21
-170.967
0
ARC
8
Black
10
235
20
-170.989
40
0.05
50
206.565
51
386.565
0
ARC
8
Black
10
220
20
-140.989
40
0.05
50
26.5651
51
206.565
0
LINE
8
Black
10
220.045
20
-171.011
11
235.045
21
-141.011
0
LINE
8
Black
10
219.955
20
-170.967
11
234.955
21
-140.967
0
ARC
8
Black
10
235
20
-140.989
40
0.05
50
333.435
51
513.435
0
ARC
8
Black
10
220
20
-170.989
40
0.05
50
153.435
51
333.435
0
LINE
8
Black
10
219.955
20
-176.011
11
234.955
21
-206.011
0
LINE
8
Black
10
220.045
20
-175.967
11
235.045
21
-205.967
0
ARC
8
Black
10
235
20
-205.989
40
0.05
50
206.565
51
386.565
0
ARC
8
Black
10
220
20
-175.989
40
0.05
50
26.5651
51
206.565
0
LINE
8
Black
10
220.045
20
-206.011
11
235.045
21
-176.011
0
LINE
8
Black
10
219.955
20
-205.967
11
234.955
21
-175.967
0
ARC
8
Black
10
235
20
-175.989
40
0.05
50
333.435
51
513.435
0
ARC
8
Black
10
220
20
-205.989
40
0.05
50
153.435
51
333.435
0
LINE
8
Black
10
219.955
20
-211.011
11
234.955
21
-241.011
0
LINE
8
Black
10
220.045
20
-210.967
11
235.045
21
-240.967
0
ARC
8
Black
10
235
20
-240.989
40
0.05
50
206.565
51
386.565
0
ARC
8
Black
10
220
20
-210.989
40
0.05
50
26.5651
51
206.565
0
LINE
8
Black
10
220.045
20
-241.011
11
235.045
21
-211.011
0
LINE
8
Black
10
219.955
20
-240.967
11
234.955
21
-210.967
0
ARC
8
Black
10
235
20
-210.989
40
0.05
50
333.435
51
513.435
0
ARC
8
Black
10
220
20
-240.989
40
0.05
50
153.435
51
333.435
0
LINE
8
Black
10
219.955
20
-246.011
11
234.955
21
-276.011
0
LINE
8
Black
10
220.045
20
-245.967
11
235.045
21
-275.967
0
ARC
8
Black
10
235
20
-275.989
40
0.05
50
206.565
51
386.565
0
ARC
8
Black
10
220
20
-245.989
40
0.05
50
26.5651
51
206.565
0
LINE
8
Black
10
220.045
20
-276.011
11
235.045
21
-246.011
0
LINE
8
Black
10
219.955
20
-275.967
11
234.955
21
-245.967
0
ARC
8
Black
10
235
20
-245.989
40
0.05
50
333.435
51
513.435
0
ARC
8
Black
10
220
20
-275.989
40
0.05
50
153.435
51
333.435
0
LINE
8
Black
10
219.955
20
-281.011
11
234.955
21
-311.011
0
LINE
8
Black
10
220.045
20
-280.967
11
235.045
21
-310.967
0
ARC
8
Black
10
235
20
-310.989
40
0.05
50
206.565
51
386.565
0
ARC
8
Black
10
220
20
-280.989
40
0.05
50
26.5651
51
206.565
0
LINE
8
Black
10
220.045
20
-311.011
11
235.045
21
-281.011
0
LINE
8
Black
10
219.955
20
-310.967
11
234.955
21
-280.967
0
ARC
8
Black
10
235
20
-280.989
40
0.05
50
333.435
51
513.435
0
ARC
8
Black
10
220
20
-310.989
40
0.05
50
153.435
51
333.435
0
LINE
8
Black
10
219.955
20
-316.011
11
234.955
21
-346.011
0
LINE
8
Black
10
220.045
20
-315.967
11
235.045
21
-345.967
0
ARC
8
Black
10
235
20
-345.989
40
0.05
50
206.565
51
386.565
0
ARC
8
Black
10
220
20
-315.989
40
0.05
50
26.5651
51
206.565
0
LINE
8
Black
10
220.045
20
-346.011
11
235.045
21
-316.011
0
LINE
8
Black
10
219.955
20
-345.967
11
234.955
21
-315.967
0
ARC
8
Black
10
235
20
-315.989
40
0.05
50
333.435
51
513.435
0
ARC
8
Black
10
220
20
-345.989
40
0.05
50
153.435
51
333.435
0
LINE
8
Black
10
199.955
20
-71.0114
11
214.955
21
-101.011
0
LINE
8
Black
10
200.045
20
-70.9666
11
215.045
21
-100.967
0
ARC
8
Black
10
215
20
-100.989
40
0.05
50
206.565
51
386.565
0
ARC
8
Black
10
200
20
-70.989
40
0.05
50
26.5651
51
206.565
0
LINE
8
Black
10
200.045
20
-101.011
11
215.045
21
-71.0114
0
LINE
8
Black
10
199.955
20
-100.967
11
214.955
21
-70.9666
0
ARC
8
Black
10
215
20
-70.989
40
0.05
50
333.435
51
513.435
0
ARC
8
Black
10
200
20
-100.989
40
0.05
50
153.435
51
333.435
0
LINE
8
Black
10
199.955
20
-106.011
11
214.955
21
-136.011
0
LINE
8
Black
10
200.045
20
-105.967
11
215.045
21
-135.967
0
ARC
8
Black
10
215
20
-135.989
40
0.05
50
206.565
51
386.565
0
ARC
8
Black
10
200
20
-105.989
40
0.05
50
26.5651
51
206.565
0
LINE
8
Black
10
200.045
20
-136.011
11
215.045
21
-106.011
0
LINE
8
Black
10
199.955
20
-135.967
11
214.955
21
-105.967
0
ARC
8
Black
10
215
20
-105.989
40
0.05
50
333.435
51
513.435
0
ARC
8
Black
10
200
20
-135.989
40
0.05
50
153.435
51
333.435
0
LINE
8
Black
10
199.955
20
-141.011
11
214.955
21
-171.011
0
LINE
8
Black
10
200.045
20
-140.967
11
215.045
21
-170.967
0
ARC
8
Black
10
215
20
-170.989
40
0.05
50
206.565
51
386.565
0
ARC
8
Black
10
200
20
-140.989
40
0.05
50
26.5651
51
206.565
0
LINE
8
Black
10
200.045
20
-171.011
11
215.045
21
-141.011
0
LINE
8
Black
10
199.955
20
-170.967
11
214.955
21
-140.967
0
ARC
8
Black
10
215
20
-140.989
40
0.05
50
333.435
51
513.435
0
ARC
8
Black
10
200
20
-170.989
40
0.05
50
153.435
51
333.435
0
LINE
8
Black
10
199.955
20
-176.011
11
214.955
21
-206.011
0
LINE
8
Black
10
200.045
20
-175.967
11
215.045
21
-205.967
0
ARC
8
Black
10
215
20
-205.989
40
0.05
50
206.565
51
386.565
0
ARC
8
Black
10
200
20
-175.989
40
0.05
50
26.5651
51
206.565
0
LINE
8
Black
10
200.045
20
-206.011
11
215.045
21
-176.011
0
LINE
8
Black
10
199.955
20
-205.967
11
214.955
21
-175.967
0
ARC
8
Black
10
215
20
-175.989
40
0.05
50
333.435
51
513.435
0
ARC
8
Black
10
200
20
-205.989
40
0.05
50
153.435
51
333.435
0
LINE
8
Black
10
199.955
20
-211.011
11
214.955
21
-241.011
0
LINE
8
Black
10
200.045
20
-210.967
11
215.045
21
-240.967
0
ARC
8
Black
10
215
20
-240.989
40
0.05
50
206.565
51
386.565
0
ARC
8
Black
10
200
20
-210.989
40
0.05
50
26.5651
51
206.565
0
LINE
8
Black
10
200.045
20
-241.011
11
215.045
21
-211.011
0
LINE
8
Black
10
199.955
20
-240.967
11
214.955
21
-210.967
0
ARC
8
Black
10
215
20
-210.989
40
0.05
50
333.435
51
513.435
0
ARC
8
Black
10
200
20
-240.989
40
0.05
50
153.435
51
333.435
0
LINE
8
Black
10
199.955
20
-246.011
11
214.955
21
-276.011
0
LINE
8
Black
10
200.045
20
-245.967
11
215.045
21
-275.967
0
ARC
8
Black
10
215
20
-275.989
40
0.05
50
206.565
51
386.565
0
ARC
8
Black
10
200
20
-245.989
40
0.05
50
26.5651
51
206.565
0
LINE
8
Black
10
200.045
20
-276.011
11
215.045
21
-246.011
0
LINE
8
Black
10
199.955
20
-275.967
11
214.955
21
-245.967
0
ARC
8
Black
10
215
20
-245.989
40
0.05
50
333.435
51
513.435
0
ARC
8
Black
10
200
20
-275.989
40
0.05
50
153.435
51
333.435
0
LINE
8
Black
10
199.955
20
-281.011
11
214.955
21
-311.011
0
LINE
8
Black
10
200.045
20
-280.967
11
215.045
21
-310.967
0
ARC
8
Black
10
215
20
-310.989
40
0.05
50
206.565
51
386.565
0
ARC
8
Black
10
200
20
-280.989
40
0.05
50
26.5651
51
206.565
0
LINE
8
Black
10
200.045
20
-311.011
11
215.045
21
-281.011
0
LINE
8
Black
10
199.955
20
-310.967
11
214.955
21
-280.967
0
ARC
8
Black
10
215
20
-280.989
40
0.05
50
333.435
51
513.435
0
ARC
8
Black
10
200
20
-310.989
40
0.05
50
153.435
51
333.435
0
LINE
8
Black
10
199.955
20
-316.011
11
214.955
21
-346.011
0
LINE
8
Black
10
200.045
20
-315.967
11
215.045
21
-345.967
0
ARC
8
Black
10
215
20
-345.989
40
0.05
50
206.565
51
386.565
0
ARC
8
Black
10
200
20
-315.989
40
0.05
50
26.5651
51
206.565
0
LINE
8
Black
10
200.045
20
-346.011
11
215.045
21
-316.011
0
LINE
8
Black
10
199.955
20
-345.967
11
214.955
21
-315.967
0
ARC
8
Black
10
215
20
-315.989
40
0.05
50
333.435
51
513.435
0
ARC
8
Black
10
200
20
-345.989
40
0.05
50
153.435
51
333.435
0
LINE
8
Black
10
179.955
20
-71.0114
11
194.955
21
-101.011
0
LINE
8
Black
10
180.045
20
-70.9666
11
195.045
21
-100.967
0
ARC
8
Black
10
195
20
-100.989
40
0.05
50
206.565
51
386.565
0
ARC
8
Black
10
180
20
-70.989
40
0.05
50
26.5651
51
206.565
0
LINE
8
Black
10
180.045
20
-101.011
11
195.045
21
-71.0114
0
LINE
8
Black
10
179.955
20
-100.967
11
194.955
21
-70.9666
0
ARC
8
Black
10
195
20
-70.989
40
0.05
50
333.435
51
513.435
0
ARC
8
Black
10
180
20
-100.989
40
0.05
50
153.435
51
333.435
0
LINE
8
Black
10
179.955
20
-106.011
11
194.955
21
-136.011
0
LINE
8
Black
10
180.045
20
-105.967
11
195.045
21
-135.967
0
ARC
8
Black
10
195
20
-135.989
40
0.05
50
206.565
51
386.565
0
ARC
8
Black
10
180
20
-105.989
40
0.05
50
26.5651
51
206.565
0
LINE
8
Black
10
180.045
20
-136.011
11
195.045
21
-106.011
0
LINE
8
Black
10
179.955
20
-135.967
11
194.955
21
-105.967
0
ARC
8
Black
10
195
20
-105.989
40
0.05
50
333.435
51
513.435
0
ARC
8
Black
10
180
20
-135.989
40
0.05
50
153.435
51
333.435
0
LINE
8
Black
10
179.955
20
-141.011
11
194.955
21
-171.011
0
LINE
8
Black
10
180.045
20
-140.967
11
195.045
21
-170.967
0
ARC
8
Black
10
195
20
-170.989
40
0.05
50
206.565
51
386.565
0
ARC
8
Black
10
180
20
-140.989
40
0.05
50
26.5651
51
206.565
0
LINE
8
Black
10
180.045
20
-171.011
11
195.045
21
-141.011
0
LINE
8
Black
10
179.955
20
-170.967
11
194.955
21
-140.967
0
ARC
8
Black
10
195
20
-140.989
40
0.05
50
333.435
51
513.435
0
ARC
8
Black
10
180
20
-170.989
40
0.05
50
153.435
51
333.435
0
LINE
8
Black
10
179.955
20
-176.011
11
194.955
21
-206.011
0
LINE
8
Black
10
180.045
20
-175.967
11
195.045
21
-205.967
0
ARC
8
Black
10
195
20
-205.989
40
0.05
50
206.565
51
386.565
0
ARC
8
Black
10
180
20
-175.989
40
0.05
50
26.5651
51
206.565
0
LINE
8
Black
10
180.045
20
-206.011
11
195.045
21
-176.011
0
LINE
8
Black
10
179.955
20
-205.967
11
194.955
21
-175.967
0
ARC
8
Black
10
195
20
-175.989
40
0.05
50
333.435
51
513.435
0
ARC
8
Black
10
180
20
-205.989
40
0.05
50
153.435
51
333.435
0
LINE
8
Black
10
179.955
20
-211.011
11
194.955
21
-241.011
0
LINE
8
Black
10
180.045
20
-210.967
11
195.045
21
-240.967
0
ARC
8
Black
10
195
20
-240.989
40
0.05
50
206.565
51
386.565
0
ARC
8
Black
10
180
20
-210.989
40
0.05
50
26.5651
51
206.565
0
LINE
8
Black
10
180.045
20
-241.011
11
195.045
21
-211.011
0
LINE
8
Black
10
179.955
20
-240.967
11
194.955
21
-210.967
0
ARC
8
Black
10
195
20
-210.989
40
0.05
50
333.435
51
513.435
0
ARC
8
Black
10
180
20
-240.989
40
0.05
50
153.435
51
333.435
0
LINE
8
Black
10
179.955
20
-246.011
11
194.955
21
-276.011
0
LINE
8
Black
10
180.045
20
-245.967
11
195.045
21
-275.967
0
ARC
8
Black
10
195
20
-275.989
40
0.05
50
206.565
51
386.565
0
ARC
8
Black
10
180
20
-245.989
40
0.05
50
26.5651
51
206.565
0
LINE
8
Black
10
180.045
20
-276.011
11
195.045
21
-246.011
0
LINE
8
Black
10
179.955
20
-275.967
11
194.955
21
-245.967
0
ARC
8
Black
10
195
20
-245.989
40
0.05
50
333.435
51
513.435
0
ARC
8
Black
10
180
20
-275.989
40
0.05
50
153.435
51
333.435
0
LINE
8
Black
10
179.955
20
-281.011
11
194.955
21
-311.011
0
LINE
8
Black
10
180.045
20
-280.967
11
195.045
21
-310.967
0
ARC
8
Black
10
195
20
-310.989
40
0.05
50
206.565
51
386.565
0
ARC
8
Black
10
180
20
-280.989
40
0.05
50
26.5651
51
206.565
0
LINE
8
Black
10
180.045
20
-311.011
11
195.045
21
-281.011
0
LINE
8
Black
10
179.955
20
-310.967
11
194.955
21
-280.967
0
ARC
8
Black
10
195
20
-280.989
40
0.05
50
333.435
51
513.435
0
ARC
8
Black
10
180
20
-310.989
40
0.05
50
153.435
51
333.435
0
LINE
8
Black
10
179.955
20
-316.011
11
194.955
21
-346.011
0
LINE
8
Black
10
180.045
20
-315.967
11
195.045
21
-345.967
0
ARC
8
Black
10
195
20
-345.989
40
0.05
50
206.565
51
386.565
0
ARC
8
Black
10
180
20
-315.989
40
0.05
50
26.5651
51
206.565
0
LINE
8
Black
10
180.045
20
-346.011
11
195.045
21
-316.011
0
LINE
8
Black
10
179.955
20
-345.967
11
194.955
21
-315.967
0
ARC
8
Black
10
195
20
-315.989
40
0.05
50
333.435
51
513.435
0
ARC
8
Black
10
180
20
-345.989
40
0.05
50
153.435
51
333.435
0
LINE
8
Black
10
179.955
20
-281.011
11
194.955
21
-311.011
0
LINE
8
Black
10
180.045
20
-280.967
11
195.045
21
-310.967
0
ARC
8
Black
10
195
20
-310.989
40
0.05
50
206.565
51
386.565
0
ARC
8
Black
10
180
20
-280.989
40
0.05
50
26.5651
51
206.565
0
LINE
8
Black
10
180.045
20
-311.011
11
195.045
21
-281.011
0
LINE
8
Black
10
179.955
20
-310.967
11
194.955
21
-280.967
0
ARC
8
Black
10
195
20
-280.989
40
0.05
50
333.435
51
513.435
0
ARC
8
Black
10
180
20
-310.989
40
0.05
50
153.435
51
333.435
0
LINE
8
Black
10
199.955
20
-316.011
11
214.955
21
-346.011
0
LINE
8
Black
10
200.045
20
-315.967
11
215.045
21
-345.967
0
ARC
8
Black
10
215
20
-345.989
40
0.05
50
206.565
51
386.565
0
ARC
8
Black
10
200
20
-315.989
40
0.05
50
26.5651
51
206.565
0
LINE
8
Black
10
200.045
20
-346.011
11
215.045
21
-316.011
0
LINE
8
Black
10
199.955
20
-345.967
11
214.955
21
-315.967
0
ARC
8
Black
10
215
20
-315.989
40
0.05
50
333.435
51
513.435
0
ARC
8
Black
10
200
20
-345.989
40
0.05
50
153.435
51
333.435
0
LINE
8
Black
10
179.955
20
-316.011
11
194.955
21
-346.011
0
LINE
8
Black
10
180.045
20
-315.967
11
195.045
21
-345.967
0
ARC
8
Black
10
195
20
-345.989
40
0.05
50
206.565
51
386.565
0
ARC
8
Black
10
180
20
-315.989
40
0.05
50
26.5651
51
206.565
0
LINE
8
Black
10
180.045
20
-346.011
11
195.045
21
-316.011
0
LINE
8
Black
10
179.955
20
-345.967
11
194.955
21
-315.967
0
ARC
8
Black
10
195
20
-315.989
40
0.05
50
333.435
51
513.435
0
ARC
8
Black
10
180
20
-345.989
40
0.05
50
153.435
51
333.435
0
LINE
8
Black
10
400
20
-101.039
11
415
21
-101.039
0
LINE
8
Black
10
400
20
-100.939
11
415
21
-100.939
0
ARC
8
Black
10
415
20
-100.989
40
0.05
50
270
51
450
0
ARC
8
Black
10
400
20
-100.989
40
0.05
50
90
51
270
0
LINE
8
Black
10
415.05
20
-100.989
11
415.05
21
-70.989
0
LINE
8
Black
10
414.95
20
-100.989
11
414.95
21
-70.989
0
ARC
8
Black
10
415
20
-70.989
40
0.05
50
360
51
540
0
ARC
8
Black
10
415
20
-100.989
40
0.05
50
180
51
360
0
LINE
8
Black
10
400
20
-71.039
11
415
21
-71.039
0
LINE
8
Black
10
400
20
-70.939
11
415
21
-70.939
0
ARC
8
Black
10
415
20
-70.989
40
0.05
50
270
51
450
0
ARC
8
Black
10
400
20
-70.989
40
0.05
50
90
51
270
0
LINE
8
Black
10
400.05
20
-100.989
11
400.05
21
-70.989
0
LINE
8
Black
10
399.95
20
-100.989
11
399.95
21
-70.989
0
ARC
8
Black
10
400
20
-70.989
40
0.05
50
360
51
540
0
ARC
8
Black
10
400
20
-100.989
40
0.05
50
180
51
360
0
LINE
8
Black
10
380
20
-101.039
11
395
21
-101.039
0
LINE
8
Black
10
380
20
-100.939
11
395
21
-100.939
0
ARC
8
Black
10
395
20
-100.989
40
0.05
50
270
51
450
0
ARC
8
Black
10
380
20
-100.989
40
0.05
50
90
51
270
0
LINE
8
Black
10
395.05
20
-100.989
11
395.05
21
-70.989
0
LINE
8
Black
10
394.95
20
-100.989
11
394.95
21
-70.989
0
ARC
8
Black
10
395
20
-70.989
40
0.05
50
360
51
540
0
ARC
8
Black
10
395
20
-100.989
40
0.05
50
180
51
360
0
LINE
8
Black
10
380
20
-71.039
11
395
21
-71.039
0
LINE
8
Black
10
380
20
-70.939
11
395
21
-70.939
0
ARC
8
Black
10
395
20
-70.989
40
0.05
50
270
51
450
0
ARC
8
Black
10
380
20
-70.989
40
0.05
50
90
51
270
0
LINE
8
Black
10
380.05
20
-100.989
11
380.05
21
-70.989
0
LINE
8
Black
10
379.95
20
-100.989
11
379.95
21
-70.989
0
ARC
8
Black
10
380
20
-70.989
40
0.05
50
360
51
540
0
ARC
8
Black
10
380
20
-100.989
40
0.05
50
180
51
360
0
LINE
8
Black
10
360
20
-101.039
11
375
21
-101.039
0
LINE
8
Black
10
360
20
-100.939
11
375
21
-100.939
0
ARC
8
Black
10
375
20
-100.989
40
0.05
50
270
51
450
0
ARC
8
Black
10
360
20
-100.989
40
0.05
50
90
51
270
0
LINE
8
Black
10
375.05
20
-100.989
11
375.05
21
-70.989
0
LINE
8
Black
10
374.95
20
-100.989
11
374.95
21
-70.989
0
ARC
8
Black
10
375
20
-70.989
40
0.05
50
360
51
540
0
ARC
8
Black
10
375
20
-100.989
40
0.05
50
180
51
360
0
LINE
8
Black
10
360
20
-71.039
11
375
21
-71.039
0
LINE
8
Black
10
360
20
-70.939
11
375
21
-70.939
0
ARC
8
Black
10
375
20
-70.989
40
0.05
50
270
51
450
0
ARC
8
Black
10
360
20
-70.989
40
0.05
50
90
51
270
0
LINE
8
Black
10
360.05
20
-100.989
11
360.05
21
-70.989
0
LINE
8
Black
10
359.95
20
-100.989
11
359.95
21
-70.989
0
ARC
8
Black
10
360
20
-70.989
40
0.05
50
360
51
540
0
ARC
8
Black
10
360
20
-100.989
40
0.05
50
180
51
360
0
LINE
8
Black
10
340
20
-101.039
11
355
21
-101.039
0
LINE
8
Black
10
340
20
-100.939
11
355
21
-100.939
0
ARC
8
Black
10
355
20
-100.989
40
0.05
50
270
51
450
0
ARC
8
Black
10
340
20
-100.989
40
0.05
50
90
51
270
0
LINE
8
Black
10
355.05
20
-100.989
11
355.05
21
-70.989
0
LINE
8
Black
10
354.95
20
-100.989
11
354.95
21
-70.989
0
ARC
8
Black
10
355
20
-70.989
40
0.05
50
360
51
540
0
ARC
8
Black
10
355
20
-100.989
40
0.05
50
180
51
360
0
LINE
8
Black
10
340
20
-71.039
11
355
21
-71.039
0
LINE
8
Black
10
340
20
-70.939
11
355
21
-70.939
0
ARC
8
Black
10
355
20
-70.989
40
0.05
50
270
51
450
0
ARC
8
Black
10
340
20
-70.989
40
0.05
50
90
51
270
0
LINE
8
Black
10
340.05
20
-100.989
11
340.05
21
-70.989
0
LINE
8
Black
10
339.95
20
-100.989
11
339.95
21
-70.989
0
ARC
8
Black
10
340
20
-70.989
40
0.05
50
360
51
540
0
ARC
8
Black
10
340
20
-100.989
40
0.05
50
180
51
360
0
LINE
8
Black
10
320
20
-101.039
11
335
21
-101.039
0
LINE
8
Black
10
320
20
-100.939
11
335
21
-100.939
0
ARC
8
Black
10
335
20
-100.989
40
0.05
50
270
51
450
0
ARC
8
Black
10
320
20
-100.989
40
0.05
50
90
51
270
0
LINE
8
Black
10
335.05
20
-100.989
11
335.05
21
-70.989
0
LINE
8
Black
10
334.95
20
-100.989
11
334.95
21
-70.989
0
ARC
8
Black
10
335
20
-70.989
40
0.05
50
360
51
540
0
ARC
8
Black
10
335
20
-100.989
40
0.05
50
180
51
360
0
LINE
8
Black
10
320
20
-71.039
11
335
21
-71.039
0
LINE
8
Black
10
320
20
-70.939
11
335
21
-70.939
0
ARC
8
Black
10
335
20
-70.989
40
0.05
50
270
51
450
0
ARC
8
Black
10
320
20
-70.989
40
0.05
50
90
51
270
0
LINE
8
Black
10
320.05
20
-100.989
11
320.05
21
-70.989
0
LINE
8
Black
10
319.95
20
-100.989
11
319.95
21
-70.989
0
ARC
8
Black
10
320
20
-70.989
40
0.05
50
360
51
540
0
ARC
8
Black
10
320
20
-100.989
40
0.05
50
180
51
360
0
LINE
8
Black
10
300
20
-101.039
11
315
21
-101.039
0
LINE
8
Black
10
300
20
-100.939
11
315
21
-100.939
0
ARC
8
Black
10
315
20
-100.989
40
0.05
50
270
51
450
0
ARC
8
Black
10
300
20
-100.989
40
0.05
50
90
51
270
0
LINE
8
Black
10
315.05
20
-100.989
11
315.05
21
-70.989
0
LINE
8
Black
10
314.95
20
-100.989
11
314.95
21
-70.989
0
ARC
8
Black
10
315
20
-70.989
40
0.05
50
360
51
540
0
ARC
8
Black
10
315
20
-100.989
40
0.05
50
180
51
360
0
LINE
8
Black
10
300
20
-71.039
11
315
21
-71.039
0
LINE
8
Black
10
300
20
-70.939
11
315
21
-70.939
0
ARC
8
Black
10
315
20
-70.989
40
0.05
50
270
51
450
0
ARC
8
Black
10
300
20
-70.989
40
0.05
50
90
51
270
0
LINE
8
Black
10
300.05
20
-100.989
11
300.05
21
-70.989
0
LINE
8
Black
10
299.95
20
-100.989
11
299.95
21
-70.989
0
ARC
8
Black
10
300
20
-70.989
40
0.05
50
360
51
540
0
ARC
8
Black
10
300
20
-100.989
40
0.05
50
180
51
360
0
LINE
8
Black
10
280
20
-101.039
11
295
21
-101.039
0
LINE
8
Black
10
280
20
-100.939
11
295
21
-100.939
0
ARC
8
Black
10
295
20
-100.989
40
0.05
50
270
51
450
0
ARC
8
Black
10
280
20
-100.989
40
0.05
50
90
51
270
0
LINE
8
Black
10
295.05
20
-100.989
11
295.05
21
-70.989
0
LINE
8
Black
10
294.95
20
-100.989
11
294.95
21
-70.989
0
ARC
8
Black
10
295
20
-70.989
40
0.05
50
360
51
540
0
ARC
8
Black
10
295
20
-100.989
40
0.05
50
180
51
360
0
LINE
8
Black
10
280
20
-71.039
11
295
21
-71.039
0
LINE
8
Black
10
280
20
-70.939
11
295
21
-70.939
0
ARC
8
Black
10
295
20
-70.989
40
0.05
50
270
51
450
0
ARC
8
Black
10
280
20
-70.989
40
0.05
50
90
51
270
0
LINE
8
Black
10
280.05
20
-100.989
11
280.05
21
-70.989
0
LINE
8
Black
10
279.95
20
-100.989
11
279.95
21
-70.989
0
ARC
8
Black
10
280
20
-70.989
40
0.05
50
360
51
540
0
ARC
8
Black
10
280
20
-100.989
40
0.05
50
180
51
360
0
LINE
8
Black
10
260
20
-101.039
11
275
21
-101.039
0
LINE
8
Black
10
260
20
-100.939
11
275
21
-100.939
0
ARC
8
Black
10
275
20
-100.989
40
0.05
50
270
51
450
0
ARC
8
Black
10
260
20
-100.989
40
0.05
50
90
51
270
0
LINE
8
Black
10
275.05
20
-100.989
11
275.05
21
-70.989
0
LINE
8
Black
10
274.95
20
-100.989
11
274.95
21
-70.989
0
ARC
8
Black
10
275
20
-70.989
40
0.05
50
360
51
540
0
ARC
8
Black
10
275
20
-100.989
40
0.05
50
180
51
360
0
LINE
8
Black
10
260
20
-71.039
11
275
21
-71.039
0
LINE
8
Black
10
260
20
-70.939
11
275
21
-70.939
0
ARC
8
Black
10
275
20
-70.989
40
0.05
50
270
51
450
0
ARC
8
Black
10
260
20
-70.989
40
0.05
50
90
51
270
0
LINE
8
Black
10
260.05
20
-100.989
11
260.05
21
-70.989
0
LINE
8
Black
10
259.95
20
-100.989
11
259.95
21
-70.989
0
ARC
8
Black
10
260
20
-70.989
40
0.05
50
360
51
540
0
ARC
8
Black
10
260
20
-100.989
40
0.05
50
180
51
360
0
LINE
8
Black
10
240
20
-101.039
11
255
21
-101.039
0
LINE
8
Black
10
240
20
-100.939
11
255
21
-100.939
0
ARC
8
Black
10
255
20
-100.989
40
0.05
50
270
51
450
0
ARC
8
Black
10
240
20
-100.989
40
0.05
50
90
51
270
0
LINE
8
Black
10
255.05
20
-100.989
11
255.05
21
-70.989
0
LINE
8
Black
10
254.95
20
-100.989
11
254.95
21
-70.989
0
ARC
8
Black
10
255
20
-70.989
40
0.05
50
360
51
540
0
ARC
8
Black
10
255
20
-100.989
40
0.05
50
180
51
360
0
LINE
8
Black
10
240
20
-71.039
11
255
21
-71.039
0
LINE
8
Black
10
240
20
-70.939
11
255
21
-70.939
0
ARC
8
Black
10
255
20
-70.989
40
0.05
50
270
51
450
0
ARC
8
Black
10
240
20
-70.989
40
0.05
50
90
51
270
0
LINE
8
Black
10
240.05
20
-100.989
11
240.05
21
-70.989
0
LINE
8
Black
10
239.95
20
-100.989
11
239.95
21
-70.989
0
ARC
8
Black
10
240
20
-70.989
40
0.05
50
360
51
540
0
ARC
8
Black
10
240
20
-100.989
40
0.05
50
180
51
360
0
LINE
8
Black
10
220
20
-101.039
11
235
21
-101.039
0
LINE
8
Black
10
220
20
-100.939
11
235
21
-100.939
0
ARC
8
Black
10
235
20
-100.989
40
0.05
50
270
51
450
0
ARC
8
Black
10
220
20
-100.989
40
0.05
50
90
51
270
0
LINE
8
Black
10
235.05
20
-100.989
11
235.05
21
-70.989
0
LINE
8
Black
10
234.95
20
-100.989
11
234.95
21
-70.989
0
ARC
8
Black
10
235
20
-70.989
40
0.05
50
360
51
540
0
ARC
8
Black
10
235
20
-100.989
40
0.05
50
180
51
360
0
LINE
8
Black
10
220
20
-71.039
11
235
21
-71.039
0
LINE
8
Black
10
220
20
-70.939
11
235
21
-70.939
0
ARC
8
Black
10
235
20
-70.989
40
0.05
50
270
51
450
0
ARC
8
Black
10
220
20
-70.989
40
0.05
50
90
51
270
0
LINE
8
Black
10
220.05
20
-100.989
11
220.05
21
-70.989
0
LINE
8
Black
10
219.95
20
-100.989
11
219.95
21
-70.989
0
ARC
8
Black
10
220
20
-70.989
40
0.05
50
360
51
540
0
ARC
8
Black
10
220
20
-100.989
40
0.05
50
180
51
360
0
LINE
8
Black
10
200
20
-101.039
11
215
21
-101.039
0
LINE
8
Black
10
200
20
-100.939
11
215
21
-100.939
0
ARC
8
Black
10
215
20
-100.989
40
0.05
50
270
51
450
0
ARC
8
Black
10
200
20
-100.989
40
0.05
50
90
51
270
0
LINE
8
Black
10
215.05
20
-100.989
11
215.05
21
-70.989
0
LINE
8
Black
10
214.95
20
-100.989
11
214.95
21
-70.989
0
ARC
8
Black
10
215
20
-70.989
40
0.05
50
360
51
540
0
ARC
8
Black
10
215
20
-100.989
40
0.05
50
180
51
360
0
LINE
8
Black
10
200
20
-71.039
11
215
21
-71.039
0
LINE
8
Black
10
200
20
-70.939
11
215
21
-70.939
0
ARC
8
Black
10
215
20
-70.989
40
0.05
50
270
51
450
0
ARC
8
Black
10
200
20
-70.989
40
0.05
50
90
51
270
0
LINE
8
Black
10
200.05
20
-100.989
11
200.05
21
-70.989
0
LINE
8
Black
10
199.95
20
-100.989
11
199.95
21
-70.989
0
ARC
8
Black
10
200
20
-70.989
40
0.05
50
360
51
540
0
ARC
8
Black
10
200
20
-100.989
40
0.05
50
180
51
360
0
LINE
8
Black
10
180
20
-101.039
11
195
21
-101.039
0
LINE
8
Black
10
180
20
-100.939
11
195
21
-100.939
0
ARC
8
Black
10
195
20
-100.989
40
0.05
50
270
51
450
0
ARC
8
Black
10
180
20
-100.989
40
0.05
50
90
51
270
0
LINE
8
Black
10
195.05
20
-100.989
11
195.05
21
-70.989
0
LINE
8
Black
10
194.95
20
-100.989
11
194.95
21
-70.989
0
ARC
8
Black
10
195
20
-70.989
40
0.05
50
360
51
540
0
ARC
8
Black
10
195
20
-100.989
40
0.05
50
180
51
360
0
LINE
8
Black
10
180
20
-71.039
11
195
21
-71.039
0
LINE
8
Black
10
180
20
-70.939
11
195
21
-70.939
0
ARC
8
Black
10
195
20
-70.989
40
0.05
50
270
51
450
0
ARC
8
Black
10
180
20
-70.989
40
0.05
50
90
51
270
0
LINE
8
Black
10
180.05
20
-100.989
11
180.05
21
-70.989
0
LINE
8
Black
10
179.95
20
-100.989
11
179.95
21
-70.989
0
ARC
8
Black
10
180
20
-70.989
40
0.05
50
360
51
540
0
ARC
8
Black
10
180
20
-100.989
40
0.05
50
180
51
360
0
LINE
8
Black
10
400
20
-136.039
11
415
21
-136.039
0
LINE
8
Black
10
400
20
-135.939
11
415
21
-135.939
0
ARC
8
Black
10
415
20
-135.989
40
0.05
50
270
51
450
0
ARC
8
Black
10
400
20
-135.989
40
0.05
50
90
51
270
0
LINE
8
Black
10
415.05
20
-135.989
11
415.05
21
-105.989
0
LINE
8
Black
10
414.95
20
-135.989
11
414.95
21
-105.989
0
ARC
8
Black
10
415
20
-105.989
40
0.05
50
360
51
540
0
ARC
8
Black
10
415
20
-135.989
40
0.05
50
180
51
360
0
LINE
8
Black
10
400
20
-106.039
11
415
21
-106.039
0
LINE
8
Black
10
400
20
-105.939
11
415
21
-105.939
0
ARC
8
Black
10
415
20
-105.989
40
0.05
50
270
51
450
0
ARC
8
Black
10
400
20
-105.989
40
0.05
50
90
51
270
0
LINE
8
Black
10
400.05
20
-135.989
11
400.05
21
-105.989
0
LINE
8
Black
10
399.95
20
-135.989
11
399.95
21
-105.989
0
ARC
8
Black
10
400
20
-105.989
40
0.05
50
360
51
540
0
ARC
8
Black
10
400
20
-135.989
40
0.05
50
180
51
360
0
LINE
8
Black
10
380
20
-136.039
11
395
21
-136.039
0
LINE
8
Black
10
380
20
-135.939
11
395
21
-135.939
0
ARC
8
Black
10
395
20
-135.989
40
0.05
50
270
51
450
0
ARC
8
Black
10
380
20
-135.989
40
0.05
50
90
51
270
0
LINE
8
Black
10
395.05
20
-135.989
11
395.05
21
-105.989
0
LINE
8
Black
10
394.95
20
-135.989
11
394.95
21
-105.989
0
ARC
8
Black
10
395
20
-105.989
40
0.05
50
360
51
540
0
ARC
8
Black
10
395
20
-135.989
40
0.05
50
180
51
360
0
LINE
8
Black
10
380
20
-106.039
11
395
21
-106.039
0
LINE
8
Black
10
380
20
-105.939
11
395
21
-105.939
0
ARC
8
Black
10
395
20
-105.989
40
0.05
50
270
51
450
0
ARC
8
Black
10
380
20
-105.989
40
0.05
50
90
51
270
0
LINE
8
Black
10
380.05
20
-135.989
11
380.05
21
-105.989
0
LINE
8
Black
10
379.95
20
-135.989
11
379.95
21
-105.989
0
ARC
8
Black
10
380
20
-105.989
40
0.05
50
360
51
540
0
ARC
8
Black
10
380
20
-135.989
40
0.05
50
180
51
360
0
LINE
8
Black
10
360
20
-136.039
11
375
21
-136.039
0
LINE
8
Black
10
360
20
-135.939
11
375
21
-135.939
0
ARC
8
Black
10
375
20
-135.989
40
0.05
50
270
51
450
0
ARC
8
Black
10
360
20
-135.989
40
0.05
50
90
51
270
0
LINE
8
Black
10
375.05
20
-135.989
11
375.05
21
-105.989
0
LINE
8
Black
10
374.95
20
-135.989
11
374.95
21
-105.989
0
ARC
8
Black
10
375
20
-105.989
40
0.05
50
360
51
540
0
ARC
8
Black
10
375
20
-135.989
40
0.05
50
180
51
360
0
LINE
8
Black
10
360
20
-106.039
11
375
21
-106.039
0
LINE
8
Black
10
360
20
-105.939
11
375
21
-105.939
0
ARC
8
Black
10
375
20
-105.989
40
0.05
50
270
51
450
0
ARC
8
Black
10
360
20
-105.989
40
0.05
50
90
51
270
0
LINE
8
Black
10
360.05
20
-135.989
11
360.05
21
-105.989
0
LINE
8
Black
10
359.95
20
-135.989
11
359.95
21
-105.989
0
ARC
8
Black
10
360
20
-105.989
40
0.05
50
360
51
540
0
ARC
8
Black
10
360
20
-135.989
40
0.05
50
180
51
360
0
LINE
8
Black
10
340
20
-136.039
11
355
21
-136.039
0
LINE
8
Black
10
340
20
-135.939
11
355
21
-135.939
0
ARC
8
Black
10
355
20
-135.989
40
0.05
50
270
51
450
0
ARC
8
Black
10
340
20
-135.989
40
0.05
50
90
51
270
0
LINE
8
Black
10
355.05
20
-135.989
11
355.05
21
-105.989
0
LINE
8
Black
10
354.95
20
-135.989
11
354.95
21
-105.989
0
ARC
8
Black
10
355
20
-105.989
40
0.05
50
360
51
540
0
ARC
8
Black
10
355
20
-135.989
40
0.05
50
180
51
360
0
LINE
8
Black
10
340
20
-106.039
11
355
21
-106.039
0
LINE
8
Black
10
340
20
-105.939
11
355
21
-105.939
0
ARC
8
Black
10
355
20
-105.989
40
0.05
50
270
51
450
0
ARC
8
Black
10
340
20
-105.989
40
0.05
50
90
51
270
0
LINE
8
Black
10
340.05
20
-135.989
11
340.05
21
-105.989
0
LINE
8
Black
10
339.95
20
-135.989
11
339.95
21
-105.989
0
ARC
8
Black
10
340
20
-105.989
40
0.05
50
360
51
540
0
ARC
8
Black
10
340
20
-135.989
40
0.05
50
180
51
360
0
LINE
8
Black
10
320
20
-136.039
11
335
21
-136.039
0
LINE
8
Black
10
320
20
-135.939
11
335
21
-135.939
0
ARC
8
Black
10
335
20
-135.989
40
0.05
50
270
51
450
0
ARC
8
Black
10
320
20
-135.989
40
0.05
50
90
51
270
0
LINE
8
Black
10
335.05
20
-135.989
11
335.05
21
-105.989
0
LINE
8
Black
10
334.95
20
-135.989
11
334.95
21
-105.989
0
ARC
8
Black
10
335
20
-105.989
40
0.05
50
360
51
540
0
ARC
8
Black
10
335
20
-135.989
40
0.05
50
180
51
360
0
LINE
8
Black
10
320
20
-106.039
11
335
21
-106.039
0
LINE
8
Black
10
320
20
-105.939
11
335
21
-105.939
0
ARC
8
Black
10
335
20
-105.989
40
0.05
50
270
51
450
0
ARC
8
Black
10
320
20
-105.989
40
0.05
50
90
51
270
0
LINE
8
Black
10
320.05
20
-135.989
11
320.05
21
-105.989
0
LINE
8
Black
10
319.95
20
-135.989
11
319.95
21
-105.989
0
ARC
8
Black
10
320
20
-105.989
40
0.05
50
360
51
540
0
ARC
8
Black
10
320
20
-135.989
40
0.05
50
180
51
360
0
LINE
8
Black
10
300
20
-136.039
11
315
21
-136.039
0
LINE
8
Black
10
300
20
-135.939
11
315
21
-135.939
0
ARC
8
Black
10
315
20
-135.989
40
0.05
50
270
51
450
0
ARC
8
Black
10
300
20
-135.989
40
0.05
50
90
51
270
0
LINE
8
Black
10
315.05
20
-135.989
11
315.05
21
-105.989
0
LINE
8
Black
10
314.95
20
-135.989
11
314.95
21
-105.989
0
ARC
8
Black
10
315
20
-105.989
40
0.05
50
360
51
540
0
ARC
8
Black
10
315
20
-135.989
40
0.05
50
180
51
360
0
LINE
8
Black
10
300
20
-106.039
11
315
21
-106.039
0
LINE
8
Black
10
300
20
-105.939
11
315
21
-105.939
0
ARC
8
Black
10
315
20
-105.989
40
0.05
50
270
51
450
0
ARC
8
Black
10
300
20
-105.989
40
0.05
50
90
51
270
0
LINE
8
Black
10
300.05
20
-135.989
11
300.05
21
-105.989
0
LINE
8
Black
10
299.95
20
-135.989
11
299.95
21
-105.989
0
ARC
8
Black
10
300
20
-105.989
40
0.05
50
360
51
540
0
ARC
8
Black
10
300
20
-135.989
40
0.05
50
180
51
360
0
LINE
8
Black
10
280
20
-136.039
11
295
21
-136.039
0
LINE
8
Black
10
280
20
-135.939
11
295
21
-135.939
0
ARC
8
Black
10
295
20
-135.989
40
0.05
50
270
51
450
0
ARC
8
Black
10
280
20
-135.989
40
0.05
50
90
51
270
0
LINE
8
Black
10
295.05
20
-135.989
11
295.05
21
-105.989
0
LINE
8
Black
10
294.95
20
-135.989
11
294.95
21
-105.989
0
ARC
8
Black
10
295
20
-105.989
40
0.05
50
360
51
540
0
ARC
8
Black
10
295
20
-135.989
40
0.05
50
180
51
360
0
LINE
8
Black
10
280
20
-106.039
11
295
21
-106.039
0
LINE
8
Black
10
280
20
-105.939
11
295
21
-105.939
0
ARC
8
Black
10
295
20
-105.989
40
0.05
50
270
51
450
0
ARC
8
Black
10
280
20
-105.989
40
0.05
50
90
51
270
0
LINE
8
Black
10
280.05
20
-135.989
11
280.05
21
-105.989
0
LINE
8
Black
10
279.95
20
-135.989
11
279.95
21
-105.989
0
ARC
8
Black
10
280
20
-105.989
40
0.05
50
360
51
540
0
ARC
8
Black
10
280
20
-135.989
40
0.05
50
180
51
360
0
LINE
8
Black
10
260
20
-136.039
11
275
21
-136.039
0
LINE
8
Black
10
260
20
-135.939
11
275
21
-135.939
0
ARC
8
Black
10
275
20
-135.989
40
0.05
50
270
51
450
0
ARC
8
Black
10
260
20
-135.989
40
0.05
50
90
51
270
0
LINE
8
Black
10
275.05
20
-135.989
11
275.05
21
-105.989
0
LINE
8
Black
10
274.95
20
-135.989
11
274.95
21
-105.989
0
ARC
8
Black
10
275
20
-105.989
40
0.05
50
360
51
540
0
ARC
8
Black
10
275
20
-135.989
40
0.05
50
180
51
360
0
LINE
8
Black
10
260
20
-106.039
11
275
21
-106.039
0
LINE
8
Black
10
260
20
-105.939
11
275
21
-105.939
0
ARC
8
Black
10
275
20
-105.989
40
0.05
50
270
51
450
0
ARC
8
Black
10
260
20
-105.989
40
0.05
50
90
51
270
0
LINE
8
Black
10
260.05
20
-135.989
11
260.05
21
-105.989
0
LINE
8
Black
10
259.95
20
-135.989
11
259.95
21
-105.989
0
ARC
8
Black
10
260
20
-105.989
40
0.05
50
360
51
540
0
ARC
8
Black
10
260
20
-135.989
40
0.05
50
180
51
360
0
LINE
8
Black
10
240
20
-136.039
11
255
21
-136.039
0
LINE
8
Black
10
240
20
-135.939
11
255
21
-135.939
0
ARC
8
Black
10
255
20
-135.989
40
0.05
50
270
51
450
0
ARC
8
Black
10
240
20
-135.989
40
0.05
50
90
51
270
0
LINE
8
Black
10
255.05
20
-135.989
11
255.05
21
-105.989
0
LINE
8
Black
10
254.95
20
-135.989
11
254.95
21
-105.989
0
ARC
8
Black
10
255
20
-105.989
40
0.05
50
360
51
540
0
ARC
8
Black
10
255
20
-135.989
40
0.05
50
180
51
360
0
LINE
8
Black
10
240
20
-106.039
11
255
21
-106.039
0
LINE
8
Black
10
240
20
-105.939
11
255
21
-105.939
0
ARC
8
Black
10
255
20
-105.989
40
0.05
50
270
51
450
0
ARC
8
Black
10
240
20
-105.989
40
0.05
50
90
51
270
0
LINE
8
Black
10
240.05
20
-135.989
11
240.05
21
-105.989
0
LINE
8
Black
10
239.95
20
-135.989
11
239.95
21
-105.989
0
ARC
8
Black
10
240
20
-105.989
40
0.05
50
360
51
540
0
ARC
8
Black
10
240
20
-135.989
40
0.05
50
180
51
360
0
LINE
8
Black
10
220
20
-136.039
11
235
21
-136.039
0
LINE
8
Black
10
220
20
-135.939
11
235
21
-135.939
0
ARC
8
Black
10
235
20
-135.989
40
0.05
50
270
51
450
0
ARC
8
Black
10
220
20
-135.989
40
0.05
50
90
51
270
0
LINE
8
Black
10
235.05
20
-135.989
11
235.05
21
-105.989
0
LINE
8
Black
10
234.95
20
-135.989
11
234.95
21
-105.989
0
ARC
8
Black
10
235
20
-105.989
40
0.05
50
360
51
540
0
ARC
8
Black
10
235
20
-135.989
40
0.05
50
180
51
360
0
LINE
8
Black
10
220
20
-106.039
11
235
21
-106.039
0
LINE
8
Black
10
220
20
-105.939
11
235
21
-105.939
0
ARC
8
Black
10
235
20
-105.989
40
0.05
50
270
51
450
0
ARC
8
Black
10
220
20
-105.989
40
0.05
50
90
51
270
0
LINE
8
Black
10
220.05
20
-135.989
11
220.05
21
-105.989
0
LINE
8
Black
10
219.95
20
-135.989
11
219.95
21
-105.989
0
ARC
8
Black
10
220
20
-105.989
40
0.05
50
360
51
540
0
ARC
8
Black
10
220
20
-135.989
40
0.05
50
180
51
360
0
LINE
8
Black
10
200
20
-136.039
11
215
21
-136.039
0
LINE
8
Black
10
200
20
-135.939
11
215
21
-135.939
0
ARC
8
Black
10
215
20
-135.989
40
0.05
50
270
51
450
0
ARC
8
Black
10
200
20
-135.989
40
0.05
50
90
51
270
0
LINE
8
Black
10
215.05
20
-135.989
11
215.05
21
-105.989
0
LINE
8
Black
10
214.95
20
-135.989
11
214.95
21
-105.989
0
ARC
8
Black
10
215
20
-105.989
40
0.05
50
360
51
540
0
ARC
8
Black
10
215
20
-135.989
40
0.05
50
180
51
360
0
LINE
8
Black
10
200
20
-106.039
11
215
21
-106.039
0
LINE
8
Black
10
200
20
-105.939
11
215
21
-105.939
0
ARC
8
Black
10
215
20
-105.989
40
0.05
50
270
51
450
0
ARC
8
Black
10
200
20
-105.989
40
0.05
50
90
51
270
0
LINE
8
Black
10
200.05
20
-135.989
11
200.05
21
-105.989
0
LINE
8
Black
10
199.95
20
-135.989
11
199.95
21
-105.989
0
ARC
8
Black
10
200
20
-105.989
40
0.05
50
360
51
540
0
ARC
8
Black
10
200
20
-135.989
40
0.05
50
180
51
360
0
LINE
8
Black
10
180
20
-136.039
11
195
21
-136.039
0
LINE
8
Black
10
180
20
-135.939
11
195
21
-135.939
0
ARC
8
Black
10
195
20
-135.989
40
0.05
50
270
51
450
0
ARC
8
Black
10
180
20
-135.989
40
0.05
50
90
51
270
0
LINE
8
Black
10
195.05
20
-135.989
11
195.05
21
-105.989
0
LINE
8
Black
10
194.95
20
-135.989
11
194.95
21
-105.989
0
ARC
8
Black
10
195
20
-105.989
40
0.05
50
360
51
540
0
ARC
8
Black
10
195
20
-135.989
40
0.05
50
180
51
360
0
LINE
8
Black
10
180
20
-106.039
11
195
21
-106.039
0
LINE
8
Black
10
180
20
-105.939
11
195
21
-105.939
0
ARC
8
Black
10
195
20
-105.989
40
0.05
50
270
51
450
0
ARC
8
Black
10
180
20
-105.989
40
0.05
50
90
51
270
0
LINE
8
Black
10
180.05
20
-135.989
11
180.05
21
-105.989
0
LINE
8
Black
10
179.95
20
-135.989
11
179.95
21
-105.989
0
ARC
8
Black
10
180
20
-105.989
40
0.05
50
360
51
540
0
ARC
8
Black
10
180
20
-135.989
40
0.05
50
180
51
360
0
LINE
8
Black
10
400
20
-171.039
11
415
21
-171.039
0
LINE
8
Black
10
400
20
-170.939
11
415
21
-170.939
0
ARC
8
Black
10
415
20
-170.989
40
0.05
50
270
51
450
0
ARC
8
Black
10
400
20
-170.989
40
0.05
50
90
51
270
0
LINE
8
Black
10
415.05
20
-170.989
11
415.05
21
-140.989
0
LINE
8
Black
10
414.95
20
-170.989
11
414.95
21
-140.989
0
ARC
8
Black
10
415
20
-140.989
40
0.05
50
360
51
540
0
ARC
8
Black
10
415
20
-170.989
40
0.05
50
180
51
360
0
LINE
8
Black
10
400
20
-141.039
11
415
21
-141.039
0
LINE
8
Black
10
400
20
-140.939
11
415
21
-140.939
0
ARC
8
Black
10
415
20
-140.989
40
0.05
50
270
51
450
0
ARC
8
Black
10
400
20
-140.989
40
0.05
50
90
51
270
0
LINE
8
Black
10
400.05
20
-170.989
11
400.05
21
-140.989
0
LINE
8
Black
10
399.95
20
-170.989
11
399.95
21
-140.989
0
ARC
8
Black
10
400
20
-140.989
40
0.05
50
360
51
540
0
ARC
8
Black
10
400
20
-170.989
40
0.05
50
180
51
360
0
LINE
8
Black
10
380
20
-171.039
11
395
21
-171.039
0
LINE
8
Black
10
380
20
-170.939
11
395
21
-170.939
0
ARC
8
Black
10
395
20
-170.989
40
0.05
50
270
51
450
0
ARC
8
Black
10
380
20
-170.989
40
0.05
50
90
51
270
0
LINE
8
Black
10
395.05
20
-170.989
11
395.05
21
-140.989
0
LINE
8
Black
10
394.95
20
-170.989
11
394.95
21
-140.989
0
ARC
8
Black
10
395
20
-140.989
40
0.05
50
360
51
540
0
ARC
8
Black
10
395
20
-170.989
40
0.05
50
180
51
360
0
LINE
8
Black
10
380
20
-141.039
11
395
21
-141.039
0
LINE
8
Black
10
380
20
-140.939
11
395
21
-140.939
0
ARC
8
Black
10
395
20
-140.989
40
0.05
50
270
51
450
0
ARC
8
Black
10
380
20
-140.989
40
0.05
50
90
51
270
0
LINE
8
Black
10
380.05
20
-170.989
11
380.05
21
-140.989
0
LINE
8
Black
10
379.95
20
-170.989
11
379.95
21
-140.989
0
ARC
8
Black
10
380
20
-140.989
40
0.05
50
360
51
540
0
ARC
8
Black
10
380
20
-170.989
40
0.05
50
180
51
360
0
LINE
8
Black
10
360
20
-171.039
11
375
21
-171.039
0
LINE
8
Black
10
360
20
-170.939
11
375
21
-170.939
0
ARC
8
Black
10
375
20
-170.989
40
0.05
50
270
51
450
0
ARC
8
Black
10
360
20
-170.989
40
0.05
50
90
51
270
0
LINE
8
Black
10
375.05
20
-170.989
11
375.05
21
-140.989
0
LINE
8
Black
10
374.95
20
-170.989
11
374.95
21
-140.989
0
ARC
8
Black
10
375
20
-140.989
40
0.05
50
360
51
540
0
ARC
8
Black
10
375
20
-170.989
40
0.05
50
180
51
360
0
LINE
8
Black
10
360
20
-141.039
11
375
21
-141.039
0
LINE
8
Black
10
360
20
-140.939
11
375
21
-140.939
0
ARC
8
Black
10
375
20
-140.989
40
0.05
50
270
51
450
0
ARC
8
Black
10
360
20
-140.989
40
0.05
50
90
51
270
0
LINE
8
Black
10
360.05
20
-170.989
11
360.05
21
-140.989
0
LINE
8
Black
10
359.95
20
-170.989
11
359.95
21
-140.989
0
ARC
8
Black
10
360
20
-140.989
40
0.05
50
360
51
540
0
ARC
8
Black
10
360
20
-170.989
40
0.05
50
180
51
360
0
LINE
8
Black
10
340
20
-171.039
11
355
21
-171.039
0
LINE
8
Black
10
340
20
-170.939
11
355
21
-170.939
0
ARC
8
Black
10
355
20
-170.989
40
0.05
50
270
51
450
0
ARC
8
Black
10
340
20
-170.989
40
0.05
50
90
51
270
0
LINE
8
Black
10
355.05
20
-170.989
11
355.05
21
-140.989
0
LINE
8
Black
10
354.95
20
-170.989
11
354.95
21
-140.989
0
ARC
8
Black
10
355
20
-140.989
40
0.05
50
360
51
540
0
ARC
8
Black
10
355
20
-170.989
40
0.05
50
180
51
360
0
LINE
8
Black
10
340
20
-141.039
11
355
21
-141.039
0
LINE
8
Black
10
340
20
-140.939
11
355
21
-140.939
0
ARC
8
Black
10
355
20
-140.989
40
0.05
50
270
51
450
0
ARC
8
Black
10
340
20
-140.989
40
0.05
50
90
51
270
0
LINE
8
Black
10
340.05
20
-170.989
11
340.05
21
-140.989
0
LINE
8
Black
10
339.95
20
-170.989
11
339.95
21
-140.989
0
ARC
8
Black
10
340
20
-140.989
40
0.05
50
360
51
540
0
ARC
8
Black
10
340
20
-170.989
40
0.05
50
180
51
360
0
LINE
8
Black
10
320
20
-171.039
11
335
21
-171.039
0
LINE
8
Black
10
320
20
-170.939
11
335
21
-170.939
0
ARC
8
Black
10
335
20
-170.989
40
0.05
50
270
51
450
0
ARC
8
Black
10
320
20
-170.989
40
0.05
50
90
51
270
0
LINE
8
Black
10
335.05
20
-170.989
11
335.05
21
-140.989
0
LINE
8
Black
10
334.95
20
-170.989
11
334.95
21
-140.989
0
ARC
8
Black
10
335
20
-140.989
40
0.05
50
360
51
540
0
ARC
8
Black
10
335
20
-170.989
40
0.05
50
180
51
360
0
LINE
8
Black
10
320
20
-141.039
11
335
21
-141.039
0
LINE
8
Black
10
320
20
-140.939
11
335
21
-140.939
0
ARC
8
Black
10
335
20
-140.989
40
0.05
50
270
51
450
0
ARC
8
Black
10
320
20
-140.989
40
0.05
50
90
51
270
0
LINE
8
Black
10
320.05
20
-170.989
11
320.05
21
-140.989
0
LINE
8
Black
10
319.95
20
-170.989
11
319.95
21
-140.989
0
ARC
8
Black
10
320
20
-140.989
40
0.05
50
360
51
540
0
ARC
8
Black
10
320
20
-170.989
40
0.05
50
180
51
360
0
LINE
8
Black
10
300
20
-171.039
11
315
21
-171.039
0
LINE
8
Black
10
300
20
-170.939
11
315
21
-170.939
0
ARC
8
Black
10
315
20
-170.989
40
0.05
50
270
51
450
0
ARC
8
Black
10
300
20
-170.989
40
0.05
50
90
51
270
0
LINE
8
Black
10
315.05
20
-170.989
11
315.05
21
-140.989
0
LINE
8
Black
10
314.95
20
-170.989
11
314.95
21
-140.989
0
ARC
8
Black
10
315
20
-140.989
40
0.05
50
360
51
540
0
ARC
8
Black
10
315
20
-170.989
40
0.05
50
180
51
360
0
LINE
8
Black
10
300
20
-141.039
11
315
21
-141.039
0
LINE
8
Black
10
300
20
-140.939
11
315
21
-140.939
0
ARC
8
Black
10
315
20
-140.989
40
0.05
50
270
51
450
0
ARC
8
Black
10
300
20
-140.989
40
0.05
50
90
51
270
0
LINE
8
Black
10
300.05
20
-170.989
11
300.05
21
-140.989
0
LINE
8
Black
10
299.95
20
-170.989
11
299.95
21
-140.989
0
ARC
8
Black
10
300
20
-140.989
40
0.05
50
360
51
540
0
ARC
8
Black
10
300
20
-170.989
40
0.05
50
180
51
360
0
LINE
8
Black
10
280
20
-171.039
11
295
21
-171.039
0
LINE
8
Black
10
280
20
-170.939
11
295
21
-170.939
0
ARC
8
Black
10
295
20
-170.989
40
0.05
50
270
51
450
0
ARC
8
Black
10
280
20
-170.989
40
0.05
50
90
51
270
0
LINE
8
Black
10
295.05
20
-170.989
11
295.05
21
-140.989
0
LINE
8
Black
10
294.95
20
-170.989
11
294.95
21
-140.989
0
ARC
8
Black
10
295
20
-140.989
40
0.05
50
360
51
540
0
ARC
8
Black
10
295
20
-170.989
40
0.05
50
180
51
360
0
LINE
8
Black
10
280
20
-141.039
11
295
21
-141.039
0
LINE
8
Black
10
280
20
-140.939
11
295
21
-140.939
0
ARC
8
Black
10
295
20
-140.989
40
0.05
50
270
51
450
0
ARC
8
Black
10
280
20
-140.989
40
0.05
50
90
51
270
0
LINE
8
Black
10
280.05
20
-170.989
11
280.05
21
-140.989
0
LINE
8
Black
10
279.95
20
-170.989
11
279.95
21
-140.989
0
ARC
8
Black
10
280
20
-140.989
40
0.05
50
360
51
540
0
ARC
8
Black
10
280
20
-170.989
40
0.05
50
180
51
360
0
LINE
8
Black
10
260
20
-171.039
11
275
21
-171.039
0
LINE
8
Black
10
260
20
-170.939
11
275
21
-170.939
0
ARC
8
Black
10
275
20
-170.989
40
0.05
50
270
51
450
0
ARC
8
Black
10
260
20
-170.989
40
0.05
50
90
51
270
0
LINE
8
Black
10
275.05
20
-170.989
11
275.05
21
-140.989
0
LINE
8
Black
10
274.95
20
-170.989
11
274.95
21
-140.989
0
ARC
8
Black
10
275
20
-140.989
40
0.05
50
360
51
540
0
ARC
8
Black
10
275
20
-170.989
40
0.05
50
180
51
360
0
LINE
8
Black
10
260
20
-141.039
11
275
21
-141.039
0
LINE
8
Black
10
260
20
-140.939
11
275
21
-140.939
0
ARC
8
Black
10
275
20
-140.989
40
0.05
50
270
51
450
0
ARC
8
Black
10
260
20
-140.989
40
0.05
50
90
51
270
0
LINE
8
Black
10
260.05
20
-170.989
11
260.05
21
-140.989
0
LINE
8
Black
10
259.95
20
-170.989
11
259.95
21
-140.989
0
ARC
8
Black
10
260
20
-140.989
40
0.05
50
360
51
540
0
ARC
8
Black
10
260
20
-170.989
40
0.05
50
180
51
360
0
LINE
8
Black
10
240
20
-171.039
11
255
21
-171.039
0
LINE
8
Black
10
240
20
-170.939
11
255
21
-170.939
0
ARC
8
Black
10
255
20
-170.989
40
0.05
50
270
51
450
0
ARC
8
Black
10
240
20
-170.989
40
0.05
50
90
51
270
0
LINE
8
Black
10
255.05
20
-170.989
11
255.05
21
-140.989
0
LINE
8
Black
10
254.95
20
-170.989
11
254.95
21
-140.989
0
ARC
8
Black
10
255
20
-140.989
40
0.05
50
360
51
540
0
ARC
8
Black
10
255
20
-170.989
40
0.05
50
180
51
360
0
LINE
8
Black
10
240
20
-141.039
11
255
21
-141.039
0
LINE
8
Black
10
240
20
-140.939
11
255
21
-140.939
0
ARC
8
Black
10
255
20
-140.989
40
0.05
50
270
51
450
0
ARC
8
Black
10
240
20
-140.989
40
0.05
50
90
51
270
0
LINE
8
Black
10
240.05
20
-170.989
11
240.05
21
-140.989
0
LINE
8
Black
10
239.95
20
-170.989
11
239.95
21
-140.989
0
ARC
8
Black
10
240
20
-140.989
40
0.05
50
360
51
540
0
ARC
8
Black
10
240
20
-170.989
40
0.05
50
180
51
360
0
LINE
8
Black
10
220
20
-171.039
11
235
21
-171.039
0
LINE
8
Black
10
220
20
-170.939
11
235
21
-170.939
0
ARC
8
Black
10
235
20
-170.989
40
0.05
50
270
51
450
0
ARC
8
Black
10
220
20
-170.989
40
0.05
50
90
51
270
0
LINE
8
Black
10
235.05
20
-170.989
11
235.05
21
-140.989
0
LINE
8
Black
10
234.95
20
-170.989
11
234.95
21
-140.989
0
ARC
8
Black
10
235
20
-140.989
40
0.05
50
360
51
540
0
ARC
8
Black
10
235
20
-170.989
40
0.05
50
180
51
360
0
LINE
8
Black
10
220
20
-141.039
11
235
21
-141.039
0
LINE
8
Black
10
220
20
-140.939
11
235
21
-140.939
0
ARC
8
Black
10
235
20
-140.989
40
0.05
50
270
51
450
0
ARC
8
Black
10
220
20
-140.989
40
0.05
50
90
51
270
0
LINE
8
Black
10
220.05
20
-170.989
11
220.05
21
-140.989
0
LINE
8
Black
10
219.95
20
-170.989
11
219.95
21
-140.989
0
ARC
8
Black
10
220
20
-140.989
40
0.05
50
360
51
540
0
ARC
8
Black
10
220
20
-170.989
40
0.05
50
180
51
360
0
LINE
8
Black
10
200
20
-171.039
11
215
21
-171.039
0
LINE
8
Black
10
200
20
-170.939
11
215
21
-170.939
0
ARC
8
Black
10
215
20
-170.989
40
0.05
50
270
51
450
0
ARC
8
Black
10
200
20
-170.989
40
0.05
50
90
51
270
0
LINE
8
Black
10
215.05
20
-170.989
11
215.05
21
-140.989
0
LINE
8
Black
10
214.95
20
-170.989
11
214.95
21
-140.989
0
ARC
8
Black
10
215
20
-140.989
40
0.05
50
360
51
540
0
ARC
8
Black
10
215
20
-170.989
40
0.05
50
180
51
360
0
LINE
8
Black
10
200
20
-141.039
11
215
21
-141.039
0
LINE
8
Black
10
200
20
-140.939
11
215
21
-140.939
0
ARC
8
Black
10
215
20
-140.989
40
0.05
50
270
51
450
0
ARC
8
Black
10
200
20
-140.989
40
0.05
50
90
51
270
0
LINE
8
Black
10
200.05
20
-170.989
11
200.05
21
-140.989
0
LINE
8
Black
10
199.95
20
-170.989
11
199.95
21
-140.989
0
ARC
8
Black
10
200
20
-140.989
40
0.05
50
360
51
540
0
ARC
8
Black
10
200
20
-170.989
40
0.05
50
180
51
360
0
LINE
8
Black
10
180
20
-171.039
11
195
21
-171.039
0
LINE
8
Black
10
180
20
-170.939
11
195
21
-170.939
0
ARC
8
Black
10
195
20
-170.989
40
0.05
50
270
51
450
0
ARC
8
Black
10
180
20
-170.989
40
0.05
50
90
51
270
0
LINE
8
Black
10
195.05
20
-170.989
11
195.05
21
-140.989
0
LINE
8
Black
10
194.95
20
-170.989
11
194.95
21
-140.989
0
ARC
8
Black
10
195
20
-140.989
40
0.05
50
360
51
540
0
ARC
8
Black
10
195
20
-170.989
40
0.05
50
180
51
360
0
LINE
8
Black
10
180
20
-141.039
11
195
21
-141.039
0
LINE
8
Black
10
180
20
-140.939
11
195
21
-140.939
0
ARC
8
Black
10
195
20
-140.989
40
0.05
50
270
51
450
0
ARC
8
Black
10
180
20
-140.989
40
0.05
50
90
51
270
0
LINE
8
Black
10
180.05
20
-170.989
11
180.05
21
-140.989
0
LINE
8
Black
10
179.95
20
-170.989
11
179.95
21
-140.989
0
ARC
8
Black
10
180
20
-140.989
40
0.05
50
360
51
540
0
ARC
8
Black
10
180
20
-170.989
40
0.05
50
180
51
360
0
LINE
8
Black
10
400
20
-206.039
11
415
21
-206.039
0
LINE
8
Black
10
400
20
-205.939
11
415
21
-205.939
0
ARC
8
Black
10
415
20
-205.989
40
0.05
50
270
51
450
0
ARC
8
Black
10
400
20
-205.989
40
0.05
50
90
51
270
0
LINE
8
Black
10
415.05
20
-205.989
11
415.05
21
-175.989
0
LINE
8
Black
10
414.95
20
-205.989
11
414.95
21
-175.989
0
ARC
8
Black
10
415
20
-175.989
40
0.05
50
360
51
540
0
ARC
8
Black
10
415
20
-205.989
40
0.05
50
180
51
360
0
LINE
8
Black
10
400
20
-176.039
11
415
21
-176.039
0
LINE
8
Black
10
400
20
-175.939
11
415
21
-175.939
0
ARC
8
Black
10
415
20
-175.989
40
0.05
50
270
51
450
0
ARC
8
Black
10
400
20
-175.989
40
0.05
50
90
51
270
0
LINE
8
Black
10
400.05
20
-205.989
11
400.05
21
-175.989
0
LINE
8
Black
10
399.95
20
-205.989
11
399.95
21
-175.989
0
ARC
8
Black
10
400
20
-175.989
40
0.05
50
360
51
540
0
ARC
8
Black
10
400
20
-205.989
40
0.05
50
180
51
360
0
LINE
8
Black
10
380
20
-206.039
11
395
21
-206.039
0
LINE
8
Black
10
380
20
-205.939
11
395
21
-205.939
0
ARC
8
Black
10
395
20
-205.989
40
0.05
50
270
51
450
0
ARC
8
Black
10
380
20
-205.989
40
0.05
50
90
51
270
0
LINE
8
Black
10
395.05
20
-205.989
11
395.05
21
-175.989
0
LINE
8
Black
10
394.95
20
-205.989
11
394.95
21
-175.989
0
ARC
8
Black
10
395
20
-175.989
40
0.05
50
360
51
540
0
ARC
8
Black
10
395
20
-205.989
40
0.05
50
180
51
360
0
LINE
8
Black
10
380
20
-176.039
11
395
21
-176.039
0
LINE
8
Black
10
380
20
-175.939
11
395
21
-175.939
0
ARC
8
Black
10
395
20
-175.989
40
0.05
50
270
51
450
0
ARC
8
Black
10
380
20
-175.989
40
0.05
50
90
51
270
0
LINE
8
Black
10
380.05
20
-205.989
11
380.05
21
-175.989
0
LINE
8
Black
10
379.95
20
-205.989
11
379.95
21
-175.989
0
ARC
8
Black
10
380
20
-175.989
40
0.05
50
360
51
540
0
ARC
8
Black
10
380
20
-205.989
40
0.05
50
180
51
360
0
LINE
8
Black
10
360
20
-206.039
11
375
21
-206.039
0
LINE
8
Black
10
360
20
-205.939
11
375
21
-205.939
0
ARC
8
Black
10
375
20
-205.989
40
0.05
50
270
51
450
0
ARC
8
Black
10
360
20
-205.989
40
0.05
50
90
51
270
0
LINE
8
Black
10
375.05
20
-205.989
11
375.05
21
-175.989
0
LINE
8
Black
10
374.95
20
-205.989
11
374.95
21
-175.989
0
ARC
8
Black
10
375
20
-175.989
40
0.05
50
360
51
540
0
ARC
8
Black
10
375
20
-205.989
40
0.05
50
180
51
360
0
LINE
8
Black
10
360
20
-176.039
11
375
21
-176.039
0
LINE
8
Black
10
360
20
-175.939
11
375
21
-175.939
0
ARC
8
Black
10
375
20
-175.989
40
0.05
50
270
51
450
0
ARC
8
Black
10
360
20
-175.989
40
0.05
50
90
51
270
0
LINE
8
Black
10
360.05
20
-205.989
11
360.05
21
-175.989
0
LINE
8
Black
10
359.95
20
-205.989
11
359.95
21
-175.989
0
ARC
8
Black
10
360
20
-175.989
40
0.05
50
360
51
540
0
ARC
8
Black
10
360
20
-205.989
40
0.05
50
180
51
360
0
LINE
8
Black
10
340
20
-206.039
11
355
21
-206.039
0
LINE
8
Black
10
340
20
-205.939
11
355
21
-205.939
0
ARC
8
Black
10
355
20
-205.989
40
0.05
50
270
51
450
0
ARC
8
Black
10
340
20
-205.989
40
0.05
50
90
51
270
0
LINE
8
Black
10
355.05
20
-205.989
11
355.05
21
-175.989
0
LINE
8
Black
10
354.95
20
-205.989
11
354.95
21
-175.989
0
ARC
8
Black
10
355
20
-175.989
40
0.05
50
360
51
540
0
ARC
8
Black
10
355
20
-205.989
40
0.05
50
180
51
360
0
LINE
8
Black
10
340
20
-176.039
11
355
21
-176.039
0
LINE
8
Black
10
340
20
-175.939
11
355
21
-175.939
0
ARC
8
Black
10
355
20
-175.989
40
0.05
50
270
51
450
0
ARC
8
Black
10
340
20
-175.989
40
0.05
50
90
51
270
0
LINE
8
Black
10
340.05
20
-205.989
11
340.05
21
-175.989
0
LINE
8
Black
10
339.95
20
-205.989
11
339.95
21
-175.989
0
ARC
8
Black
10
340
20
-175.989
40
0.05
50
360
51
540
0
ARC
8
Black
10
340
20
-205.989
40
0.05
50
180
51
360
0
LINE
8
Black
10
320
20
-206.039
11
335
21
-206.039
0
LINE
8
Black
10
320
20
-205.939
11
335
21
-205.939
0
ARC
8
Black
10
335
20
-205.989
40
0.05
50
270
51
450
0
ARC
8
Black
10
320
20
-205.989
40
0.05
50
90
51
270
0
LINE
8
Black
10
335.05
20
-205.989
11
335.05
21
-175.989
0
LINE
8
Black
10
334.95
20
-205.989
11
334.95
21
-175.989
0
ARC
8
Black
10
335
20
-175.989
40
0.05
50
360
51
540
0
ARC
8
Black
10
335
20
-205.989
40
0.05
50
180
51
360
0
LINE
8
Black
10
320
20
-176.039
11
335
21
-176.039
0
LINE
8
Black
10
320
20
-175.939
11
335
21
-175.939
0
ARC
8
Black
10
335
20
-175.989
40
0.05
50
270
51
450
0
ARC
8
Black
10
320
20
-175.989
40
0.05
50
90
51
270
0
LINE
8
Black
10
320.05
20
-205.989
11
320.05
21
-175.989
0
LINE
8
Black
10
319.95
20
-205.989
11
319.95
21
-175.989
0
ARC
8
Black
10
320
20
-175.989
40
0.05
50
360
51
540
0
ARC
8
Black
10
320
20
-205.989
40
0.05
50
180
51
360
0
LINE
8
Black
10
300
20
-206.039
11
315
21
-206.039
0
LINE
8
Black
10
300
20
-205.939
11
315
21
-205.939
0
ARC
8
Black
10
315
20
-205.989
40
0.05
50
270
51
450
0
ARC
8
Black
10
300
20
-205.989
40
0.05
50
90
51
270
0
LINE
8
Black
10
315.05
20
-205.989
11
315.05
21
-175.989
0
LINE
8
Black
10
314.95
20
-205.989
11
314.95
21
-175.989
0
ARC
8
Black
10
315
20
-175.989
40
0.05
50
360
51
540
0
ARC
8
Black
10
315
20
-205.989
40
0.05
50
180
51
360
0
LINE
8
Black
10
300
20
-176.039
11
315
21
-176.039
0
LINE
8
Black
10
300
20
-175.939
11
315
21
-175.939
0
ARC
8
Black
10
315
20
-175.989
40
0.05
50
270
51
450
0
ARC
8
Black
10
300
20
-175.989
40
0.05
50
90
51
270
0
LINE
8
Black
10
300.05
20
-205.989
11
300.05
21
-175.989
0
LINE
8
Black
10
299.95
20
-205.989
11
299.95
21
-175.989
0
ARC
8
Black
10
300
20
-175.989
40
0.05
50
360
51
540
0
ARC
8
Black
10
300
20
-205.989
40
0.05
50
180
51
360
0
LINE
8
Black
10
280
20
-206.039
11
295
21
-206.039
0
LINE
8
Black
10
280
20
-205.939
11
295
21
-205.939
0
ARC
8
Black
10
295
20
-205.989
40
0.05
50
270
51
450
0
ARC
8
Black
10
280
20
-205.989
40
0.05
50
90
51
270
0
LINE
8
Black
10
295.05
20
-205.989
11
295.05
21
-175.989
0
LINE
8
Black
10
294.95
20
-205.989
11
294.95
21
-175.989
0
ARC
8
Black
10
295
20
-175.989
40
0.05
50
360
51
540
0
ARC
8
Black
10
295
20
-205.989
40
0.05
50
180
51
360
0
LINE
8
Black
10
280
20
-176.039
11
295
21
-176.039
0
LINE
8
Black
10
280
20
-175.939
11
295
21
-175.939
0
ARC
8
Black
10
295
20
-175.989
40
0.05
50
270
51
450
0
ARC
8
Black
10
280
20
-175.989
40
0.05
50
90
51
270
0
LINE
8
Black
10
280.05
20
-205.989
11
280.05
21
-175.989
0
LINE
8
Black
10
279.95
20
-205.989
11
279.95
21
-175.989
0
ARC
8
Black
10
280
20
-175.989
40
0.05
50
360
51
540
0
ARC
8
Black
10
280
20
-205.989
40
0.05
50
180
51
360
0
LINE
8
Black
10
260
20
-206.039
11
275
21
-206.039
0
LINE
8
Black
10
260
20
-205.939
11
275
21
-205.939
0
ARC
8
Black
10
275
20
-205.989
40
0.05
50
270
51
450
0
ARC
8
Black
10
260
20
-205.989
40
0.05
50
90
51
270
0
LINE
8
Black
10
275.05
20
-205.989
11
275.05
21
-175.989
0
LINE
8
Black
10
274.95
20
-205.989
11
274.95
21
-175.989
0
ARC
8
Black
10
275
20
-175.989
40
0.05
50
360
51
540
0
ARC
8
Black
10
275
20
-205.989
40
0.05
50
180
51
360
0
LINE
8
Black
10
260
20
-176.039
11
275
21
-176.039
0
LINE
8
Black
10
260
20
-175.939
11
275
21
-175.939
0
ARC
8
Black
10
275
20
-175.989
40
0.05
50
270
51
450
0
ARC
8
Black
10
260
20
-175.989
40
0.05
50
90
51
270
0
LINE
8
Black
10
260.05
20
-205.989
11
260.05
21
-175.989
0
LINE
8
Black
10
259.95
20
-205.989
11
259.95
21
-175.989
0
ARC
8
Black
10
260
20
-175.989
40
0.05
50
360
51
540
0
ARC
8
Black
10
260
20
-205.989
40
0.05
50
180
51
360
0
LINE
8
Black
10
240
20
-206.039
11
255
21
-206.039
0
LINE
8
Black
10
240
20
-205.939
11
255
21
-205.939
0
ARC
8
Black
10
255
20
-205.989
40
0.05
50
270
51
450
0
ARC
8
Black
10
240
20
-205.989
40
0.05
50
90
51
270
0
LINE
8
Black
10
255.05
20
-205.989
11
255.05
21
-175.989
0
LINE
8
Black
10
254.95
20
-205.989
11
254.95
21
-175.989
0
ARC
8
Black
10
255
20
-175.989
40
0.05
50
360
51
540
0
ARC
8
Black
10
255
20
-205.989
40
0.05
50
180
51
360
0
LINE
8
Black
10
240
20
-176.039
11
255
21
-176.039
0
LINE
8
Black
10
240
20
-175.939
11
255
21
-175.939
0
ARC
8
Black
10
255
20
-175.989
40
0.05
50
270
51
450
0
ARC
8
Black
10
240
20
-175.989
40
0.05
50
90
51
270
0
LINE
8
Black
10
240.05
20
-205.989
11
240.05
21
-175.989
0
LINE
8
Black
10
239.95
20
-205.989
11
239.95
21
-175.989
0
ARC
8
Black
10
240
20
-175.989
40
0.05
50
360
51
540
0
ARC
8
Black
10
240
20
-205.989
40
0.05
50
180
51
360
0
LINE
8
Black
10
220
20
-206.039
11
235
21
-206.039
0
LINE
8
Black
10
220
20
-205.939
11
235
21
-205.939
0
ARC
8
Black
10
235
20
-205.989
40
0.05
50
270
51
450
0
ARC
8
Black
10
220
20
-205.989
40
0.05
50
90
51
270
0
LINE
8
Black
10
235.05
20
-205.989
11
235.05
21
-175.989
0
LINE
8
Black
10
234.95
20
-205.989
11
234.95
21
-175.989
0
ARC
8
Black
10
235
20
-175.989
40
0.05
50
360
51
540
0
ARC
8
Black
10
235
20
-205.989
40
0.05
50
180
51
360
0
LINE
8
Black
10
220
20
-176.039
11
235
21
-176.039
0
LINE
8
Black
10
220
20
-175.939
11
235
21
-175.939
0
ARC
8
Black
10
235
20
-175.989
40
0.05
50
270
51
450
0
ARC
8
Black
10
220
20
-175.989
40
0.05
50
90
51
270
0
LINE
8
Black
10
220.05
20
-205.989
11
220.05
21
-175.989
0
LINE
8
Black
10
219.95
20
-205.989
11
219.95
21
-175.989
0
ARC
8
Black
10
220
20
-175.989
40
0.05
50
360
51
540
0
ARC
8
Black
10
220
20
-205.989
40
0.05
50
180
51
360
0
LINE
8
Black
10
200
20
-206.039
11
215
21
-206.039
0
LINE
8
Black
10
200
20
-205.939
11
215
21
-205.939
0
ARC
8
Black
10
215
20
-205.989
40
0.05
50
270
51
450
0
ARC
8
Black
10
200
20
-205.989
40
0.05
50
90
51
270
0
LINE
8
Black
10
215.05
20
-205.989
11
215.05
21
-175.989
0
LINE
8
Black
10
214.95
20
-205.989
11
214.95
21
-175.989
0
ARC
8
Black
10
215
20
-175.989
40
0.05
50
360
51
540
0
ARC
8
Black
10
215
20
-205.989
40
0.05
50
180
51
360
0
LINE
8
Black
10
200
20
-176.039
11
215
21
-176.039
0
LINE
8
Black
10
200
20
-175.939
11
215
21
-175.939
0
ARC
8
Black
10
215
20
-175.989
40
0.05
50
270
51
450
0
ARC
8
Black
10
200
20
-175.989
40
0.05
50
90
51
270
0
LINE
8
Black
10
200.05
20
-205.989
11
200.05
21
-175.989
0
LINE
8
Black
10
199.95
20
-205.989
11
199.95
21
-175.989
0
ARC
8
Black
10
200
20
-175.989
40
0.05
50
360
51
540
0
ARC
8
Black
10
200
20
-205.989
40
0.05
50
180
51
360
0
LINE
8
Black
10
180
20
-206.039
11
195
21
-206.039
0
LINE
8
Black
10
180
20
-205.939
11
195
21
-205.939
0
ARC
8
Black
10
195
20
-205.989
40
0.05
50
270
51
450
0
ARC
8
Black
10
180
20
-205.989
40
0.05
50
90
51
270
0
LINE
8
Black
10
195.05
20
-205.989
11
195.05
21
-175.989
0
LINE
8
Black
10
194.95
20
-205.989
11
194.95
21
-175.989
0
ARC
8
Black
10
195
20
-175.989
40
0.05
50
360
51
540
0
ARC
8
Black
10
195
20
-205.989
40
0.05
50
180
51
360
0
LINE
8
Black
10
180
20
-176.039
11
195
21
-176.039
0
LINE
8
Black
10
180
20
-175.939
11
195
21
-175.939
0
ARC
8
Black
10
195
20
-175.989
40
0.05
50
270
51
450
0
ARC
8
Black
10
180
20
-175.989
40
0.05
50
90
51
270
0
LINE
8
Black
10
180.05
20
-205.989
11
180.05
21
-175.989
0
LINE
8
Black
10
179.95
20
-205.989
11
179.95
21
-175.989
0
ARC
8
Black
10
180
20
-175.989
40
0.05
50
360
51
540
0
ARC
8
Black
10
180
20
-205.989
40
0.05
50
180
51
360
0
LINE
8
Black
10
400
20
-241.039
11
415
21
-241.039
0
LINE
8
Black
10
400
20
-240.939
11
415
21
-240.939
0
ARC
8
Black
10
415
20
-240.989
40
0.05
50
270
51
450
0
ARC
8
Black
10
400
20
-240.989
40
0.05
50
90
51
270
0
LINE
8
Black
10
415.05
20
-240.989
11
415.05
21
-210.989
0
LINE
8
Black
10
414.95
20
-240.989
11
414.95
21
-210.989
0
ARC
8
Black
10
415
20
-210.989
40
0.05
50
360
51
540
0
ARC
8
Black
10
415
20
-240.989
40
0.05
50
180
51
360
0
LINE
8
Black
10
400
20
-211.039
11
415
21
-211.039
0
LINE
8
Black
10
400
20
-210.939
11
415
21
-210.939
0
ARC
8
Black
10
415
20
-210.989
40
0.05
50
270
51
450
0
ARC
8
Black
10
400
20
-210.989
40
0.05
50
90
51
270
0
LINE
8
Black
10
400.05
20
-240.989
11
400.05
21
-210.989
0
LINE
8
Black
10
399.95
20
-240.989
11
399.95
21
-210.989
0
ARC
8
Black
10
400
20
-210.989
40
0.05
50
360
51
540
0
ARC
8
Black
10
400
20
-240.989
40
0.05
50
180
51
360
0
LINE
8
Black
10
380
20
-241.039
11
395
21
-241.039
0
LINE
8
Black
10
380
20
-240.939
11
395
21
-240.939
0
ARC
8
Black
10
395
20
-240.989
40
0.05
50
270
51
450
0
ARC
8
Black
10
380
20
-240.989
40
0.05
50
90
51
270
0
LINE
8
Black
10
395.05
20
-240.989
11
395.05
21
-210.989
0
LINE
8
Black
10
394.95
20
-240.989
11
394.95
21
-210.989
0
ARC
8
Black
10
395
20
-210.989
40
0.05
50
360
51
540
0
ARC
8
Black
10
395
20
-240.989
40
0.05
50
180
51
360
0
LINE
8
Black
10
380
20
-211.039
11
395
21
-211.039
0
LINE
8
Black
10
380
20
-210.939
11
395
21
-210.939
0
ARC
8
Black
10
395
20
-210.989
40
0.05
50
270
51
450
0
ARC
8
Black
10
380
20
-210.989
40
0.05
50
90
51
270
0
LINE
8
Black
10
380.05
20
-240.989
11
380.05
21
-210.989
0
LINE
8
Black
10
379.95
20
-240.989
11
379.95
21
-210.989
0
ARC
8
Black
10
380
20
-210.989
40
0.05
50
360
51
540
0
ARC
8
Black
10
380
20
-240.989
40
0.05
50
180
51
360
0
LINE
8
Black
10
360
20
-241.039
11
375
21
-241.039
0
LINE
8
Black
10
360
20
-240.939
11
375
21
-240.939
0
ARC
8
Black
10
375
20
-240.989
40
0.05
50
270
51
450
0
ARC
8
Black
10
360
20
-240.989
40
0.05
50
90
51
270
0
LINE
8
Black
10
375.05
20
-240.989
11
375.05
21
-210.989
0
LINE
8
Black
10
374.95
20
-240.989
11
374.95
21
-210.989
0
ARC
8
Black
10
375
20
-210.989
40
0.05
50
360
51
540
0
ARC
8
Black
10
375
20
-240.989
40
0.05
50
180
51
360
0
LINE
8
Black
10
360
20
-211.039
11
375
21
-211.039
0
LINE
8
Black
10
360
20
-210.939
11
375
21
-210.939
0
ARC
8
Black
10
375
20
-210.989
40
0.05
50
270
51
450
0
ARC
8
Black
10
360
20
-210.989
40
0.05
50
90
51
270
0
LINE
8
Black
10
360.05
20
-240.989
11
360.05
21
-210.989
0
LINE
8
Black
10
359.95
20
-240.989
11
359.95
21
-210.989
0
ARC
8
Black
10
360
20
-210.989
40
0.05
50
360
51
540
0
ARC
8
Black
10
360
20
-240.989
40
0.05
50
180
51
360
0
LINE
8
Black
10
340
20
-241.039
11
355
21
-241.039
0
LINE
8
Black
10
340
20
-240.939
11
355
21
-240.939
0
ARC
8
Black
10
355
20
-240.989
40
0.05
50
270
51
450
0
ARC
8
Black
10
340
20
-240.989
40
0.05
50
90
51
270
0
LINE
8
Black
10
355.05
20
-240.989
11
355.05
21
-210.989
0
LINE
8
Black
10
354.95
20
-240.989
11
354.95
21
-210.989
0
ARC
8
Black
10
355
20
-210.989
40
0.05
50
360
51
540
0
ARC
8
Black
10
355
20
-240.989
40
0.05
50
180
51
360
0
LINE
8
Black
10
340
20
-211.039
11
355
21
-211.039
0
LINE
8
Black
10
340
20
-210.939
11
355
21
-210.939
0
ARC
8
Black
10
355
20
-210.989
40
0.05
50
270
51
450
0
ARC
8
Black
10
340
20
-210.989
40
0.05
50
90
51
270
0
LINE
8
Black
10
340.05
20
-240.989
11
340.05
21
-210.989
0
LINE
8
Black
10
339.95
20
-240.989
11
339.95
21
-210.989
0
ARC
8
Black
10
340
20
-210.989
40
0.05
50
360
51
540
0
ARC
8
Black
10
340
20
-240.989
40
0.05
50
180
51
360
0
LINE
8
Black
10
320
20
-241.039
11
335
21
-241.039
0
LINE
8
Black
10
320
20
-240.939
11
335
21
-240.939
0
ARC
8
Black
10
335
20
-240.989
40
0.05
50
270
51
450
0
ARC
8
Black
10
320
20
-240.989
40
0.05
50
90
51
270
0
LINE
8
Black
10
335.05
20
-240.989
11
335.05
21
-210.989
0
LINE
8
Black
10
334.95
20
-240.989
11
334.95
21
-210.989
0
ARC
8
Black
10
335
20
-210.989
40
0.05
50
360
51
540
0
ARC
8
Black
10
335
20
-240.989
40
0.05
50
180
51
360
0
LINE
8
Black
10
320
20
-211.039
11
335
21
-211.039
0
LINE
8
Black
10
320
20
-210.939
11
335
21
-210.939
0
ARC
8
Black
10
335
20
-210.989
40
0.05
50
270
51
450
0
ARC
8
Black
10
320
20
-210.989
40
0.05
50
90
51
270
0
LINE
8
Black
10
320.05
20
-240.989
11
320.05
21
-210.989
0
LINE
8
Black
10
319.95
20
-240.989
11
319.95
21
-210.989
0
ARC
8
Black
10
320
20
-210.989
40
0.05
50
360
51
540
0
ARC
8
Black
10
320
20
-240.989
40
0.05
50
180
51
360
0
LINE
8
Black
10
300
20
-241.039
11
315
21
-241.039
0
LINE
8
Black
10
300
20
-240.939
11
315
21
-240.939
0
ARC
8
Black
10
315
20
-240.989
40
0.05
50
270
51
450
0
ARC
8
Black
10
300
20
-240.989
40
0.05
50
90
51
270
0
LINE
8
Black
10
315.05
20
-240.989
11
315.05
21
-210.989
0
LINE
8
Black
10
314.95
20
-240.989
11
314.95
21
-210.989
0
ARC
8
Black
10
315
20
-210.989
40
0.05
50
360
51
540
0
ARC
8
Black
10
315
20
-240.989
40
0.05
50
180
51
360
0
LINE
8
Black
10
300
20
-211.039
11
315
21
-211.039
0
LINE
8
Black
10
300
20
-210.939
11
315
21
-210.939
0
ARC
8
Black
10
315
20
-210.989
40
0.05
50
270
51
450
0
ARC
8
Black
10
300
20
-210.989
40
0.05
50
90
51
270
0
LINE
8
Black
10
300.05
20
-240.989
11
300.05
21
-210.989
0
LINE
8
Black
10
299.95
20
-240.989
11
299.95
21
-210.989
0
ARC
8
Black
10
300
20
-210.989
40
0.05
50
360
51
540
0
ARC
8
Black
10
300
20
-240.989
40
0.05
50
180
51
360
0
LINE
8
Black
10
280
20
-241.039
11
295
21
-241.039
0
LINE
8
Black
10
280
20
-240.939
11
295
21
-240.939
0
ARC
8
Black
10
295
20
-240.989
40
0.05
50
270
51
450
0
ARC
8
Black
10
280
20
-240.989
40
0.05
50
90
51
270
0
LINE
8
Black
10
295.05
20
-240.989
11
295.05
21
-210.989
0
LINE
8
Black
10
294.95
20
-240.989
11
294.95
21
-210.989
0
ARC
8
Black
10
295
20
-210.989
40
0.05
50
360
51
540
0
ARC
8
Black
10
295
20
-240.989
40
0.05
50
180
51
360
0
LINE
8
Black
10
280
20
-211.039
11
295
21
-211.039
0
LINE
8
Black
10
280
20
-210.939
11
295
21
-210.939
0
ARC
8
Black
10
295
20
-210.989
40
0.05
50
270
51
450
0
ARC
8
Black
10
280
20
-210.989
40
0.05
50
90
51
270
0
LINE
8
Black
10
280.05
20
-240.989
11
280.05
21
-210.989
0
LINE
8
Black
10
279.95
20
-240.989
11
279.95
21
-210.989
0
ARC
8
Black
10
280
20
-210.989
40
0.05
50
360
51
540
0
ARC
8
Black
10
280
20
-240.989
40
0.05
50
180
51
360
0
LINE
8
Black
10
260
20
-241.039
11
275
21
-241.039
0
LINE
8
Black
10
260
20
-240.939
11
275
21
-240.939
0
ARC
8
Black
10
275
20
-240.989
40
0.05
50
270
51
450
0
ARC
8
Black
10
260
20
-240.989
40
0.05
50
90
51
270
0
LINE
8
Black
10
275.05
20
-240.989
11
275.05
21
-210.989
0
LINE
8
Black
10
274.95
20
-240.989
11
274.95
21
-210.989
0
ARC
8
Black
10
275
20
-210.989
40
0.05
50
360
51
540
0
ARC
8
Black
10
275
20
-240.989
40
0.05
50
180
51
360
0
LINE
8
Black
10
260
20
-211.039
11
275
21
-211.039
0
LINE
8
Black
10
260
20
-210.939
11
275
21
-210.939
0
ARC
8
Black
10
275
20
-210.989
40
0.05
50
270
51
450
0
ARC
8
Black
10
260
20
-210.989
40
0.05
50
90
51
270
0
LINE
8
Black
10
260.05
20
-240.989
11
260.05
21
-210.989
0
LINE
8
Black
10
259.95
20
-240.989
11
259.95
21
-210.989
0
ARC
8
Black
10
260
20
-210.989
40
0.05
50
360
51
540
0
ARC
8
Black
10
260
20
-240.989
40
0.05
50
180
51
360
0
LINE
8
Black
10
240
20
-241.039
11
255
21
-241.039
0
LINE
8
Black
10
240
20
-240.939
11
255
21
-240.939
0
ARC
8
Black
10
255
20
-240.989
40
0.05
50
270
51
450
0
ARC
8
Black
10
240
20
-240.989
40
0.05
50
90
51
270
0
LINE
8
Black
10
255.05
20
-240.989
11
255.05
21
-210.989
0
LINE
8
Black
10
254.95
20
-240.989
11
254.95
21
-210.989
0
ARC
8
Black
10
255
20
-210.989
40
0.05
50
360
51
540
0
ARC
8
Black
10
255
20
-240.989
40
0.05
50
180
51
360
0
LINE
8
Black
10
240
20
-211.039
11
255
21
-211.039
0
LINE
8
Black
10
240
20
-210.939
11
255
21
-210.939
0
ARC
8
Black
10
255
20
-210.989
40
0.05
50
270
51
450
0
ARC
8
Black
10
240
20
-210.989
40
0.05
50
90
51
270
0
LINE
8
Black
10
240.05
20
-240.989
11
240.05
21
-210.989
0
LINE
8
Black
10
239.95
20
-240.989
11
239.95
21
-210.989
0
ARC
8
Black
10
240
20
-210.989
40
0.05
50
360
51
540
0
ARC
8
Black
10
240
20
-240.989
40
0.05
50
180
51
360
0
LINE
8
Black
10
220
20
-241.039
11
235
21
-241.039
0
LINE
8
Black
10
220
20
-240.939
11
235
21
-240.939
0
ARC
8
Black
10
235
20
-240.989
40
0.05
50
270
51
450
0
ARC
8
Black
10
220
20
-240.989
40
0.05
50
90
51
270
0
LINE
8
Black
10
235.05
20
-240.989
11
235.05
21
-210.989
0
LINE
8
Black
10
234.95
20
-240.989
11
234.95
21
-210.989
0
ARC
8
Black
10
235
20
-210.989
40
0.05
50
360
51
540
0
ARC
8
Black
10
235
20
-240.989
40
0.05
50
180
51
360
0
LINE
8
Black
10
220
20
-211.039
11
235
21
-211.039
0
LINE
8
Black
10
220
20
-210.939
11
235
21
-210.939
0
ARC
8
Black
10
235
20
-210.989
40
0.05
50
270
51
450
0
ARC
8
Black
10
220
20
-210.989
40
0.05
50
90
51
270
0
LINE
8
Black
10
220.05
20
-240.989
11
220.05
21
-210.989
0
LINE
8
Black
10
219.95
20
-240.989
11
219.95
21
-210.989
0
ARC
8
Black
10
220
20
-210.989
40
0.05
50
360
51
540
0
ARC
8
Black
10
220
20
-240.989
40
0.05
50
180
51
360
0
LINE
8
Black
10
200
20
-241.039
11
215
21
-241.039
0
LINE
8
Black
10
200
20
-240.939
11
215
21
-240.939
0
ARC
8
Black
10
215
20
-240.989
40
0.05
50
270
51
450
0
ARC
8
Black
10
200
20
-240.989
40
0.05
50
90
51
270
0
LINE
8
Black
10
215.05
20
-240.989
11
215.05
21
-210.989
0
LINE
8
Black
10
214.95
20
-240.989
11
214.95
21
-210.989
0
ARC
8
Black
10
215
20
-210.989
40
0.05
50
360
51
540
0
ARC
8
Black
10
215
20
-240.989
40
0.05
50
180
51
360
0
LINE
8
Black
10
200
20
-211.039
11
215
21
-211.039
0
LINE
8
Black
10
200
20
-210.939
11
215
21
-210.939
0
ARC
8
Black
10
215
20
-210.989
40
0.05
50
270
51
450
0
ARC
8
Black
10
200
20
-210.989
40
0.05
50
90
51
270
0
LINE
8
Black
10
200.05
20
-240.989
11
200.05
21
-210.989
0
LINE
8
Black
10
199.95
20
-240.989
11
199.95
21
-210.989
0
ARC
8
Black
10
200
20
-210.989
40
0.05
50
360
51
540
0
ARC
8
Black
10
200
20
-240.989
40
0.05
50
180
51
360
0
LINE
8
Black
10
180
20
-241.039
11
195
21
-241.039
0
LINE
8
Black
10
180
20
-240.939
11
195
21
-240.939
0
ARC
8
Black
10
195
20
-240.989
40
0.05
50
270
51
450
0
ARC
8
Black
10
180
20
-240.989
40
0.05
50
90
51
270
0
LINE
8
Black
10
195.05
20
-240.989
11
195.05
21
-210.989
0
LINE
8
Black
10
194.95
20
-240.989
11
194.95
21
-210.989
0
ARC
8
Black
10
195
20
-210.989
40
0.05
50
360
51
540
0
ARC
8
Black
10
195
20
-240.989
40
0.05
50
180
51
360
0
LINE
8
Black
10
180
20
-211.039
11
195
21
-211.039
0
LINE
8
Black
10
180
20
-210.939
11
195
21
-210.939
0
ARC
8
Black
10
195
20
-210.989
40
0.05
50
270
51
450
0
ARC
8
Black
10
180
20
-210.989
40
0.05
50
90
51
270
0
LINE
8
Black
10
180.05
20
-240.989
11
180.05
21
-210.989
0
LINE
8
Black
10
179.95
20
-240.989
11
179.95
21
-210.989
0
ARC
8
Black
10
180
20
-210.989
40
0.05
50
360
51
540
0
ARC
8
Black
10
180
20
-240.989
40
0.05
50
180
51
360
0
LINE
8
Black
10
400
20
-276.039
11
415
21
-276.039
0
LINE
8
Black
10
400
20
-275.939
11
415
21
-275.939
0
ARC
8
Black
10
415
20
-275.989
40
0.05
50
270
51
450
0
ARC
8
Black
10
400
20
-275.989
40
0.05
50
90
51
270
0
LINE
8
Black
10
415.05
20
-275.989
11
415.05
21
-245.989
0
LINE
8
Black
10
414.95
20
-275.989
11
414.95
21
-245.989
0
ARC
8
Black
10
415
20
-245.989
40
0.05
50
360
51
540
0
ARC
8
Black
10
415
20
-275.989
40
0.05
50
180
51
360
0
LINE
8
Black
10
400
20
-246.039
11
415
21
-246.039
0
LINE
8
Black
10
400
20
-245.939
11
415
21
-245.939
0
ARC
8
Black
10
415
20
-245.989
40
0.05
50
270
51
450
0
ARC
8
Black
10
400
20
-245.989
40
0.05
50
90
51
270
0
LINE
8
Black
10
400.05
20
-275.989
11
400.05
21
-245.989
0
LINE
8
Black
10
399.95
20
-275.989
11
399.95
21
-245.989
0
ARC
8
Black
10
400
20
-245.989
40
0.05
50
360
51
540
0
ARC
8
Black
10
400
20
-275.989
40
0.05
50
180
51
360
0
LINE
8
Black
10
380
20
-276.039
11
395
21
-276.039
0
LINE
8
Black
10
380
20
-275.939
11
395
21
-275.939
0
ARC
8
Black
10
395
20
-275.989
40
0.05
50
270
51
450
0
ARC
8
Black
10
380
20
-275.989
40
0.05
50
90
51
270
0
LINE
8
Black
10
395.05
20
-275.989
11
395.05
21
-245.989
0
LINE
8
Black
10
394.95
20
-275.989
11
394.95
21
-245.989
0
ARC
8
Black
10
395
20
-245.989
40
0.05
50
360
51
540
0
ARC
8
Black
10
395
20
-275.989
40
0.05
50
180
51
360
0
LINE
8
Black
10
380
20
-246.039
11
395
21
-246.039
0
LINE
8
Black
10
380
20
-245.939
11
395
21
-245.939
0
ARC
8
Black
10
395
20
-245.989
40
0.05
50
270
51
450
0
ARC
8
Black
10
380
20
-245.989
40
0.05
50
90
51
270
0
LINE
8
Black
10
380.05
20
-275.989
11
380.05
21
-245.989
0
LINE
8
Black
10
379.95
20
-275.989
11
379.95
21
-245.989
0
ARC
8
Black
10
380
20
-245.989
40
0.05
50
360
51
540
0
ARC
8
Black
10
380
20
-275.989
40
0.05
50
180
51
360
0
LINE
8
Black
10
360
20
-276.039
11
375
21
-276.039
0
LINE
8
Black
10
360
20
-275.939
11
375
21
-275.939
0
ARC
8
Black
10
375
20
-275.989
40
0.05
50
270
51
450
0
ARC
8
Black
10
360
20
-275.989
40
0.05
50
90
51
270
0
LINE
8
Black
10
375.05
20
-275.989
11
375.05
21
-245.989
0
LINE
8
Black
10
374.95
20
-275.989
11
374.95
21
-245.989
0
ARC
8
Black
10
375
20
-245.989
40
0.05
50
360
51
540
0
ARC
8
Black
10
375
20
-275.989
40
0.05
50
180
51
360
0
LINE
8
Black
10
360
20
-246.039
11
375
21
-246.039
0
LINE
8
Black
10
360
20
-245.939
11
375
21
-245.939
0
ARC
8
Black
10
375
20
-245.989
40
0.05
50
270
51
450
0
ARC
8
Black
10
360
20
-245.989
40
0.05
50
90
51
270
0
LINE
8
Black
10
360.05
20
-275.989
11
360.05
21
-245.989
0
LINE
8
Black
10
359.95
20
-275.989
11
359.95
21
-245.989
0
ARC
8
Black
10
360
20
-245.989
40
0.05
50
360
51
540
0
ARC
8
Black
10
360
20
-275.989
40
0.05
50
180
51
360
0
LINE
8
Black
10
340
20
-276.039
11
355
21
-276.039
0
LINE
8
Black
10
340
20
-275.939
11
355
21
-275.939
0
ARC
8
Black
10
355
20
-275.989
40
0.05
50
270
51
450
0
ARC
8
Black
10
340
20
-275.989
40
0.05
50
90
51
270
0
LINE
8
Black
10
355.05
20
-275.989
11
355.05
21
-245.989
0
LINE
8
Black
10
354.95
20
-275.989
11
354.95
21
-245.989
0
ARC
8
Black
10
355
20
-245.989
40
0.05
50
360
51
540
0
ARC
8
Black
10
355
20
-275.989
40
0.05
50
180
51
360
0
LINE
8
Black
10
340
20
-246.039
11
355
21
-246.039
0
LINE
8
Black
10
340
20
-245.939
11
355
21
-245.939
0
ARC
8
Black
10
355
20
-245.989
40
0.05
50
270
51
450
0
ARC
8
Black
10
340
20
-245.989
40
0.05
50
90
51
270
0
LINE
8
Black
10
340.05
20
-275.989
11
340.05
21
-245.989
0
LINE
8
Black
10
339.95
20
-275.989
11
339.95
21
-245.989
0
ARC
8
Black
10
340
20
-245.989
40
0.05
50
360
51
540
0
ARC
8
Black
10
340
20
-275.989
40
0.05
50
180
51
360
0
LINE
8
Black
10
320
20
-276.039
11
335
21
-276.039
0
LINE
8
Black
10
320
20
-275.939
11
335
21
-275.939
0
ARC
8
Black
10
335
20
-275.989
40
0.05
50
270
51
450
0
ARC
8
Black
10
320
20
-275.989
40
0.05
50
90
51
270
0
LINE
8
Black
10
335.05
20
-275.989
11
335.05
21
-245.989
0
LINE
8
Black
10
334.95
20
-275.989
11
334.95
21
-245.989
0
ARC
8
Black
10
335
20
-245.989
40
0.05
50
360
51
540
0
ARC
8
Black
10
335
20
-275.989
40
0.05
50
180
51
360
0
LINE
8
Black
10
320
20
-246.039
11
335
21
-246.039
0
LINE
8
Black
10
320
20
-245.939
11
335
21
-245.939
0
ARC
8
Black
10
335
20
-245.989
40
0.05
50
270
51
450
0
ARC
8
Black
10
320
20
-245.989
40
0.05
50
90
51
270
0
LINE
8
Black
10
320.05
20
-275.989
11
320.05
21
-245.989
0
LINE
8
Black
10
319.95
20
-275.989
11
319.95
21
-245.989
0
ARC
8
Black
10
320
20
-245.989
40
0.05
50
360
51
540
0
ARC
8
Black
10
320
20
-275.989
40
0.05
50
180
51
360
0
LINE
8
Black
10
300
20
-276.039
11
315
21
-276.039
0
LINE
8
Black
10
300
20
-275.939
11
315
21
-275.939
0
ARC
8
Black
10
315
20
-275.989
40
0.05
50
270
51
450
0
ARC
8
Black
10
300
20
-275.989
40
0.05
50
90
51
270
0
LINE
8
Black
10
315.05
20
-275.989
11
315.05
21
-245.989
0
LINE
8
Black
10
314.95
20
-275.989
11
314.95
21
-245.989
0
ARC
8
Black
10
315
20
-245.989
40
0.05
50
360
51
540
0
ARC
8
Black
10
315
20
-275.989
40
0.05
50
180
51
360
0
LINE
8
Black
10
300
20
-246.039
11
315
21
-246.039
0
LINE
8
Black
10
300
20
-245.939
11
315
21
-245.939
0
ARC
8
Black
10
315
20
-245.989
40
0.05
50
270
51
450
0
ARC
8
Black
10
300
20
-245.989
40
0.05
50
90
51
270
0
LINE
8
Black
10
300.05
20
-275.989
11
300.05
21
-245.989
0
LINE
8
Black
10
299.95
20
-275.989
11
299.95
21
-245.989
0
ARC
8
Black
10
300
20
-245.989
40
0.05
50
360
51
540
0
ARC
8
Black
10
300
20
-275.989
40
0.05
50
180
51
360
0
LINE
8
Black
10
280
20
-276.039
11
295
21
-276.039
0
LINE
8
Black
10
280
20
-275.939
11
295
21
-275.939
0
ARC
8
Black
10
295
20
-275.989
40
0.05
50
270
51
450
0
ARC
8
Black
10
280
20
-275.989
40
0.05
50
90
51
270
0
LINE
8
Black
10
295.05
20
-275.989
11
295.05
21
-245.989
0
LINE
8
Black
10
294.95
20
-275.989
11
294.95
21
-245.989
0
ARC
8
Black
10
295
20
-245.989
40
0.05
50
360
51
540
0
ARC
8
Black
10
295
20
-275.989
40
0.05
50
180
51
360
0
LINE
8
Black
10
280
20
-246.039
11
295
21
-246.039
0
LINE
8
Black
10
280
20
-245.939
11
295
21
-245.939
0
ARC
8
Black
10
295
20
-245.989
40
0.05
50
270
51
450
0
ARC
8
Black
10
280
20
-245.989
40
0.05
50
90
51
270
0
LINE
8
Black
10
280.05
20
-275.989
11
280.05
21
-245.989
0
LINE
8
Black
10
279.95
20
-275.989
11
279.95
21
-245.989
0
ARC
8
Black
10
280
20
-245.989
40
0.05
50
360
51
540
0
ARC
8
Black
10
280
20
-275.989
40
0.05
50
180
51
360
0
LINE
8
Black
10
260
20
-276.039
11
275
21
-276.039
0
LINE
8
Black
10
260
20
-275.939
11
275
21
-275.939
0
ARC
8
Black
10
275
20
-275.989
40
0.05
50
270
51
450
0
ARC
8
Black
10
260
20
-275.989
40
0.05
50
90
51
270
0
LINE
8
Black
10
275.05
20
-275.989
11
275.05
21
-245.989
0
LINE
8
Black
10
274.95
20
-275.989
11
274.95
21
-245.989
0
ARC
8
Black
10
275
20
-245.989
40
0.05
50
360
51
540
0
ARC
8
Black
10
275
20
-275.989
40
0.05
50
180
51
360
0
LINE
8
Black
10
260
20
-246.039
11
275
21
-246.039
0
LINE
8
Black
10
260
20
-245.939
11
275
21
-245.939
0
ARC
8
Black
10
275
20
-245.989
40
0.05
50
270
51
450
0
ARC
8
Black
10
260
20
-245.989
40
0.05
50
90
51
270
0
LINE
8
Black
10
260.05
20
-275.989
11
260.05
21
-245.989
0
LINE
8
Black
10
259.95
20
-275.989
11
259.95
21
-245.989
0
ARC
8
Black
10
260
20
-245.989
40
0.05
50
360
51
540
0
ARC
8
Black
10
260
20
-275.989
40
0.05
50
180
51
360
0
LINE
8
Black
10
240
20
-276.039
11
255
21
-276.039
0
LINE
8
Black
10
240
20
-275.939
11
255
21
-275.939
0
ARC
8
Black
10
255
20
-275.989
40
0.05
50
270
51
450
0
ARC
8
Black
10
240
20
-275.989
40
0.05
50
90
51
270
0
LINE
8
Black
10
255.05
20
-275.989
11
255.05
21
-245.989
0
LINE
8
Black
10
254.95
20
-275.989
11
254.95
21
-245.989
0
ARC
8
Black
10
255
20
-245.989
40
0.05
50
360
51
540
0
ARC
8
Black
10
255
20
-275.989
40
0.05
50
180
51
360
0
LINE
8
Black
10
240
20
-246.039
11
255
21
-246.039
0
LINE
8
Black
10
240
20
-245.939
11
255
21
-245.939
0
ARC
8
Black
10
255
20
-245.989
40
0.05
50
270
51
450
0
ARC
8
Black
10
240
20
-245.989
40
0.05
50
90
51
270
0
LINE
8
Black
10
240.05
20
-275.989
11
240.05
21
-245.989
0
LINE
8
Black
10
239.95
20
-275.989
11
239.95
21
-245.989
0
ARC
8
Black
10
240
20
-245.989
40
0.05
50
360
51
540
0
ARC
8
Black
10
240
20
-275.989
40
0.05
50
180
51
360
0
LINE
8
Black
10
220
20
-276.039
11
235
21
-276.039
0
LINE
8
Black
10
220
20
-275.939
11
235
21
-275.939
0
ARC
8
Black
10
235
20
-275.989
40
0.05
50
270
51
450
0
ARC
8
Black
10
220
20
-275.989
40
0.05
50
90
51
270
0
LINE
8
Black
10
235.05
20
-275.989
11
235.05
21
-245.989
0
LINE
8
Black
10
234.95
20
-275.989
11
234.95
21
-245.989
0
ARC
8
Black
10
235
20
-245.989
40
0.05
50
360
51
540
0
ARC
8
Black
10
235
20
-275.989
40
0.05
50
180
51
360
0
LINE
8
Black
10
220
20
-246.039
11
235
21
-246.039
0
LINE
8
Black
10
220
20
-245.939
11
235
21
-245.939
0
ARC
8
Black
10
235
20
-245.989
40
0.05
50
270
51
450
0
ARC
8
Black
10
220
20
-245.989
40
0.05
50
90
51
270
0
LINE
8
Black
10
220.05
20
-275.989
11
220.05
21
-245.989
0
LINE
8
Black
10
219.95
20
-275.989
11
219.95
21
-245.989
0
ARC
8
Black
10
220
20
-245.989
40
0.05
50
360
51
540
0
ARC
8
Black
10
220
20
-275.989
40
0.05
50
180
51
360
0
LINE
8
Black
10
200
20
-276.039
11
215
21
-276.039
0
LINE
8
Black
10
200
20
-275.939
11
215
21
-275.939
0
ARC
8
Black
10
215
20
-275.989
40
0.05
50
270
51
450
0
ARC
8
Black
10
200
20
-275.989
40
0.05
50
90
51
270
0
LINE
8
Black
10
215.05
20
-275.989
11
215.05
21
-245.989
0
LINE
8
Black
10
214.95
20
-275.989
11
214.95
21
-245.989
0
ARC
8
Black
10
215
20
-245.989
40
0.05
50
360
51
540
0
ARC
8
Black
10
215
20
-275.989
40
0.05
50
180
51
360
0
LINE
8
Black
10
200
20
-246.039
11
215
21
-246.039
0
LINE
8
Black
10
200
20
-245.939
11
215
21
-245.939
0
ARC
8
Black
10
215
20
-245.989
40
0.05
50
270
51
450
0
ARC
8
Black
10
200
20
-245.989
40
0.05
50
90
51
270
0
LINE
8
Black
10
200.05
20
-275.989
11
200.05
21
-245.989
0
LINE
8
Black
10
199.95
20
-275.989
11
199.95
21
-245.989
0
ARC
8
Black
10
200
20
-245.989
40
0.05
50
360
51
540
0
ARC
8
Black
10
200
20
-275.989
40
0.05
50
180
51
360
0
LINE
8
Black
10
180
20
-276.039
11
195
21
-276.039
0
LINE
8
Black
10
180
20
-275.939
11
195
21
-275.939
0
ARC
8
Black
10
195
20
-275.989
40
0.05
50
270
51
450
0
ARC
8
Black
10
180
20
-275.989
40
0.05
50
90
51
270
0
LINE
8
Black
10
195.05
20
-275.989
11
195.05
21
-245.989
0
LINE
8
Black
10
194.95
20
-275.989
11
194.95
21
-245.989
0
ARC
8
Black
10
195
20
-245.989
40
0.05
50
360
51
540
0
ARC
8
Black
10
195
20
-275.989
40
0.05
50
180
51
360
0
LINE
8
Black
10
180
20
-246.039
11
195
21
-246.039
0
LINE
8
Black
10
180
20
-245.939
11
195
21
-245.939
0
ARC
8
Black
10
195
20
-245.989
40
0.05
50
270
51
450
0
ARC
8
Black
10
180
20
-245.989
40
0.05
50
90
51
270
0
LINE
8
Black
10
180.05
20
-275.989
11
180.05
21
-245.989
0
LINE
8
Black
10
179.95
20
-275.989
11
179.95
21
-245.989
0
ARC
8
Black
10
180
20
-245.989
40
0.05
50
360
51
540
0
ARC
8
Black
10
180
20
-275.989
40
0.05
50
180
51
360
0
LINE
8
Black
10
400
20
-311.039
11
415
21
-311.039
0
LINE
8
Black
10
400
20
-310.939
11
415
21
-310.939
0
ARC
8
Black
10
415
20
-310.989
40
0.05
50
270
51
450
0
ARC
8
Black
10
400
20
-310.989
40
0.05
50
90
51
270
0
LINE
8
Black
10
415.05
20
-310.989
11
415.05
21
-280.989
0
LINE
8
Black
10
414.95
20
-310.989
11
414.95
21
-280.989
0
ARC
8
Black
10
415
20
-280.989
40
0.05
50
360
51
540
0
ARC
8
Black
10
415
20
-310.989
40
0.05
50
180
51
360
0
LINE
8
Black
10
400
20
-281.039
11
415
21
-281.039
0
LINE
8
Black
10
400
20
-280.939
11
415
21
-280.939
0
ARC
8
Black
10
415
20
-280.989
40
0.05
50
270
51
450
0
ARC
8
Black
10
400
20
-280.989
40
0.05
50
90
51
270
0
LINE
8
Black
10
400.05
20
-310.989
11
400.05
21
-280.989
0
LINE
8
Black
10
399.95
20
-310.989
11
399.95
21
-280.989
0
ARC
8
Black
10
400
20
-280.989
40
0.05
50
360
51
540
0
ARC
8
Black
10
400
20
-310.989
40
0.05
50
180
51
360
0
LINE
8
Black
10
380
20
-311.039
11
395
21
-311.039
0
LINE
8
Black
10
380
20
-310.939
11
395
21
-310.939
0
ARC
8
Black
10
395
20
-310.989
40
0.05
50
270
51
450
0
ARC
8
Black
10
380
20
-310.989
40
0.05
50
90
51
270
0
LINE
8
Black
10
395.05
20
-310.989
11
395.05
21
-280.989
0
LINE
8
Black
10
394.95
20
-310.989
11
394.95
21
-280.989
0
ARC
8
Black
10
395
20
-280.989
40
0.05
50
360
51
540
0
ARC
8
Black
10
395
20
-310.989
40
0.05
50
180
51
360
0
LINE
8
Black
10
380
20
-281.039
11
395
21
-281.039
0
LINE
8
Black
10
380
20
-280.939
11
395
21
-280.939
0
ARC
8
Black
10
395
20
-280.989
40
0.05
50
270
51
450
0
ARC
8
Black
10
380
20
-280.989
40
0.05
50
90
51
270
0
LINE
8
Black
10
380.05
20
-310.989
11
380.05
21
-280.989
0
LINE
8
Black
10
379.95
20
-310.989
11
379.95
21
-280.989
0
ARC
8
Black
10
380
20
-280.989
40
0.05
50
360
51
540
0
ARC
8
Black
10
380
20
-310.989
40
0.05
50
180
51
360
0
LINE
8
Black
10
360
20
-311.039
11
375
21
-311.039
0
LINE
8
Black
10
360
20
-310.939
11
375
21
-310.939
0
ARC
8
Black
10
375
20
-310.989
40
0.05
50
270
51
450
0
ARC
8
Black
10
360
20
-310.989
40
0.05
50
90
51
270
0
LINE
8
Black
10
375.05
20
-310.989
11
375.05
21
-280.989
0
LINE
8
Black
10
374.95
20
-310.989
11
374.95
21
-280.989
0
ARC
8
Black
10
375
20
-280.989
40
0.05
50
360
51
540
0
ARC
8
Black
10
375
20
-310.989
40
0.05
50
180
51
360
0
LINE
8
Black
10
360
20
-281.039
11
375
21
-281.039
0
LINE
8
Black
10
360
20
-280.939
11
375
21
-280.939
0
ARC
8
Black
10
375
20
-280.989
40
0.05
50
270
51
450
0
ARC
8
Black
10
360
20
-280.989
40
0.05
50
90
51
270
0
LINE
8
Black
10
360.05
20
-310.989
11
360.05
21
-280.989
0
LINE
8
Black
10
359.95
20
-310.989
11
359.95
21
-280.989
0
ARC
8
Black
10
360
20
-280.989
40
0.05
50
360
51
540
0
ARC
8
Black
10
360
20
-310.989
40
0.05
50
180
51
360
0
LINE
8
Black
10
340
20
-311.039
11
355
21
-311.039
0
LINE
8
Black
10
340
20
-310.939
11
355
21
-310.939
0
ARC
8
Black
10
355
20
-310.989
40
0.05
50
270
51
450
0
ARC
8
Black
10
340
20
-310.989
40
0.05
50
90
51
270
0
LINE
8
Black
10
355.05
20
-310.989
11
355.05
21
-280.989
0
LINE
8
Black
10
354.95
20
-310.989
11
354.95
21
-280.989
0
ARC
8
Black
10
355
20
-280.989
40
0.05
50
360
51
540
0
ARC
8
Black
10
355
20
-310.989
40
0.05
50
180
51
360
0
LINE
8
Black
10
340
20
-281.039
11
355
21
-281.039
0
LINE
8
Black
10
340
20
-280.939
11
355
21
-280.939
0
ARC
8
Black
10
355
20
-280.989
40
0.05
50
270
51
450
0
ARC
8
Black
10
340
20
-280.989
40
0.05
50
90
51
270
0
LINE
8
Black
10
340.05
20
-310.989
11
340.05
21
-280.989
0
LINE
8
Black
10
339.95
20
-310.989
11
339.95
21
-280.989
0
ARC
8
Black
10
340
20
-280.989
40
0.05
50
360
51
540
0
ARC
8
Black
10
340
20
-310.989
40
0.05
50
180
51
360
0
LINE
8
Black
10
320
20
-311.039
11
335
21
-311.039
0
LINE
8
Black
10
320
20
-310.939
11
335
21
-310.939
0
ARC
8
Black
10
335
20
-310.989
40
0.05
50
270
51
450
0
ARC
8
Black
10
320
20
-310.989
40
0.05
50
90
51
270
0
LINE
8
Black
10
335.05
20
-310.989
11
335.05
21
-280.989
0
LINE
8
Black
10
334.95
20
-310.989
11
334.95
21
-280.989
0
ARC
8
Black
10
335
20
-280.989
40
0.05
50
360
51
540
0
ARC
8
Black
10
335
20
-310.989
40
0.05
50
180
51
360
0
LINE
8
Black
10
320
20
-281.039
11
335
21
-281.039
0
LINE
8
Black
10
320
20
-280.939
11
335
21
-280.939
0
ARC
8
Black
10
335
20
-280.989
40
0.05
50
270
51
450
0
ARC
8
Black
10
320
20
-280.989
40
0.05
50
90
51
270
0
LINE
8
Black
10
320.05
20
-310.989
11
320.05
21
-280.989
0
LINE
8
Black
10
319.95
20
-310.989
11
319.95
21
-280.989
0
ARC
8
Black
10
320
20
-280.989
40
0.05
50
360
51
540
0
ARC
8
Black
10
320
20
-310.989
40
0.05
50
180
51
360
0
LINE
8
Black
10
300
20
-311.039
11
315
21
-311.039
0
LINE
8
Black
10
300
20
-310.939
11
315
21
-310.939
0
ARC
8
Black
10
315
20
-310.989
40
0.05
50
270
51
450
0
ARC
8
Black
10
300
20
-310.989
40
0.05
50
90
51
270
0
LINE
8
Black
10
315.05
20
-310.989
11
315.05
21
-280.989
0
LINE
8
Black
10
314.95
20
-310.989
11
314.95
21
-280.989
0
ARC
8
Black
10
315
20
-280.989
40
0.05
50
360
51
540
0
ARC
8
Black
10
315
20
-310.989
40
0.05
50
180
51
360
0
LINE
8
Black
10
300
20
-281.039
11
315
21
-281.039
0
LINE
8
Black
10
300
20
-280.939
11
315
21
-280.939
0
ARC
8
Black
10
315
20
-280.989
40
0.05
50
270
51
450
0
ARC
8
Black
10
300
20
-280.989
40
0.05
50
90
51
270
0
LINE
8
Black
10
300.05
20
-310.989
11
300.05
21
-280.989
0
LINE
8
Black
10
299.95
20
-310.989
11
299.95
21
-280.989
0
ARC
8
Black
10
300
20
-280.989
40
0.05
50
360
51
540
0
ARC
8
Black
10
300
20
-310.989
40
0.05
50
180
51
360
0
LINE
8
Black
10
280
20
-311.039
11
295
21
-311.039
0
LINE
8
Black
10
280
20
-310.939
11
295
21
-310.939
0
ARC
8
Black
10
295
20
-310.989
40
0.05
50
270
51
450
0
ARC
8
Black
10
280
20
-310.989
40
0.05
50
90
51
270
0
LINE
8
Black
10
295.05
20
-310.989
11
295.05
21
-280.989
0
LINE
8
Black
10
294.95
20
-310.989
11
294.95
21
-280.989
0
ARC
8
Black
10
295
20
-280.989
40
0.05
50
360
51
540
0
ARC
8
Black
10
295
20
-310.989
40
0.05
50
180
51
360
0
LINE
8
Black
10
280
20
-281.039
11
295
21
-281.039
0
LINE
8
Black
10
280
20
-280.939
11
295
21
-280.939
0
ARC
8
Black
10
295
20
-280.989
40
0.05
50
270
51
450
0
ARC
8
Black
10
280
20
-280.989
40
0.05
50
90
51
270
0
LINE
8
Black
10
280.05
20
-310.989
11
280.05
21
-280.989
0
LINE
8
Black
10
279.95
20
-310.989
11
279.95
21
-280.989
0
ARC
8
Black
10
280
20
-280.989
40
0.05
50
360
51
540
0
ARC
8
Black
10
280
20
-310.989
40
0.05
50
180
51
360
0
LINE
8
Black
10
260
20
-311.039
11
275
21
-311.039
0
LINE
8
Black
10
260
20
-310.939
11
275
21
-310.939
0
ARC
8
Black
10
275
20
-310.989
40
0.05
50
270
51
450
0
ARC
8
Black
10
260
20
-310.989
40
0.05
50
90
51
270
0
LINE
8
Black
10
275.05
20
-310.989
11
275.05
21
-280.989
0
LINE
8
Black
10
274.95
20
-310.989
11
274.95
21
-280.989
0
ARC
8
Black
10
275
20
-280.989
40
0.05
50
360
51
540
0
ARC
8
Black
10
275
20
-310.989
40
0.05
50
180
51
360
0
LINE
8
Black
10
260
20
-281.039
11
275
21
-281.039
0
LINE
8
Black
10
260
20
-280.939
11
275
21
-280.939
0
ARC
8
Black
10
275
20
-280.989
40
0.05
50
270
51
450
0
ARC
8
Black
10
260
20
-280.989
40
0.05
50
90
51
270
0
LINE
8
Black
10
260.05
20
-310.989
11
260.05
21
-280.989
0
LINE
8
Black
10
259.95
20
-310.989
11
259.95
21
-280.989
0
ARC
8
Black
10
260
20
-280.989
40
0.05
50
360
51
540
0
ARC
8
Black
10
260
20
-310.989
40
0.05
50
180
51
360
0
LINE
8
Black
10
240
20
-311.039
11
255
21
-311.039
0
LINE
8
Black
10
240
20
-310.939
11
255
21
-310.939
0
ARC
8
Black
10
255
20
-310.989
40
0.05
50
270
51
450
0
ARC
8
Black
10
240
20
-310.989
40
0.05
50
90
51
270
0
LINE
8
Black
10
255.05
20
-310.989
11
255.05
21
-280.989
0
LINE
8
Black
10
254.95
20
-310.989
11
254.95
21
-280.989
0
ARC
8
Black
10
255
20
-280.989
40
0.05
50
360
51
540
0
ARC
8
Black
10
255
20
-310.989
40
0.05
50
180
51
360
0
LINE
8
Black
10
240
20
-281.039
11
255
21
-281.039
0
LINE
8
Black
10
240
20
-280.939
11
255
21
-280.939
0
ARC
8
Black
10
255
20
-280.989
40
0.05
50
270
51
450
0
ARC
8
Black
10
240
20
-280.989
40
0.05
50
90
51
270
0
LINE
8
Black
10
240.05
20
-310.989
11
240.05
21
-280.989
0
LINE
8
Black
10
239.95
20
-310.989
11
239.95
21
-280.989
0
ARC
8
Black
10
240
20
-280.989
40
0.05
50
360
51
540
0
ARC
8
Black
10
240
20
-310.989
40
0.05
50
180
51
360
0
LINE
8
Black
10
220
20
-311.039
11
235
21
-311.039
0
LINE
8
Black
10
220
20
-310.939
11
235
21
-310.939
0
ARC
8
Black
10
235
20
-310.989
40
0.05
50
270
51
450
0
ARC
8
Black
10
220
20
-310.989
40
0.05
50
90
51
270
0
LINE
8
Black
10
235.05
20
-310.989
11
235.05
21
-280.989
0
LINE
8
Black
10
234.95
20
-310.989
11
234.95
21
-280.989
0
ARC
8
Black
10
235
20
-280.989
40
0.05
50
360
51
540
0
ARC
8
Black
10
235
20
-310.989
40
0.05
50
180
51
360
0
LINE
8
Black
10
220
20
-281.039
11
235
21
-281.039
0
LINE
8
Black
10
220
20
-280.939
11
235
21
-280.939
0
ARC
8
Black
10
235
20
-280.989
40
0.05
50
270
51
450
0
ARC
8
Black
10
220
20
-280.989
40
0.05
50
90
51
270
0
LINE
8
Black
10
220.05
20
-310.989
11
220.05
21
-280.989
0
LINE
8
Black
10
219.95
20
-310.989
11
219.95
21
-280.989
0
ARC
8
Black
10
220
20
-280.989
40
0.05
50
360
51
540
0
ARC
8
Black
10
220
20
-310.989
40
0.05
50
180
51
360
0
LINE
8
Black
10
200
20
-311.039
11
215
21
-311.039
0
LINE
8
Black
10
200
20
-310.939
11
215
21
-310.939
0
ARC
8
Black
10
215
20
-310.989
40
0.05
50
270
51
450
0
ARC
8
Black
10
200
20
-310.989
40
0.05
50
90
51
270
0
LINE
8
Black
10
215.05
20
-310.989
11
215.05
21
-280.989
0
LINE
8
Black
10
214.95
20
-310.989
11
214.95
21
-280.989
0
ARC
8
Black
10
215
20
-280.989
40
0.05
50
360
51
540
0
ARC
8
Black
10
215
20
-310.989
40
0.05
50
180
51
360
0
LINE
8
Black
10
200
20
-281.039
11
215
21
-281.039
0
LINE
8
Black
10
200
20
-280.939
11
215
21
-280.939
0
ARC
8
Black
10
215
20
-280.989
40
0.05
50
270
51
450
0
ARC
8
Black
10
200
20
-280.989
40
0.05
50
90
51
270
0
LINE
8
Black
10
200.05
20
-310.989
11
200.05
21
-280.989
0
LINE
8
Black
10
199.95
20
-310.989
11
199.95
21
-280.989
0
ARC
8
Black
10
200
20
-280.989
40
0.05
50
360
51
540
0
ARC
8
Black
10
200
20
-310.989
40
0.05
50
180
51
360
0
LINE
8
Black
10
180
20
-311.039
11
195
21
-311.039
0
LINE
8
Black
10
180
20
-310.939
11
195
21
-310.939
0
ARC
8
Black
10
195
20
-310.989
40
0.05
50
270
51
450
0
ARC
8
Black
10
180
20
-310.989
40
0.05
50
90
51
270
0
LINE
8
Black
10
195.05
20
-310.989
11
195.05
21
-280.989
0
LINE
8
Black
10
194.95
20
-310.989
11
194.95
21
-280.989
0
ARC
8
Black
10
195
20
-280.989
40
0.05
50
360
51
540
0
ARC
8
Black
10
195
20
-310.989
40
0.05
50
180
51
360
0
LINE
8
Black
10
180
20
-281.039
11
195
21
-281.039
0
LINE
8
Black
10
180
20
-280.939
11
195
21
-280.939
0
ARC
8
Black
10
195
20
-280.989
40
0.05
50
270
51
450
0
ARC
8
Black
10
180
20
-280.989
40
0.05
50
90
51
270
0
LINE
8
Black
10
180.05
20
-310.989
11
180.05
21
-280.989
0
LINE
8
Black
10
179.95
20
-310.989
11
179.95
21
-280.989
0
ARC
8
Black
10
180
20
-280.989
40
0.05
50
360
51
540
0
ARC
8
Black
10
180
20
-310.989
40
0.05
50
180
51
360
0
LINE
8
Black
10
400
20
-346.039
11
415
21
-346.039
0
LINE
8
Black
10
400
20
-345.939
11
415
21
-345.939
0
ARC
8
Black
10
415
20
-345.989
40
0.05
50
270
51
450
0
ARC
8
Black
10
400
20
-345.989
40
0.05
50
90
51
270
0
LINE
8
Black
10
415.05
20
-345.989
11
415.05
21
-315.989
0
LINE
8
Black
10
414.95
20
-345.989
11
414.95
21
-315.989
0
ARC
8
Black
10
415
20
-315.989
40
0.05
50
360
51
540
0
ARC
8
Black
10
415
20
-345.989
40
0.05
50
180
51
360
0
LINE
8
Black
10
400
20
-316.039
11
415
21
-316.039
0
LINE
8
Black
10
400
20
-315.939
11
415
21
-315.939
0
ARC
8
Black
10
415
20
-315.989
40
0.05
50
270
51
450
0
ARC
8
Black
10
400
20
-315.989
40
0.05
50
90
51
270
0
LINE
8
Black
10
400.05
20
-345.989
11
400.05
21
-315.989
0
LINE
8
Black
10
399.95
20
-345.989
11
399.95
21
-315.989
0
ARC
8
Black
10
400
20
-315.989
40
0.05
50
360
51
540
0
ARC
8
Black
10
400
20
-345.989
40
0.05
50
180
51
360
0
LINE
8
Black
10
380
20
-346.039
11
395
21
-346.039
0
LINE
8
Black
10
380
20
-345.939
11
395
21
-345.939
0
ARC
8
Black
10
395
20
-345.989
40
0.05
50
270
51
450
0
ARC
8
Black
10
380
20
-345.989
40
0.05
50
90
51
270
0
LINE
8
Black
10
395.05
20
-345.989
11
395.05
21
-315.989
0
LINE
8
Black
10
394.95
20
-345.989
11
394.95
21
-315.989
0
ARC
8
Black
10
395
20
-315.989
40
0.05
50
360
51
540
0
ARC
8
Black
10
395
20
-345.989
40
0.05
50
180
51
360
0
LINE
8
Black
10
380
20
-316.039
11
395
21
-316.039
0
LINE
8
Black
10
380
20
-315.939
11
395
21
-315.939
0
ARC
8
Black
10
395
20
-315.989
40
0.05
50
270
51
450
0
ARC
8
Black
10
380
20
-315.989
40
0.05
50
90
51
270
0
LINE
8
Black
10
380.05
20
-345.989
11
380.05
21
-315.989
0
LINE
8
Black
10
379.95
20
-345.989
11
379.95
21
-315.989
0
ARC
8
Black
10
380
20
-315.989
40
0.05
50
360
51
540
0
ARC
8
Black
10
380
20
-345.989
40
0.05
50
180
51
360
0
LINE
8
Black
10
360
20
-346.039
11
375
21
-346.039
0
LINE
8
Black
10
360
20
-345.939
11
375
21
-345.939
0
ARC
8
Black
10
375
20
-345.989
40
0.05
50
270
51
450
0
ARC
8
Black
10
360
20
-345.989
40
0.05
50
90
51
270
0
LINE
8
Black
10
375.05
20
-345.989
11
375.05
21
-315.989
0
LINE
8
Black
10
374.95
20
-345.989
11
374.95
21
-315.989
0
ARC
8
Black
10
375
20
-315.989
40
0.05
50
360
51
540
0
ARC
8
Black
10
375
20
-345.989
40
0.05
50
180
51
360
0
LINE
8
Black
10
360
20
-316.039
11
375
21
-316.039
0
LINE
8
Black
10
360
20
-315.939
11
375
21
-315.939
0
ARC
8
Black
10
375
20
-315.989
40
0.05
50
270
51
450
0
ARC
8
Black
10
360
20
-315.989
40
0.05
50
90
51
270
0
LINE
8
Black
10
360.05
20
-345.989
11
360.05
21
-315.989
0
LINE
8
Black
10
359.95
20
-345.989
11
359.95
21
-315.989
0
ARC
8
Black
10
360
20
-315.989
40
0.05
50
360
51
540
0
ARC
8
Black
10
360
20
-345.989
40
0.05
50
180
51
360
0
LINE
8
Black
10
340
20
-346.039
11
355
21
-346.039
0
LINE
8
Black
10
340
20
-345.939
11
355
21
-345.939
0
ARC
8
Black
10
355
20
-345.989
40
0.05
50
270
51
450
0
ARC
8
Black
10
340
20
-345.989
40
0.05
50
90
51
270
0
LINE
8
Black
10
355.05
20
-345.989
11
355.05
21
-315.989
0
LINE
8
Black
10
354.95
20
-345.989
11
354.95
21
-315.989
0
ARC
8
Black
10
355
20
-315.989
40
0.05
50
360
51
540
0
ARC
8
Black
10
355
20
-345.989
40
0.05
50
180
51
360
0
LINE
8
Black
10
340
20
-316.039
11
355
21
-316.039
0
LINE
8
Black
10
340
20
-315.939
11
355
21
-315.939
0
ARC
8
Black
10
355
20
-315.989
40
0.05
50
270
51
450
0
ARC
8
Black
10
340
20
-315.989
40
0.05
50
90
51
270
0
LINE
8
Black
10
340.05
20
-345.989
11
340.05
21
-315.989
0
LINE
8
Black
10
339.95
20
-345.989
11
339.95
21
-315.989
0
ARC
8
Black
10
340
20
-315.989
40
0.05
50
360
51
540
0
ARC
8
Black
10
340
20
-345.989
40
0.05
50
180
51
360
0
LINE
8
Black
10
320
20
-346.039
11
335
21
-346.039
0
LINE
8
Black
10
320
20
-345.939
11
335
21
-345.939
0
ARC
8
Black
10
335
20
-345.989
40
0.05
50
270
51
450
0
ARC
8
Black
10
320
20
-345.989
40
0.05
50
90
51
270
0
LINE
8
Black
10
335.05
20
-345.989
11
335.05
21
-315.989
0
LINE
8
Black
10
334.95
20
-345.989
11
334.95
21
-315.989
0
ARC
8
Black
10
335
20
-315.989
40
0.05
50
360
51
540
0
ARC
8
Black
10
335
20
-345.989
40
0.05
50
180
51
360
0
LINE
8
Black
10
320
20
-316.039
11
335
21
-316.039
0
LINE
8
Black
10
320
20
-315.939
11
335
21
-315.939
0
ARC
8
Black
10
335
20
-315.989
40
0.05
50
270
51
450
0
ARC
8
Black
10
320
20
-315.989
40
0.05
50
90
51
270
0
LINE
8
Black
10
320.05
20
-345.989
11
320.05
21
-315.989
0
LINE
8
Black
10
319.95
20
-345.989
11
319.95
21
-315.989
0
ARC
8
Black
10
320
20
-315.989
40
0.05
50
360
51
540
0
ARC
8
Black
10
320
20
-345.989
40
0.05
50
180
51
360
0
LINE
8
Black
10
300
20
-346.039
11
315
21
-346.039
0
LINE
8
Black
10
300
20
-345.939
11
315
21
-345.939
0
ARC
8
Black
10
315
20
-345.989
40
0.05
50
270
51
450
0
ARC
8
Black
10
300
20
-345.989
40
0.05
50
90
51
270
0
LINE
8
Black
10
315.05
20
-345.989
11
315.05
21
-315.989
0
LINE
8
Black
10
314.95
20
-345.989
11
314.95
21
-315.989
0
ARC
8
Black
10
315
20
-315.989
40
0.05
50
360
51
540
0
ARC
8
Black
10
315
20
-345.989
40
0.05
50
180
51
360
0
LINE
8
Black
10
300
20
-316.039
11
315
21
-316.039
0
LINE
8
Black
10
300
20
-315.939
11
315
21
-315.939
0
ARC
8
Black
10
315
20
-315.989
40
0.05
50
270
51
450
0
ARC
8
Black
10
300
20
-315.989
40
0.05
50
90
51
270
0
LINE
8
Black
10
300.05
20
-345.989
11
300.05
21
-315.989
0
LINE
8
Black
10
299.95
20
-345.989
11
299.95
21
-315.989
0
ARC
8
Black
10
300
20
-315.989
40
0.05
50
360
51
540
0
ARC
8
Black
10
300
20
-345.989
40
0.05
50
180
51
360
0
LINE
8
Black
10
280
20
-346.039
11
295
21
-346.039
0
LINE
8
Black
10
280
20
-345.939
11
295
21
-345.939
0
ARC
8
Black
10
295
20
-345.989
40
0.05
50
270
51
450
0
ARC
8
Black
10
280
20
-345.989
40
0.05
50
90
51
270
0
LINE
8
Black
10
295.05
20
-345.989
11
295.05
21
-315.989
0
LINE
8
Black
10
294.95
20
-345.989
11
294.95
21
-315.989
0
ARC
8
Black
10
295
20
-315.989
40
0.05
50
360
51
540
0
ARC
8
Black
10
295
20
-345.989
40
0.05
50
180
51
360
0
LINE
8
Black
10
280
20
-316.039
11
295
21
-316.039
0
LINE
8
Black
10
280
20
-315.939
11
295
21
-315.939
0
ARC
8
Black
10
295
20
-315.989
40
0.05
50
270
51
450
0
ARC
8
Black
10
280
20
-315.989
40
0.05
50
90
51
270
0
LINE
8
Black
10
280.05
20
-345.989
11
280.05
21
-315.989
0
LINE
8
Black
10
279.95
20
-345.989
11
279.95
21
-315.989
0
ARC
8
Black
10
280
20
-315.989
40
0.05
50
360
51
540
0
ARC
8
Black
10
280
20
-345.989
40
0.05
50
180
51
360
0
LINE
8
Black
10
260
20
-346.039
11
275
21
-346.039
0
LINE
8
Black
10
260
20
-345.939
11
275
21
-345.939
0
ARC
8
Black
10
275
20
-345.989
40
0.05
50
270
51
450
0
ARC
8
Black
10
260
20
-345.989
40
0.05
50
90
51
270
0
LINE
8
Black
10
275.05
20
-345.989
11
275.05
21
-315.989
0
LINE
8
Black
10
274.95
20
-345.989
11
274.95
21
-315.989
0
ARC
8
Black
10
275
20
-315.989
40
0.05
50
360
51
540
0
ARC
8
Black
10
275
20
-345.989
40
0.05
50
180
51
360
0
LINE
8
Black
10
260
20
-316.039
11
275
21
-316.039
0
LINE
8
Black
10
260
20
-315.939
11
275
21
-315.939
0
ARC
8
Black
10
275
20
-315.989
40
0.05
50
270
51
450
0
ARC
8
Black
10
260
20
-315.989
40
0.05
50
90
51
270
0
LINE
8
Black
10
260.05
20
-345.989
11
260.05
21
-315.989
0
LINE
8
Black
10
259.95
20
-345.989
11
259.95
21
-315.989
0
ARC
8
Black
10
260
20
-315.989
40
0.05
50
360
51
540
0
ARC
8
Black
10
260
20
-345.989
40
0.05
50
180
51
360
0
LINE
8
Black
10
240
20
-346.039
11
255
21
-346.039
0
LINE
8
Black
10
240
20
-345.939
11
255
21
-345.939
0
ARC
8
Black
10
255
20
-345.989
40
0.05
50
270
51
450
0
ARC
8
Black
10
240
20
-345.989
40
0.05
50
90
51
270
0
LINE
8
Black
10
255.05
20
-345.989
11
255.05
21
-315.989
0
LINE
8
Black
10
254.95
20
-345.989
11
254.95
21
-315.989
0
ARC
8
Black
10
255
20
-315.989
40
0.05
50
360
51
540
0
ARC
8
Black
10
255
20
-345.989
40
0.05
50
180
51
360
0
LINE
8
Black
10
240
20
-316.039
11
255
21
-316.039
0
LINE
8
Black
10
240
20
-315.939
11
255
21
-315.939
0
ARC
8
Black
10
255
20
-315.989
40
0.05
50
270
51
450
0
ARC
8
Black
10
240
20
-315.989
40
0.05
50
90
51
270
0
LINE
8
Black
10
240.05
20
-345.989
11
240.05
21
-315.989
0
LINE
8
Black
10
239.95
20
-345.989
11
239.95
21
-315.989
0
ARC
8
Black
10
240
20
-315.989
40
0.05
50
360
51
540
0
ARC
8
Black
10
240
20
-345.989
40
0.05
50
180
51
360
0
LINE
8
Black
10
220
20
-346.039
11
235
21
-346.039
0
LINE
8
Black
10
220
20
-345.939
11
235
21
-345.939
0
ARC
8
Black
10
235
20
-345.989
40
0.05
50
270
51
450
0
ARC
8
Black
10
220
20
-345.989
40
0.05
50
90
51
270
0
LINE
8
Black
10
235.05
20
-345.989
11
235.05
21
-315.989
0
LINE
8
Black
10
234.95
20
-345.989
11
234.95
21
-315.989
0
ARC
8
Black
10
235
20
-315.989
40
0.05
50
360
51
540
0
ARC
8
Black
10
235
20
-345.989
40
0.05
50
180
51
360
0
LINE
8
Black
10
220
20
-316.039
11
235
21
-316.039
0
LINE
8
Black
10
220
20
-315.939
11
235
21
-315.939
0
ARC
8
Black
10
235
20
-315.989
40
0.05
50
270
51
450
0
ARC
8
Black
10
220
20
-315.989
40
0.05
50
90
51
270
0
LINE
8
Black
10
220.05
20
-345.989
11
220.05
21
-315.989
0
LINE
8
Black
10
219.95
20
-345.989
11
219.95
21
-315.989
0
ARC
8
Black
10
220
20
-315.989
40
0.05
50
360
51
540
0
ARC
8
Black
10
220
20
-345.989
40
0.05
50
180
51
360
0
LINE
8
Black
10
200
20
-346.039
11
215
21
-346.039
0
LINE
8
Black
10
200
20
-345.939
11
215
21
-345.939
0
ARC
8
Black
10
215
20
-345.989
40
0.05
50
270
51
450
0
ARC
8
Black
10
200
20
-345.989
40
0.05
50
90
51
270
0
LINE
8
Black
10
215.05
20
-345.989
11
215.05
21
-315.989
0
LINE
8
Black
10
214.95
20
-345.989
11
214.95
21
-315.989
0
ARC
8
Black
10
215
20
-315.989
40
0.05
50
360
51
540
0
ARC
8
Black
10
215
20
-345.989
40
0.05
50
180
51
360
0
LINE
8
Black
10
200
20
-316.039
11
215
21
-316.039
0
LINE
8
Black
10
200
20
-315.939
11
215
21
-315.939
0
ARC
8
Black
10
215
20
-315.989
40
0.05
50
270
51
450
0
ARC
8
Black
10
200
20
-315.989
40
0.05
50
90
51
270
0
LINE
8
Black
10
200.05
20
-345.989
11
200.05
21
-315.989
0
LINE
8
Black
10
199.95
20
-345.989
11
199.95
21
-315.989
0
ARC
8
Black
10
200
20
-315.989
40
0.05
50
360
51
540
0
ARC
8
Black
10
200
20
-345.989
40
0.05
50
180
51
360
0
LINE
8
Black
10
180
20
-346.039
11
195
21
-346.039
0
LINE
8
Black
10
180
20
-345.939
11
195
21
-345.939
0
ARC
8
Black
10
195
20
-345.989
40
0.05
50
270
51
450
0
ARC
8
Black
10
180
20
-345.989
40
0.05
50
90
51
270
0
LINE
8
Black
10
195.05
20
-345.989
11
195.05
21
-315.989
0
LINE
8
Black
10
194.95
20
-345.989
11
194.95
21
-315.989
0
ARC
8
Black
10
195
20
-315.989
40
0.05
50
360
51
540
0
ARC
8
Black
10
195
20
-345.989
40
0.05
50
180
51
360
0
LINE
8
Black
10
180
20
-316.039
11
195
21
-316.039
0
LINE
8
Black
10
180
20
-315.939
11
195
21
-315.939
0
ARC
8
Black
10
195
20
-315.989
40
0.05
50
270
51
450
0
ARC
8
Black
10
180
20
-315.989
40
0.05
50
90
51
270
0
LINE
8
Black
10
180.05
20
-345.989
11
180.05
21
-315.989
0
LINE
8
Black
10
179.95
20
-345.989
11
179.95
21
-315.989
0
ARC
8
Black
10
180
20
-315.989
40
0.05
50
360
51
540
0
ARC
8
Black
10
180
20
-345.989
40
0.05
50
180
51
360
  0
ENDSEC
  0
EOF
