<?xml version="1.0" standalone="no"?>
 <!DOCTYPE svg PUBLIC "-//W3C//DTD SVG 1.1//EN" 
 "http://www.w3.org/Graphics/SVG/1.1/DTD/svg11.dtd"> 
<svg xmlns="http://www.w3.org/2000/svg" version="1.1" 
    width="59.4004cm" height="41.9989cm" viewBox="0 0 233860 165350 ">
<title>SVG Picture created as isometric-instrument-drl_map.svg date 2014/11/03 14:36:11 </title>
  <desc>Picture generated by PCBNEW </desc>
<g style="fill:#000000; fill-opacity:1;stroke:#000000; stroke-opacity:1;
stroke-linecap:round; stroke-linejoin:round; "
 transform="translate(0 0) scale(1 1)">
</g>
<g style="fill:#000000; fill-opacity:0.0; 
stroke:#000000; stroke-width:39.3701; stroke-opacity:1; 
stroke-linecap:round; stroke-linejoin:round;">
<path d="M70866 146850
L70866 25590
" />
<path d="M172834 146850
L70866 146850
" />
<path d="M172834 146850
L172834 25590
" />
<path d="M70866 25590
L172834 25590
" />
</g>
<g style="fill:#000000; fill-opacity:0.0; 
stroke:#000000; stroke-width:78.7402; stroke-opacity:1; 
stroke-linecap:round; stroke-linejoin:round;">
<path d="M72488 33740
L72724 33976
" />
<path d="M72724 33740
L72488 33976
" />
<path d="M72488 47519
L72724 47755
" />
<path d="M72724 47519
L72488 47755
" />
<path d="M72488 61299
L72724 61535
" />
<path d="M72724 61299
L72488 61535
" />
<path d="M72488 75078
L72724 75314
" />
<path d="M72724 75078
L72488 75314
" />
<path d="M72488 88858
L72724 89094
" />
<path d="M72724 88858
L72488 89094
" />
<path d="M72488 102637
L72724 102874
" />
<path d="M72724 102637
L72488 102874
" />
<path d="M72488 116417
L72724 116653
" />
<path d="M72724 116417
L72488 116653
" />
<path d="M72488 130196
L72724 130433
" />
<path d="M72724 130196
L72488 130433
" />
<path d="M74488 33740
L74724 33976
" />
<path d="M74724 33740
L74488 33976
" />
<path d="M74488 47519
L74724 47755
" />
<path d="M74724 47519
L74488 47755
" />
<path d="M74488 61299
L74724 61535
" />
<path d="M74724 61299
L74488 61535
" />
<path d="M74488 75078
L74724 75314
" />
<path d="M74724 75078
L74488 75314
" />
<path d="M74488 88858
L74724 89094
" />
<path d="M74724 88858
L74488 89094
" />
<path d="M74488 102637
L74724 102874
" />
<path d="M74724 102637
L74488 102874
" />
<path d="M74488 116417
L74724 116653
" />
<path d="M74724 116417
L74488 116653
" />
<path d="M74488 130196
L74724 130433
" />
<path d="M74724 130196
L74488 130433
" />
<path d="M76488 33740
L76724 33976
" />
<path d="M76724 33740
L76488 33976
" />
<path d="M76488 47519
L76724 47755
" />
<path d="M76724 47519
L76488 47755
" />
<path d="M76488 61299
L76724 61535
" />
<path d="M76724 61299
L76488 61535
" />
<path d="M76488 75078
L76724 75314
" />
<path d="M76724 75078
L76488 75314
" />
<path d="M76488 88858
L76724 89094
" />
<path d="M76724 88858
L76488 89094
" />
<path d="M76488 102637
L76724 102874
" />
<path d="M76724 102637
L76488 102874
" />
<path d="M76488 116417
L76724 116653
" />
<path d="M76724 116417
L76488 116653
" />
<path d="M76488 130196
L76724 130433
" />
<path d="M76724 130196
L76488 130433
" />
<path d="M80362 33740
L80598 33976
" />
<path d="M80598 33740
L80362 33976
" />
<path d="M80362 47519
L80598 47755
" />
<path d="M80598 47519
L80362 47755
" />
<path d="M80362 61299
L80598 61535
" />
<path d="M80598 61299
L80362 61535
" />
<path d="M80362 75078
L80598 75314
" />
<path d="M80598 75078
L80362 75314
" />
<path d="M80362 88858
L80598 89094
" />
<path d="M80598 88858
L80362 89094
" />
<path d="M80362 102637
L80598 102874
" />
<path d="M80598 102637
L80362 102874
" />
<path d="M80362 116417
L80598 116653
" />
<path d="M80598 116417
L80362 116653
" />
<path d="M80362 130196
L80598 130433
" />
<path d="M80598 130196
L80362 130433
" />
<path d="M82362 33740
L82598 33976
" />
<path d="M82598 33740
L82362 33976
" />
<path d="M82362 47519
L82598 47755
" />
<path d="M82598 47519
L82362 47755
" />
<path d="M82362 61299
L82598 61535
" />
<path d="M82598 61299
L82362 61535
" />
<path d="M82362 75078
L82598 75314
" />
<path d="M82598 75078
L82362 75314
" />
<path d="M82362 88858
L82598 89094
" />
<path d="M82598 88858
L82362 89094
" />
<path d="M82362 102637
L82598 102874
" />
<path d="M82598 102637
L82362 102874
" />
<path d="M82362 116417
L82598 116653
" />
<path d="M82598 116417
L82362 116653
" />
<path d="M82362 130196
L82598 130433
" />
<path d="M82598 130196
L82362 130433
" />
<path d="M84362 33740
L84598 33976
" />
<path d="M84598 33740
L84362 33976
" />
<path d="M84362 47519
L84598 47755
" />
<path d="M84598 47519
L84362 47755
" />
<path d="M84362 61299
L84598 61535
" />
<path d="M84598 61299
L84362 61535
" />
<path d="M84362 75078
L84598 75314
" />
<path d="M84598 75078
L84362 75314
" />
<path d="M84362 88858
L84598 89094
" />
<path d="M84598 88858
L84362 89094
" />
<path d="M84362 102637
L84598 102874
" />
<path d="M84598 102637
L84362 102874
" />
<path d="M84362 116417
L84598 116653
" />
<path d="M84598 116417
L84362 116653
" />
<path d="M84362 130196
L84598 130433
" />
<path d="M84598 130196
L84362 130433
" />
<path d="M88236 33740
L88472 33976
" />
<path d="M88472 33740
L88236 33976
" />
<path d="M88236 47519
L88472 47755
" />
<path d="M88472 47519
L88236 47755
" />
<path d="M88236 61299
L88472 61535
" />
<path d="M88472 61299
L88236 61535
" />
<path d="M88236 75078
L88472 75314
" />
<path d="M88472 75078
L88236 75314
" />
<path d="M88236 88858
L88472 89094
" />
<path d="M88472 88858
L88236 89094
" />
<path d="M88236 102637
L88472 102874
" />
<path d="M88472 102637
L88236 102874
" />
<path d="M88236 116417
L88472 116653
" />
<path d="M88472 116417
L88236 116653
" />
<path d="M88236 130196
L88472 130433
" />
<path d="M88472 130196
L88236 130433
" />
<path d="M90236 33740
L90472 33976
" />
<path d="M90472 33740
L90236 33976
" />
<path d="M90236 47519
L90472 47755
" />
<path d="M90472 47519
L90236 47755
" />
<path d="M90236 61299
L90472 61535
" />
<path d="M90472 61299
L90236 61535
" />
<path d="M90236 75078
L90472 75314
" />
<path d="M90472 75078
L90236 75314
" />
<path d="M90236 88858
L90472 89094
" />
<path d="M90472 88858
L90236 89094
" />
<path d="M90236 102637
L90472 102874
" />
<path d="M90472 102637
L90236 102874
" />
<path d="M90236 116417
L90472 116653
" />
<path d="M90472 116417
L90236 116653
" />
<path d="M90236 130196
L90472 130433
" />
<path d="M90472 130196
L90236 130433
" />
<path d="M92236 33740
L92472 33976
" />
<path d="M92472 33740
L92236 33976
" />
<path d="M92236 47519
L92472 47755
" />
<path d="M92472 47519
L92236 47755
" />
<path d="M92236 61299
L92472 61535
" />
<path d="M92472 61299
L92236 61535
" />
<path d="M92236 75078
L92472 75314
" />
<path d="M92472 75078
L92236 75314
" />
<path d="M92236 88858
L92472 89094
" />
<path d="M92472 88858
L92236 89094
" />
<path d="M92236 102637
L92472 102874
" />
<path d="M92472 102637
L92236 102874
" />
<path d="M92236 116417
L92472 116653
" />
<path d="M92472 116417
L92236 116653
" />
<path d="M92236 130196
L92472 130433
" />
<path d="M92472 130196
L92236 130433
" />
<path d="M96110 33740
L96346 33976
" />
<path d="M96346 33740
L96110 33976
" />
<path d="M96110 47519
L96346 47755
" />
<path d="M96346 47519
L96110 47755
" />
<path d="M96110 61299
L96346 61535
" />
<path d="M96346 61299
L96110 61535
" />
<path d="M96110 75078
L96346 75314
" />
<path d="M96346 75078
L96110 75314
" />
<path d="M96110 88858
L96346 89094
" />
<path d="M96346 88858
L96110 89094
" />
<path d="M96110 102637
L96346 102874
" />
<path d="M96346 102637
L96110 102874
" />
<path d="M96110 116417
L96346 116653
" />
<path d="M96346 116417
L96110 116653
" />
<path d="M96110 130196
L96346 130433
" />
<path d="M96346 130196
L96110 130433
" />
<path d="M98110 33740
L98346 33976
" />
<path d="M98346 33740
L98110 33976
" />
<path d="M98110 47519
L98346 47755
" />
<path d="M98346 47519
L98110 47755
" />
<path d="M98110 61299
L98346 61535
" />
<path d="M98346 61299
L98110 61535
" />
<path d="M98110 75078
L98346 75314
" />
<path d="M98346 75078
L98110 75314
" />
<path d="M98110 88858
L98346 89094
" />
<path d="M98346 88858
L98110 89094
" />
<path d="M98110 102637
L98346 102874
" />
<path d="M98346 102637
L98110 102874
" />
<path d="M98110 116417
L98346 116653
" />
<path d="M98346 116417
L98110 116653
" />
<path d="M98110 130196
L98346 130433
" />
<path d="M98346 130196
L98110 130433
" />
<path d="M100110 33740
L100346 33976
" />
<path d="M100346 33740
L100110 33976
" />
<path d="M100110 47519
L100346 47755
" />
<path d="M100346 47519
L100110 47755
" />
<path d="M100110 61299
L100346 61535
" />
<path d="M100346 61299
L100110 61535
" />
<path d="M100110 75078
L100346 75314
" />
<path d="M100346 75078
L100110 75314
" />
<path d="M100110 88858
L100346 89094
" />
<path d="M100346 88858
L100110 89094
" />
<path d="M100110 102637
L100346 102874
" />
<path d="M100346 102637
L100110 102874
" />
<path d="M100110 116417
L100346 116653
" />
<path d="M100346 116417
L100110 116653
" />
<path d="M100110 130196
L100346 130433
" />
<path d="M100346 130196
L100110 130433
" />
<path d="M103984 33740
L104220 33976
" />
<path d="M104220 33740
L103984 33976
" />
<path d="M103984 47519
L104220 47755
" />
<path d="M104220 47519
L103984 47755
" />
<path d="M103984 61299
L104220 61535
" />
<path d="M104220 61299
L103984 61535
" />
<path d="M103984 75078
L104220 75314
" />
<path d="M104220 75078
L103984 75314
" />
<path d="M103984 88858
L104220 89094
" />
<path d="M104220 88858
L103984 89094
" />
<path d="M103984 102637
L104220 102874
" />
<path d="M104220 102637
L103984 102874
" />
<path d="M103984 116417
L104220 116653
" />
<path d="M104220 116417
L103984 116653
" />
<path d="M103984 130196
L104220 130433
" />
<path d="M104220 130196
L103984 130433
" />
<path d="M105984 33740
L106220 33976
" />
<path d="M106220 33740
L105984 33976
" />
<path d="M105984 47519
L106220 47755
" />
<path d="M106220 47519
L105984 47755
" />
<path d="M105984 61299
L106220 61535
" />
<path d="M106220 61299
L105984 61535
" />
<path d="M105984 75078
L106220 75314
" />
<path d="M106220 75078
L105984 75314
" />
<path d="M105984 88858
L106220 89094
" />
<path d="M106220 88858
L105984 89094
" />
<path d="M105984 102637
L106220 102874
" />
<path d="M106220 102637
L105984 102874
" />
<path d="M105984 116417
L106220 116653
" />
<path d="M106220 116417
L105984 116653
" />
<path d="M105984 130196
L106220 130433
" />
<path d="M106220 130196
L105984 130433
" />
<path d="M107984 33740
L108220 33976
" />
<path d="M108220 33740
L107984 33976
" />
<path d="M107984 47519
L108220 47755
" />
<path d="M108220 47519
L107984 47755
" />
<path d="M107984 61299
L108220 61535
" />
<path d="M108220 61299
L107984 61535
" />
<path d="M107984 75078
L108220 75314
" />
<path d="M108220 75078
L107984 75314
" />
<path d="M107984 88858
L108220 89094
" />
<path d="M108220 88858
L107984 89094
" />
<path d="M107984 102637
L108220 102874
" />
<path d="M108220 102637
L107984 102874
" />
<path d="M107984 116417
L108220 116653
" />
<path d="M108220 116417
L107984 116653
" />
<path d="M107984 130196
L108220 130433
" />
<path d="M108220 130196
L107984 130433
" />
<path d="M111858 33740
L112094 33976
" />
<path d="M112094 33740
L111858 33976
" />
<path d="M111858 47519
L112094 47755
" />
<path d="M112094 47519
L111858 47755
" />
<path d="M111858 61299
L112094 61535
" />
<path d="M112094 61299
L111858 61535
" />
<path d="M111858 75078
L112094 75314
" />
<path d="M112094 75078
L111858 75314
" />
<path d="M111858 88858
L112094 89094
" />
<path d="M112094 88858
L111858 89094
" />
<path d="M111858 102637
L112094 102874
" />
<path d="M112094 102637
L111858 102874
" />
<path d="M111858 116417
L112094 116653
" />
<path d="M112094 116417
L111858 116653
" />
<path d="M111858 130196
L112094 130433
" />
<path d="M112094 130196
L111858 130433
" />
<path d="M113858 33740
L114094 33976
" />
<path d="M114094 33740
L113858 33976
" />
<path d="M113858 47519
L114094 47755
" />
<path d="M114094 47519
L113858 47755
" />
<path d="M113858 61299
L114094 61535
" />
<path d="M114094 61299
L113858 61535
" />
<path d="M113858 75078
L114094 75314
" />
<path d="M114094 75078
L113858 75314
" />
<path d="M113858 88858
L114094 89094
" />
<path d="M114094 88858
L113858 89094
" />
<path d="M113858 102637
L114094 102874
" />
<path d="M114094 102637
L113858 102874
" />
<path d="M113858 116417
L114094 116653
" />
<path d="M114094 116417
L113858 116653
" />
<path d="M113858 130196
L114094 130433
" />
<path d="M114094 130196
L113858 130433
" />
<path d="M115858 33740
L116094 33976
" />
<path d="M116094 33740
L115858 33976
" />
<path d="M115858 47519
L116094 47755
" />
<path d="M116094 47519
L115858 47755
" />
<path d="M115858 61299
L116094 61535
" />
<path d="M116094 61299
L115858 61535
" />
<path d="M115858 75078
L116094 75314
" />
<path d="M116094 75078
L115858 75314
" />
<path d="M115858 88858
L116094 89094
" />
<path d="M116094 88858
L115858 89094
" />
<path d="M115858 102637
L116094 102874
" />
<path d="M116094 102637
L115858 102874
" />
<path d="M115858 116417
L116094 116653
" />
<path d="M116094 116417
L115858 116653
" />
<path d="M115858 130196
L116094 130433
" />
<path d="M116094 130196
L115858 130433
" />
<path d="M119732 33740
L119968 33976
" />
<path d="M119968 33740
L119732 33976
" />
<path d="M119732 47519
L119968 47755
" />
<path d="M119968 47519
L119732 47755
" />
<path d="M119732 61299
L119968 61535
" />
<path d="M119968 61299
L119732 61535
" />
<path d="M119732 75078
L119968 75314
" />
<path d="M119968 75078
L119732 75314
" />
<path d="M119732 88858
L119968 89094
" />
<path d="M119968 88858
L119732 89094
" />
<path d="M119732 102637
L119968 102874
" />
<path d="M119968 102637
L119732 102874
" />
<path d="M119732 116417
L119968 116653
" />
<path d="M119968 116417
L119732 116653
" />
<path d="M119732 130196
L119968 130433
" />
<path d="M119968 130196
L119732 130433
" />
<path d="M121732 33740
L121968 33976
" />
<path d="M121968 33740
L121732 33976
" />
<path d="M121732 47519
L121968 47755
" />
<path d="M121968 47519
L121732 47755
" />
<path d="M121732 61299
L121968 61535
" />
<path d="M121968 61299
L121732 61535
" />
<path d="M121732 75078
L121968 75314
" />
<path d="M121968 75078
L121732 75314
" />
<path d="M121732 88858
L121968 89094
" />
<path d="M121968 88858
L121732 89094
" />
<path d="M121732 102637
L121968 102874
" />
<path d="M121968 102637
L121732 102874
" />
<path d="M121732 116417
L121968 116653
" />
<path d="M121968 116417
L121732 116653
" />
<path d="M121732 130196
L121968 130433
" />
<path d="M121968 130196
L121732 130433
" />
<path d="M123732 33740
L123968 33976
" />
<path d="M123968 33740
L123732 33976
" />
<path d="M123732 47519
L123968 47755
" />
<path d="M123968 47519
L123732 47755
" />
<path d="M123732 61299
L123968 61535
" />
<path d="M123968 61299
L123732 61535
" />
<path d="M123732 75078
L123968 75314
" />
<path d="M123968 75078
L123732 75314
" />
<path d="M123732 88858
L123968 89094
" />
<path d="M123968 88858
L123732 89094
" />
<path d="M123732 102637
L123968 102874
" />
<path d="M123968 102637
L123732 102874
" />
<path d="M123732 116417
L123968 116653
" />
<path d="M123968 116417
L123732 116653
" />
<path d="M123732 130196
L123968 130433
" />
<path d="M123968 130196
L123732 130433
" />
<path d="M127606 33740
L127842 33976
" />
<path d="M127842 33740
L127606 33976
" />
<path d="M127606 47519
L127842 47755
" />
<path d="M127842 47519
L127606 47755
" />
<path d="M127606 61299
L127842 61535
" />
<path d="M127842 61299
L127606 61535
" />
<path d="M127606 75078
L127842 75314
" />
<path d="M127842 75078
L127606 75314
" />
<path d="M127606 88858
L127842 89094
" />
<path d="M127842 88858
L127606 89094
" />
<path d="M127606 102637
L127842 102874
" />
<path d="M127842 102637
L127606 102874
" />
<path d="M127606 116417
L127842 116653
" />
<path d="M127842 116417
L127606 116653
" />
<path d="M127606 130196
L127842 130433
" />
<path d="M127842 130196
L127606 130433
" />
<path d="M129606 33740
L129842 33976
" />
<path d="M129842 33740
L129606 33976
" />
<path d="M129606 47519
L129842 47755
" />
<path d="M129842 47519
L129606 47755
" />
<path d="M129606 61299
L129842 61535
" />
<path d="M129842 61299
L129606 61535
" />
<path d="M129606 75078
L129842 75314
" />
<path d="M129842 75078
L129606 75314
" />
<path d="M129606 88858
L129842 89094
" />
<path d="M129842 88858
L129606 89094
" />
<path d="M129606 102637
L129842 102874
" />
<path d="M129842 102637
L129606 102874
" />
<path d="M129606 116417
L129842 116653
" />
<path d="M129842 116417
L129606 116653
" />
<path d="M129606 130196
L129842 130433
" />
<path d="M129842 130196
L129606 130433
" />
<path d="M131606 33740
L131842 33976
" />
<path d="M131842 33740
L131606 33976
" />
<path d="M131606 47519
L131842 47755
" />
<path d="M131842 47519
L131606 47755
" />
<path d="M131606 61299
L131842 61535
" />
<path d="M131842 61299
L131606 61535
" />
<path d="M131606 75078
L131842 75314
" />
<path d="M131842 75078
L131606 75314
" />
<path d="M131606 88858
L131842 89094
" />
<path d="M131842 88858
L131606 89094
" />
<path d="M131606 102637
L131842 102874
" />
<path d="M131842 102637
L131606 102874
" />
<path d="M131606 116417
L131842 116653
" />
<path d="M131842 116417
L131606 116653
" />
<path d="M131606 130196
L131842 130433
" />
<path d="M131842 130196
L131606 130433
" />
<path d="M135480 33740
L135716 33976
" />
<path d="M135716 33740
L135480 33976
" />
<path d="M135480 47519
L135716 47755
" />
<path d="M135716 47519
L135480 47755
" />
<path d="M135480 61299
L135716 61535
" />
<path d="M135716 61299
L135480 61535
" />
<path d="M135480 75078
L135716 75314
" />
<path d="M135716 75078
L135480 75314
" />
<path d="M135480 88858
L135716 89094
" />
<path d="M135716 88858
L135480 89094
" />
<path d="M135480 102637
L135716 102874
" />
<path d="M135716 102637
L135480 102874
" />
<path d="M135480 116417
L135716 116653
" />
<path d="M135716 116417
L135480 116653
" />
<path d="M135480 130196
L135716 130433
" />
<path d="M135716 130196
L135480 130433
" />
<path d="M137480 33740
L137716 33976
" />
<path d="M137716 33740
L137480 33976
" />
<path d="M137480 47519
L137716 47755
" />
<path d="M137716 47519
L137480 47755
" />
<path d="M137480 61299
L137716 61535
" />
<path d="M137716 61299
L137480 61535
" />
<path d="M137480 75078
L137716 75314
" />
<path d="M137716 75078
L137480 75314
" />
<path d="M137480 88858
L137716 89094
" />
<path d="M137716 88858
L137480 89094
" />
<path d="M137480 102637
L137716 102874
" />
<path d="M137716 102637
L137480 102874
" />
<path d="M137480 116417
L137716 116653
" />
<path d="M137716 116417
L137480 116653
" />
<path d="M137480 130196
L137716 130433
" />
<path d="M137716 130196
L137480 130433
" />
<path d="M139480 33740
L139716 33976
" />
<path d="M139716 33740
L139480 33976
" />
<path d="M139480 47519
L139716 47755
" />
<path d="M139716 47519
L139480 47755
" />
<path d="M139480 61299
L139716 61535
" />
<path d="M139716 61299
L139480 61535
" />
<path d="M139480 75078
L139716 75314
" />
<path d="M139716 75078
L139480 75314
" />
<path d="M139480 88858
L139716 89094
" />
<path d="M139716 88858
L139480 89094
" />
<path d="M139480 102637
L139716 102874
" />
<path d="M139716 102637
L139480 102874
" />
<path d="M139480 116417
L139716 116653
" />
<path d="M139716 116417
L139480 116653
" />
<path d="M139480 130196
L139716 130433
" />
<path d="M139716 130196
L139480 130433
" />
<path d="M143354 33740
L143590 33976
" />
<path d="M143590 33740
L143354 33976
" />
<path d="M143354 47519
L143590 47755
" />
<path d="M143590 47519
L143354 47755
" />
<path d="M143354 61299
L143590 61535
" />
<path d="M143590 61299
L143354 61535
" />
<path d="M143354 75078
L143590 75314
" />
<path d="M143590 75078
L143354 75314
" />
<path d="M143354 88858
L143590 89094
" />
<path d="M143590 88858
L143354 89094
" />
<path d="M143354 102637
L143590 102874
" />
<path d="M143590 102637
L143354 102874
" />
<path d="M143354 116417
L143590 116653
" />
<path d="M143590 116417
L143354 116653
" />
<path d="M143354 130196
L143590 130433
" />
<path d="M143590 130196
L143354 130433
" />
<path d="M145354 33740
L145590 33976
" />
<path d="M145590 33740
L145354 33976
" />
<path d="M145354 47519
L145590 47755
" />
<path d="M145590 47519
L145354 47755
" />
<path d="M145354 61299
L145590 61535
" />
<path d="M145590 61299
L145354 61535
" />
<path d="M145354 75078
L145590 75314
" />
<path d="M145590 75078
L145354 75314
" />
<path d="M145354 88858
L145590 89094
" />
<path d="M145590 88858
L145354 89094
" />
<path d="M145354 102637
L145590 102874
" />
<path d="M145590 102637
L145354 102874
" />
<path d="M145354 116417
L145590 116653
" />
<path d="M145590 116417
L145354 116653
" />
<path d="M145354 130196
L145590 130433
" />
<path d="M145590 130196
L145354 130433
" />
<path d="M147354 33740
L147590 33976
" />
<path d="M147590 33740
L147354 33976
" />
<path d="M147354 47519
L147590 47755
" />
<path d="M147590 47519
L147354 47755
" />
<path d="M147354 61299
L147590 61535
" />
<path d="M147590 61299
L147354 61535
" />
<path d="M147354 75078
L147590 75314
" />
<path d="M147590 75078
L147354 75314
" />
<path d="M147354 88858
L147590 89094
" />
<path d="M147590 88858
L147354 89094
" />
<path d="M147354 102637
L147590 102874
" />
<path d="M147590 102637
L147354 102874
" />
<path d="M147354 116417
L147590 116653
" />
<path d="M147590 116417
L147354 116653
" />
<path d="M147354 130196
L147590 130433
" />
<path d="M147590 130196
L147354 130433
" />
<path d="M151228 33740
L151464 33976
" />
<path d="M151464 33740
L151228 33976
" />
<path d="M151228 47519
L151464 47755
" />
<path d="M151464 47519
L151228 47755
" />
<path d="M151228 61299
L151464 61535
" />
<path d="M151464 61299
L151228 61535
" />
<path d="M151228 75078
L151464 75314
" />
<path d="M151464 75078
L151228 75314
" />
<path d="M151228 88858
L151464 89094
" />
<path d="M151464 88858
L151228 89094
" />
<path d="M151228 102637
L151464 102874
" />
<path d="M151464 102637
L151228 102874
" />
<path d="M151228 116417
L151464 116653
" />
<path d="M151464 116417
L151228 116653
" />
<path d="M151228 130196
L151464 130433
" />
<path d="M151464 130196
L151228 130433
" />
<path d="M153228 33740
L153464 33976
" />
<path d="M153464 33740
L153228 33976
" />
<path d="M153228 47519
L153464 47755
" />
<path d="M153464 47519
L153228 47755
" />
<path d="M153228 61299
L153464 61535
" />
<path d="M153464 61299
L153228 61535
" />
<path d="M153228 75078
L153464 75314
" />
<path d="M153464 75078
L153228 75314
" />
<path d="M153228 88858
L153464 89094
" />
<path d="M153464 88858
L153228 89094
" />
<path d="M153228 102637
L153464 102874
" />
<path d="M153464 102637
L153228 102874
" />
<path d="M153228 116417
L153464 116653
" />
<path d="M153464 116417
L153228 116653
" />
<path d="M153228 130196
L153464 130433
" />
<path d="M153464 130196
L153228 130433
" />
<path d="M155228 33740
L155464 33976
" />
<path d="M155464 33740
L155228 33976
" />
<path d="M155228 47519
L155464 47755
" />
<path d="M155464 47519
L155228 47755
" />
<path d="M155228 61299
L155464 61535
" />
<path d="M155464 61299
L155228 61535
" />
<path d="M155228 75078
L155464 75314
" />
<path d="M155464 75078
L155228 75314
" />
<path d="M155228 88858
L155464 89094
" />
<path d="M155464 88858
L155228 89094
" />
<path d="M155228 102637
L155464 102874
" />
<path d="M155464 102637
L155228 102874
" />
<path d="M155228 116417
L155464 116653
" />
<path d="M155464 116417
L155228 116653
" />
<path d="M155228 130196
L155464 130433
" />
<path d="M155464 130196
L155228 130433
" />
<path d="M159102 33740
L159338 33976
" />
<path d="M159338 33740
L159102 33976
" />
<path d="M159102 47519
L159338 47755
" />
<path d="M159338 47519
L159102 47755
" />
<path d="M159102 61299
L159338 61535
" />
<path d="M159338 61299
L159102 61535
" />
<path d="M159102 75078
L159338 75314
" />
<path d="M159338 75078
L159102 75314
" />
<path d="M159102 88858
L159338 89094
" />
<path d="M159338 88858
L159102 89094
" />
<path d="M159102 102637
L159338 102874
" />
<path d="M159338 102637
L159102 102874
" />
<path d="M159102 116417
L159338 116653
" />
<path d="M159338 116417
L159102 116653
" />
<path d="M159102 130196
L159338 130433
" />
<path d="M159338 130196
L159102 130433
" />
<path d="M161102 33740
L161338 33976
" />
<path d="M161338 33740
L161102 33976
" />
<path d="M161102 47519
L161338 47755
" />
<path d="M161338 47519
L161102 47755
" />
<path d="M161102 61299
L161338 61535
" />
<path d="M161338 61299
L161102 61535
" />
<path d="M161102 75078
L161338 75314
" />
<path d="M161338 75078
L161102 75314
" />
<path d="M161102 88858
L161338 89094
" />
<path d="M161338 88858
L161102 89094
" />
<path d="M161102 102637
L161338 102874
" />
<path d="M161338 102637
L161102 102874
" />
<path d="M161102 116417
L161338 116653
" />
<path d="M161338 116417
L161102 116653
" />
<path d="M161102 130196
L161338 130433
" />
<path d="M161338 130196
L161102 130433
" />
<path d="M163102 33740
L163338 33976
" />
<path d="M163338 33740
L163102 33976
" />
<path d="M163102 47519
L163338 47755
" />
<path d="M163338 47519
L163102 47755
" />
<path d="M163102 61299
L163338 61535
" />
<path d="M163338 61299
L163102 61535
" />
<path d="M163102 75078
L163338 75314
" />
<path d="M163338 75078
L163102 75314
" />
<path d="M163102 88858
L163338 89094
" />
<path d="M163338 88858
L163102 89094
" />
<path d="M163102 102637
L163338 102874
" />
<path d="M163338 102637
L163102 102874
" />
<path d="M163102 116417
L163338 116653
" />
<path d="M163338 116417
L163102 116653
" />
<path d="M163102 130196
L163338 130433
" />
<path d="M163338 130196
L163102 130433
" />
<circle cx="88385.8" cy="132480" r="125" /> 
<circle cx="88385.8" cy="141929" r="125" /> 
<circle cx="104134" cy="132283" r="125" /> 
<circle cx="104134" cy="142544" r="125" /> 
<circle cx="118110" cy="130315" r="125" /> 
<circle cx="119850" cy="143180" r="125" /> 
<circle cx="153150" cy="137795" r="125" /> 
<circle cx="155118" cy="138780" r="125" /> 
<circle cx="155512" cy="137795" r="125" /> 
<circle cx="156844" cy="132087" r="125" /> 
<circle cx="157480" cy="130315" r="125" /> 
<circle cx="157677" cy="134646" r="125" /> 
<circle cx="158661" cy="133858" r="125" /> 
<circle cx="165157" cy="125984" r="125" /> 
<circle cx="166598" cy="138780" r="125" /> 
<circle cx="166732" cy="125984" r="125" /> 
<path d="M144903 141023
L144903 141377
" />
<path d="M144726 141200
L145080 141200
" />
<path d="M145403 140023
L145403 140377
" />
<path d="M145226 140200
L145580 140200
" />
<path d="M145903 141023
L145903 141377
" />
<path d="M145726 141200
L146080 141200
" />
<path d="M146403 140023
L146403 140377
" />
<path d="M146226 140200
L146580 140200
" />
<path d="M146903 141023
L146903 141377
" />
<path d="M146726 141200
L147080 141200
" />
<path d="M147403 140023
L147403 140377
" />
<path d="M147226 140200
L147580 140200
" />
<path d="M147903 141023
L147903 141377
" />
<path d="M147726 141200
L148080 141200
" />
<path d="M148403 140023
L148403 140377
" />
<path d="M148226 140200
L148580 140200
" />
<path d="M152777 141023
L152777 141377
" />
<path d="M152600 141200
L152954 141200
" />
<path d="M153277 140023
L153277 140377
" />
<path d="M153100 140200
L153454 140200
" />
<path d="M153777 141023
L153777 141377
" />
<path d="M153600 141200
L153954 141200
" />
<path d="M154277 140023
L154277 140377
" />
<path d="M154100 140200
L154454 140200
" />
<path d="M154777 141023
L154777 141377
" />
<path d="M154600 141200
L154954 141200
" />
<path d="M155277 140023
L155277 140377
" />
<path d="M155100 140200
L155454 140200
" />
<path d="M155777 141023
L155777 141377
" />
<path d="M155600 141200
L155954 141200
" />
<path d="M156277 140023
L156277 140377
" />
<path d="M156100 140200
L156454 140200
" />
<path d="M160651 141023
L160651 141377
" />
<path d="M160474 141200
L160828 141200
" />
<path d="M161151 140023
L161151 140377
" />
<path d="M160974 140200
L161328 140200
" />
<path d="M161651 141023
L161651 141377
" />
<path d="M161474 141200
L161828 141200
" />
<path d="M162151 140023
L162151 140377
" />
<path d="M161974 140200
L162328 140200
" />
<path d="M162651 141023
L162651 141377
" />
<path d="M162474 141200
L162828 141200
" />
<path d="M163151 140023
L163151 140377
" />
<path d="M162974 140200
L163328 140200
" />
<path d="M163651 141023
L163651 141377
" />
<path d="M163474 141200
L163828 141200
" />
<path d="M164151 140023
L164151 140377
" />
<path d="M163974 140200
L164328 140200
" />
<polyline fill="none;"
points="74745,27666
74745,27388
74466,27388
74466,27666
74745,27666
" /> 
<polyline fill="none;"
points="74745,41446
74745,41167
74466,41167
74466,41446
74745,41446
" /> 
<polyline fill="none;"
points="74745,55225
74745,54947
74466,54947
74466,55225
74745,55225
" /> 
<polyline fill="none;"
points="74745,69005
74745,68726
74466,68726
74466,69005
74745,69005
" /> 
<polyline fill="none;"
points="74745,82784
74745,82506
74466,82506
74466,82784
74745,82784
" /> 
<polyline fill="none;"
points="74745,96564
74745,96285
74466,96285
74466,96564
74745,96564
" /> 
<polyline fill="none;"
points="74745,110344
74745,110065
74466,110065
74466,110344
74745,110344
" /> 
<polyline fill="none;"
points="74745,124123
74745,123844
74466,123844
74466,124123
74745,124123
" /> 
<polyline fill="none;"
points="82619,27666
82619,27388
82341,27388
82341,27666
82619,27666
" /> 
<polyline fill="none;"
points="82619,41446
82619,41167
82341,41167
82341,41446
82619,41446
" /> 
<polyline fill="none;"
points="82619,55225
82619,54947
82341,54947
82341,55225
82619,55225
" /> 
<polyline fill="none;"
points="82619,69005
82619,68726
82341,68726
82341,69005
82619,69005
" /> 
<polyline fill="none;"
points="82619,82784
82619,82506
82341,82506
82341,82784
82619,82784
" /> 
<polyline fill="none;"
points="82619,96564
82619,96285
82341,96285
82341,96564
82619,96564
" /> 
<polyline fill="none;"
points="82619,110344
82619,110065
82341,110065
82341,110344
82619,110344
" /> 
<polyline fill="none;"
points="82619,124123
82619,123844
82341,123844
82341,124123
82619,124123
" /> 
<polyline fill="none;"
points="90493,27666
90493,27388
90215,27388
90215,27666
90493,27666
" /> 
<polyline fill="none;"
points="90493,41446
90493,41167
90215,41167
90215,41446
90493,41446
" /> 
<polyline fill="none;"
points="90493,55225
90493,54947
90215,54947
90215,55225
90493,55225
" /> 
<polyline fill="none;"
points="90493,69005
90493,68726
90215,68726
90215,69005
90493,69005
" /> 
<polyline fill="none;"
points="90493,82784
90493,82506
90215,82506
90215,82784
90493,82784
" /> 
<polyline fill="none;"
points="90493,96564
90493,96285
90215,96285
90215,96564
90493,96564
" /> 
<polyline fill="none;"
points="90493,110344
90493,110065
90215,110065
90215,110344
90493,110344
" /> 
<polyline fill="none;"
points="90493,124123
90493,123844
90215,123844
90215,124123
90493,124123
" /> 
<polyline fill="none;"
points="98367,27666
98367,27388
98089,27388
98089,27666
98367,27666
" /> 
<polyline fill="none;"
points="98367,41446
98367,41167
98089,41167
98089,41446
98367,41446
" /> 
<polyline fill="none;"
points="98367,55225
98367,54947
98089,54947
98089,55225
98367,55225
" /> 
<polyline fill="none;"
points="98367,69005
98367,68726
98089,68726
98089,69005
98367,69005
" /> 
<polyline fill="none;"
points="98367,82784
98367,82506
98089,82506
98089,82784
98367,82784
" /> 
<polyline fill="none;"
points="98367,96564
98367,96285
98089,96285
98089,96564
98367,96564
" /> 
<polyline fill="none;"
points="98367,110344
98367,110065
98089,110065
98089,110344
98367,110344
" /> 
<polyline fill="none;"
points="98367,124123
98367,123844
98089,123844
98089,124123
98367,124123
" /> 
<polyline fill="none;"
points="106241,27666
106241,27388
105963,27388
105963,27666
106241,27666
" /> 
<polyline fill="none;"
points="106241,41446
106241,41167
105963,41167
105963,41446
106241,41446
" /> 
<polyline fill="none;"
points="106241,55225
106241,54947
105963,54947
105963,55225
106241,55225
" /> 
<polyline fill="none;"
points="106241,69005
106241,68726
105963,68726
105963,69005
106241,69005
" /> 
<polyline fill="none;"
points="106241,82784
106241,82506
105963,82506
105963,82784
106241,82784
" /> 
<polyline fill="none;"
points="106241,96564
106241,96285
105963,96285
105963,96564
106241,96564
" /> 
<polyline fill="none;"
points="106241,110344
106241,110065
105963,110065
105963,110344
106241,110344
" /> 
<polyline fill="none;"
points="106241,124123
106241,123844
105963,123844
105963,124123
106241,124123
" /> 
<polyline fill="none;"
points="114115,27666
114115,27388
113837,27388
113837,27666
114115,27666
" /> 
<polyline fill="none;"
points="114115,41446
114115,41167
113837,41167
113837,41446
114115,41446
" /> 
<polyline fill="none;"
points="114115,55225
114115,54947
113837,54947
113837,55225
114115,55225
" /> 
<polyline fill="none;"
points="114115,69005
114115,68726
113837,68726
113837,69005
114115,69005
" /> 
<polyline fill="none;"
points="114115,82784
114115,82506
113837,82506
113837,82784
114115,82784
" /> 
<polyline fill="none;"
points="114115,96564
114115,96285
113837,96285
113837,96564
114115,96564
" /> 
<polyline fill="none;"
points="114115,110344
114115,110065
113837,110065
113837,110344
114115,110344
" /> 
<polyline fill="none;"
points="114115,124123
114115,123844
113837,123844
113837,124123
114115,124123
" /> 
<polyline fill="none;"
points="121989,27666
121989,27388
121711,27388
121711,27666
121989,27666
" /> 
<polyline fill="none;"
points="121989,41446
121989,41167
121711,41167
121711,41446
121989,41446
" /> 
<polyline fill="none;"
points="121989,55225
121989,54947
121711,54947
121711,55225
121989,55225
" /> 
<polyline fill="none;"
points="121989,69005
121989,68726
121711,68726
121711,69005
121989,69005
" /> 
<polyline fill="none;"
points="121989,82784
121989,82506
121711,82506
121711,82784
121989,82784
" /> 
<polyline fill="none;"
points="121989,96564
121989,96285
121711,96285
121711,96564
121989,96564
" /> 
<polyline fill="none;"
points="121989,110344
121989,110065
121711,110065
121711,110344
121989,110344
" /> 
<polyline fill="none;"
points="121989,124123
121989,123844
121711,123844
121711,124123
121989,124123
" /> 
<polyline fill="none;"
points="129863,27666
129863,27388
129585,27388
129585,27666
129863,27666
" /> 
<polyline fill="none;"
points="129863,41446
129863,41167
129585,41167
129585,41446
129863,41446
" /> 
<polyline fill="none;"
points="129863,55225
129863,54947
129585,54947
129585,55225
129863,55225
" /> 
<polyline fill="none;"
points="129863,69005
129863,68726
129585,68726
129585,69005
129863,69005
" /> 
<polyline fill="none;"
points="129863,82784
129863,82506
129585,82506
129585,82784
129863,82784
" /> 
<polyline fill="none;"
points="129863,96564
129863,96285
129585,96285
129585,96564
129863,96564
" /> 
<polyline fill="none;"
points="129863,110344
129863,110065
129585,110065
129585,110344
129863,110344
" /> 
<polyline fill="none;"
points="129863,124123
129863,123844
129585,123844
129585,124123
129863,124123
" /> 
<polyline fill="none;"
points="137737,27666
137737,27388
137459,27388
137459,27666
137737,27666
" /> 
<polyline fill="none;"
points="137737,41446
137737,41167
137459,41167
137459,41446
137737,41446
" /> 
<polyline fill="none;"
points="137737,55225
137737,54947
137459,54947
137459,55225
137737,55225
" /> 
<polyline fill="none;"
points="137737,69005
137737,68726
137459,68726
137459,69005
137737,69005
" /> 
<polyline fill="none;"
points="137737,82784
137737,82506
137459,82506
137459,82784
137737,82784
" /> 
<polyline fill="none;"
points="137737,96564
137737,96285
137459,96285
137459,96564
137737,96564
" /> 
<polyline fill="none;"
points="137737,110344
137737,110065
137459,110065
137459,110344
137737,110344
" /> 
<polyline fill="none;"
points="137737,124123
137737,123844
137459,123844
137459,124123
137737,124123
" /> 
<polyline fill="none;"
points="145611,27666
145611,27388
145333,27388
145333,27666
145611,27666
" /> 
<polyline fill="none;"
points="145611,41446
145611,41167
145333,41167
145333,41446
145611,41446
" /> 
<polyline fill="none;"
points="145611,55225
145611,54947
145333,54947
145333,55225
145611,55225
" /> 
<polyline fill="none;"
points="145611,69005
145611,68726
145333,68726
145333,69005
145611,69005
" /> 
<polyline fill="none;"
points="145611,82784
145611,82506
145333,82506
145333,82784
145611,82784
" /> 
<polyline fill="none;"
points="145611,96564
145611,96285
145333,96285
145333,96564
145611,96564
" /> 
<polyline fill="none;"
points="145611,110344
145611,110065
145333,110065
145333,110344
145611,110344
" /> 
<polyline fill="none;"
points="145611,124123
145611,123844
145333,123844
145333,124123
145611,124123
" /> 
<polyline fill="none;"
points="153485,27666
153485,27388
153207,27388
153207,27666
153485,27666
" /> 
<polyline fill="none;"
points="153485,41446
153485,41167
153207,41167
153207,41446
153485,41446
" /> 
<polyline fill="none;"
points="153485,55225
153485,54947
153207,54947
153207,55225
153485,55225
" /> 
<polyline fill="none;"
points="153485,69005
153485,68726
153207,68726
153207,69005
153485,69005
" /> 
<polyline fill="none;"
points="153485,82784
153485,82506
153207,82506
153207,82784
153485,82784
" /> 
<polyline fill="none;"
points="153485,96564
153485,96285
153207,96285
153207,96564
153485,96564
" /> 
<polyline fill="none;"
points="153485,110344
153485,110065
153207,110065
153207,110344
153485,110344
" /> 
<polyline fill="none;"
points="153485,124123
153485,123844
153207,123844
153207,124123
153485,124123
" /> 
<polyline fill="none;"
points="161359,27666
161359,27388
161081,27388
161081,27666
161359,27666
" /> 
<polyline fill="none;"
points="161359,41446
161359,41167
161081,41167
161081,41446
161359,41446
" /> 
<polyline fill="none;"
points="161359,55225
161359,54947
161081,54947
161081,55225
161359,55225
" /> 
<polyline fill="none;"
points="161359,69005
161359,68726
161081,68726
161081,69005
161359,69005
" /> 
<polyline fill="none;"
points="161359,82784
161359,82506
161081,82506
161081,82784
161359,82784
" /> 
<polyline fill="none;"
points="161359,96564
161359,96285
161081,96285
161081,96564
161359,96564
" /> 
<polyline fill="none;"
points="161359,110344
161359,110065
161081,110065
161081,110344
161359,110344
" /> 
<polyline fill="none;"
points="161359,124123
161359,123844
161081,123844
161081,124123
161359,124123
" /> 
<polyline fill="none;"
points="165296,27666
165296,27388
165018,27388
165018,27666
165296,27666
" /> 
<polyline fill="none;"
points="165296,31666
165296,31388
165018,31388
165018,31666
165296,31666
" /> 
<polyline fill="none;"
points="165296,41446
165296,41167
165018,41167
165018,41446
165296,41446
" /> 
<polyline fill="none;"
points="165296,45446
165296,45167
165018,45167
165018,45446
165296,45446
" /> 
<polyline fill="none;"
points="165296,55225
165296,54947
165018,54947
165018,55225
165296,55225
" /> 
<polyline fill="none;"
points="165296,59225
165296,58947
165018,58947
165018,59225
165296,59225
" /> 
<polyline fill="none;"
points="165296,69005
165296,68726
165018,68726
165018,69005
165296,69005
" /> 
<polyline fill="none;"
points="165296,73005
165296,72726
165018,72726
165018,73005
165296,73005
" /> 
<polyline fill="none;"
points="165296,82784
165296,82506
165018,82506
165018,82784
165296,82784
" /> 
<polyline fill="none;"
points="165296,86784
165296,86506
165018,86506
165018,86784
165296,86784
" /> 
<polyline fill="none;"
points="165296,96564
165296,96285
165018,96285
165018,96564
165296,96564
" /> 
<polyline fill="none;"
points="165296,100564
165296,100285
165018,100285
165018,100564
165296,100564
" /> 
<polyline fill="none;"
points="165296,110344
165296,110065
165018,110065
165018,110344
165296,110344
" /> 
<polyline fill="none;"
points="165296,114344
165296,114065
165018,114065
165018,114344
165296,114344
" /> 
<polyline fill="none;"
points="165296,124123
165296,123844
165018,123844
165018,124123
165296,124123
" /> 
<polyline fill="none;"
points="165296,128123
165296,127844
165018,127844
165018,128123
165296,128123
" /> 
<polyline fill="none;"
points="74606,31777
74856,31527
74606,31277
74356,31527
74606,31777
" /> 
<polyline fill="none;"
points="74606,45557
74856,45307
74606,45057
74356,45307
74606,45557
" /> 
<polyline fill="none;"
points="74606,59336
74856,59086
74606,58836
74356,59086
74606,59336
" /> 
<polyline fill="none;"
points="74606,73116
74856,72866
74606,72616
74356,72866
74606,73116
" /> 
<polyline fill="none;"
points="74606,86895
74856,86645
74606,86395
74356,86645
74606,86895
" /> 
<polyline fill="none;"
points="74606,100675
74856,100425
74606,100175
74356,100425
74606,100675
" /> 
<polyline fill="none;"
points="74606,114454
74856,114204
74606,113954
74356,114204
74606,114454
" /> 
<polyline fill="none;"
points="74606,128234
74856,127984
74606,127734
74356,127984
74606,128234
" /> 
<polyline fill="none;"
points="82480,31777
82730,31527
82480,31277
82230,31527
82480,31777
" /> 
<polyline fill="none;"
points="82480,45557
82730,45307
82480,45057
82230,45307
82480,45557
" /> 
<polyline fill="none;"
points="82480,59336
82730,59086
82480,58836
82230,59086
82480,59336
" /> 
<polyline fill="none;"
points="82480,73116
82730,72866
82480,72616
82230,72866
82480,73116
" /> 
<polyline fill="none;"
points="82480,86895
82730,86645
82480,86395
82230,86645
82480,86895
" /> 
<polyline fill="none;"
points="82480,100675
82730,100425
82480,100175
82230,100425
82480,100675
" /> 
<polyline fill="none;"
points="82480,114454
82730,114204
82480,113954
82230,114204
82480,114454
" /> 
<polyline fill="none;"
points="82480,128234
82730,127984
82480,127734
82230,127984
82480,128234
" /> 
<polyline fill="none;"
points="90354,31777
90604,31527
90354,31277
90104,31527
90354,31777
" /> 
<polyline fill="none;"
points="90354,45557
90604,45307
90354,45057
90104,45307
90354,45557
" /> 
<polyline fill="none;"
points="90354,59336
90604,59086
90354,58836
90104,59086
90354,59336
" /> 
<polyline fill="none;"
points="90354,73116
90604,72866
90354,72616
90104,72866
90354,73116
" /> 
<polyline fill="none;"
points="90354,86895
90604,86645
90354,86395
90104,86645
90354,86895
" /> 
<polyline fill="none;"
points="90354,100675
90604,100425
90354,100175
90104,100425
90354,100675
" /> 
<polyline fill="none;"
points="90354,114454
90604,114204
90354,113954
90104,114204
90354,114454
" /> 
<polyline fill="none;"
points="90354,128234
90604,127984
90354,127734
90104,127984
90354,128234
" /> 
<polyline fill="none;"
points="98228,31777
98478,31527
98228,31277
97978,31527
98228,31777
" /> 
<polyline fill="none;"
points="98228,45557
98478,45307
98228,45057
97978,45307
98228,45557
" /> 
<polyline fill="none;"
points="98228,59336
98478,59086
98228,58836
97978,59086
98228,59336
" /> 
<polyline fill="none;"
points="98228,73116
98478,72866
98228,72616
97978,72866
98228,73116
" /> 
<polyline fill="none;"
points="98228,86895
98478,86645
98228,86395
97978,86645
98228,86895
" /> 
<polyline fill="none;"
points="98228,100675
98478,100425
98228,100175
97978,100425
98228,100675
" /> 
<polyline fill="none;"
points="98228,114454
98478,114204
98228,113954
97978,114204
98228,114454
" /> 
<polyline fill="none;"
points="98228,128234
98478,127984
98228,127734
97978,127984
98228,128234
" /> 
<polyline fill="none;"
points="106102,31777
106352,31527
106102,31277
105852,31527
106102,31777
" /> 
<polyline fill="none;"
points="106102,45557
106352,45307
106102,45057
105852,45307
106102,45557
" /> 
<polyline fill="none;"
points="106102,59336
106352,59086
106102,58836
105852,59086
106102,59336
" /> 
<polyline fill="none;"
points="106102,73116
106352,72866
106102,72616
105852,72866
106102,73116
" /> 
<polyline fill="none;"
points="106102,86895
106352,86645
106102,86395
105852,86645
106102,86895
" /> 
<polyline fill="none;"
points="106102,100675
106352,100425
106102,100175
105852,100425
106102,100675
" /> 
<polyline fill="none;"
points="106102,114454
106352,114204
106102,113954
105852,114204
106102,114454
" /> 
<polyline fill="none;"
points="106102,128234
106352,127984
106102,127734
105852,127984
106102,128234
" /> 
<polyline fill="none;"
points="113976,31777
114226,31527
113976,31277
113726,31527
113976,31777
" /> 
<polyline fill="none;"
points="113976,45557
114226,45307
113976,45057
113726,45307
113976,45557
" /> 
<polyline fill="none;"
points="113976,59336
114226,59086
113976,58836
113726,59086
113976,59336
" /> 
<polyline fill="none;"
points="113976,73116
114226,72866
113976,72616
113726,72866
113976,73116
" /> 
<polyline fill="none;"
points="113976,86895
114226,86645
113976,86395
113726,86645
113976,86895
" /> 
<polyline fill="none;"
points="113976,100675
114226,100425
113976,100175
113726,100425
113976,100675
" /> 
<polyline fill="none;"
points="113976,114454
114226,114204
113976,113954
113726,114204
113976,114454
" /> 
<polyline fill="none;"
points="113976,128234
114226,127984
113976,127734
113726,127984
113976,128234
" /> 
<polyline fill="none;"
points="121850,31777
122100,31527
121850,31277
121600,31527
121850,31777
" /> 
<polyline fill="none;"
points="121850,45557
122100,45307
121850,45057
121600,45307
121850,45557
" /> 
<polyline fill="none;"
points="121850,59336
122100,59086
121850,58836
121600,59086
121850,59336
" /> 
<polyline fill="none;"
points="121850,73116
122100,72866
121850,72616
121600,72866
121850,73116
" /> 
<polyline fill="none;"
points="121850,86895
122100,86645
121850,86395
121600,86645
121850,86895
" /> 
<polyline fill="none;"
points="121850,100675
122100,100425
121850,100175
121600,100425
121850,100675
" /> 
<polyline fill="none;"
points="121850,114454
122100,114204
121850,113954
121600,114204
121850,114454
" /> 
<polyline fill="none;"
points="121850,128234
122100,127984
121850,127734
121600,127984
121850,128234
" /> 
<polyline fill="none;"
points="129724,31777
129974,31527
129724,31277
129474,31527
129724,31777
" /> 
<polyline fill="none;"
points="129724,45557
129974,45307
129724,45057
129474,45307
129724,45557
" /> 
<polyline fill="none;"
points="129724,59336
129974,59086
129724,58836
129474,59086
129724,59336
" /> 
<polyline fill="none;"
points="129724,73116
129974,72866
129724,72616
129474,72866
129724,73116
" /> 
<polyline fill="none;"
points="129724,86895
129974,86645
129724,86395
129474,86645
129724,86895
" /> 
<polyline fill="none;"
points="129724,100675
129974,100425
129724,100175
129474,100425
129724,100675
" /> 
<polyline fill="none;"
points="129724,114454
129974,114204
129724,113954
129474,114204
129724,114454
" /> 
<polyline fill="none;"
points="129724,128234
129974,127984
129724,127734
129474,127984
129724,128234
" /> 
<polyline fill="none;"
points="137598,31777
137848,31527
137598,31277
137348,31527
137598,31777
" /> 
<polyline fill="none;"
points="137598,45557
137848,45307
137598,45057
137348,45307
137598,45557
" /> 
<polyline fill="none;"
points="137598,59336
137848,59086
137598,58836
137348,59086
137598,59336
" /> 
<polyline fill="none;"
points="137598,73116
137848,72866
137598,72616
137348,72866
137598,73116
" /> 
<polyline fill="none;"
points="137598,86895
137848,86645
137598,86395
137348,86645
137598,86895
" /> 
<polyline fill="none;"
points="137598,100675
137848,100425
137598,100175
137348,100425
137598,100675
" /> 
<polyline fill="none;"
points="137598,114454
137848,114204
137598,113954
137348,114204
137598,114454
" /> 
<polyline fill="none;"
points="137598,128234
137848,127984
137598,127734
137348,127984
137598,128234
" /> 
<polyline fill="none;"
points="145472,31777
145722,31527
145472,31277
145222,31527
145472,31777
" /> 
<polyline fill="none;"
points="145472,45557
145722,45307
145472,45057
145222,45307
145472,45557
" /> 
<polyline fill="none;"
points="145472,59336
145722,59086
145472,58836
145222,59086
145472,59336
" /> 
<polyline fill="none;"
points="145472,73116
145722,72866
145472,72616
145222,72866
145472,73116
" /> 
<polyline fill="none;"
points="145472,86895
145722,86645
145472,86395
145222,86645
145472,86895
" /> 
<polyline fill="none;"
points="145472,100675
145722,100425
145472,100175
145222,100425
145472,100675
" /> 
<polyline fill="none;"
points="145472,114454
145722,114204
145472,113954
145222,114204
145472,114454
" /> 
<polyline fill="none;"
points="145472,128234
145722,127984
145472,127734
145222,127984
145472,128234
" /> 
<polyline fill="none;"
points="153346,31777
153596,31527
153346,31277
153096,31527
153346,31777
" /> 
<polyline fill="none;"
points="153346,45557
153596,45307
153346,45057
153096,45307
153346,45557
" /> 
<polyline fill="none;"
points="153346,59336
153596,59086
153346,58836
153096,59086
153346,59336
" /> 
<polyline fill="none;"
points="153346,73116
153596,72866
153346,72616
153096,72866
153346,73116
" /> 
<polyline fill="none;"
points="153346,86895
153596,86645
153346,86395
153096,86645
153346,86895
" /> 
<polyline fill="none;"
points="153346,100675
153596,100425
153346,100175
153096,100425
153346,100675
" /> 
<polyline fill="none;"
points="153346,114454
153596,114204
153346,113954
153096,114204
153346,114454
" /> 
<polyline fill="none;"
points="153346,128234
153596,127984
153346,127734
153096,127984
153346,128234
" /> 
<polyline fill="none;"
points="161220,31777
161470,31527
161220,31277
160970,31527
161220,31777
" /> 
<polyline fill="none;"
points="161220,45557
161470,45307
161220,45057
160970,45307
161220,45557
" /> 
<polyline fill="none;"
points="161220,59336
161470,59086
161220,58836
160970,59086
161220,59336
" /> 
<polyline fill="none;"
points="161220,73116
161470,72866
161220,72616
160970,72866
161220,73116
" /> 
<polyline fill="none;"
points="161220,86895
161470,86645
161220,86395
160970,86645
161220,86895
" /> 
<polyline fill="none;"
points="161220,100675
161470,100425
161220,100175
160970,100425
161220,100675
" /> 
<polyline fill="none;"
points="161220,114454
161470,114204
161220,113954
160970,114204
161220,114454
" /> 
<polyline fill="none;"
points="161220,128234
161470,127984
161220,127734
160970,127984
161220,128234
" /> 
</g>
<g style="fill:#000000; fill-opacity:0.0; 
stroke:#000000; stroke-width:118.11; stroke-opacity:1; 
stroke-linecap:round; stroke-linejoin:round;">
<path d="M71915 148703
L71915 147522
L72196 147522
L72365 147578
L72477 147691
L72533 147803
L72589 148028
L72589 148197
L72533 148422
L72477 148534
L72365 148647
L72196 148703
L71915 148703
" />
<path d="M73096 148703
L73096 147916
" />
<path d="M73096 148141
L73152 148028
L73208 147972
L73321 147916
L73433 147916
" />
<path d="M73827 148703
L73827 147916
" />
<path d="M73827 147522
L73771 147578
L73827 147634
L73883 147578
L73827 147522
L73827 147634
" />
<path d="M74558 148703
L74446 148647
L74389 148534
L74389 147522
" />
<path d="M75177 148703
L75064 148647
L75008 148534
L75008 147522
" />
<path d="M76526 148703
L76526 147522
L76920 148366
L77314 147522
L77314 148703
" />
<path d="M78383 148703
L78383 148084
L78326 147972
L78214 147916
L77989 147916
L77876 147972
" />
<path d="M78383 148647
L78270 148703
L77989 148703
L77876 148647
L77820 148534
L77820 148422
L77876 148309
L77989 148253
L78270 148253
L78383 148197
" />
<path d="M78945 147916
L78945 149097
" />
<path d="M78945 147972
L79057 147916
L79282 147916
L79395 147972
L79451 148028
L79507 148141
L79507 148478
L79451 148591
L79395 148647
L79282 148703
L79057 148703
L78945 148647
" />
<path d="M80014 148591
L80070 148647
L80014 148703
L79957 148647
L80014 148591
L80014 148703
" />
<path d="M80014 147972
L80070 148028
L80014 148084
L79957 148028
L80014 147972
L80014 148084
" />
<path d="M70610 150531
L70846 150767
" />
<path d="M70846 150531
L70610 150767
" />
<path d="M72140 150002
L72252 150002
L72365 150059
L72421 150115
L72477 150227
L72533 150452
L72533 150733
L72477 150958
L72421 151071
L72365 151127
L72252 151183
L72140 151183
L72027 151127
L71971 151071
L71915 150958
L71858 150733
L71858 150452
L71915 150227
L71971 150115
L72027 150059
L72140 150002
" />
<path d="M73039 151071
L73096 151127
L73039 151183
L72983 151127
L73039 151071
L73039 151183
" />
<path d="M74108 150002
L73883 150002
L73771 150059
L73714 150115
L73602 150284
L73546 150508
L73546 150958
L73602 151071
L73658 151127
L73771 151183
L73996 151183
L74108 151127
L74164 151071
L74221 150958
L74221 150677
L74164 150565
L74108 150508
L73996 150452
L73771 150452
L73658 150508
L73602 150565
L73546 150677
" />
<path d="M74952 150002
L75064 150002
L75177 150059
L75233 150115
L75289 150227
L75345 150452
L75345 150733
L75289 150958
L75233 151071
L75177 151127
L75064 151183
L74952 151183
L74839 151127
L74783 151071
L74727 150958
L74670 150733
L74670 150452
L74727 150227
L74783 150115
L74839 150059
L74952 150002
" />
<path d="M75852 151183
L75852 150396
" />
<path d="M75852 150508
L75908 150452
L76020 150396
L76189 150396
L76302 150452
L76358 150565
L76358 151183
" />
<path d="M76358 150565
L76414 150452
L76526 150396
L76695 150396
L76808 150452
L76864 150565
L76864 151183
" />
<path d="M77426 151183
L77426 150396
" />
<path d="M77426 150508
L77483 150452
L77595 150396
L77764 150396
L77876 150452
L77933 150565
L77933 151183
" />
<path d="M77933 150565
L77989 150452
L78101 150396
L78270 150396
L78383 150452
L78439 150565
L78439 151183
" />
<path d="M80745 149946
L79732 151465
" />
<path d="M82263 150002
L82376 150002
L82488 150059
L82544 150115
L82601 150227
L82657 150452
L82657 150733
L82601 150958
L82544 151071
L82488 151127
L82376 151183
L82263 151183
L82151 151127
L82095 151071
L82038 150958
L81982 150733
L81982 150452
L82038 150227
L82095 150115
L82151 150059
L82263 150002
" />
<path d="M83163 151071
L83219 151127
L83163 151183
L83107 151127
L83163 151071
L83163 151183
" />
<path d="M83951 150002
L84063 150002
L84176 150059
L84232 150115
L84288 150227
L84344 150452
L84344 150733
L84288 150958
L84232 151071
L84176 151127
L84063 151183
L83951 151183
L83838 151127
L83782 151071
L83726 150958
L83669 150733
L83669 150452
L83726 150227
L83782 150115
L83838 150059
L83951 150002
" />
<path d="M84794 150115
L84850 150059
L84963 150002
L85244 150002
L85357 150059
L85413 150115
L85469 150227
L85469 150340
L85413 150508
L84738 151183
L85469 151183
" />
<path d="M86482 150396
L86482 151183
" />
<path d="M86200 149946
L85919 150790
L86650 150790
" />
<path d="M87044 150002
L87044 150227
" />
<path d="M87494 150002
L87494 150227
" />
<path d="M89237 151633
L89181 151577
L89069 151408
L89012 151296
L88956 151127
L88900 150846
L88900 150621
L88956 150340
L89012 150171
L89069 150059
L89181 149890
L89237 149834
" />
<path d="M89631 150115
L89687 150059
L89800 150002
L90081 150002
L90194 150059
L90250 150115
L90306 150227
L90306 150340
L90250 150508
L89575 151183
L90306 151183
" />
<path d="M90981 150508
L90868 150452
L90812 150396
L90756 150284
L90756 150227
L90812 150115
L90868 150059
L90981 150002
L91206 150002
L91318 150059
L91375 150115
L91431 150227
L91431 150284
L91375 150396
L91318 150452
L91206 150508
L90981 150508
L90868 150565
L90812 150621
L90756 150733
L90756 150958
L90812 151071
L90868 151127
L90981 151183
L91206 151183
L91318 151127
L91375 151071
L91431 150958
L91431 150733
L91375 150621
L91318 150565
L91206 150508
" />
<path d="M92106 150508
L91993 150452
L91937 150396
L91881 150284
L91881 150227
L91937 150115
L91993 150059
L92106 150002
L92331 150002
L92443 150059
L92499 150115
L92556 150227
L92556 150284
L92499 150396
L92443 150452
L92331 150508
L92106 150508
L91993 150565
L91937 150621
L91881 150733
L91881 150958
L91937 151071
L91993 151127
L92106 151183
L92331 151183
L92443 151127
L92499 151071
L92556 150958
L92556 150733
L92499 150621
L92443 150565
L92331 150508
" />
<path d="M93962 151183
L93962 150002
" />
<path d="M94468 151183
L94468 150565
L94412 150452
L94299 150396
L94131 150396
L94018 150452
L93962 150508
" />
<path d="M95199 151183
L95087 151127
L95030 151071
L94974 150958
L94974 150621
L95030 150508
L95087 150452
L95199 150396
L95368 150396
L95480 150452
L95537 150508
L95593 150621
L95593 150958
L95537 151071
L95480 151127
L95368 151183
L95199 151183
" />
<path d="M96268 151183
L96155 151127
L96099 151015
L96099 150002
" />
<path d="M97168 151127
L97055 151183
L96830 151183
L96718 151127
L96661 151015
L96661 150565
L96718 150452
L96830 150396
L97055 150396
L97168 150452
L97224 150565
L97224 150677
L96661 150790
" />
<path d="M97674 151127
L97786 151183
L98011 151183
L98124 151127
L98180 151015
L98180 150958
L98124 150846
L98011 150790
L97843 150790
L97730 150733
L97674 150621
L97674 150565
L97730 150452
L97843 150396
L98011 150396
L98124 150452
" />
<path d="M98574 151633
L98630 151577
L98742 151408
L98799 151296
L98855 151127
L98911 150846
L98911 150621
L98855 150340
L98799 150171
L98742 150059
L98630 149890
L98574 149834
" />
</g>
<g style="fill:#000000; fill-opacity:0.0; 
stroke:#000000; stroke-width:78.7402; stroke-opacity:1; 
stroke-linecap:round; stroke-linejoin:round;">
<circle cx="70721.5" cy="152209" r="125" /> 
</g>
<g style="fill:#000000; fill-opacity:0.0; 
stroke:#000000; stroke-width:118.11; stroke-opacity:1; 
stroke-linecap:round; stroke-linejoin:round;">
<path d="M72140 151561
L72252 151561
L72365 151618
L72421 151674
L72477 151786
L72533 152011
L72533 152293
L72477 152517
L72421 152630
L72365 152686
L72252 152742
L72140 152742
L72027 152686
L71971 152630
L71915 152517
L71858 152293
L71858 152011
L71915 151786
L71971 151674
L72027 151618
L72140 151561
" />
<path d="M73039 152630
L73096 152686
L73039 152742
L72983 152686
L73039 152630
L73039 152742
" />
<path d="M74108 151561
L73883 151561
L73771 151618
L73714 151674
L73602 151843
L73546 152068
L73546 152517
L73602 152630
L73658 152686
L73771 152742
L73996 152742
L74108 152686
L74164 152630
L74221 152517
L74221 152236
L74164 152124
L74108 152068
L73996 152011
L73771 152011
L73658 152068
L73602 152124
L73546 152236
" />
<path d="M75233 151955
L75233 152742
" />
<path d="M74952 151505
L74670 152349
L75402 152349
" />
<path d="M75852 152742
L75852 151955
" />
<path d="M75852 152068
L75908 152011
L76020 151955
L76189 151955
L76302 152011
L76358 152124
L76358 152742
" />
<path d="M76358 152124
L76414 152011
L76526 151955
L76695 151955
L76808 152011
L76864 152124
L76864 152742
" />
<path d="M77426 152742
L77426 151955
" />
<path d="M77426 152068
L77483 152011
L77595 151955
L77764 151955
L77876 152011
L77933 152124
L77933 152742
" />
<path d="M77933 152124
L77989 152011
L78101 151955
L78270 151955
L78383 152011
L78439 152124
L78439 152742
" />
<path d="M80745 151505
L79732 153024
" />
<path d="M82263 151561
L82376 151561
L82488 151618
L82544 151674
L82601 151786
L82657 152011
L82657 152293
L82601 152517
L82544 152630
L82488 152686
L82376 152742
L82263 152742
L82151 152686
L82095 152630
L82038 152517
L81982 152293
L81982 152011
L82038 151786
L82095 151674
L82151 151618
L82263 151561
" />
<path d="M83163 152630
L83219 152686
L83163 152742
L83107 152686
L83163 152630
L83163 152742
" />
<path d="M83951 151561
L84063 151561
L84176 151618
L84232 151674
L84288 151786
L84344 152011
L84344 152293
L84288 152517
L84232 152630
L84176 152686
L84063 152742
L83951 152742
L83838 152686
L83782 152630
L83726 152517
L83669 152293
L83669 152011
L83726 151786
L83782 151674
L83838 151618
L83951 151561
" />
<path d="M84794 151674
L84850 151618
L84963 151561
L85244 151561
L85357 151618
L85413 151674
L85469 151786
L85469 151899
L85413 152068
L84738 152742
L85469 152742
" />
<path d="M86538 151561
L85975 151561
L85919 152124
L85975 152068
L86088 152011
L86369 152011
L86482 152068
L86538 152124
L86594 152236
L86594 152517
L86538 152630
L86482 152686
L86369 152742
L86088 152742
L85975 152686
L85919 152630
" />
<path d="M87044 151561
L87044 151786
" />
<path d="M87494 151561
L87494 151786
" />
<path d="M89237 153192
L89181 153136
L89069 152967
L89012 152855
L88956 152686
L88900 152405
L88900 152180
L88956 151899
L89012 151730
L89069 151618
L89181 151449
L89237 151393
" />
<path d="M90306 152742
L89631 152742
" />
<path d="M89969 152742
L89969 151561
L89856 151730
L89744 151843
L89631 151899
" />
<path d="M91318 151561
L91093 151561
L90981 151618
L90925 151674
L90812 151843
L90756 152068
L90756 152517
L90812 152630
L90868 152686
L90981 152742
L91206 152742
L91318 152686
L91375 152630
L91431 152517
L91431 152236
L91375 152124
L91318 152068
L91206 152011
L90981 152011
L90868 152068
L90812 152124
L90756 152236
" />
<path d="M92837 152742
L92837 151561
" />
<path d="M93343 152742
L93343 152124
L93287 152011
L93174 151955
L93006 151955
L92893 152011
L92837 152068
" />
<path d="M94074 152742
L93962 152686
L93906 152630
L93849 152517
L93849 152180
L93906 152068
L93962 152011
L94074 151955
L94243 151955
L94356 152011
L94412 152068
L94468 152180
L94468 152517
L94412 152630
L94356 152686
L94243 152742
L94074 152742
" />
<path d="M95143 152742
L95030 152686
L94974 152574
L94974 151561
" />
<path d="M96043 152686
L95930 152742
L95705 152742
L95593 152686
L95537 152574
L95537 152124
L95593 152011
L95705 151955
L95930 151955
L96043 152011
L96099 152124
L96099 152236
L95537 152349
" />
<path d="M96549 152686
L96661 152742
L96886 152742
L96999 152686
L97055 152574
L97055 152517
L96999 152405
L96886 152349
L96718 152349
L96605 152293
L96549 152180
L96549 152124
L96605 152011
L96718 151955
L96886 151955
L96999 152011
" />
<path d="M97449 153192
L97505 153136
L97618 152967
L97674 152855
L97730 152686
L97786 152405
L97786 152180
L97730 151899
L97674 151730
L97618 151618
L97505 151449
L97449 151393
" />
<path d="M70669 153590
L70669 153944
" />
<path d="M70492 153767
L70846 153767
" />
<path d="M72140 153120
L72252 153120
L72365 153177
L72421 153233
L72477 153345
L72533 153570
L72533 153852
L72477 154077
L72421 154189
L72365 154245
L72252 154302
L72140 154302
L72027 154245
L71971 154189
L71915 154077
L71858 153852
L71858 153570
L71915 153345
L71971 153233
L72027 153177
L72140 153120
" />
<path d="M73039 154189
L73096 154245
L73039 154302
L72983 154245
L73039 154189
L73039 154302
" />
<path d="M73658 154302
L73883 154302
L73996 154245
L74052 154189
L74164 154020
L74221 153795
L74221 153345
L74164 153233
L74108 153177
L73996 153120
L73771 153120
L73658 153177
L73602 153233
L73546 153345
L73546 153627
L73602 153739
L73658 153795
L73771 153852
L73996 153852
L74108 153795
L74164 153739
L74221 153627
" />
<path d="M74952 153120
L75064 153120
L75177 153177
L75233 153233
L75289 153345
L75345 153570
L75345 153852
L75289 154077
L75233 154189
L75177 154245
L75064 154302
L74952 154302
L74839 154245
L74783 154189
L74727 154077
L74670 153852
L74670 153570
L74727 153345
L74783 153233
L74839 153177
L74952 153120
" />
<path d="M75852 154302
L75852 153514
" />
<path d="M75852 153627
L75908 153570
L76020 153514
L76189 153514
L76302 153570
L76358 153683
L76358 154302
" />
<path d="M76358 153683
L76414 153570
L76526 153514
L76695 153514
L76808 153570
L76864 153683
L76864 154302
" />
<path d="M77426 154302
L77426 153514
" />
<path d="M77426 153627
L77483 153570
L77595 153514
L77764 153514
L77876 153570
L77933 153683
L77933 154302
" />
<path d="M77933 153683
L77989 153570
L78101 153514
L78270 153514
L78383 153570
L78439 153683
L78439 154302
" />
<path d="M80745 153064
L79732 154583
" />
<path d="M82263 153120
L82376 153120
L82488 153177
L82544 153233
L82601 153345
L82657 153570
L82657 153852
L82601 154077
L82544 154189
L82488 154245
L82376 154302
L82263 154302
L82151 154245
L82095 154189
L82038 154077
L81982 153852
L81982 153570
L82038 153345
L82095 153233
L82151 153177
L82263 153120
" />
<path d="M83163 154189
L83219 154245
L83163 154302
L83107 154245
L83163 154189
L83163 154302
" />
<path d="M83951 153120
L84063 153120
L84176 153177
L84232 153233
L84288 153345
L84344 153570
L84344 153852
L84288 154077
L84232 154189
L84176 154245
L84063 154302
L83951 154302
L83838 154245
L83782 154189
L83726 154077
L83669 153852
L83669 153570
L83726 153345
L83782 153233
L83838 153177
L83951 153120
" />
<path d="M84738 153120
L85469 153120
L85075 153570
L85244 153570
L85357 153627
L85413 153683
L85469 153795
L85469 154077
L85413 154189
L85357 154245
L85244 154302
L84907 154302
L84794 154245
L84738 154189
" />
<path d="M86538 153120
L85975 153120
L85919 153683
L85975 153627
L86088 153570
L86369 153570
L86482 153627
L86538 153683
L86594 153795
L86594 154077
L86538 154189
L86482 154245
L86369 154302
L86088 154302
L85975 154245
L85919 154189
" />
<path d="M87044 153120
L87044 153345
" />
<path d="M87494 153120
L87494 153345
" />
<path d="M89237 154751
L89181 154695
L89069 154526
L89012 154414
L88956 154245
L88900 153964
L88900 153739
L88956 153458
L89012 153289
L89069 153177
L89181 153008
L89237 152952
" />
<path d="M89631 153233
L89687 153177
L89800 153120
L90081 153120
L90194 153177
L90250 153233
L90306 153345
L90306 153458
L90250 153627
L89575 154302
L90306 154302
" />
<path d="M91318 153514
L91318 154302
" />
<path d="M91037 153064
L90756 153908
L91487 153908
" />
<path d="M92837 154302
L92837 153120
" />
<path d="M93343 154302
L93343 153683
L93287 153570
L93174 153514
L93006 153514
L92893 153570
L92837 153627
" />
<path d="M94074 154302
L93962 154245
L93906 154189
L93849 154077
L93849 153739
L93906 153627
L93962 153570
L94074 153514
L94243 153514
L94356 153570
L94412 153627
L94468 153739
L94468 154077
L94412 154189
L94356 154245
L94243 154302
L94074 154302
" />
<path d="M95143 154302
L95030 154245
L94974 154133
L94974 153120
" />
<path d="M96043 154245
L95930 154302
L95705 154302
L95593 154245
L95537 154133
L95537 153683
L95593 153570
L95705 153514
L95930 153514
L96043 153570
L96099 153683
L96099 153795
L95537 153908
" />
<path d="M96549 154245
L96661 154302
L96886 154302
L96999 154245
L97055 154133
L97055 154077
L96999 153964
L96886 153908
L96718 153908
L96605 153852
L96549 153739
L96549 153683
L96605 153570
L96718 153514
L96886 153514
L96999 153570
" />
<path d="M97449 154751
L97505 154695
L97618 154526
L97674 154414
L97730 154245
L97786 153964
L97786 153739
L97730 153458
L97674 153289
L97618 153177
L97505 153008
L97449 152952
" />
</g>
<g style="fill:#000000; fill-opacity:0.0; 
stroke:#000000; stroke-width:78.7402; stroke-opacity:1; 
stroke-linecap:round; stroke-linejoin:round;">
<polyline fill="none;"
points="70788,155466
70788,155187
70510,155187
70510,155466
70788,155466
" /> 
</g>
<g style="fill:#000000; fill-opacity:0.0; 
stroke:#000000; stroke-width:118.11; stroke-opacity:1; 
stroke-linecap:round; stroke-linejoin:round;">
<path d="M72533 155861
L71858 155861
" />
<path d="M72196 155861
L72196 154679
L72083 154848
L71971 154961
L71858 155017
" />
<path d="M73039 155748
L73096 155804
L73039 155861
L72983 155804
L73039 155748
L73039 155861
" />
<path d="M73827 154679
L73939 154679
L74052 154736
L74108 154792
L74164 154904
L74221 155129
L74221 155411
L74164 155636
L74108 155748
L74052 155804
L73939 155861
L73827 155861
L73714 155804
L73658 155748
L73602 155636
L73546 155411
L73546 155129
L73602 154904
L73658 154792
L73714 154736
L73827 154679
" />
<path d="M74952 154679
L75064 154679
L75177 154736
L75233 154792
L75289 154904
L75345 155129
L75345 155411
L75289 155636
L75233 155748
L75177 155804
L75064 155861
L74952 155861
L74839 155804
L74783 155748
L74727 155636
L74670 155411
L74670 155129
L74727 154904
L74783 154792
L74839 154736
L74952 154679
" />
<path d="M75852 155861
L75852 155073
" />
<path d="M75852 155186
L75908 155129
L76020 155073
L76189 155073
L76302 155129
L76358 155242
L76358 155861
" />
<path d="M76358 155242
L76414 155129
L76526 155073
L76695 155073
L76808 155129
L76864 155242
L76864 155861
" />
<path d="M77426 155861
L77426 155073
" />
<path d="M77426 155186
L77483 155129
L77595 155073
L77764 155073
L77876 155129
L77933 155242
L77933 155861
" />
<path d="M77933 155242
L77989 155129
L78101 155073
L78270 155073
L78383 155129
L78439 155242
L78439 155861
" />
<path d="M80745 154623
L79732 156142
" />
<path d="M82263 154679
L82376 154679
L82488 154736
L82544 154792
L82601 154904
L82657 155129
L82657 155411
L82601 155636
L82544 155748
L82488 155804
L82376 155861
L82263 155861
L82151 155804
L82095 155748
L82038 155636
L81982 155411
L81982 155129
L82038 154904
L82095 154792
L82151 154736
L82263 154679
" />
<path d="M83163 155748
L83219 155804
L83163 155861
L83107 155804
L83163 155748
L83163 155861
" />
<path d="M83951 154679
L84063 154679
L84176 154736
L84232 154792
L84288 154904
L84344 155129
L84344 155411
L84288 155636
L84232 155748
L84176 155804
L84063 155861
L83951 155861
L83838 155804
L83782 155748
L83726 155636
L83669 155411
L83669 155129
L83726 154904
L83782 154792
L83838 154736
L83951 154679
" />
<path d="M84738 154679
L85469 154679
L85075 155129
L85244 155129
L85357 155186
L85413 155242
L85469 155354
L85469 155636
L85413 155748
L85357 155804
L85244 155861
L84907 155861
L84794 155804
L84738 155748
" />
<path d="M86032 155861
L86257 155861
L86369 155804
L86425 155748
L86538 155579
L86594 155354
L86594 154904
L86538 154792
L86482 154736
L86369 154679
L86144 154679
L86032 154736
L85975 154792
L85919 154904
L85919 155186
L85975 155298
L86032 155354
L86144 155411
L86369 155411
L86482 155354
L86538 155298
L86594 155186
" />
<path d="M87044 154679
L87044 154904
" />
<path d="M87494 154679
L87494 154904
" />
<path d="M89237 156311
L89181 156254
L89069 156086
L89012 155973
L88956 155804
L88900 155523
L88900 155298
L88956 155017
L89012 154848
L89069 154736
L89181 154567
L89237 154511
" />
<path d="M90306 155861
L89631 155861
" />
<path d="M89969 155861
L89969 154679
L89856 154848
L89744 154961
L89631 155017
" />
<path d="M91431 155861
L90756 155861
" />
<path d="M91093 155861
L91093 154679
L90981 154848
L90868 154961
L90756 155017
" />
<path d="M91881 154792
L91937 154736
L92050 154679
L92331 154679
L92443 154736
L92499 154792
L92556 154904
L92556 155017
L92499 155186
L91825 155861
L92556 155861
" />
<path d="M93962 155861
L93962 154679
" />
<path d="M94468 155861
L94468 155242
L94412 155129
L94299 155073
L94131 155073
L94018 155129
L93962 155186
" />
<path d="M95199 155861
L95087 155804
L95030 155748
L94974 155636
L94974 155298
L95030 155186
L95087 155129
L95199 155073
L95368 155073
L95480 155129
L95537 155186
L95593 155298
L95593 155636
L95537 155748
L95480 155804
L95368 155861
L95199 155861
" />
<path d="M96268 155861
L96155 155804
L96099 155692
L96099 154679
" />
<path d="M97168 155804
L97055 155861
L96830 155861
L96718 155804
L96661 155692
L96661 155242
L96718 155129
L96830 155073
L97055 155073
L97168 155129
L97224 155242
L97224 155354
L96661 155467
" />
<path d="M97674 155804
L97786 155861
L98011 155861
L98124 155804
L98180 155692
L98180 155636
L98124 155523
L98011 155467
L97843 155467
L97730 155411
L97674 155298
L97674 155242
L97730 155129
L97843 155073
L98011 155073
L98124 155129
" />
<path d="M98574 156311
L98630 156254
L98742 156086
L98799 155973
L98855 155804
L98911 155523
L98911 155298
L98855 155017
L98799 154848
L98742 154736
L98630 154567
L98574 154511
" />
</g>
<g style="fill:#000000; fill-opacity:0.0; 
stroke:#000000; stroke-width:78.7402; stroke-opacity:1; 
stroke-linecap:round; stroke-linejoin:round;">
<polyline fill="none;"
points="70596,157135
70846,156885
70596,156635
70346,156885
70596,157135
" /> 
</g>
<g style="fill:#000000; fill-opacity:0.0; 
stroke:#000000; stroke-width:118.11; stroke-opacity:1; 
stroke-linecap:round; stroke-linejoin:round;">
<path d="M72533 157420
L71858 157420
" />
<path d="M72196 157420
L72196 156239
L72083 156407
L71971 156520
L71858 156576
" />
<path d="M73039 157307
L73096 157363
L73039 157420
L72983 157363
L73039 157307
L73039 157420
" />
<path d="M73546 156351
L73602 156295
L73714 156239
L73996 156239
L74108 156295
L74164 156351
L74221 156464
L74221 156576
L74164 156745
L73489 157420
L74221 157420
" />
<path d="M74614 156239
L75402 156239
L74895 157420
" />
<path d="M75852 157420
L75852 156632
" />
<path d="M75852 156745
L75908 156688
L76020 156632
L76189 156632
L76302 156688
L76358 156801
L76358 157420
" />
<path d="M76358 156801
L76414 156688
L76526 156632
L76695 156632
L76808 156688
L76864 156801
L76864 157420
" />
<path d="M77426 157420
L77426 156632
" />
<path d="M77426 156745
L77483 156688
L77595 156632
L77764 156632
L77876 156688
L77933 156801
L77933 157420
" />
<path d="M77933 156801
L77989 156688
L78101 156632
L78270 156632
L78383 156688
L78439 156801
L78439 157420
" />
<path d="M80745 156182
L79732 157701
" />
<path d="M82263 156239
L82376 156239
L82488 156295
L82544 156351
L82601 156464
L82657 156688
L82657 156970
L82601 157195
L82544 157307
L82488 157363
L82376 157420
L82263 157420
L82151 157363
L82095 157307
L82038 157195
L81982 156970
L81982 156688
L82038 156464
L82095 156351
L82151 156295
L82263 156239
" />
<path d="M83163 157307
L83219 157363
L83163 157420
L83107 157363
L83163 157307
L83163 157420
" />
<path d="M83951 156239
L84063 156239
L84176 156295
L84232 156351
L84288 156464
L84344 156688
L84344 156970
L84288 157195
L84232 157307
L84176 157363
L84063 157420
L83951 157420
L83838 157363
L83782 157307
L83726 157195
L83669 156970
L83669 156688
L83726 156464
L83782 156351
L83838 156295
L83951 156239
" />
<path d="M85413 156239
L84850 156239
L84794 156801
L84850 156745
L84963 156688
L85244 156688
L85357 156745
L85413 156801
L85469 156913
L85469 157195
L85413 157307
L85357 157363
L85244 157420
L84963 157420
L84850 157363
L84794 157307
" />
<path d="M86200 156239
L86313 156239
L86425 156295
L86482 156351
L86538 156464
L86594 156688
L86594 156970
L86538 157195
L86482 157307
L86425 157363
L86313 157420
L86200 157420
L86088 157363
L86032 157307
L85975 157195
L85919 156970
L85919 156688
L85975 156464
L86032 156351
L86088 156295
L86200 156239
" />
<path d="M87044 156239
L87044 156464
" />
<path d="M87494 156239
L87494 156464
" />
<path d="M89237 157870
L89181 157813
L89069 157645
L89012 157532
L88956 157363
L88900 157082
L88900 156857
L88956 156576
L89012 156407
L89069 156295
L89181 156126
L89237 156070
" />
<path d="M89744 157420
L89969 157420
L90081 157363
L90137 157307
L90250 157138
L90306 156913
L90306 156464
L90250 156351
L90194 156295
L90081 156239
L89856 156239
L89744 156295
L89687 156351
L89631 156464
L89631 156745
L89687 156857
L89744 156913
L89856 156970
L90081 156970
L90194 156913
L90250 156857
L90306 156745
" />
<path d="M91318 156239
L91093 156239
L90981 156295
L90925 156351
L90812 156520
L90756 156745
L90756 157195
L90812 157307
L90868 157363
L90981 157420
L91206 157420
L91318 157363
L91375 157307
L91431 157195
L91431 156913
L91375 156801
L91318 156745
L91206 156688
L90981 156688
L90868 156745
L90812 156801
L90756 156913
" />
<path d="M92837 157420
L92837 156239
" />
<path d="M93343 157420
L93343 156801
L93287 156688
L93174 156632
L93006 156632
L92893 156688
L92837 156745
" />
<path d="M94074 157420
L93962 157363
L93906 157307
L93849 157195
L93849 156857
L93906 156745
L93962 156688
L94074 156632
L94243 156632
L94356 156688
L94412 156745
L94468 156857
L94468 157195
L94412 157307
L94356 157363
L94243 157420
L94074 157420
" />
<path d="M95143 157420
L95030 157363
L94974 157251
L94974 156239
" />
<path d="M96043 157363
L95930 157420
L95705 157420
L95593 157363
L95537 157251
L95537 156801
L95593 156688
L95705 156632
L95930 156632
L96043 156688
L96099 156801
L96099 156913
L95537 157026
" />
<path d="M96549 157363
L96661 157420
L96886 157420
L96999 157363
L97055 157251
L97055 157195
L96999 157082
L96886 157026
L96718 157026
L96605 156970
L96549 156857
L96549 156801
L96605 156688
L96718 156632
L96886 156632
L96999 156688
" />
<path d="M97449 157870
L97505 157813
L97618 157645
L97674 157532
L97730 157363
L97786 157082
L97786 156857
L97730 156576
L97674 156407
L97618 156295
L97505 156126
L97449 156070
" />
</g> 
</svg>
