999
dxflib 3.3.4.0
  0
SECTION
  2
HEADER
  9
$ACADVER
  1
AC1015
  9
$HANDSEED
  5
FFFF
  9
$DIMADEC
 70
0
  9
$DIMASZ
 40
2.5
  9
$DIMAUNIT
 70
0
  9
$DIMAZIN
 70
2
  9
$DIMDEC
 70
4
  9
$DIMEXE
 40
1.25
  9
$DIMEXO
 40
0.625
  9
$DIMGAP
 40
0.625
  9
$DIMLUNIT
 70
2
  9
$DIMSCALE
 40
1.0
  9
$DIMTSZ
 40
0.0
  9
$DIMTXT
 40
2.5
  9
$DIMZIN
 70
8
  9
$DWGCODEPAGE
  3
ANSI_1252
  9
$INSUNITS
 70
4
  9
$LTSCALE
 40
1.0
  0
ENDSEC
  0
SECTION
  2
TABLES
  0
TABLE
  2
VPORT
  5
8
100
AcDbSymbolTable
 70
1
  0
VPORT
  5
30
100
AcDbSymbolTableRecord
100
AcDbViewportTableRecord
  2
*Active
 70
0
 10
0.0
 20
0.0
 11
1.0
 21
1.0
 12
286.3055555555554861
 22
148.5
 13
0.0
 23
0.0
 14
10.0
 24
10.0
 15
10.0
 25
10.0
 16
0.0
 26
0.0
 36
1.0
 17
0.0
 27
0.0
 37
0.0
 40
297.0
 41
1.92798353909465
 42
50.0
 43
0.0
 44
0.0
 50
0.0
 51
0.0
 71
0
 72
100
 73
1
 74
3
 75
1
 76
1
 77
0
 78
0
281
0
 65
1
110
0.0
120
0.0
130
0.0
111
1.0
121
0.0
131
0.0
112
0.0
122
1.0
132
0.0
 79
0
146
0.0
  0
ENDTAB
  0
TABLE
  2
LTYPE
  5
5
100
AcDbSymbolTable
 70
21
  0
LTYPE
  5
16
100
AcDbSymbolTableRecord
100
AcDbLinetypeTableRecord
  2
CONTINUOUS
 70
0
  3
Solid line
 72
65
 73
0
 40
0.0
  0
LTYPE
  5
31
100
AcDbSymbolTableRecord
100
AcDbLinetypeTableRecord
  2
CENTER2
 70
0
  3
Center (.5x) ___ _ ___ _ ___ _ ___ _ ___ _ ___
 72
65
 73
4
 40
28.5749999999999993
 49
19.0500000000000007
 74
0
 49
-3.1749999999999998
 74
0
 49
3.1749999999999998
 74
0
 49
-3.1749999999999998
 74
0
  0
LTYPE
  5
32
100
AcDbSymbolTableRecord
100
AcDbLinetypeTableRecord
  2
DIVIDEX2
 70
0
  3
Divide (2x) ________  .  .  ________  .  .  _
 72
65
 73
6
 40
63.5
 49
25.3999999999999986
 74
0
 49
-12.6999999999999993
 74
0
 49
0.0
 74
0
 49
-12.6999999999999993
 74
0
 49
0.0
 74
0
 49
-12.6999999999999993
 74
0
  0
LTYPE
  5
33
100
AcDbSymbolTableRecord
100
AcDbLinetypeTableRecord
  2
DOT2
 70
0
  3
Dot (.5x) .....................................
 72
65
 73
2
 40
3.1749999999999998
 49
0.0
 74
0
 49
-3.1749999999999998
 74
0
  0
LTYPE
  5
34
100
AcDbSymbolTableRecord
100
AcDbLinetypeTableRecord
  2
DASHDOT2
 70
0
  3
Dash dot (.5x) _._._._._._._._._._._._._._._.
 72
65
 73
4
 40
12.6999999999999993
 49
6.3499999999999996
 74
0
 49
-3.1749999999999998
 74
0
 49
0.0
 74
0
 49
-3.1749999999999998
 74
0
  0
LTYPE
  5
35
100
AcDbSymbolTableRecord
100
AcDbLinetypeTableRecord
  2
DIVIDE
 70
0
  3
Divide ____ . . ____ . . ____ . . ____ . . ____
 72
65
 73
6
 40
31.75
 49
12.6999999999999993
 74
0
 49
-6.3499999999999996
 74
0
 49
0.0
 74
0
 49
-6.3499999999999996
 74
0
 49
0.0
 74
0
 49
-6.3499999999999996
 74
0
  0
LTYPE
  5
36
100
AcDbSymbolTableRecord
100
AcDbLinetypeTableRecord
  2
DASHDOT
 70
0
  3
Dash dot __ . __ . __ . __ . __ . __ . __ . __
 72
65
 73
4
 40
25.3999999999999986
 49
12.6999999999999993
 74
0
 49
-6.3499999999999996
 74
0
 49
0.0
 74
0
 49
-6.3499999999999996
 74
0
  0
LTYPE
  5
37
100
AcDbSymbolTableRecord
100
AcDbLinetypeTableRecord
  2
BORDER
 70
0
  3
Border __ __ . __ __ . __ __ . __ __ . __ __ .
 72
65
 73
6
 40
44.4500000000000028
 49
12.6999999999999993
 74
0
 49
-6.3499999999999996
 74
0
 49
12.6999999999999993
 74
0
 49
-6.3499999999999996
 74
0
 49
0.0
 74
0
 49
-6.3499999999999996
 74
0
  0
LTYPE
  5
38
100
AcDbSymbolTableRecord
100
AcDbLinetypeTableRecord
  2
DASHDOTX2
 70
0
  3
Dash dot (2x) ____  .  ____  .  ____  .  ___
 72
65
 73
4
 40
50.7999999999999972
 49
25.3999999999999986
 74
0
 49
-12.6999999999999993
 74
0
 49
0.0
 74
0
 49
-12.6999999999999993
 74
0
  0
LTYPE
  5
39
100
AcDbSymbolTableRecord
100
AcDbLinetypeTableRecord
  2
CENTERX2
 70
0
  3
Center (2x) ________  __  ________  __  _____
 72
65
 73
4
 40
101.5999999999999943
 49
63.5
 74
0
 49
-12.6999999999999993
 74
0
 49
12.6999999999999993
 74
0
 49
-12.6999999999999993
 74
0
  0
LTYPE
  5
3A
100
AcDbSymbolTableRecord
100
AcDbLinetypeTableRecord
  2
BORDER2
 70
0
  3
Border (.5x) __.__.__.__.__.__.__.__.__.__.__.
 72
65
 73
6
 40
22.2250000000000014
 49
6.3499999999999996
 74
0
 49
-3.1749999999999998
 74
0
 49
6.3499999999999996
 74
0
 49
-3.1749999999999998
 74
0
 49
0.0
 74
0
 49
-3.1749999999999998
 74
0
  0
LTYPE
  5
3B
100
AcDbSymbolTableRecord
100
AcDbLinetypeTableRecord
  2
BORDERX2
 70
0
  3
Border (2x) ____  ____  .  ____  ____  .  ___
 72
65
 73
6
 40
88.9000000000000057
 49
25.3999999999999986
 74
0
 49
-12.6999999999999993
 74
0
 49
25.3999999999999986
 74
0
 49
-12.6999999999999993
 74
0
 49
0.0
 74
0
 49
-12.6999999999999993
 74
0
  0
LTYPE
  5
14
100
AcDbSymbolTableRecord
100
AcDbLinetypeTableRecord
  2
BYBLOCK
 70
0
  3

 72
65
 73
0
 40
0.0
  0
LTYPE
  5
15
100
AcDbSymbolTableRecord
100
AcDbLinetypeTableRecord
  2
BYLAYER
 70
0
  3

 72
65
 73
0
 40
0.0
  0
LTYPE
  5
3C
100
AcDbSymbolTableRecord
100
AcDbLinetypeTableRecord
  2
DASHED2
 70
0
  3
Dashed (.5x) _ _ _ _ _ _ _ _ _ _ _ _ _ _ _ _ _
 72
65
 73
2
 40
9.5250000000000004
 49
6.3499999999999996
 74
0
 49
-3.1749999999999998
 74
0
  0
LTYPE
  5
3D
100
AcDbSymbolTableRecord
100
AcDbLinetypeTableRecord
  2
CENTER
 70
0
  3
Center ____ _ ____ _ ____ _ ____ _ ____ _ ____
 72
65
 73
4
 40
50.7999999999999972
 49
31.75
 74
0
 49
-6.3499999999999996
 74
0
 49
6.3499999999999996
 74
0
 49
-6.3499999999999996
 74
0
  0
LTYPE
  5
3E
100
AcDbSymbolTableRecord
100
AcDbLinetypeTableRecord
  2
DIVIDE2
 70
0
  3
Divide (.5x) __..__..__..__..__..__..__..__.._
 72
65
 73
6
 40
15.875
 49
6.3499999999999996
 74
0
 49
-3.1749999999999998
 74
0
 49
0.0
 74
0
 49
-3.1749999999999998
 74
0
 49
0.0
 74
0
 49
-3.1749999999999998
 74
0
  0
LTYPE
  5
3F
100
AcDbSymbolTableRecord
100
AcDbLinetypeTableRecord
  2
DASHED
 70
0
  3
Dashed __ __ __ __ __ __ __ __ __ __ __ __ __ _
 72
65
 73
2
 40
19.0500000000000007
 49
12.6999999999999993
 74
0
 49
-6.3499999999999996
 74
0
  0
LTYPE
  5
40
100
AcDbSymbolTableRecord
100
AcDbLinetypeTableRecord
  2
DOTX2
 70
0
  3
Dot (2x) .  .  .  .  .  .  .  .  .  .  .  .  .
 72
65
 73
2
 40
12.6999999999999993
 49
0.0
 74
0
 49
-12.6999999999999993
 74
0
  0
LTYPE
  5
41
100
AcDbSymbolTableRecord
100
AcDbLinetypeTableRecord
  2
DASHEDX2
 70
0
  3
Dashed (2x) ____  ____  ____  ____  ____  ___
 72
65
 73
2
 40
38.1000000000000014
 49
25.3999999999999986
 74
0
 49
-12.6999999999999993
 74
0
  0
LTYPE
  5
42
100
AcDbSymbolTableRecord
100
AcDbLinetypeTableRecord
  2
DOT
 70
0
  3
Dot . . . . . . . . . . . . . . . . . . . . . .
 72
65
 73
2
 40
6.3499999999999996
 49
0.0
 74
0
 49
-6.3499999999999996
 74
0
  0
ENDTAB
  0
TABLE
  2
LAYER
  5
2
100
AcDbSymbolTable
 70
8
  0
LAYER
  5
43
100
AcDbSymbolTableRecord
100
AcDbLayerTableRecord
  2
rezanje
 70
1
 62
-54
420
8421376
  6
CONTINUOUS
370
200
390
F
  0
LAYER
  5
44
100
AcDbSymbolTableRecord
100
AcDbLayerTableRecord
  2
gumb
 70
0
 62
7
420
0
  6
CONTINUOUS
370
25
390
F
  0
LAYER
  5
45
100
AcDbSymbolTableRecord
100
AcDbLayerTableRecord
  2
sve_van
 70
0
 62
7
420
0
  6
CONTINUOUS
370
25
390
F
  0
LAYER
  5
46
100
AcDbSymbolTableRecord
100
AcDbLayerTableRecord
  2
rupa
 70
1
 62
-7
420
0
  6
CONTINUOUS
370
25
390
F
  0
LAYER
  5
47
100
AcDbSymbolTableRecord
100
AcDbLayerTableRecord
  2
mjere
 70
0
 62
7
420
0
  6
CONTINUOUS
370
25
390
F
  0
LAYER
  5
48
100
AcDbSymbolTableRecord
100
AcDbLayerTableRecord
  2
slova
 70
1
 62
-7
420
0
  6
CONTINUOUS
370
25
390
F
  0
LAYER
  5
10
100
AcDbSymbolTableRecord
100
AcDbLayerTableRecord
  2
0
 70
0
 62
7
420
0
  6
CONTINUOUS
370
25
390
F
  0
LAYER
  5
49
100
AcDbSymbolTableRecord
100
AcDbLayerTableRecord
  2
gumb_okvir
 70
0
 62
1
420
16711680
  6
CONTINUOUS
370
25
390
F
  0
ENDTAB
  0
TABLE
  2
STYLE
  5
3
100
AcDbSymbolTable
 70
9
  0
STYLE
  5
4A
100
AcDbSymbolTableRecord
100
AcDbTextStyleTableRecord
  2
Standard
 70
0
 40
0.0
 41
1.0
 50
0.0
 71
0
 42
2.5
  3

  4

1001
ACAD
1000
txt
1071
0
  0
STYLE
  5
4B
100
AcDbSymbolTableRecord
100
AcDbTextStyleTableRecord
  2
textstyle0
 70
0
 40
0.0
 41
1.0
 50
0.0
 71
0
 42
1.0
  3

  4

1001
ACAD
1000
Monospace
1071
0
  0
STYLE
  5
4C
100
AcDbSymbolTableRecord
100
AcDbTextStyleTableRecord
  2
textstyle1
 70
0
 40
0.0
 41
1.0
 50
0.0
 71
0
 42
1.0
  3

  4

1001
ACAD
1000
Monospace
1071
0
  0
STYLE
  5
4D
100
AcDbSymbolTableRecord
100
AcDbTextStyleTableRecord
  2
textstyle2
 70
0
 40
0.0
 41
1.0
 50
0.0
 71
0
 42
1.0
  3

  4

1001
ACAD
1000
Monospace
1071
0
  0
STYLE
  5
4E
100
AcDbSymbolTableRecord
100
AcDbTextStyleTableRecord
  2
textstyle3
 70
0
 40
0.0
 41
1.0
 50
0.0
 71
0
 42
1.0
  3

  4

1001
ACAD
1000
Monospace
1071
0
  0
STYLE
  5
4F
100
AcDbSymbolTableRecord
100
AcDbTextStyleTableRecord
  2
textstyle4
 70
0
 40
0.0
 41
1.0
 50
0.0
 71
0
 42
1.0
  3

  4

1001
ACAD
1000
Monospace
1071
0
  0
STYLE
  5
50
100
AcDbSymbolTableRecord
100
AcDbTextStyleTableRecord
  2
textstyle5
 70
0
 40
0.0
 41
1.0
 50
0.0
 71
0
 42
1.0
  3

  4

1001
ACAD
1000
Monospace
1071
0
  0
STYLE
  5
51
100
AcDbSymbolTableRecord
100
AcDbTextStyleTableRecord
  2
textstyle6
 70
0
 40
0.0
 41
1.0
 50
0.0
 71
0
 42
1.0
  3

  4

1001
ACAD
1000
Monospace
1071
0
  0
STYLE
  5
52
100
AcDbSymbolTableRecord
100
AcDbTextStyleTableRecord
  2
textstyle7
 70
0
 40
0.0
 41
1.0
 50
0.0
 71
0
 42
1.0
  3

  4

1001
ACAD
1000
Monospace
1071
0
  0
ENDTAB
  0
TABLE
  2
VIEW
  5
6
100
AcDbSymbolTable
 70
0
  0
ENDTAB
  0
TABLE
  2
UCS
  5
7
100
AcDbSymbolTable
 70
0
  0
ENDTAB
  0
TABLE
  2
APPID
  5
9
100
AcDbSymbolTable
 70
1
  0
APPID
  5
12
100
AcDbSymbolTableRecord
100
AcDbRegAppTableRecord
  2
ACAD
 70
0
  0
APPID
  5
53
100
AcDbSymbolTableRecord
100
AcDbRegAppTableRecord
  2
QCAD
 70
0
  0
ENDTAB
  0
TABLE
  2
DIMSTYLE
  5
A
100
AcDbSymbolTable
 70
1
100
AcDbDimStyleTable
 71
0
  0
DIMSTYLE
105
27
100
AcDbSymbolTableRecord
100
AcDbDimStyleTableRecord
  2
Standard
 41
2.5
 42
0.625
 43
3.75
 44
1.25
 70
0
 73
0
 74
0
 77
1
 78
8
140
2.5
141
2.5
143
0.03937007874016
147
0.625
171
3
172
1
271
2
272
2
274
3
278
44
283
0
284
8
340
4A
  0
ENDTAB
  0
TABLE
  2
BLOCK_RECORD
  5
1
100
AcDbSymbolTable
 70
1
  0
BLOCK_RECORD
  5
1F
100
AcDbSymbolTableRecord
100
AcDbBlockTableRecord
  2
*Model_Space
340
22
  0
BLOCK_RECORD
  5
1B
100
AcDbSymbolTableRecord
100
AcDbBlockTableRecord
  2
*Paper_Space
340
1E
  0
BLOCK_RECORD
  5
23
100
AcDbSymbolTableRecord
100
AcDbBlockTableRecord
  2
*Paper_Space0
340
26
  0
ENDTAB
  0
ENDSEC
  0
SECTION
  2
BLOCKS
  0
BLOCK
  5
20
100
AcDbEntity
  8
0
100
AcDbBlockBegin
  2
*Model_Space
 70
0
 10
0.0
 20
0.0
 30
0.0
  3
*Model_Space
  1

  0
ENDBLK
  5
21
100
AcDbEntity
  8
0
100
AcDbBlockEnd
  0
BLOCK
  5
1C
100
AcDbEntity
 67
1
  8
0
100
AcDbBlockBegin
  2
*Paper_Space
 70
0
 10
0.0
 20
0.0
 30
0.0
  3
*Paper_Space
  1

  0
ENDBLK
  5
1D
100
AcDbEntity
 67
1
  8
0
100
AcDbBlockEnd
  0
BLOCK
  5
24
100
AcDbEntity
  8
0
100
AcDbBlockBegin
  2
*Paper_Space0
 70
0
 10
0.0
 20
0.0
 30
0.0
  3
*Paper_Space0
  1

  0
ENDBLK
  5
25
100
AcDbEntity
  8
0
100
AcDbBlockEnd
  0
ENDSEC
  0
SECTION
  2
ENTITIES
  0
MTEXT
  5
54
100
AcDbEntity
100
AcDbMText
  8
slova
 62
256
370
-1
  6
BYLAYER
 10
32.0
 20
22.5
 30
0.0
 40
1.0
 41
0.0
 71
5
 72
1
  1
\H6;E
  7
textstyle0
 50
0.0
 73
2
 44
1.0
  0
LINE
  5
55
100
AcDbEntity
100
AcDbLine
  8
rezanje
 62
256
370
-1
  6
BYLAYER
 10
22.0
 20
40.0
 30
0.0
 11
41.0
 21
40.0
 31
0.0
  0
LINE
  5
56
100
AcDbEntity
100
AcDbLine
  8
rezanje
 62
256
370
-1
  6
BYLAYER
 10
41.9999999999999929
 20
39.0
 30
0.0
 11
41.9999999999999929
 21
4.9999999999999982
 31
0.0
  0
LINE
  5
57
100
AcDbEntity
100
AcDbLine
  8
rezanje
 62
256
370
-1
  6
BYLAYER
 10
21.0
 20
4.9999999999999982
 30
0.0
 11
21.0
 21
39.0
 31
0.0
  0
LINE
  5
58
100
AcDbEntity
100
AcDbLine
  8
rezanje
 62
256
370
-1
  6
BYLAYER
 10
41.0
 20
3.9999999999999982
 30
0.0
 11
22.0
 21
3.9999999999999982
 31
0.0
  0
MTEXT
  5
59
100
AcDbEntity
100
AcDbMText
  8
slova
 62
256
370
-1
  6
BYLAYER
 10
52.9999999999999929
 20
22.5
 30
0.0
 40
1.0
 41
0.0
 71
5
 72
1
  1
\H6;E
  7
textstyle1
 50
0.0
 73
2
 44
1.0
  0
LINE
  5
5A
100
AcDbEntity
100
AcDbLine
  8
rezanje
 62
256
370
-1
  6
BYLAYER
 10
42.9999999999999929
 20
40.0
 30
0.0
 11
61.9999999999999929
 21
40.0
 31
0.0
  0
LINE
  5
5B
100
AcDbEntity
100
AcDbLine
  8
rezanje
 62
256
370
-1
  6
BYLAYER
 10
62.9999999999999929
 20
39.0
 30
0.0
 11
62.9999999999999929
 21
4.9999999999999982
 31
0.0
  0
LINE
  5
5C
100
AcDbEntity
100
AcDbLine
  8
rezanje
 62
256
370
-1
  6
BYLAYER
 10
41.9999999999999929
 20
4.9999999999999982
 30
0.0
 11
41.9999999999999929
 21
39.0
 31
0.0
  0
LINE
  5
5D
100
AcDbEntity
100
AcDbLine
  8
rezanje
 62
256
370
-1
  6
BYLAYER
 10
61.9999999999999929
 20
3.9999999999999982
 30
0.0
 11
42.9999999999999929
 21
3.9999999999999982
 31
0.0
  0
MTEXT
  5
5E
100
AcDbEntity
100
AcDbMText
  8
slova
 62
256
370
-1
  6
BYLAYER
 10
32.0
 20
58.5
 30
0.0
 40
1.0
 41
0.0
 71
5
 72
1
  1
\H6;E
  7
textstyle2
 50
0.0
 73
2
 44
1.0
  0
LINE
  5
5F
100
AcDbEntity
100
AcDbLine
  8
rezanje
 62
256
370
-1
  6
BYLAYER
 10
22.0
 20
76.0
 30
0.0
 11
41.0
 21
76.0
 31
0.0
  0
LINE
  5
60
100
AcDbEntity
100
AcDbLine
  8
rezanje
 62
256
370
-1
  6
BYLAYER
 10
41.9999999999999929
 20
75.0
 30
0.0
 11
41.9999999999999929
 21
41.0
 31
0.0
  0
LINE
  5
61
100
AcDbEntity
100
AcDbLine
  8
rezanje
 62
256
370
-1
  6
BYLAYER
 10
21.0
 20
41.0
 30
0.0
 11
21.0
 21
75.0
 31
0.0
  0
LINE
  5
62
100
AcDbEntity
100
AcDbLine
  8
rezanje
 62
256
370
-1
  6
BYLAYER
 10
41.0
 20
40.0
 30
0.0
 11
22.0
 21
40.0
 31
0.0
  0
MTEXT
  5
63
100
AcDbEntity
100
AcDbMText
  8
slova
 62
256
370
-1
  6
BYLAYER
 10
52.9999999999999929
 20
58.5
 30
0.0
 40
1.0
 41
0.0
 71
5
 72
1
  1
\H6;E
  7
textstyle3
 50
0.0
 73
2
 44
1.0
  0
LINE
  5
64
100
AcDbEntity
100
AcDbLine
  8
rezanje
 62
256
370
-1
  6
BYLAYER
 10
42.9999999999999929
 20
76.0
 30
0.0
 11
61.9999999999999929
 21
76.0
 31
0.0
  0
LINE
  5
65
100
AcDbEntity
100
AcDbLine
  8
rezanje
 62
256
370
-1
  6
BYLAYER
 10
62.9999999999999929
 20
75.0
 30
0.0
 11
62.9999999999999929
 21
41.0
 31
0.0
  0
LINE
  5
66
100
AcDbEntity
100
AcDbLine
  8
rezanje
 62
256
370
-1
  6
BYLAYER
 10
41.9999999999999929
 20
41.0
 30
0.0
 11
41.9999999999999929
 21
75.0
 31
0.0
  0
LINE
  5
67
100
AcDbEntity
100
AcDbLine
  8
rezanje
 62
256
370
-1
  6
BYLAYER
 10
61.9999999999999929
 20
40.0
 30
0.0
 11
42.9999999999999929
 21
40.0
 31
0.0
  0
MTEXT
  5
68
100
AcDbEntity
100
AcDbMText
  8
slova
 62
256
370
-1
  6
BYLAYER
 10
100.0
 20
22.5
 30
0.0
 40
1.0
 41
0.0
 71
5
 72
1
  1
\H6;E
  7
textstyle4
 50
0.0
 73
2
 44
1.0
  0
MTEXT
  5
69
100
AcDbEntity
100
AcDbMText
  8
slova
 62
256
370
-1
  6
BYLAYER
 10
121.0
 20
22.5
 30
0.0
 40
1.0
 41
0.0
 71
5
 72
1
  1
\H6;E
  7
textstyle5
 50
0.0
 73
2
 44
1.0
  0
MTEXT
  5
6A
100
AcDbEntity
100
AcDbMText
  8
slova
 62
256
370
-1
  6
BYLAYER
 10
100.0
 20
58.5
 30
0.0
 40
1.0
 41
0.0
 71
5
 72
1
  1
\H6;E
  7
textstyle6
 50
0.0
 73
2
 44
1.0
  0
MTEXT
  5
6B
100
AcDbEntity
100
AcDbMText
  8
slova
 62
256
370
-1
  6
BYLAYER
 10
121.0
 20
58.5
 30
0.0
 40
1.0
 41
0.0
 71
5
 72
1
  1
\H6;E
  7
textstyle7
 50
0.0
 73
2
 44
1.0
  0
CIRCLE
  5
6C
100
AcDbEntity
100
AcDbCircle
  8
rupa
 62
256
370
-1
  6
BYLAYER
 10
12.0
 20
75.0
 30
0.0
 40
1.0
  0
CIRCLE
  5
6D
100
AcDbEntity
100
AcDbCircle
  8
rupa
 62
256
370
-1
  6
BYLAYER
 10
71.9999999999999858
 20
75.0
 30
0.0
 40
1.0
  0
CIRCLE
  5
6E
100
AcDbEntity
100
AcDbCircle
  8
rupa
 62
256
370
-1
  6
BYLAYER
 10
71.9999999999999858
 20
4.9999999999999982
 30
0.0
 40
1.0
  0
CIRCLE
  5
6F
100
AcDbEntity
100
AcDbCircle
  8
rupa
 62
256
370
-1
  6
BYLAYER
 10
12.0
 20
4.9999999999999982
 30
0.0
 40
1.0
  0
LINE
  5
70
100
AcDbEntity
100
AcDbLine
  8
0
 62
256
370
-1
  6
BYLAYER
 10
0.0
 20
0.0
 30
0.0
 11
295.0
 21
0.0
 31
0.0
  0
LINE
  5
71
100
AcDbEntity
100
AcDbLine
  8
0
 62
256
370
-1
  6
BYLAYER
 10
0.0
 20
0.0
 30
0.0
 11
0.0000000000000138
 21
225.0
 31
0.0
  0
LINE
  5
72
100
AcDbEntity
100
AcDbLine
  8
0
 62
256
370
-1
  6
BYLAYER
 10
295.0
 20
0.0
 30
0.0
 11
295.0
 21
225.0
 31
0.0
  0
LINE
  5
73
100
AcDbEntity
100
AcDbLine
  8
0
 62
256
370
-1
  6
BYLAYER
 10
0.0000000000000138
 20
225.0
 30
0.0
 11
295.0
 21
225.0
 31
0.0
  0
CIRCLE
  5
74
100
AcDbEntity
100
AcDbCircle
  8
0
 62
256
370
-1
  6
BYLAYER
 10
20.0
 20
23.0
 30
0.0
 40
1.0
  0
LWPOLYLINE
  5
75
  8
gumb_okvir
 62
256
370
-1
  6
BYLAYER
100
AcDbEntity
100
AcDbPolyline
 90
5
 70
0
 10
30.0
 20
23.0
 30
0.0
 10
30.0
 20
57.0
 30
0.0
 10
49.0
 20
57.0
 30
0.0
 10
49.0
 20
23.0
 30
0.0
 10
30.0
 20
23.0
 30
0.0
  0
LWPOLYLINE
  5
76
  8
gumb
 62
256
370
-1
  6
BYLAYER
100
AcDbEntity
100
AcDbPolyline
 90
5
 70
0
 10
32.0
 20
25.0
 30
0.0
 10
32.0
 20
55.0
 30
0.0
 10
47.0
 20
55.0
 30
0.0
 10
47.0
 20
25.0
 30
0.0
 10
32.0
 20
25.0
 30
0.0
  0
LWPOLYLINE
  5
77
  8
gumb_okvir
 62
256
370
-1
  6
BYLAYER
100
AcDbEntity
100
AcDbPolyline
 90
5
 70
0
 10
51.0
 20
23.0
 30
0.0
 10
51.0
 20
57.0
 30
0.0
 10
70.0
 20
57.0
 30
0.0
 10
70.0
 20
23.0
 30
0.0
 10
51.0
 20
23.0
 30
0.0
  0
LWPOLYLINE
  5
78
  8
gumb
 62
256
370
-1
  6
BYLAYER
100
AcDbEntity
100
AcDbPolyline
 90
5
 70
0
 10
53.0
 20
25.0
 30
0.0
 10
53.0
 20
55.0
 30
0.0
 10
68.0
 20
55.0
 30
0.0
 10
68.0
 20
25.0
 30
0.0
 10
53.0
 20
25.0
 30
0.0
  0
LWPOLYLINE
  5
79
  8
gumb_okvir
 62
256
370
-1
  6
BYLAYER
100
AcDbEntity
100
AcDbPolyline
 90
5
 70
0
 10
72.0
 20
23.0
 30
0.0
 10
72.0
 20
57.0
 30
0.0
 10
91.0
 20
57.0
 30
0.0
 10
91.0
 20
23.0
 30
0.0
 10
72.0
 20
23.0
 30
0.0
  0
LWPOLYLINE
  5
7A
  8
gumb
 62
256
370
-1
  6
BYLAYER
100
AcDbEntity
100
AcDbPolyline
 90
5
 70
0
 10
74.0
 20
25.0
 30
0.0
 10
74.0
 20
55.0
 30
0.0
 10
89.0
 20
55.0
 30
0.0
 10
89.0
 20
25.0
 30
0.0
 10
74.0
 20
25.0
 30
0.0
  0
LWPOLYLINE
  5
7B
  8
gumb_okvir
 62
256
370
-1
  6
BYLAYER
100
AcDbEntity
100
AcDbPolyline
 90
5
 70
0
 10
93.0
 20
23.0
 30
0.0
 10
93.0
 20
57.0
 30
0.0
 10
112.0
 20
57.0
 30
0.0
 10
112.0
 20
23.0
 30
0.0
 10
93.0
 20
23.0
 30
0.0
  0
LWPOLYLINE
  5
7C
  8
gumb
 62
256
370
-1
  6
BYLAYER
100
AcDbEntity
100
AcDbPolyline
 90
5
 70
0
 10
95.0
 20
25.0
 30
0.0
 10
95.0
 20
55.0
 30
0.0
 10
110.0
 20
55.0
 30
0.0
 10
110.0
 20
25.0
 30
0.0
 10
95.0
 20
25.0
 30
0.0
  0
LWPOLYLINE
  5
7D
  8
gumb_okvir
 62
256
370
-1
  6
BYLAYER
100
AcDbEntity
100
AcDbPolyline
 90
5
 70
0
 10
114.0
 20
23.0
 30
0.0
 10
114.0
 20
57.0
 30
0.0
 10
133.0
 20
57.0
 30
0.0
 10
133.0
 20
23.0
 30
0.0
 10
114.0
 20
23.0
 30
0.0
  0
LWPOLYLINE
  5
7E
  8
gumb
 62
256
370
-1
  6
BYLAYER
100
AcDbEntity
100
AcDbPolyline
 90
5
 70
0
 10
116.0
 20
25.0
 30
0.0
 10
116.0
 20
55.0
 30
0.0
 10
131.0
 20
55.0
 30
0.0
 10
131.0
 20
25.0
 30
0.0
 10
116.0
 20
25.0
 30
0.0
  0
LWPOLYLINE
  5
7F
  8
gumb_okvir
 62
256
370
-1
  6
BYLAYER
100
AcDbEntity
100
AcDbPolyline
 90
5
 70
0
 10
135.0
 20
23.0
 30
0.0
 10
135.0
 20
57.0
 30
0.0
 10
154.0
 20
57.0
 30
0.0
 10
154.0
 20
23.0
 30
0.0
 10
135.0
 20
23.0
 30
0.0
  0
LWPOLYLINE
  5
80
  8
gumb
 62
256
370
-1
  6
BYLAYER
100
AcDbEntity
100
AcDbPolyline
 90
5
 70
0
 10
137.0
 20
25.0
 30
0.0
 10
137.0
 20
55.0
 30
0.0
 10
152.0
 20
55.0
 30
0.0
 10
152.0
 20
25.0
 30
0.0
 10
137.0
 20
25.0
 30
0.0
  0
LWPOLYLINE
  5
81
  8
gumb_okvir
 62
256
370
-1
  6
BYLAYER
100
AcDbEntity
100
AcDbPolyline
 90
5
 70
0
 10
156.0
 20
23.0
 30
0.0
 10
156.0
 20
57.0
 30
0.0
 10
175.0
 20
57.0
 30
0.0
 10
175.0
 20
23.0
 30
0.0
 10
156.0
 20
23.0
 30
0.0
  0
LWPOLYLINE
  5
82
  8
gumb
 62
256
370
-1
  6
BYLAYER
100
AcDbEntity
100
AcDbPolyline
 90
5
 70
0
 10
158.0
 20
25.0
 30
0.0
 10
158.0
 20
55.0
 30
0.0
 10
173.0
 20
55.0
 30
0.0
 10
173.0
 20
25.0
 30
0.0
 10
158.0
 20
25.0
 30
0.0
  0
LWPOLYLINE
  5
83
  8
gumb_okvir
 62
256
370
-1
  6
BYLAYER
100
AcDbEntity
100
AcDbPolyline
 90
5
 70
0
 10
177.0
 20
23.0
 30
0.0
 10
177.0
 20
57.0
 30
0.0
 10
196.0
 20
57.0
 30
0.0
 10
196.0
 20
23.0
 30
0.0
 10
177.0
 20
23.0
 30
0.0
  0
LWPOLYLINE
  5
84
  8
gumb
 62
256
370
-1
  6
BYLAYER
100
AcDbEntity
100
AcDbPolyline
 90
5
 70
0
 10
179.0
 20
25.0
 30
0.0
 10
179.0
 20
55.0
 30
0.0
 10
194.0
 20
55.0
 30
0.0
 10
194.0
 20
25.0
 30
0.0
 10
179.0
 20
25.0
 30
0.0
  0
LWPOLYLINE
  5
85
  8
gumb_okvir
 62
256
370
-1
  6
BYLAYER
100
AcDbEntity
100
AcDbPolyline
 90
5
 70
0
 10
198.0
 20
23.0
 30
0.0
 10
198.0
 20
57.0
 30
0.0
 10
217.0
 20
57.0
 30
0.0
 10
217.0
 20
23.0
 30
0.0
 10
198.0
 20
23.0
 30
0.0
  0
LWPOLYLINE
  5
86
  8
gumb
 62
256
370
-1
  6
BYLAYER
100
AcDbEntity
100
AcDbPolyline
 90
5
 70
0
 10
200.0
 20
25.0
 30
0.0
 10
200.0
 20
55.0
 30
0.0
 10
215.0
 20
55.0
 30
0.0
 10
215.0
 20
25.0
 30
0.0
 10
200.0
 20
25.0
 30
0.0
  0
LWPOLYLINE
  5
87
  8
gumb_okvir
 62
256
370
-1
  6
BYLAYER
100
AcDbEntity
100
AcDbPolyline
 90
5
 70
0
 10
219.0
 20
23.0
 30
0.0
 10
219.0
 20
57.0
 30
0.0
 10
238.0
 20
57.0
 30
0.0
 10
238.0
 20
23.0
 30
0.0
 10
219.0
 20
23.0
 30
0.0
  0
LWPOLYLINE
  5
88
  8
gumb
 62
256
370
-1
  6
BYLAYER
100
AcDbEntity
100
AcDbPolyline
 90
5
 70
0
 10
221.0
 20
25.0
 30
0.0
 10
221.0
 20
55.0
 30
0.0
 10
236.0
 20
55.0
 30
0.0
 10
236.0
 20
25.0
 30
0.0
 10
221.0
 20
25.0
 30
0.0
  0
LWPOLYLINE
  5
89
  8
gumb_okvir
 62
256
370
-1
  6
BYLAYER
100
AcDbEntity
100
AcDbPolyline
 90
5
 70
0
 10
240.0
 20
23.0
 30
0.0
 10
240.0
 20
57.0
 30
0.0
 10
259.0
 20
57.0
 30
0.0
 10
259.0
 20
23.0
 30
0.0
 10
240.0
 20
23.0
 30
0.0
  0
LWPOLYLINE
  5
8A
  8
gumb
 62
256
370
-1
  6
BYLAYER
100
AcDbEntity
100
AcDbPolyline
 90
5
 70
0
 10
242.0
 20
25.0
 30
0.0
 10
242.0
 20
55.0
 30
0.0
 10
257.0
 20
55.0
 30
0.0
 10
257.0
 20
25.0
 30
0.0
 10
242.0
 20
25.0
 30
0.0
  0
CIRCLE
  5
8B
100
AcDbEntity
100
AcDbCircle
  8
gumb
 62
256
370
-1
  6
BYLAYER
 10
269.0
 20
23.0
 30
0.0
 40
1.0
  0
LWPOLYLINE
  5
8C
  8
gumb_okvir
 62
256
370
-1
  6
BYLAYER
100
AcDbEntity
100
AcDbPolyline
 90
5
 70
0
 10
30.0
 20
59.0
 30
0.0
 10
30.0
 20
93.0
 30
0.0
 10
49.0
 20
93.0
 30
0.0
 10
49.0
 20
59.0
 30
0.0
 10
30.0
 20
59.0
 30
0.0
  0
LWPOLYLINE
  5
8D
  8
gumb
 62
256
370
-1
  6
BYLAYER
100
AcDbEntity
100
AcDbPolyline
 90
5
 70
0
 10
32.0
 20
61.0
 30
0.0
 10
32.0
 20
91.0
 30
0.0
 10
47.0
 20
91.0
 30
0.0
 10
47.0
 20
61.0
 30
0.0
 10
32.0
 20
61.0
 30
0.0
  0
LWPOLYLINE
  5
8E
  8
gumb_okvir
 62
256
370
-1
  6
BYLAYER
100
AcDbEntity
100
AcDbPolyline
 90
5
 70
0
 10
51.0
 20
59.0
 30
0.0
 10
51.0
 20
93.0
 30
0.0
 10
70.0
 20
93.0
 30
0.0
 10
70.0
 20
59.0
 30
0.0
 10
51.0
 20
59.0
 30
0.0
  0
LWPOLYLINE
  5
8F
  8
gumb
 62
256
370
-1
  6
BYLAYER
100
AcDbEntity
100
AcDbPolyline
 90
5
 70
0
 10
53.0
 20
61.0
 30
0.0
 10
53.0
 20
91.0
 30
0.0
 10
68.0
 20
91.0
 30
0.0
 10
68.0
 20
61.0
 30
0.0
 10
53.0
 20
61.0
 30
0.0
  0
LWPOLYLINE
  5
90
  8
gumb_okvir
 62
256
370
-1
  6
BYLAYER
100
AcDbEntity
100
AcDbPolyline
 90
5
 70
0
 10
72.0
 20
59.0
 30
0.0
 10
72.0
 20
93.0
 30
0.0
 10
91.0
 20
93.0
 30
0.0
 10
91.0
 20
59.0
 30
0.0
 10
72.0
 20
59.0
 30
0.0
  0
LWPOLYLINE
  5
91
  8
gumb
 62
256
370
-1
  6
BYLAYER
100
AcDbEntity
100
AcDbPolyline
 90
5
 70
0
 10
74.0
 20
61.0
 30
0.0
 10
74.0
 20
91.0
 30
0.0
 10
89.0
 20
91.0
 30
0.0
 10
89.0
 20
61.0
 30
0.0
 10
74.0
 20
61.0
 30
0.0
  0
LWPOLYLINE
  5
92
  8
gumb_okvir
 62
256
370
-1
  6
BYLAYER
100
AcDbEntity
100
AcDbPolyline
 90
5
 70
0
 10
93.0
 20
59.0
 30
0.0
 10
93.0
 20
93.0
 30
0.0
 10
112.0
 20
93.0
 30
0.0
 10
112.0
 20
59.0
 30
0.0
 10
93.0
 20
59.0
 30
0.0
  0
LWPOLYLINE
  5
93
  8
gumb
 62
256
370
-1
  6
BYLAYER
100
AcDbEntity
100
AcDbPolyline
 90
5
 70
0
 10
95.0
 20
61.0
 30
0.0
 10
95.0
 20
91.0
 30
0.0
 10
110.0
 20
91.0
 30
0.0
 10
110.0
 20
61.0
 30
0.0
 10
95.0
 20
61.0
 30
0.0
  0
LWPOLYLINE
  5
94
  8
gumb_okvir
 62
256
370
-1
  6
BYLAYER
100
AcDbEntity
100
AcDbPolyline
 90
5
 70
0
 10
114.0
 20
59.0
 30
0.0
 10
114.0
 20
93.0
 30
0.0
 10
133.0
 20
93.0
 30
0.0
 10
133.0
 20
59.0
 30
0.0
 10
114.0
 20
59.0
 30
0.0
  0
LWPOLYLINE
  5
95
  8
gumb
 62
256
370
-1
  6
BYLAYER
100
AcDbEntity
100
AcDbPolyline
 90
5
 70
0
 10
116.0
 20
61.0
 30
0.0
 10
116.0
 20
91.0
 30
0.0
 10
131.0
 20
91.0
 30
0.0
 10
131.0
 20
61.0
 30
0.0
 10
116.0
 20
61.0
 30
0.0
  0
LWPOLYLINE
  5
96
  8
gumb_okvir
 62
256
370
-1
  6
BYLAYER
100
AcDbEntity
100
AcDbPolyline
 90
5
 70
0
 10
135.0
 20
59.0
 30
0.0
 10
135.0
 20
93.0
 30
0.0
 10
154.0
 20
93.0
 30
0.0
 10
154.0
 20
59.0
 30
0.0
 10
135.0
 20
59.0
 30
0.0
  0
LWPOLYLINE
  5
97
  8
gumb
 62
256
370
-1
  6
BYLAYER
100
AcDbEntity
100
AcDbPolyline
 90
5
 70
0
 10
137.0
 20
61.0
 30
0.0
 10
137.0
 20
91.0
 30
0.0
 10
152.0
 20
91.0
 30
0.0
 10
152.0
 20
61.0
 30
0.0
 10
137.0
 20
61.0
 30
0.0
  0
LWPOLYLINE
  5
98
  8
gumb_okvir
 62
256
370
-1
  6
BYLAYER
100
AcDbEntity
100
AcDbPolyline
 90
5
 70
0
 10
156.0
 20
59.0
 30
0.0
 10
156.0
 20
93.0
 30
0.0
 10
175.0
 20
93.0
 30
0.0
 10
175.0
 20
59.0
 30
0.0
 10
156.0
 20
59.0
 30
0.0
  0
LWPOLYLINE
  5
99
  8
gumb
 62
256
370
-1
  6
BYLAYER
100
AcDbEntity
100
AcDbPolyline
 90
5
 70
0
 10
158.0
 20
61.0
 30
0.0
 10
158.0
 20
91.0
 30
0.0
 10
173.0
 20
91.0
 30
0.0
 10
173.0
 20
61.0
 30
0.0
 10
158.0
 20
61.0
 30
0.0
  0
LWPOLYLINE
  5
9A
  8
gumb_okvir
 62
256
370
-1
  6
BYLAYER
100
AcDbEntity
100
AcDbPolyline
 90
5
 70
0
 10
177.0
 20
59.0
 30
0.0
 10
177.0
 20
93.0
 30
0.0
 10
196.0
 20
93.0
 30
0.0
 10
196.0
 20
59.0
 30
0.0
 10
177.0
 20
59.0
 30
0.0
  0
LWPOLYLINE
  5
9B
  8
gumb
 62
256
370
-1
  6
BYLAYER
100
AcDbEntity
100
AcDbPolyline
 90
5
 70
0
 10
179.0
 20
61.0
 30
0.0
 10
179.0
 20
91.0
 30
0.0
 10
194.0
 20
91.0
 30
0.0
 10
194.0
 20
61.0
 30
0.0
 10
179.0
 20
61.0
 30
0.0
  0
LWPOLYLINE
  5
9C
  8
gumb_okvir
 62
256
370
-1
  6
BYLAYER
100
AcDbEntity
100
AcDbPolyline
 90
5
 70
0
 10
198.0
 20
59.0
 30
0.0
 10
198.0
 20
93.0
 30
0.0
 10
217.0
 20
93.0
 30
0.0
 10
217.0
 20
59.0
 30
0.0
 10
198.0
 20
59.0
 30
0.0
  0
LWPOLYLINE
  5
9D
  8
gumb
 62
256
370
-1
  6
BYLAYER
100
AcDbEntity
100
AcDbPolyline
 90
5
 70
0
 10
200.0
 20
61.0
 30
0.0
 10
200.0
 20
91.0
 30
0.0
 10
215.0
 20
91.0
 30
0.0
 10
215.0
 20
61.0
 30
0.0
 10
200.0
 20
61.0
 30
0.0
  0
LWPOLYLINE
  5
9E
  8
gumb_okvir
 62
256
370
-1
  6
BYLAYER
100
AcDbEntity
100
AcDbPolyline
 90
5
 70
0
 10
219.0
 20
59.0
 30
0.0
 10
219.0
 20
93.0
 30
0.0
 10
238.0
 20
93.0
 30
0.0
 10
238.0
 20
59.0
 30
0.0
 10
219.0
 20
59.0
 30
0.0
  0
LWPOLYLINE
  5
9F
  8
gumb
 62
256
370
-1
  6
BYLAYER
100
AcDbEntity
100
AcDbPolyline
 90
5
 70
0
 10
221.0
 20
61.0
 30
0.0
 10
221.0
 20
91.0
 30
0.0
 10
236.0
 20
91.0
 30
0.0
 10
236.0
 20
61.0
 30
0.0
 10
221.0
 20
61.0
 30
0.0
  0
LWPOLYLINE
  5
A0
  8
gumb_okvir
 62
256
370
-1
  6
BYLAYER
100
AcDbEntity
100
AcDbPolyline
 90
5
 70
0
 10
240.0
 20
59.0
 30
0.0
 10
240.0
 20
93.0
 30
0.0
 10
259.0
 20
93.0
 30
0.0
 10
259.0
 20
59.0
 30
0.0
 10
240.0
 20
59.0
 30
0.0
  0
LWPOLYLINE
  5
A1
  8
gumb
 62
256
370
-1
  6
BYLAYER
100
AcDbEntity
100
AcDbPolyline
 90
5
 70
0
 10
242.0
 20
61.0
 30
0.0
 10
242.0
 20
91.0
 30
0.0
 10
257.0
 20
91.0
 30
0.0
 10
257.0
 20
61.0
 30
0.0
 10
242.0
 20
61.0
 30
0.0
  0
LWPOLYLINE
  5
A2
  8
gumb_okvir
 62
256
370
-1
  6
BYLAYER
100
AcDbEntity
100
AcDbPolyline
 90
5
 70
0
 10
30.0
 20
95.0
 30
0.0
 10
30.0
 20
129.0
 30
0.0
 10
49.0
 20
129.0
 30
0.0
 10
49.0
 20
95.0
 30
0.0
 10
30.0
 20
95.0
 30
0.0
  0
LWPOLYLINE
  5
A3
  8
gumb
 62
256
370
-1
  6
BYLAYER
100
AcDbEntity
100
AcDbPolyline
 90
5
 70
0
 10
32.0
 20
97.0
 30
0.0
 10
32.0
 20
127.0
 30
0.0
 10
47.0
 20
127.0
 30
0.0
 10
47.0
 20
97.0
 30
0.0
 10
32.0
 20
97.0
 30
0.0
  0
LWPOLYLINE
  5
A4
  8
gumb_okvir
 62
256
370
-1
  6
BYLAYER
100
AcDbEntity
100
AcDbPolyline
 90
5
 70
0
 10
51.0
 20
95.0
 30
0.0
 10
51.0
 20
129.0
 30
0.0
 10
70.0
 20
129.0
 30
0.0
 10
70.0
 20
95.0
 30
0.0
 10
51.0
 20
95.0
 30
0.0
  0
LWPOLYLINE
  5
A5
  8
gumb
 62
256
370
-1
  6
BYLAYER
100
AcDbEntity
100
AcDbPolyline
 90
5
 70
0
 10
53.0
 20
97.0
 30
0.0
 10
53.0
 20
127.0
 30
0.0
 10
68.0
 20
127.0
 30
0.0
 10
68.0
 20
97.0
 30
0.0
 10
53.0
 20
97.0
 30
0.0
  0
LWPOLYLINE
  5
A6
  8
gumb_okvir
 62
256
370
-1
  6
BYLAYER
100
AcDbEntity
100
AcDbPolyline
 90
5
 70
0
 10
72.0
 20
95.0
 30
0.0
 10
72.0
 20
129.0
 30
0.0
 10
91.0
 20
129.0
 30
0.0
 10
91.0
 20
95.0
 30
0.0
 10
72.0
 20
95.0
 30
0.0
  0
LWPOLYLINE
  5
A7
  8
gumb
 62
256
370
-1
  6
BYLAYER
100
AcDbEntity
100
AcDbPolyline
 90
5
 70
0
 10
74.0
 20
97.0
 30
0.0
 10
74.0
 20
127.0
 30
0.0
 10
89.0
 20
127.0
 30
0.0
 10
89.0
 20
97.0
 30
0.0
 10
74.0
 20
97.0
 30
0.0
  0
LWPOLYLINE
  5
A8
  8
gumb_okvir
 62
256
370
-1
  6
BYLAYER
100
AcDbEntity
100
AcDbPolyline
 90
5
 70
0
 10
93.0
 20
95.0
 30
0.0
 10
93.0
 20
129.0
 30
0.0
 10
112.0
 20
129.0
 30
0.0
 10
112.0
 20
95.0
 30
0.0
 10
93.0
 20
95.0
 30
0.0
  0
LWPOLYLINE
  5
A9
  8
gumb
 62
256
370
-1
  6
BYLAYER
100
AcDbEntity
100
AcDbPolyline
 90
5
 70
0
 10
95.0
 20
97.0
 30
0.0
 10
95.0
 20
127.0
 30
0.0
 10
110.0
 20
127.0
 30
0.0
 10
110.0
 20
97.0
 30
0.0
 10
95.0
 20
97.0
 30
0.0
  0
LWPOLYLINE
  5
AA
  8
gumb_okvir
 62
256
370
-1
  6
BYLAYER
100
AcDbEntity
100
AcDbPolyline
 90
5
 70
0
 10
114.0
 20
95.0
 30
0.0
 10
114.0
 20
129.0
 30
0.0
 10
133.0
 20
129.0
 30
0.0
 10
133.0
 20
95.0
 30
0.0
 10
114.0
 20
95.0
 30
0.0
  0
LWPOLYLINE
  5
AB
  8
gumb
 62
256
370
-1
  6
BYLAYER
100
AcDbEntity
100
AcDbPolyline
 90
5
 70
0
 10
116.0
 20
97.0
 30
0.0
 10
116.0
 20
127.0
 30
0.0
 10
131.0
 20
127.0
 30
0.0
 10
131.0
 20
97.0
 30
0.0
 10
116.0
 20
97.0
 30
0.0
  0
LWPOLYLINE
  5
AC
  8
gumb_okvir
 62
256
370
-1
  6
BYLAYER
100
AcDbEntity
100
AcDbPolyline
 90
5
 70
0
 10
135.0
 20
95.0
 30
0.0
 10
135.0
 20
129.0
 30
0.0
 10
154.0
 20
129.0
 30
0.0
 10
154.0
 20
95.0
 30
0.0
 10
135.0
 20
95.0
 30
0.0
  0
LWPOLYLINE
  5
AD
  8
gumb
 62
256
370
-1
  6
BYLAYER
100
AcDbEntity
100
AcDbPolyline
 90
5
 70
0
 10
137.0
 20
97.0
 30
0.0
 10
137.0
 20
127.0
 30
0.0
 10
152.0
 20
127.0
 30
0.0
 10
152.0
 20
97.0
 30
0.0
 10
137.0
 20
97.0
 30
0.0
  0
LWPOLYLINE
  5
AE
  8
gumb_okvir
 62
256
370
-1
  6
BYLAYER
100
AcDbEntity
100
AcDbPolyline
 90
5
 70
0
 10
156.0
 20
95.0
 30
0.0
 10
156.0
 20
129.0
 30
0.0
 10
175.0
 20
129.0
 30
0.0
 10
175.0
 20
95.0
 30
0.0
 10
156.0
 20
95.0
 30
0.0
  0
LWPOLYLINE
  5
AF
  8
gumb
 62
256
370
-1
  6
BYLAYER
100
AcDbEntity
100
AcDbPolyline
 90
5
 70
0
 10
158.0
 20
97.0
 30
0.0
 10
158.0
 20
127.0
 30
0.0
 10
173.0
 20
127.0
 30
0.0
 10
173.0
 20
97.0
 30
0.0
 10
158.0
 20
97.0
 30
0.0
  0
LWPOLYLINE
  5
B0
  8
gumb_okvir
 62
256
370
-1
  6
BYLAYER
100
AcDbEntity
100
AcDbPolyline
 90
5
 70
0
 10
177.0
 20
95.0
 30
0.0
 10
177.0
 20
129.0
 30
0.0
 10
196.0
 20
129.0
 30
0.0
 10
196.0
 20
95.0
 30
0.0
 10
177.0
 20
95.0
 30
0.0
  0
LWPOLYLINE
  5
B1
  8
gumb
 62
256
370
-1
  6
BYLAYER
100
AcDbEntity
100
AcDbPolyline
 90
5
 70
0
 10
179.0
 20
97.0
 30
0.0
 10
179.0
 20
127.0
 30
0.0
 10
194.0
 20
127.0
 30
0.0
 10
194.0
 20
97.0
 30
0.0
 10
179.0
 20
97.0
 30
0.0
  0
LWPOLYLINE
  5
B2
  8
gumb_okvir
 62
256
370
-1
  6
BYLAYER
100
AcDbEntity
100
AcDbPolyline
 90
5
 70
0
 10
198.0
 20
95.0
 30
0.0
 10
198.0
 20
129.0
 30
0.0
 10
217.0
 20
129.0
 30
0.0
 10
217.0
 20
95.0
 30
0.0
 10
198.0
 20
95.0
 30
0.0
  0
LWPOLYLINE
  5
B3
  8
gumb
 62
256
370
-1
  6
BYLAYER
100
AcDbEntity
100
AcDbPolyline
 90
5
 70
0
 10
200.0
 20
97.0
 30
0.0
 10
200.0
 20
127.0
 30
0.0
 10
215.0
 20
127.0
 30
0.0
 10
215.0
 20
97.0
 30
0.0
 10
200.0
 20
97.0
 30
0.0
  0
LWPOLYLINE
  5
B4
  8
gumb_okvir
 62
256
370
-1
  6
BYLAYER
100
AcDbEntity
100
AcDbPolyline
 90
5
 70
0
 10
219.0
 20
95.0
 30
0.0
 10
219.0
 20
129.0
 30
0.0
 10
238.0
 20
129.0
 30
0.0
 10
238.0
 20
95.0
 30
0.0
 10
219.0
 20
95.0
 30
0.0
  0
LWPOLYLINE
  5
B5
  8
gumb
 62
256
370
-1
  6
BYLAYER
100
AcDbEntity
100
AcDbPolyline
 90
5
 70
0
 10
221.0
 20
97.0
 30
0.0
 10
221.0
 20
127.0
 30
0.0
 10
236.0
 20
127.0
 30
0.0
 10
236.0
 20
97.0
 30
0.0
 10
221.0
 20
97.0
 30
0.0
  0
LWPOLYLINE
  5
B6
  8
gumb_okvir
 62
256
370
-1
  6
BYLAYER
100
AcDbEntity
100
AcDbPolyline
 90
5
 70
0
 10
240.0
 20
95.0
 30
0.0
 10
240.0
 20
129.0
 30
0.0
 10
259.0
 20
129.0
 30
0.0
 10
259.0
 20
95.0
 30
0.0
 10
240.0
 20
95.0
 30
0.0
  0
LWPOLYLINE
  5
B7
  8
gumb
 62
256
370
-1
  6
BYLAYER
100
AcDbEntity
100
AcDbPolyline
 90
5
 70
0
 10
242.0
 20
97.0
 30
0.0
 10
242.0
 20
127.0
 30
0.0
 10
257.0
 20
127.0
 30
0.0
 10
257.0
 20
97.0
 30
0.0
 10
242.0
 20
97.0
 30
0.0
  0
LWPOLYLINE
  5
B8
  8
gumb_okvir
 62
256
370
-1
  6
BYLAYER
100
AcDbEntity
100
AcDbPolyline
 90
5
 70
0
 10
30.0
 20
131.0
 30
0.0
 10
30.0
 20
165.0
 30
0.0
 10
49.0
 20
165.0
 30
0.0
 10
49.0
 20
131.0
 30
0.0
 10
30.0
 20
131.0
 30
0.0
  0
LWPOLYLINE
  5
B9
  8
gumb
 62
256
370
-1
  6
BYLAYER
100
AcDbEntity
100
AcDbPolyline
 90
5
 70
0
 10
32.0
 20
133.0
 30
0.0
 10
32.0
 20
163.0
 30
0.0
 10
47.0
 20
163.0
 30
0.0
 10
47.0
 20
133.0
 30
0.0
 10
32.0
 20
133.0
 30
0.0
  0
LWPOLYLINE
  5
BA
  8
gumb_okvir
 62
256
370
-1
  6
BYLAYER
100
AcDbEntity
100
AcDbPolyline
 90
5
 70
0
 10
51.0
 20
131.0
 30
0.0
 10
51.0
 20
165.0
 30
0.0
 10
70.0
 20
165.0
 30
0.0
 10
70.0
 20
131.0
 30
0.0
 10
51.0
 20
131.0
 30
0.0
  0
LWPOLYLINE
  5
BB
  8
gumb
 62
256
370
-1
  6
BYLAYER
100
AcDbEntity
100
AcDbPolyline
 90
5
 70
0
 10
53.0
 20
133.0
 30
0.0
 10
53.0
 20
163.0
 30
0.0
 10
68.0
 20
163.0
 30
0.0
 10
68.0
 20
133.0
 30
0.0
 10
53.0
 20
133.0
 30
0.0
  0
LWPOLYLINE
  5
BC
  8
gumb_okvir
 62
256
370
-1
  6
BYLAYER
100
AcDbEntity
100
AcDbPolyline
 90
5
 70
0
 10
72.0
 20
131.0
 30
0.0
 10
72.0
 20
165.0
 30
0.0
 10
91.0
 20
165.0
 30
0.0
 10
91.0
 20
131.0
 30
0.0
 10
72.0
 20
131.0
 30
0.0
  0
LWPOLYLINE
  5
BD
  8
gumb
 62
256
370
-1
  6
BYLAYER
100
AcDbEntity
100
AcDbPolyline
 90
5
 70
0
 10
74.0
 20
133.0
 30
0.0
 10
74.0
 20
163.0
 30
0.0
 10
89.0
 20
163.0
 30
0.0
 10
89.0
 20
133.0
 30
0.0
 10
74.0
 20
133.0
 30
0.0
  0
LWPOLYLINE
  5
BE
  8
gumb_okvir
 62
256
370
-1
  6
BYLAYER
100
AcDbEntity
100
AcDbPolyline
 90
5
 70
0
 10
93.0
 20
131.0
 30
0.0
 10
93.0
 20
165.0
 30
0.0
 10
112.0
 20
165.0
 30
0.0
 10
112.0
 20
131.0
 30
0.0
 10
93.0
 20
131.0
 30
0.0
  0
LWPOLYLINE
  5
BF
  8
gumb
 62
256
370
-1
  6
BYLAYER
100
AcDbEntity
100
AcDbPolyline
 90
5
 70
0
 10
95.0
 20
133.0
 30
0.0
 10
95.0
 20
163.0
 30
0.0
 10
110.0
 20
163.0
 30
0.0
 10
110.0
 20
133.0
 30
0.0
 10
95.0
 20
133.0
 30
0.0
  0
LWPOLYLINE
  5
C0
  8
gumb_okvir
 62
256
370
-1
  6
BYLAYER
100
AcDbEntity
100
AcDbPolyline
 90
5
 70
0
 10
114.0
 20
131.0
 30
0.0
 10
114.0
 20
165.0
 30
0.0
 10
133.0
 20
165.0
 30
0.0
 10
133.0
 20
131.0
 30
0.0
 10
114.0
 20
131.0
 30
0.0
  0
LWPOLYLINE
  5
C1
  8
gumb
 62
256
370
-1
  6
BYLAYER
100
AcDbEntity
100
AcDbPolyline
 90
5
 70
0
 10
116.0
 20
133.0
 30
0.0
 10
116.0
 20
163.0
 30
0.0
 10
131.0
 20
163.0
 30
0.0
 10
131.0
 20
133.0
 30
0.0
 10
116.0
 20
133.0
 30
0.0
  0
LWPOLYLINE
  5
C2
  8
gumb_okvir
 62
256
370
-1
  6
BYLAYER
100
AcDbEntity
100
AcDbPolyline
 90
5
 70
0
 10
135.0
 20
131.0
 30
0.0
 10
135.0
 20
165.0
 30
0.0
 10
154.0
 20
165.0
 30
0.0
 10
154.0
 20
131.0
 30
0.0
 10
135.0
 20
131.0
 30
0.0
  0
LWPOLYLINE
  5
C3
  8
gumb
 62
256
370
-1
  6
BYLAYER
100
AcDbEntity
100
AcDbPolyline
 90
5
 70
0
 10
137.0
 20
133.0
 30
0.0
 10
137.0
 20
163.0
 30
0.0
 10
152.0
 20
163.0
 30
0.0
 10
152.0
 20
133.0
 30
0.0
 10
137.0
 20
133.0
 30
0.0
  0
LWPOLYLINE
  5
C4
  8
gumb_okvir
 62
256
370
-1
  6
BYLAYER
100
AcDbEntity
100
AcDbPolyline
 90
5
 70
0
 10
156.0
 20
131.0
 30
0.0
 10
156.0
 20
165.0
 30
0.0
 10
175.0
 20
165.0
 30
0.0
 10
175.0
 20
131.0
 30
0.0
 10
156.0
 20
131.0
 30
0.0
  0
LWPOLYLINE
  5
C5
  8
gumb
 62
256
370
-1
  6
BYLAYER
100
AcDbEntity
100
AcDbPolyline
 90
5
 70
0
 10
158.0
 20
133.0
 30
0.0
 10
158.0
 20
163.0
 30
0.0
 10
173.0
 20
163.0
 30
0.0
 10
173.0
 20
133.0
 30
0.0
 10
158.0
 20
133.0
 30
0.0
  0
LWPOLYLINE
  5
C6
  8
gumb_okvir
 62
256
370
-1
  6
BYLAYER
100
AcDbEntity
100
AcDbPolyline
 90
5
 70
0
 10
177.0
 20
131.0
 30
0.0
 10
177.0
 20
165.0
 30
0.0
 10
196.0
 20
165.0
 30
0.0
 10
196.0
 20
131.0
 30
0.0
 10
177.0
 20
131.0
 30
0.0
  0
LWPOLYLINE
  5
C7
  8
gumb
 62
256
370
-1
  6
BYLAYER
100
AcDbEntity
100
AcDbPolyline
 90
5
 70
0
 10
179.0
 20
133.0
 30
0.0
 10
179.0
 20
163.0
 30
0.0
 10
194.0
 20
163.0
 30
0.0
 10
194.0
 20
133.0
 30
0.0
 10
179.0
 20
133.0
 30
0.0
  0
LWPOLYLINE
  5
C8
  8
gumb_okvir
 62
256
370
-1
  6
BYLAYER
100
AcDbEntity
100
AcDbPolyline
 90
5
 70
0
 10
198.0
 20
131.0
 30
0.0
 10
198.0
 20
165.0
 30
0.0
 10
217.0
 20
165.0
 30
0.0
 10
217.0
 20
131.0
 30
0.0
 10
198.0
 20
131.0
 30
0.0
  0
LWPOLYLINE
  5
C9
  8
gumb
 62
256
370
-1
  6
BYLAYER
100
AcDbEntity
100
AcDbPolyline
 90
5
 70
0
 10
200.0
 20
133.0
 30
0.0
 10
200.0
 20
163.0
 30
0.0
 10
215.0
 20
163.0
 30
0.0
 10
215.0
 20
133.0
 30
0.0
 10
200.0
 20
133.0
 30
0.0
  0
LWPOLYLINE
  5
CA
  8
gumb_okvir
 62
256
370
-1
  6
BYLAYER
100
AcDbEntity
100
AcDbPolyline
 90
5
 70
0
 10
219.0
 20
131.0
 30
0.0
 10
219.0
 20
165.0
 30
0.0
 10
238.0
 20
165.0
 30
0.0
 10
238.0
 20
131.0
 30
0.0
 10
219.0
 20
131.0
 30
0.0
  0
LWPOLYLINE
  5
CB
  8
gumb
 62
256
370
-1
  6
BYLAYER
100
AcDbEntity
100
AcDbPolyline
 90
5
 70
0
 10
221.0
 20
133.0
 30
0.0
 10
221.0
 20
163.0
 30
0.0
 10
236.0
 20
163.0
 30
0.0
 10
236.0
 20
133.0
 30
0.0
 10
221.0
 20
133.0
 30
0.0
  0
LWPOLYLINE
  5
CC
  8
gumb_okvir
 62
256
370
-1
  6
BYLAYER
100
AcDbEntity
100
AcDbPolyline
 90
5
 70
0
 10
240.0
 20
131.0
 30
0.0
 10
240.0
 20
165.0
 30
0.0
 10
259.0
 20
165.0
 30
0.0
 10
259.0
 20
131.0
 30
0.0
 10
240.0
 20
131.0
 30
0.0
  0
LWPOLYLINE
  5
CD
  8
gumb
 62
256
370
-1
  6
BYLAYER
100
AcDbEntity
100
AcDbPolyline
 90
5
 70
0
 10
242.0
 20
133.0
 30
0.0
 10
242.0
 20
163.0
 30
0.0
 10
257.0
 20
163.0
 30
0.0
 10
257.0
 20
133.0
 30
0.0
 10
242.0
 20
133.0
 30
0.0
  0
LWPOLYLINE
  5
CE
  8
gumb_okvir
 62
256
370
-1
  6
BYLAYER
100
AcDbEntity
100
AcDbPolyline
 90
5
 70
0
 10
30.0
 20
167.0
 30
0.0
 10
30.0
 20
201.0
 30
0.0
 10
49.0
 20
201.0
 30
0.0
 10
49.0
 20
167.0
 30
0.0
 10
30.0
 20
167.0
 30
0.0
  0
LWPOLYLINE
  5
CF
  8
gumb
 62
256
370
-1
  6
BYLAYER
100
AcDbEntity
100
AcDbPolyline
 90
5
 70
0
 10
32.0
 20
169.0
 30
0.0
 10
32.0
 20
199.0
 30
0.0
 10
47.0
 20
199.0
 30
0.0
 10
47.0
 20
169.0
 30
0.0
 10
32.0
 20
169.0
 30
0.0
  0
LWPOLYLINE
  5
D0
  8
gumb_okvir
 62
256
370
-1
  6
BYLAYER
100
AcDbEntity
100
AcDbPolyline
 90
5
 70
0
 10
51.0
 20
167.0
 30
0.0
 10
51.0
 20
201.0
 30
0.0
 10
70.0
 20
201.0
 30
0.0
 10
70.0
 20
167.0
 30
0.0
 10
51.0
 20
167.0
 30
0.0
  0
LWPOLYLINE
  5
D1
  8
gumb
 62
256
370
-1
  6
BYLAYER
100
AcDbEntity
100
AcDbPolyline
 90
5
 70
0
 10
53.0
 20
169.0
 30
0.0
 10
53.0
 20
199.0
 30
0.0
 10
68.0
 20
199.0
 30
0.0
 10
68.0
 20
169.0
 30
0.0
 10
53.0
 20
169.0
 30
0.0
  0
LWPOLYLINE
  5
D2
  8
gumb_okvir
 62
256
370
-1
  6
BYLAYER
100
AcDbEntity
100
AcDbPolyline
 90
5
 70
0
 10
72.0
 20
167.0
 30
0.0
 10
72.0
 20
201.0
 30
0.0
 10
91.0
 20
201.0
 30
0.0
 10
91.0
 20
167.0
 30
0.0
 10
72.0
 20
167.0
 30
0.0
  0
LWPOLYLINE
  5
D3
  8
gumb
 62
256
370
-1
  6
BYLAYER
100
AcDbEntity
100
AcDbPolyline
 90
5
 70
0
 10
74.0
 20
169.0
 30
0.0
 10
74.0
 20
199.0
 30
0.0
 10
89.0
 20
199.0
 30
0.0
 10
89.0
 20
169.0
 30
0.0
 10
74.0
 20
169.0
 30
0.0
  0
LWPOLYLINE
  5
D4
  8
gumb_okvir
 62
256
370
-1
  6
BYLAYER
100
AcDbEntity
100
AcDbPolyline
 90
5
 70
0
 10
93.0
 20
167.0
 30
0.0
 10
93.0
 20
201.0
 30
0.0
 10
112.0
 20
201.0
 30
0.0
 10
112.0
 20
167.0
 30
0.0
 10
93.0
 20
167.0
 30
0.0
  0
LWPOLYLINE
  5
D5
  8
gumb
 62
256
370
-1
  6
BYLAYER
100
AcDbEntity
100
AcDbPolyline
 90
5
 70
0
 10
95.0
 20
169.0
 30
0.0
 10
95.0
 20
199.0
 30
0.0
 10
110.0
 20
199.0
 30
0.0
 10
110.0
 20
169.0
 30
0.0
 10
95.0
 20
169.0
 30
0.0
  0
LWPOLYLINE
  5
D6
  8
gumb_okvir
 62
256
370
-1
  6
BYLAYER
100
AcDbEntity
100
AcDbPolyline
 90
5
 70
0
 10
114.0
 20
167.0
 30
0.0
 10
114.0
 20
201.0
 30
0.0
 10
133.0
 20
201.0
 30
0.0
 10
133.0
 20
167.0
 30
0.0
 10
114.0
 20
167.0
 30
0.0
  0
LWPOLYLINE
  5
D7
  8
gumb
 62
256
370
-1
  6
BYLAYER
100
AcDbEntity
100
AcDbPolyline
 90
5
 70
0
 10
116.0
 20
169.0
 30
0.0
 10
116.0
 20
199.0
 30
0.0
 10
131.0
 20
199.0
 30
0.0
 10
131.0
 20
169.0
 30
0.0
 10
116.0
 20
169.0
 30
0.0
  0
LWPOLYLINE
  5
D8
  8
gumb_okvir
 62
256
370
-1
  6
BYLAYER
100
AcDbEntity
100
AcDbPolyline
 90
5
 70
0
 10
135.0
 20
167.0
 30
0.0
 10
135.0
 20
201.0
 30
0.0
 10
154.0
 20
201.0
 30
0.0
 10
154.0
 20
167.0
 30
0.0
 10
135.0
 20
167.0
 30
0.0
  0
LWPOLYLINE
  5
D9
  8
gumb
 62
256
370
-1
  6
BYLAYER
100
AcDbEntity
100
AcDbPolyline
 90
5
 70
0
 10
137.0
 20
169.0
 30
0.0
 10
137.0
 20
199.0
 30
0.0
 10
152.0
 20
199.0
 30
0.0
 10
152.0
 20
169.0
 30
0.0
 10
137.0
 20
169.0
 30
0.0
  0
LWPOLYLINE
  5
DA
  8
gumb_okvir
 62
256
370
-1
  6
BYLAYER
100
AcDbEntity
100
AcDbPolyline
 90
5
 70
0
 10
156.0
 20
167.0
 30
0.0
 10
156.0
 20
201.0
 30
0.0
 10
175.0
 20
201.0
 30
0.0
 10
175.0
 20
167.0
 30
0.0
 10
156.0
 20
167.0
 30
0.0
  0
LWPOLYLINE
  5
DB
  8
gumb
 62
256
370
-1
  6
BYLAYER
100
AcDbEntity
100
AcDbPolyline
 90
5
 70
0
 10
158.0
 20
169.0
 30
0.0
 10
158.0
 20
199.0
 30
0.0
 10
173.0
 20
199.0
 30
0.0
 10
173.0
 20
169.0
 30
0.0
 10
158.0
 20
169.0
 30
0.0
  0
LWPOLYLINE
  5
DC
  8
gumb_okvir
 62
256
370
-1
  6
BYLAYER
100
AcDbEntity
100
AcDbPolyline
 90
5
 70
0
 10
177.0
 20
167.0
 30
0.0
 10
177.0
 20
201.0
 30
0.0
 10
196.0
 20
201.0
 30
0.0
 10
196.0
 20
167.0
 30
0.0
 10
177.0
 20
167.0
 30
0.0
  0
LWPOLYLINE
  5
DD
  8
gumb
 62
256
370
-1
  6
BYLAYER
100
AcDbEntity
100
AcDbPolyline
 90
5
 70
0
 10
179.0
 20
169.0
 30
0.0
 10
179.0
 20
199.0
 30
0.0
 10
194.0
 20
199.0
 30
0.0
 10
194.0
 20
169.0
 30
0.0
 10
179.0
 20
169.0
 30
0.0
  0
LWPOLYLINE
  5
DE
  8
gumb_okvir
 62
256
370
-1
  6
BYLAYER
100
AcDbEntity
100
AcDbPolyline
 90
5
 70
0
 10
198.0
 20
167.0
 30
0.0
 10
198.0
 20
201.0
 30
0.0
 10
217.0
 20
201.0
 30
0.0
 10
217.0
 20
167.0
 30
0.0
 10
198.0
 20
167.0
 30
0.0
  0
LWPOLYLINE
  5
DF
  8
gumb
 62
256
370
-1
  6
BYLAYER
100
AcDbEntity
100
AcDbPolyline
 90
5
 70
0
 10
200.0
 20
169.0
 30
0.0
 10
200.0
 20
199.0
 30
0.0
 10
215.0
 20
199.0
 30
0.0
 10
215.0
 20
169.0
 30
0.0
 10
200.0
 20
169.0
 30
0.0
  0
LWPOLYLINE
  5
E0
  8
gumb_okvir
 62
256
370
-1
  6
BYLAYER
100
AcDbEntity
100
AcDbPolyline
 90
5
 70
0
 10
219.0
 20
167.0
 30
0.0
 10
219.0
 20
201.0
 30
0.0
 10
238.0
 20
201.0
 30
0.0
 10
238.0
 20
167.0
 30
0.0
 10
219.0
 20
167.0
 30
0.0
  0
LWPOLYLINE
  5
E1
  8
gumb
 62
256
370
-1
  6
BYLAYER
100
AcDbEntity
100
AcDbPolyline
 90
5
 70
0
 10
221.0
 20
169.0
 30
0.0
 10
221.0
 20
199.0
 30
0.0
 10
236.0
 20
199.0
 30
0.0
 10
236.0
 20
169.0
 30
0.0
 10
221.0
 20
169.0
 30
0.0
  0
LWPOLYLINE
  5
E2
  8
gumb_okvir
 62
256
370
-1
  6
BYLAYER
100
AcDbEntity
100
AcDbPolyline
 90
5
 70
0
 10
240.0
 20
167.0
 30
0.0
 10
240.0
 20
201.0
 30
0.0
 10
259.0
 20
201.0
 30
0.0
 10
259.0
 20
167.0
 30
0.0
 10
240.0
 20
167.0
 30
0.0
  0
LWPOLYLINE
  5
E3
  8
gumb
 62
256
370
-1
  6
BYLAYER
100
AcDbEntity
100
AcDbPolyline
 90
5
 70
0
 10
242.0
 20
169.0
 30
0.0
 10
242.0
 20
199.0
 30
0.0
 10
257.0
 20
199.0
 30
0.0
 10
257.0
 20
169.0
 30
0.0
 10
242.0
 20
169.0
 30
0.0
  0
CIRCLE
  5
E4
100
AcDbEntity
100
AcDbCircle
  8
gumb
 62
256
370
-1
  6
BYLAYER
 10
20.0
 20
201.0
 30
0.0
 40
1.0
  0
CIRCLE
  5
E5
100
AcDbEntity
100
AcDbCircle
  8
gumb
 62
256
370
-1
  6
BYLAYER
 10
269.0
 20
201.0
 30
0.0
 40
1.0
  0
ENDSEC
  0
SECTION
  2
OBJECTS
  0
DICTIONARY
  5
C
100
AcDbDictionary
280
0
281
1
  3
ACAD_GROUP
350
D
  3
ACAD_LAYOUT
350
1A
  3
ACAD_MLINESTYLE
350
17
  3
ACAD_PLOTSETTINGS
350
19
  3
ACAD_PLOTSTYLENAME
350
E
  3
AcDbVariableDictionary
350
E6
  3
QCAD_OBJECTS
350
E7
  0
DICTIONARY
  5
D
100
AcDbDictionary
280
0
281
1
  0
ACDBDICTIONARYWDFLT
  5
E
100
AcDbDictionary
281
1
  3
Normal
350
F
100
AcDbDictionaryWithDefault
340
F
  0
ACDBPLACEHOLDER
  5
F
  0
DICTIONARY
  5
17
100
AcDbDictionary
280
0
281
1
  3
Standard
350
18
  0
MLINESTYLE
  5
18
100
AcDbMlineStyle
  2
STANDARD
 70
0
  3

 62
256
 51
90.0
 52
90.0
 71
2
 49
0.5
 62
256
  6
BYLAYER
 49
-0.5
 62
256
  6
BYLAYER
  0
DICTIONARY
  5
19
100
AcDbDictionary
280
0
281
1
  0
DICTIONARY
  5
1A
100
AcDbDictionary
281
1
  3
Layout1
350
1E
  3
Layout2
350
26
  3
Model
350
22
  0
LAYOUT
  5
1E
100
AcDbPlotSettings
  1

  2
none_device
  4

  6

 40
0.0
 41
0.0
 42
0.0
 43
0.0
 44
0.0
 45
0.0
 46
0.0
 47
0.0
 48
0.0
 49
0.0
140
0.0
141
0.0
142
1.0
143
1.0
 70
688
 72
0
 73
0
 74
5
  7

 75
16
147
1.0
148
0.0
149
0.0
100
AcDbLayout
  1
Layout1
 70
1
 71
1
 10
0.0
 20
0.0
 11
420.0
 21
297.0
 12
0.0
 22
0.0
 32
0.0
 14
100000000000000000000.0
 24
100000000000000000000.0
 34
100000000000000000000.0
 15
-100000000000000000000.0
 25
-100000000000000000000.0
 35
-100000000000000000000.0
146
0.0
 13
0.0
 23
0.0
 33
0.0
 16
1.0
 26
0.0
 36
0.0
 17
0.0
 27
1.0
 37
0.0
 76
0
330
1B
  0
LAYOUT
  5
22
100
AcDbPlotSettings
  1

  2
none_device
  4

  6

 40
0.0
 41
0.0
 42
0.0
 43
0.0
 44
0.0
 45
0.0
 46
0.0
 47
0.0
 48
0.0
 49
0.0
140
0.0
141
0.0
142
1.0
143
1.0
 70
1712
 72
0
 73
0
 74
0
  7

 75
0
147
1.0
148
0.0
149
0.0
100
AcDbLayout
  1
Model
 70
1
 71
0
 10
0.0
 20
0.0
 11
12.0
 21
9.0
 12
0.0
 22
0.0
 32
0.0
 14
0.0
 24
0.0
 34
0.0
 15
0.0
 25
0.0
 35
0.0
146
0.0
 13
0.0
 23
0.0
 33
0.0
 16
1.0
 26
0.0
 36
0.0
 17
0.0
 27
1.0
 37
0.0
 76
0
330
1F
  0
LAYOUT
  5
26
100
AcDbPlotSettings
  1

  2
none_device
  4

  6

 40
0.0
 41
0.0
 42
0.0
 43
0.0
 44
0.0
 45
0.0
 46
0.0
 47
0.0
 48
0.0
 49
0.0
140
0.0
141
0.0
142
1.0
143
1.0
 70
688
 72
0
 73
0
 74
5
  7

 75
16
147
1.0
148
0.0
149
0.0
100
AcDbLayout
  1
Layout2
 70
1
 71
2
 10
0.0
 20
0.0
 11
12.0
 21
9.0
 12
0.0
 22
0.0
 32
0.0
 14
0.0
 24
0.0
 34
0.0
 15
0.0
 25
0.0
 35
0.0
146
0.0
 13
0.0
 23
0.0
 33
0.0
 16
1.0
 26
0.0
 36
0.0
 17
0.0
 27
1.0
 37
0.0
 76
0
330
23
  0
DICTIONARY
  5
E6
100
AcDbDictionary
281
1
  3
DIMASSOC
350
E9
  3
HIDETEXT
350
E8
  0
DICTIONARYVAR
  5
E8
100
DictionaryVariables
280
0
  1
2
  0
DICTIONARYVAR
  5
E9
100
DictionaryVariables
280
0
  1
1
  0
DICTIONARY
  5
E7
100
AcDbDictionary
281
1
  3
Grid/DisplayGrid00
350
EA
  3
Grid/DisplayGrid01
350
EB
  3
Grid/DisplayGrid02
350
EC
  3
Grid/DisplayGrid03
350
ED
  3
Grid/GridSpacingX00
350
EE
  3
Grid/GridSpacingX01
350
EF
  3
Grid/GridSpacingX02
350
F0
  3
Grid/GridSpacingX03
350
F1
  3
Grid/GridSpacingY00
350
F2
  3
Grid/GridSpacingY01
350
F3
  3
Grid/GridSpacingY02
350
F4
  3
Grid/GridSpacingY03
350
F5
  3
Grid/IsometricGrid00
350
F6
  3
Grid/IsometricGrid01
350
F7
  3
Grid/IsometricGrid02
350
F8
  3
Grid/IsometricGrid03
350
F9
  3
Grid/IsometricProjection00
350
FA
  3
Grid/IsometricProjection01
350
FB
  3
Grid/IsometricProjection02
350
FC
  3
Grid/IsometricProjection03
350
FD
  3
Grid/MetaGridSpacingX00
350
FE
  3
Grid/MetaGridSpacingX01
350
FF
  3
Grid/MetaGridSpacingX02
350
100
  3
Grid/MetaGridSpacingX03
350
101
  3
Grid/MetaGridSpacingY00
350
102
  3
Grid/MetaGridSpacingY01
350
103
  3
Grid/MetaGridSpacingY02
350
104
  3
Grid/MetaGridSpacingY03
350
105
  3
MultiPageSettings/Columns
350
106
  3
MultiPageSettings/GlueMarginsBottom
350
107
  3
MultiPageSettings/GlueMarginsLeft
350
108
  3
MultiPageSettings/GlueMarginsRight
350
109
  3
MultiPageSettings/GlueMarginsTop
350
10A
  3
MultiPageSettings/PrintCropMarks
350
10B
  3
MultiPageSettings/Rows
350
10C
  3
PageSettings/OffsetX
350
10D
  3
PageSettings/OffsetY
350
10E
  3
PageSettings/PageOrientation
350
10F
  3
PageSettings/PaperHeight
350
110
  3
PageSettings/PaperWidth
350
111
  3
PageSettings/Scale
350
112
  3
PageSettings/ShowPaperBorders
350
113
  3
UnitSettings/PaperUnit
350
114
  0
XRECORD
  5
EA
330
E7
100
AcDbXrecord
280
1
290
1
  0
XRECORD
  5
EB
330
E7
100
AcDbXrecord
280
1
290
1
  0
XRECORD
  5
EC
330
E7
100
AcDbXrecord
280
1
290
1
  0
XRECORD
  5
ED
330
E7
100
AcDbXrecord
280
1
290
1
  0
XRECORD
  5
EE
330
E7
100
AcDbXrecord
280
1
1000
auto
  0
XRECORD
  5
EF
330
E7
100
AcDbXrecord
280
1
1000
auto
  0
XRECORD
  5
F0
330
E7
100
AcDbXrecord
280
1
1000
auto
  0
XRECORD
  5
F1
330
E7
100
AcDbXrecord
280
1
1000
auto
  0
XRECORD
  5
F2
330
E7
100
AcDbXrecord
280
1
1000
auto
  0
XRECORD
  5
F3
330
E7
100
AcDbXrecord
280
1
1000
auto
  0
XRECORD
  5
F4
330
E7
100
AcDbXrecord
280
1
1000
auto
  0
XRECORD
  5
F5
330
E7
100
AcDbXrecord
280
1
1000
auto
  0
XRECORD
  5
F6
330
E7
100
AcDbXrecord
280
1
290
0
  0
XRECORD
  5
F7
330
E7
100
AcDbXrecord
280
1
290
0
  0
XRECORD
  5
F8
330
E7
100
AcDbXrecord
280
1
290
0
  0
XRECORD
  5
F9
330
E7
100
AcDbXrecord
280
1
290
0
  0
XRECORD
  5
FA
330
E7
100
AcDbXrecord
280
1
 90
0
  0
XRECORD
  5
FB
330
E7
100
AcDbXrecord
280
1
 90
0
  0
XRECORD
  5
FC
330
E7
100
AcDbXrecord
280
1
 90
0
  0
XRECORD
  5
FD
330
E7
100
AcDbXrecord
280
1
 90
0
  0
XRECORD
  5
FE
330
E7
100
AcDbXrecord
280
1
1000
auto
  0
XRECORD
  5
FF
330
E7
100
AcDbXrecord
280
1
1000
auto
  0
XRECORD
  5
100
330
E7
100
AcDbXrecord
280
1
1000
auto
  0
XRECORD
  5
101
330
E7
100
AcDbXrecord
280
1
1000
auto
  0
XRECORD
  5
102
330
E7
100
AcDbXrecord
280
1
1000
auto
  0
XRECORD
  5
103
330
E7
100
AcDbXrecord
280
1
1000
auto
  0
XRECORD
  5
104
330
E7
100
AcDbXrecord
280
1
1000
auto
  0
XRECORD
  5
105
330
E7
100
AcDbXrecord
280
1
1000
auto
  0
XRECORD
  5
106
330
E7
100
AcDbXrecord
280
1
 90
1
  0
XRECORD
  5
107
330
E7
100
AcDbXrecord
280
1
 40
10.0
  0
XRECORD
  5
108
330
E7
100
AcDbXrecord
280
1
 40
10.0
  0
XRECORD
  5
109
330
E7
100
AcDbXrecord
280
1
 40
10.0
  0
XRECORD
  5
10A
330
E7
100
AcDbXrecord
280
1
 40
10.0
  0
XRECORD
  5
10B
330
E7
100
AcDbXrecord
280
1
290
0
  0
XRECORD
  5
10C
330
E7
100
AcDbXrecord
280
1
 90
1
  0
XRECORD
  5
10D
330
E7
100
AcDbXrecord
280
1
 40
0.0
  0
XRECORD
  5
10E
330
E7
100
AcDbXrecord
280
1
 40
0.0
  0
XRECORD
  5
10F
330
E7
100
AcDbXrecord
280
1
1000
Portrait
  0
XRECORD
  5
110
330
E7
100
AcDbXrecord
280
1
 40
297.0
  0
XRECORD
  5
111
330
E7
100
AcDbXrecord
280
1
 40
210.0
  0
XRECORD
  5
112
330
E7
100
AcDbXrecord
280
1
1000
1:1
  0
XRECORD
  5
113
330
E7
100
AcDbXrecord
280
1
290
1
  0
XRECORD
  5
114
330
E7
100
AcDbXrecord
280
1
 90
4
  0
ENDSEC
  0
EOF
